<svg width="40" height="41" viewBox="0 0 40 41" fill="none" xmlns="http://www.w3.org/2000/svg">
<path d="M14.7111 34.3911H22.2579C23.9347 33.2055 25.0323 31.2554 25.0323 29.0457V23.8157H11.9367V29.0457C11.9367 31.2554 13.0347 33.2055 14.7111 34.3911Z" fill="#F4F4F4"/>
<path d="M13.7005 29.0458V23.8158H11.9367V29.0458C11.9367 31.2554 13.0347 33.2057 14.7111 34.3913H16.4748C14.7985 33.2055 13.7005 31.2554 13.7005 29.0458Z" fill="#F9F9F9"/>
<path d="M20.2717 30.8344C18.9473 32.1593 17.1135 32.474 16.1768 31.5375C15.2411 30.6007 15.5552 28.7675 16.8804 27.4427C18.2048 26.1179 20.0379 25.8031 20.9748 26.7397C21.9115 27.6765 21.5968 29.5099 20.2717 30.8344Z" fill="#AA6148"/>
<path d="M17.5559 28.0627C18.6984 26.9202 20.2172 26.5313 21.2149 27.0458C21.1448 26.9327 21.0657 26.8255 20.97 26.7298C20.0329 25.7933 18.2 26.1079 16.8755 27.4327C15.5503 28.7575 15.2361 30.5907 16.172 31.5275C16.2999 31.6542 16.4469 31.7602 16.6075 31.8415C15.9945 30.8491 16.3661 29.2521 17.5559 28.0627Z" fill="#BC715C"/>
<path d="M16.5552 31.6967C16.2501 31.6967 15.9985 31.453 15.9891 31.1446C15.9796 30.8301 16.2249 30.5674 16.5383 30.5575L16.6111 30.5551C17.5371 30.5274 17.9595 30.515 18.1303 28.9774C18.3595 26.9079 19.8807 26.5091 20.6531 26.5902C20.9649 26.6221 21.1916 26.9018 21.1601 27.215C21.1454 27.3641 21.0723 27.5013 20.9568 27.5968C20.8413 27.6922 20.6928 27.7381 20.5436 27.7245C20.3545 27.7097 19.4109 27.7099 19.2561 29.1037C18.9767 31.6245 17.6285 31.6646 16.6444 31.6943L16.5728 31.6965C16.5669 31.6967 16.5611 31.6967 16.5552 31.6967Z" fill="#BC715C"/>
<path d="M13.2697 36.796H26.4845C27.8124 36.796 28.8892 35.7194 28.8892 34.3911H10.8647C10.8647 35.7195 11.9415 36.796 13.2697 36.796Z" fill="#F4F4F4"/>
<path d="M13.2403 34.3911H10.8647C10.8647 35.7194 11.9415 36.796 13.2697 36.796H15.6453C14.3171 36.796 13.2403 35.7195 13.2403 34.3911Z" fill="#F9F9F9"/>
<path d="M27.074 24.7601H25.0323V25.93H27.074C27.2993 25.9302 27.5159 26.0171 27.6791 26.1725C27.8422 26.328 27.9393 26.5401 27.9504 26.7652L27.3099 30.6317C27.3044 30.6633 27.3016 30.6952 27.3016 30.7272C27.3013 30.9598 27.2088 31.1827 27.0444 31.3472C26.8799 31.5117 26.657 31.6042 26.4244 31.6045H24.5087C24.334 32.0155 24.1177 32.4075 23.8631 32.7744H26.4244C27.5357 32.7744 28.4429 31.884 28.4708 30.7793L29.1133 26.9031C29.1184 26.8713 29.1212 26.8395 29.1212 26.8075C29.1212 25.6784 28.2027 24.7601 27.074 24.7601Z" fill="#F4F4F4"/>
<path d="M14.9536 6.56018C10.9229 6.56018 7.6548 9.82818 7.6548 13.8588V21.5242L10.3768 19.5403C11.6288 20.5506 13.2193 21.1576 14.9536 21.1576C18.9847 21.1576 22.2524 17.89 22.2524 13.8588C22.2524 9.82818 18.9847 6.56018 14.9536 6.56018Z" fill="#9AE8CE"/>
<path d="M9.31787 13.8589C9.31787 10.1097 12.1465 7.02406 15.7851 6.61086C15.5119 6.57979 15.2351 6.56006 14.9536 6.56006C10.9229 6.56006 7.6548 9.82806 7.6548 13.8587V21.5241L9.31773 20.3121L9.31787 13.8589Z" fill="#AEF4DB"/>
<path d="M25.0323 4.54443C22.5095 4.54443 20.2859 5.8247 18.9752 7.77057C20.9488 9.0771 22.2524 11.3148 22.2524 13.8588C22.2546 15.3099 21.8222 16.7283 21.0111 17.9315C22.203 18.7223 23.6019 19.1433 25.0323 19.1419C26.7665 19.1419 28.3571 18.5348 29.6089 17.5246L32.3309 19.5084V11.8431C32.3309 7.81243 29.0629 4.54443 25.0323 4.54443ZM10.8647 13.4711H12.0068V14.6134H10.8647V13.4711ZM14.3824 13.4711H15.5249V14.6134H14.3824V13.4711ZM17.9135 13.4711H19.0556V14.6134H17.9135V13.4711Z" fill="#F4F4F4"/>
<path d="M24.4543 11.4553H25.5964V12.5976H24.4543V11.4553ZM27.9853 11.4553H29.1279V12.5976H27.9853V11.4553Z" fill="#9AE8CE"/>
<path d="M22.2649 34.9959H14.7181C14.5931 34.9958 14.4711 34.957 14.3689 34.8848C12.4719 33.5431 11.3392 31.3603 11.3392 29.0457V23.8157C11.3392 23.6554 11.4029 23.5016 11.5163 23.3882C11.6297 23.2748 11.7835 23.2111 11.9439 23.2111H25.0392C25.1996 23.2111 25.3534 23.2748 25.4668 23.3882C25.5802 23.5016 25.6439 23.6554 25.6439 23.8157V29.0457C25.6439 31.3605 24.5112 33.5433 22.614 34.8848C22.5119 34.9571 22.39 34.9959 22.2649 34.9959ZM14.9156 33.7864H22.0677C23.5532 32.6641 24.4347 30.9059 24.4347 29.0457V24.4204H12.5487V29.0457C12.5487 30.9057 13.43 32.664 14.9156 33.7864Z" fill="#161616"/>
<path d="M26.4917 37.4007H25.2649C25.1046 37.4007 24.9508 37.337 24.8374 37.2236C24.724 37.1102 24.6603 36.9564 24.6603 36.796C24.6603 36.6356 24.724 36.4818 24.8374 36.3684C24.9508 36.255 25.1046 36.1913 25.2649 36.1913H26.4917C27.272 36.1913 27.9381 35.692 28.1873 34.9959H11.5809C11.83 35.692 12.4961 36.1913 13.2768 36.1913H22.4752C22.6356 36.1913 22.7894 36.255 22.9028 36.3684C23.0162 36.4818 23.0799 36.6356 23.0799 36.796C23.0799 36.9564 23.0162 37.1102 22.9028 37.2236C22.7894 37.337 22.6356 37.4007 22.4752 37.4007H13.2768C11.6172 37.4007 10.2669 36.0505 10.2669 34.3911C10.2669 34.2307 10.3306 34.0769 10.444 33.9635C10.5574 33.8501 10.7112 33.7864 10.8716 33.7864H28.8963C29.0566 33.7864 29.2104 33.8501 29.3238 33.9635C29.4372 34.0769 29.5009 34.2307 29.5009 34.3911C29.5011 36.0505 28.1511 37.4007 26.4917 37.4007ZM27.0811 24.7601H25.0393V25.93H27.0811C27.3064 25.9303 27.523 26.0171 27.6861 26.1726C27.8492 26.328 27.9463 26.5402 27.9575 26.7652L27.3169 30.6317C27.3115 30.6633 27.3087 30.6952 27.3087 30.7272C27.3087 31.2109 26.9151 31.6045 26.4316 31.6045H24.5159C24.3412 32.0155 24.1248 32.4076 23.8701 32.7744H26.4316C27.5429 32.7744 28.4501 31.884 28.478 30.7793L29.1205 26.9031C29.1256 26.8713 29.1284 26.8395 29.1284 26.8075C29.1283 25.6784 28.2097 24.7601 27.0811 24.7601ZM7.66201 22.1288C7.50163 22.1288 7.34781 22.0651 7.23439 21.9517C7.12098 21.8383 7.05724 21.6845 7.05721 21.5241V13.8588C7.05721 12.0435 7.6596 10.3343 8.79894 8.91559C8.84868 8.85368 8.91013 8.80218 8.97978 8.76403C9.04943 8.72587 9.12591 8.70181 9.20486 8.69321C9.28381 8.68461 9.36368 8.69164 9.43991 8.71391C9.51614 8.73618 9.58723 8.77324 9.64914 8.82299C9.71104 8.87273 9.76254 8.93418 9.8007 9.00383C9.83886 9.07348 9.86292 9.14996 9.87152 9.22891C9.88012 9.30786 9.87308 9.38773 9.85082 9.46396C9.82855 9.54019 9.79148 9.61128 9.74174 9.67319C8.77667 10.8747 8.26667 12.322 8.26667 13.8588V20.3351L10.0279 19.0515C10.1354 18.9731 10.2658 18.9324 10.3989 18.9357C10.5319 18.939 10.6602 18.9861 10.7637 19.0696C11.9663 20.04 13.4176 20.5528 14.9608 20.5528C18.6519 20.5528 21.6548 17.5499 21.6548 13.8588C21.6548 10.1677 18.6519 7.16479 14.9608 7.16479C13.8235 7.16479 12.6968 7.45852 11.7028 8.01412C11.5628 8.09226 11.3974 8.11163 11.2431 8.06798C11.0888 8.02434 10.9581 7.92124 10.8797 7.78132C10.8015 7.64128 10.7821 7.47591 10.8258 7.32157C10.8695 7.16723 10.9727 7.03655 11.1127 6.95826C12.289 6.30153 13.6136 5.95629 14.9608 5.95532C19.3188 5.95532 22.8643 9.50079 22.8643 13.8588C22.8643 18.2168 19.3188 21.7623 14.9608 21.7623C13.3203 21.7623 11.71 21.2437 10.3769 20.2936L8.01814 22.0129C7.91464 22.0882 7.78997 22.1287 7.66201 22.1288Z" fill="#161616"/>
<path d="M32.3381 20.1131C32.2101 20.113 32.0854 20.0724 31.9819 19.9971L29.6232 18.2777C28.2901 19.2279 26.68 19.7464 25.0393 19.7464C23.4903 19.7477 21.9753 19.2917 20.6843 18.4356C20.6178 18.3914 20.5607 18.3346 20.5163 18.2683C20.4719 18.202 20.441 18.1276 20.4254 18.0494C20.4098 17.9711 20.4098 17.8906 20.4255 17.8123C20.4411 17.7341 20.4721 17.6597 20.5165 17.5935C21.2611 16.4877 21.6547 15.1963 21.6547 13.8587C21.6547 11.6081 20.5307 9.52065 18.6481 8.27465C18.5816 8.23057 18.5244 8.17376 18.4799 8.10748C18.4355 8.0412 18.4045 7.96678 18.389 7.88849C18.3734 7.8102 18.3735 7.72961 18.3892 7.65135C18.4049 7.57309 18.4359 7.49872 18.4805 7.43252C19.954 5.24532 22.4059 3.93945 25.0393 3.93945C29.3972 3.93945 32.9428 7.48492 32.9428 11.8429V19.5083C32.9429 19.6199 32.912 19.7293 32.8536 19.8244C32.7953 19.9196 32.7117 19.9967 32.6121 20.0472C32.5273 20.0906 32.4334 20.1132 32.3381 20.1131ZM21.8531 17.7287C22.8309 18.2602 23.9263 18.5381 25.0392 18.5371C26.5825 18.5371 28.0336 18.0243 29.236 17.0539C29.3397 16.9703 29.468 16.9233 29.6011 16.92C29.7342 16.9167 29.8646 16.9574 29.9723 17.0357L31.7333 18.3195V11.8431C31.7333 8.15199 28.7303 5.14905 25.0393 5.14905C24.0405 5.14861 23.0543 5.37191 22.153 5.80254C21.2518 6.23317 20.4585 6.8602 19.8313 7.63759C21.7413 9.13199 22.8641 11.414 22.8641 13.8588C22.8641 15.2248 22.5165 16.5504 21.8531 17.7287ZM10.8717 13.4711H12.014V14.6133H10.8717V13.4711ZM14.3895 13.4711H15.5317V14.6133H14.3895V13.4711ZM17.9205 13.4711H19.0628V14.6133H17.9205V13.4711Z" fill="#161616"/>
<path d="M24.4613 11.4553H25.6035V12.5976H24.4613V11.4553ZM27.9924 11.4553H29.1349V12.5976H27.9924V11.4553ZM17.5887 32.7001C16.8615 32.7001 16.2232 32.454 15.7521 31.9832C14.5616 30.7915 14.8707 28.6173 16.4555 27.0328C18.0401 25.4481 20.2143 25.1401 21.4052 26.3299C22.0009 26.9259 22.2371 27.7895 22.0701 28.7619C21.9165 29.6573 21.4308 30.5515 20.702 31.2797V31.28C19.9739 32.0083 19.0796 32.4941 18.1839 32.6479C17.9873 32.6821 17.7882 32.6996 17.5887 32.7001ZM19.564 26.8231C18.8557 26.8231 17.9975 27.2015 17.3105 27.8883C16.242 28.9565 15.92 30.4403 16.6073 31.1281C16.9173 31.4377 17.4048 31.5541 17.9793 31.4559C18.6307 31.344 19.2939 30.9779 19.8467 30.4248L19.8468 30.4247C20.4 29.8717 20.7665 29.2085 20.8783 28.5573C20.9767 27.9829 20.8601 27.4957 20.5499 27.1853C20.3044 26.9399 19.9573 26.8231 19.564 26.8231Z" fill="#161616"/>
<path d="M16.4371 31.8045C16.2789 31.8036 16.1273 31.7408 16.0149 31.6294C15.9025 31.5181 15.8382 31.3671 15.8358 31.2089C15.8334 31.0507 15.8931 30.8978 16.0021 30.7831C16.1111 30.6684 16.2607 30.601 16.4188 30.5953L16.596 30.5908C17.5489 30.5677 17.9435 30.5581 18.1176 28.9955C18.2167 28.1075 18.5503 27.4433 19.1097 27.0209C19.8767 26.4419 20.752 26.5677 20.8485 26.5845C21.0067 26.6111 21.1479 26.6995 21.241 26.8301C21.334 26.9607 21.3714 27.123 21.3449 27.2812C21.2899 27.6088 20.9788 27.8292 20.6544 27.7783C20.6324 27.7759 20.1816 27.7205 19.8293 27.9932C19.5511 28.2085 19.3795 28.5908 19.3195 29.1295C19.0283 31.7419 17.6392 31.7753 16.6251 31.7999L16.4561 31.8044L16.4371 31.8045Z" fill="#161616"/>
</svg>
