<svg width="40" height="41" viewBox="0 0 40 41" fill="none" xmlns="http://www.w3.org/2000/svg">
<g clip-path="url(#clip0_162_893)">
<path d="M19.9997 40.0327C30.6601 40.0327 39.302 31.3908 39.302 20.7304C39.302 10.07 30.6601 1.4281 19.9997 1.4281C9.33936 1.4281 0.697424 10.07 0.697424 20.7304C0.697424 31.3908 9.33936 40.0327 19.9997 40.0327Z" fill="#72CDED"/>
<path d="M19.9997 35.5461C28.1822 35.5461 34.8154 28.9129 34.8154 20.7304C34.8154 12.548 28.1822 5.91479 19.9997 5.91479C11.8173 5.91479 5.18407 12.548 5.18407 20.7304C5.18407 28.9129 11.8173 35.5461 19.9997 35.5461Z" fill="#DCEBEF"/>
<path d="M21.7289 22.1421L28.9465 20.6683C29.8847 20.4768 30.4892 19.5618 30.2976 18.6235C30.1061 17.6862 29.1911 17.0809 28.2538 17.2725L21.7289 18.605L18.2632 19.3126L16.7252 19.6269C15.7878 19.8185 15.1825 20.7335 15.3741 21.6707C15.5414 22.4928 16.264 23.0581 17.0711 23.0581C17.1855 23.0581 17.3027 23.046 17.4189 23.0228L18.2632 22.8507" fill="#62DCD2"/>
<path d="M19.996 13.009C19.0389 13.009 18.2631 13.7848 18.2631 14.7419V23.7184C18.2631 24.6754 19.0389 25.4512 19.996 25.4512C20.953 25.4512 21.7289 24.6755 21.7289 23.7184V14.7419C21.7289 13.7848 20.953 13.009 19.996 13.009Z" fill="#FD5D65"/>
<path d="M36.9606 10.1268C35.0266 7.03987 32.2905 4.53728 29.0478 2.88962C28.8831 2.80734 28.6925 2.79354 28.5176 2.85124C28.3427 2.90894 28.1978 3.03346 28.1144 3.19763C28.031 3.3618 28.0159 3.5523 28.0724 3.72756C28.1289 3.90281 28.2524 4.04861 28.416 4.13314C31.433 5.66603 33.979 7.99471 35.7787 10.8673C37.6279 13.819 38.6053 17.2297 38.6053 20.7308C38.6053 30.9897 30.259 39.3359 20.0001 39.3359C9.74119 39.3359 1.39485 30.9896 1.39485 20.7307C1.39485 10.4717 9.74111 2.12556 20 2.12556C22.1957 2.12556 24.3445 2.50408 26.387 3.25064C26.473 3.28216 26.5644 3.29641 26.6559 3.29257C26.7474 3.28874 26.8373 3.26691 26.9204 3.22831C27.0035 3.18971 27.0781 3.13512 27.1401 3.06765C27.202 3.00017 27.2501 2.92115 27.2815 2.83509C27.345 2.66137 27.3369 2.46955 27.2589 2.30181C27.181 2.13407 27.0396 2.00415 26.8659 1.94064C24.6695 1.13782 22.3596 0.730713 20 0.730713C14.6578 0.730713 9.63533 2.81111 5.8579 6.58854C2.08039 10.366 0 15.3886 0 20.7307C0 26.0728 2.08039 31.0953 5.8579 34.8728C9.63541 38.6503 14.6578 40.7306 20 40.7306C25.3421 40.7306 30.3646 38.6502 34.1421 34.8728C37.9195 31.0953 39.9999 26.0729 39.9999 20.7307C40.0001 16.9675 38.9491 13.3007 36.9606 10.1268Z" fill="black"/>
<path d="M12.9196 33.7667C12.7516 34.1132 12.8965 34.5303 13.2431 34.6984C15.3587 35.7237 17.6321 36.2435 20 36.2435C28.5538 36.2435 35.5127 29.2846 35.5127 20.7309C35.5127 12.1772 28.5538 5.21802 20 5.21802C11.4463 5.21802 4.48727 12.177 4.48727 20.7307C4.48727 25.7284 6.91767 30.4492 10.9887 33.3591C11.1392 33.4644 11.3253 33.5061 11.5064 33.475C11.6875 33.444 11.849 33.3427 11.9559 33.1932C12.0627 33.0437 12.1063 32.8581 12.077 32.6767C12.0478 32.4953 11.9482 32.3328 11.7998 32.2244C8.28431 29.7116 6.11439 25.7153 5.90087 21.4281H7.2104C7.39537 21.4281 7.57276 21.3546 7.70356 21.2239C7.83435 21.0931 7.90783 20.9157 7.90783 20.7307C7.90783 20.5457 7.83435 20.3683 7.70356 20.2376C7.57276 20.1068 7.39537 20.0333 7.2104 20.0333H5.89946C6.25298 12.8025 12.0717 6.98365 19.3025 6.63005V7.94107C19.3025 8.12604 19.376 8.30343 19.5068 8.43422C19.6376 8.56501 19.815 8.63849 20 8.63849C20.1849 8.63849 20.3623 8.56501 20.4931 8.43422C20.6239 8.30343 20.6974 8.12604 20.6974 7.94107V6.63013C27.9283 6.98357 33.7471 12.8024 34.1007 20.0334H32.7896C32.698 20.0334 32.6073 20.0514 32.5227 20.0864C32.4381 20.1215 32.3612 20.1729 32.2964 20.2376C32.2317 20.3024 32.1803 20.3793 32.1453 20.4639C32.1102 20.5485 32.0922 20.6392 32.0922 20.7308C32.0922 20.8224 32.1102 20.9131 32.1453 20.9977C32.1803 21.0823 32.2317 21.1592 32.2964 21.2239C32.3612 21.2887 32.4381 21.3401 32.5227 21.3751C32.6073 21.4102 32.698 21.4282 32.7896 21.4282H34.1007C33.7472 28.6591 27.9283 34.4778 20.6974 34.8314V33.5204C20.6974 33.4288 20.6793 33.3381 20.6443 33.2535C20.6092 33.1689 20.5579 33.092 20.4931 33.0273C20.4284 32.9625 20.3515 32.9111 20.2669 32.8761C20.1822 32.841 20.0915 32.823 20 32.823C19.9084 32.823 19.8177 32.841 19.7331 32.8761C19.6485 32.9111 19.5716 32.9625 19.5068 33.0273C19.442 33.092 19.3907 33.1689 19.3556 33.2535C19.3206 33.3381 19.3025 33.4288 19.3025 33.5204V34.831C17.3981 34.7398 15.5672 34.2748 13.8514 33.4433C13.505 33.2753 13.0877 33.4201 12.9196 33.7667Z" fill="black"/>
<path d="M19.996 12.3116C18.656 12.3116 17.5657 13.4018 17.5657 14.7419V18.7433L16.5856 18.9436C15.9498 19.0735 15.4025 19.4432 15.0446 19.9846C14.6864 20.5261 14.5608 21.1745 14.6907 21.8099C14.9203 22.9372 15.9214 23.7555 17.0711 23.7555C17.2305 23.7555 17.3935 23.739 17.5581 23.7061L17.5656 23.7046V23.7182C17.5656 25.0582 18.6557 26.1485 19.9958 26.1485C21.3359 26.1485 22.4261 25.0582 22.4261 23.7182V19.1743L28.3933 17.9557C28.9522 17.8414 29.4999 18.2037 29.6143 18.7631C29.7286 19.3227 29.3664 19.8709 28.8069 19.9851L23.4732 21.0742C23.304 21.1088 23.1536 21.205 23.0512 21.3441C22.9488 21.4832 22.9017 21.6554 22.919 21.8273C22.9363 21.9992 23.0167 22.1585 23.1448 22.2745C23.2728 22.3905 23.4393 22.4548 23.6121 22.455C23.6583 22.455 23.7053 22.4503 23.7524 22.4408L29.0858 21.3517C30.3987 21.0838 31.2488 19.7973 30.9808 18.484C30.7124 17.171 29.4262 16.3213 28.114 16.5893L22.426 17.7509V14.742C22.4262 13.4018 21.3361 12.3116 19.996 12.3116ZM17.2821 22.3389C17.2099 22.3535 17.1389 22.3607 17.0711 22.3607C16.5815 22.3607 16.1553 22.0121 16.0574 21.5311C16.0298 21.398 16.0289 21.2608 16.0548 21.1274C16.0806 20.994 16.1327 20.867 16.208 20.7538C16.2827 20.6402 16.3793 20.5424 16.492 20.4663C16.6047 20.3901 16.7314 20.3371 16.8648 20.3102L17.5657 20.167V22.2811L17.2821 22.3389ZM19.996 24.7538C19.425 24.7538 18.9606 24.2892 18.9606 23.7183V14.7418C18.9606 14.1709 19.425 13.7064 19.996 13.7064C20.5669 13.7064 21.0314 14.1709 21.0314 14.7418V23.7182C21.0314 24.2892 20.5669 24.7538 19.996 24.7538Z" fill="black"/>
<path d="M20.3872 20.1513C20.129 19.9813 19.7836 19.9996 19.547 20.2005C19.3354 20.3803 19.2521 20.6796 19.3367 20.9433C19.3784 21.072 19.4564 21.1858 19.5613 21.2711C19.6662 21.3565 19.7936 21.4096 19.9281 21.4241C20.2317 21.4561 20.5273 21.279 20.6439 20.9975C20.7693 20.6943 20.662 20.3326 20.3872 20.1513Z" fill="black"/>
</g>
<defs>
<clipPath id="clip0_162_893">
<rect width="40" height="40" fill="white" transform="translate(0 0.730713)"/>
</clipPath>
</defs>
</svg>
