<svg width="40" height="41" viewBox="0 0 40 41" fill="none" xmlns="http://www.w3.org/2000/svg">
<path d="M20.0001 11.5133L7.75625 17.3403L0.632263 13.9499L20.0001 4.73252L39.3677 13.9498L32.2438 17.3403L20.0001 11.5133Z" fill="#3E495A"/>
<g opacity="0.1">
<path d="M19.7495 9.40932L19.7503 9.40893L19.7833 9.39322C19.8555 9.36268 20.0372 9.30775 20.2507 9.40932L20.251 9.40947L34.5796 16.2286L32.2438 17.3403L20.0002 11.5134L7.75625 17.3403L5.42047 16.2288L19.7495 9.40932Z" fill="#231F20"/>
</g>
<path d="M21.3424 18.933L20.0001 18.2941L7.75625 24.1211L0.632263 20.7307L20.0001 11.5133L39.3677 20.7307L32.2438 24.1211" fill="#F57555"/>
<g opacity="0.1">
<path d="M19.5284 16.3848L19.5288 16.3846L19.5959 16.3527C19.7345 16.2948 20.0734 16.1952 20.4718 16.3848L34.4855 23.0542L32.2437 24.1211L21.3425 18.933L20.0002 18.2941L7.75625 24.1211L5.51445 23.0542L19.5284 16.3848Z" fill="#231F20"/>
</g>
<path d="M29.0363 22.5944L39.3677 27.5114L19.9999 36.7289L0.632263 27.5115L20.0001 18.294L27.2784 21.7579" fill="#EAE8E8"/>
<path d="M32.2437 24.1211L19.9999 29.9481L7.75625 24.1212L20.0001 18.2941" fill="#CECCCC"/>
<path d="M40 20.7307C40 20.8503 39.9661 20.9673 39.9023 21.0684C39.8385 21.1694 39.7474 21.2503 39.6394 21.3017L33.7151 24.1211L39.6394 26.9407C39.7473 26.992 39.8384 27.0729 39.9022 27.174C39.966 27.275 39.9999 27.3921 39.9999 27.5116C39.9999 27.6311 39.966 27.7481 39.9022 27.8491C39.8384 27.9502 39.7473 28.0311 39.6394 28.0825L20.2716 37.2998C20.1868 37.3402 20.094 37.3612 20 37.3612C19.906 37.3612 19.8132 37.3402 19.7283 37.2998L0.36052 28.0825C0.252618 28.0312 0.161482 27.9503 0.097675 27.8492C0.0338679 27.7482 1.97525e-06 27.6311 1.97525e-06 27.5116C1.97525e-06 27.3921 0.0338679 27.275 0.097675 27.174C0.161482 27.0729 0.252618 26.992 0.36052 26.9407L6.28497 24.1211L0.36052 21.3016C0.252585 21.2503 0.161411 21.1694 0.0975748 21.0684C0.0337383 20.9673 -0.000144958 20.8503 -0.000144958 20.7307C-0.000144958 20.6112 0.0337383 20.4942 0.0975748 20.3931C0.161411 20.2921 0.252585 20.2112 0.36052 20.1599L6.2849 17.3403L0.36052 14.521C0.252618 14.4696 0.161482 14.3887 0.097675 14.2877C0.0338679 14.1866 1.97525e-06 14.0695 1.97525e-06 13.95C1.97525e-06 13.8305 0.0338679 13.7135 0.097675 13.6124C0.161482 13.5114 0.252618 13.4305 0.36052 13.3791L19.7283 4.1616C19.8132 4.12124 19.9061 4.1003 20.0001 4.1003C20.0941 4.1003 20.1869 4.12124 20.2718 4.1616L39.6394 13.3789C39.7473 13.4303 39.8384 13.5112 39.9022 13.6122C39.966 13.7133 39.9999 13.8303 39.9999 13.9498C39.9999 14.0693 39.966 14.1863 39.9022 14.2874C39.8384 14.3884 39.7473 14.4693 39.6394 14.5207L33.7151 17.3402L39.6394 20.1597C39.7473 20.2111 39.8385 20.292 39.9023 20.3931C39.9661 20.4941 40 20.6112 40 20.7307ZM19.9999 36.0288L37.8965 27.5114L32.2437 24.8212L20.2715 30.519C20.1866 30.5594 20.0938 30.5804 19.9998 30.5804C19.9058 30.5804 19.813 30.5594 19.7282 30.519L7.75615 24.8214L2.10341 27.5116L19.9999 36.0288ZM37.8965 13.9498L20.0001 5.43261L2.10349 13.95L7.75622 16.6402L19.7284 10.9425C19.8133 10.9021 19.9061 10.8811 20.0001 10.8811C20.0941 10.8811 20.187 10.9021 20.2719 10.9425L32.2439 16.6402L37.8965 13.9498ZM31.9721 17.9112L20.0001 12.2136L8.02787 17.9112C8.0276 17.9114 8.02731 17.9115 8.02701 17.9115L2.10333 20.7306L7.75622 23.4209L19.7283 17.7232C19.7498 17.7129 19.7718 17.7039 19.794 17.6964C19.8602 17.6735 19.9297 17.6618 19.9997 17.6618C20.002 17.6618 20.0044 17.6623 20.0069 17.6623C20.0311 17.6625 20.0552 17.6643 20.0794 17.6674C20.0882 17.6686 20.0968 17.6704 20.1056 17.6718C20.133 17.6763 20.16 17.6826 20.1865 17.6908C20.193 17.6928 20.1997 17.6942 20.2062 17.6964C20.2172 17.7002 20.2278 17.7052 20.2386 17.7096C20.2467 17.7129 20.2547 17.7158 20.2628 17.7194C20.2658 17.7207 20.269 17.7217 20.2719 17.7231L21.6143 18.3619L21.6145 18.3621L27.5502 21.1869C27.7016 21.259 27.8182 21.3882 27.8743 21.5462C27.9305 21.7042 27.9215 21.8781 27.8495 22.0295C27.7774 22.1809 27.6482 22.2975 27.4902 22.3536C27.3322 22.4097 27.1584 22.4008 27.0069 22.3288L21.0713 19.5039L21.071 19.5039L20.0003 18.9943L9.22771 24.1211L20.0001 29.2479L30.7728 24.121L28.7648 23.1654C28.6158 23.0918 28.5017 22.9626 28.4472 22.8057C28.3927 22.6487 28.4021 22.4766 28.4735 22.3265C28.5449 22.1765 28.6725 22.0606 28.8287 22.0039C28.9849 21.9471 29.1571 21.9542 29.3082 22.0235L32.244 23.4207L37.8966 20.7306L31.9721 17.9112Z" fill="#231F20"/>
</svg>
