<svg width="40" height="41" viewBox="0 0 40 41" fill="none" xmlns="http://www.w3.org/2000/svg">
<path d="M23.6225 23.4677L19.9999 25.7953L16.3775 23.4677L14.6476 24.5056L19.9999 39.7L25.3523 24.5056L23.6225 23.4677Z" fill="#E6E6E6"/>
<path d="M38.9788 31.1996C38.8395 28.6614 37.1621 26.5251 34.7906 25.8852L26.1989 23.9385C25.8603 23.8617 25.5177 24.0497 25.3987 24.3776L20 39.7L14.6011 24.3777C14.4822 24.0499 14.1395 23.8618 13.8009 23.9385L5.20937 25.8853C2.83781 26.5251 1.16047 28.6614 1.0211 31.1997L0.62891 38.7407C0.601801 39.2623 1.01735 39.7001 1.53961 39.7001H38.4603C38.9827 39.7001 39.3982 39.2623 39.371 38.7407L38.9788 31.1996Z" fill="#4D5560"/>
<path d="M16.3775 23.4677L19.9999 25.7952L16.0088 28.5458L14.6476 24.5056L16.3775 23.4677ZM23.6225 23.4677L19.9999 25.7952L23.9911 28.5458L25.3523 24.5056L23.6225 23.4677Z" fill="#D3CCD6"/>
<path d="M20.0012 25.7953V25.7952L20.0011 25.7952L20.0009 25.7952V25.7953L18.2984 26.968L19.1461 28.657H20.8562L21.6995 26.9666L20.0012 25.7953ZM20.8562 28.657H19.1461L18.3121 35.3855L19.9999 39.7001L21.6896 35.3802L20.8562 28.657Z" fill="#FC3F49"/>
<path d="M13.8009 23.9385L11.0265 24.5671L10.3836 26.8657C10.2893 27.203 10.5717 27.5263 10.9186 27.4782L12.088 27.316C12.4047 27.2721 12.6768 27.5406 12.6372 27.8578L12.3149 30.44C12.3065 30.507 12.3122 30.575 12.3316 30.6397C12.3509 30.7043 12.3835 30.7643 12.4273 30.8156L20 39.6998L14.6012 24.3775C14.4821 24.0498 14.1395 23.8617 13.8009 23.9385Z" fill="#3F4651"/>
<path d="M26.199 23.9385L28.9735 24.5671L29.6164 26.8657C29.7107 27.203 29.4282 27.5263 29.0814 27.4782L27.9119 27.316C27.5952 27.2721 27.3231 27.5406 27.3627 27.8578L27.685 30.44C27.6934 30.507 27.6877 30.575 27.6683 30.6397C27.649 30.7043 27.6163 30.7643 27.5725 30.8156L20 39.6998L25.3988 24.3775C25.5178 24.0498 25.8604 23.8617 26.199 23.9385Z" fill="#3F4651"/>
<path d="M22.8612 1.76147H20.5343C23.6 1.76147 26.0851 4.2467 26.0851 7.31232V12.9289H28.4121V7.3124C28.4121 4.2467 25.9268 1.76147 22.8612 1.76147Z" fill="#F28F0C"/>
<path d="M27.1278 10.2229V14.3494C28.0581 14.288 28.7926 13.5991 28.7926 12.7541V11.8185C28.7926 10.9734 28.0581 10.2842 27.1278 10.2229Z" fill="#FFC07B"/>
<path d="M12.9425 10.2229V14.3494C12.0122 14.288 11.2777 13.5991 11.2777 12.7541V11.8185C11.2778 10.9734 12.0121 10.2842 12.9425 10.2229Z" fill="#FED9A8"/>
<path d="M22.8963 1.76147H17.2096C14.1439 1.76147 11.6587 4.2467 11.6587 7.31232V10.8337C11.9622 10.4886 12.4215 10.2571 12.9424 10.2228V10.2265V9.41232C13.8011 8.31771 15.7692 8.96927 19.8658 8.81177C22.9478 8.69326 24.2567 7.06256 24.7936 5.44912C25.1597 5.59037 26.5775 6.34537 26.5775 9.57177C26.5775 9.94833 26.8281 10.1383 27.1543 10.2256C27.6856 10.2677 28.1497 10.5147 28.4471 10.8777V7.3124C28.4473 4.2467 25.962 1.76147 22.8963 1.76147Z" fill="#FE9901"/>
<path d="M26.5424 9.57199C26.5424 6.34567 25.1246 5.59059 24.7585 5.44934C24.2215 7.0627 22.9125 8.69348 19.8307 8.81199C15.734 8.96949 13.766 8.31793 12.9072 9.41254V15.3374C12.9072 16.7303 13.4587 18.0612 14.4308 19.0138L15.921 20.4742C16.6493 21.188 17.61 21.5851 18.6081 21.5851H21.4276C22.4257 21.5851 23.3865 21.1879 24.1147 20.4742L25.605 19.0138C26.5769 18.0612 27.1285 16.7303 27.1285 15.3374V10.2286C26.7976 10.1423 26.5424 9.95207 26.5424 9.57199Z" fill="#FED9A8"/>
<path d="M26.5424 9.57199C26.5424 6.34567 25.1246 5.59059 24.7585 5.44934C24.2215 7.0627 22.9125 8.69348 19.8307 8.81199C15.734 8.96949 13.766 8.31793 12.9072 9.41254V15.3374C12.9072 16.7303 13.4587 18.0612 14.4308 19.0138L15.921 20.4742C16.6493 21.188 17.61 21.5851 18.6081 21.5851H21.4276C22.4257 21.5851 23.3865 21.1879 24.1147 20.4742L25.605 19.0138C26.5769 18.0612 27.1285 16.7303 27.1285 15.3374V10.2286C26.7976 10.1423 26.5424 9.95207 26.5424 9.57199Z" fill="#FED9A8"/>
<path d="M26.5424 9.57199C26.5424 6.34567 25.1246 5.59059 24.7585 5.44934C24.2215 7.0627 22.9125 8.69348 19.8307 8.81199C15.734 8.96949 13.766 8.31793 12.9072 9.41254V15.3374C12.9072 16.7303 13.4587 18.0612 14.4308 19.0138L15.921 20.4742C16.6493 21.188 17.61 21.5851 18.6081 21.5851H21.4276C22.4257 21.5851 23.3865 21.1879 24.1147 20.4742L25.605 19.0138C26.5769 18.0612 27.1285 16.7303 27.1285 15.3374V10.2286C26.7976 10.1423 26.5424 9.95207 26.5424 9.57199Z" fill="#FED9A8"/>
<path d="M19.8307 9.84058C23.2349 9.84058 24.891 7.6316 25.5494 6.03832C25.2228 5.66254 24.9056 5.50606 24.7585 5.44934C24.2215 7.0627 22.9125 8.69348 19.8307 8.81199C15.734 8.96949 13.766 8.31793 12.9072 9.41254V10.4412C13.766 9.34652 15.7311 9.84058 19.8307 9.84058Z" fill="#FFC07B"/>
<path d="M26.5424 9.57199C26.5424 6.45957 25.2232 5.64723 24.8014 5.46692V15.3373C24.8014 16.7303 24.25 18.0611 23.2778 19.0137L21.7876 20.4742C21.0593 21.1879 20.0987 21.585 19.1005 21.585H21.4275C22.4256 21.585 23.3864 21.1878 24.1146 20.4742L25.6048 19.0137C26.5767 18.0611 27.1283 16.7303 27.1283 15.3373V10.2284C26.7976 10.1423 26.5424 9.95207 26.5424 9.57199Z" fill="#FFC07B"/>
<path d="M12.5095 13.3575H12.9073V11.2147H12.5095C12.3412 11.2147 12.1797 11.2816 12.0607 11.4006C11.9417 11.5196 11.8748 11.6811 11.8748 11.8494V12.7228C11.8748 12.8061 11.8912 12.8887 11.9231 12.9657C11.955 13.0427 12.0017 13.1127 12.0607 13.1716C12.1196 13.2305 12.1896 13.2773 12.2666 13.3092C12.3436 13.3411 12.4261 13.3575 12.5095 13.3575Z" fill="#F7C68B"/>
<path d="M27.5262 13.3575H27.1284V11.2147H27.5262C27.6945 11.2147 27.856 11.2816 27.975 11.4006C28.094 11.5196 28.1609 11.6811 28.1609 11.8494V12.7228C28.1609 12.8061 28.1445 12.8887 28.1126 12.9657C28.0807 13.0427 28.034 13.1126 27.975 13.1716C27.9161 13.2305 27.8461 13.2773 27.7691 13.3092C27.6921 13.3411 27.6096 13.3575 27.5262 13.3575Z" fill="#F2AD5A"/>
<path d="M21.4275 21.5852H18.6081C17.9104 21.5852 17.2312 21.3905 16.6367 21.0298L16.3775 23.4677L20 25.7954L23.6226 23.4677L23.3656 21.0506C22.779 21.3982 22.1121 21.5852 21.4275 21.5852Z" fill="#FED9A8"/>
<path d="M18.3425 21.5756C18.2632 21.5698 18.1842 21.5616 18.1054 21.5508C18.0971 21.5496 18.0886 21.5488 18.0803 21.5476C18.0044 21.5367 17.9289 21.5235 17.8539 21.508L17.8214 21.5014C17.7484 21.4858 17.6759 21.4678 17.604 21.4479C17.5918 21.4445 17.5793 21.4411 17.5672 21.4376C17.4832 21.4135 17.4002 21.3864 17.3182 21.3564C17.25 21.3316 17.1826 21.3049 17.1159 21.2763C17.1025 21.2705 17.089 21.2645 17.0756 21.2586C17.0094 21.2293 16.944 21.1982 16.8795 21.1652L16.8403 21.1446C16.7758 21.1107 16.7122 21.075 16.6497 21.0376C16.6452 21.0349 16.6404 21.0326 16.6359 21.0298L16.6075 21.2966C17.0989 21.9265 19.1168 24.0013 23.5262 22.569L23.3647 21.0505L23.3642 21.0507C23.2984 21.0895 23.2314 21.1262 23.1634 21.161C23.1457 21.1702 23.1279 21.1788 23.1101 21.1878C23.0547 21.2152 22.9987 21.2413 22.9421 21.2661C22.9269 21.2728 22.9119 21.2798 22.8966 21.2862C22.8261 21.3159 22.755 21.3437 22.6828 21.3691C22.6707 21.3734 22.6583 21.377 22.6461 21.3812C22.5656 21.4087 22.4842 21.4336 22.402 21.4556C22.3396 21.4723 22.277 21.4874 22.2138 21.501C22.2018 21.5036 22.1901 21.5067 22.1782 21.5091C22.1039 21.5242 22.0292 21.5369 21.9542 21.5474C21.9352 21.5501 21.9161 21.5521 21.8969 21.5546C21.8385 21.5619 21.78 21.5679 21.7211 21.5725C21.6994 21.5742 21.6777 21.576 21.656 21.5774C21.5798 21.582 21.5034 21.5852 21.4268 21.5852H18.6072C18.5236 21.5852 18.4403 21.582 18.3574 21.5765C18.3525 21.5761 18.3475 21.576 18.3425 21.5756Z" fill="#F2C18B"/>
<path d="M16.2618 13.4356C16.0872 13.4356 15.9198 13.3662 15.7963 13.2428C15.6728 13.1193 15.6035 12.9519 15.6035 12.7772V12.2497C15.6035 12.0751 15.6728 11.9076 15.7963 11.7841C15.9198 11.6607 16.0872 11.5913 16.2618 11.5913C16.4364 11.5913 16.6039 11.6607 16.7274 11.7841C16.8508 11.9076 16.9202 12.0751 16.9202 12.2497V12.7772C16.9202 12.8637 16.9032 12.9493 16.8701 13.0292C16.837 13.1091 16.7885 13.1817 16.7274 13.2428C16.6663 13.3039 16.5937 13.3524 16.5138 13.3855C16.4339 13.4186 16.3483 13.4356 16.2618 13.4356ZM23.7381 13.4356C23.6516 13.4356 23.566 13.4186 23.4861 13.3855C23.4063 13.3524 23.3337 13.3039 23.2726 13.2428C23.2114 13.1816 23.1629 13.1091 23.1298 13.0292C23.0968 12.9493 23.0797 12.8637 23.0797 12.7772V12.2497C23.0797 12.0751 23.1491 11.9076 23.2726 11.7841C23.396 11.6607 23.5635 11.5913 23.7381 11.5913C23.9127 11.5913 24.0801 11.6607 24.2036 11.7841C24.3271 11.9076 24.3964 12.0751 24.3964 12.2497V12.7772C24.3964 12.9519 24.3271 13.1193 24.2036 13.2428C24.0801 13.3662 23.9127 13.4356 23.7381 13.4356Z" fill="#232323"/>
<path d="M20 18.9587C21.1391 18.9587 22.0965 18.3105 22.3692 17.433C22.4482 17.1788 22.2548 16.921 21.9886 16.921H18.0115C17.7453 16.921 17.5519 17.1788 17.631 17.433C17.9036 18.3105 18.8608 18.9587 20 18.9587Z" fill="#FFF4E9"/>
<path d="M5.24952 28.3496L3.79687 26.4919C2.19718 27.459 1.1375 29.205 1.02789 31.1997L0.6357 38.7407C0.608591 39.2622 1.02414 39.7 1.5464 39.7H6.90866L7.16178 34.3577C7.26453 32.1906 6.58596 30.0586 5.24952 28.3496ZM34.7484 28.3496L36.2011 26.4919C37.8008 27.459 38.8605 29.205 38.9701 31.1997L39.3623 38.7407C39.3894 39.2622 38.9738 39.7 38.4515 39.7H33.0892L32.8361 34.3577C32.7334 32.1906 33.412 30.0586 34.7484 28.3496Z" fill="#3F4651"/>
<path d="M19.1461 28.657L19.0453 29.4711H20.9571L20.8562 28.657H19.9967H19.1461Z" fill="#EA2F41"/>
<path d="M25.5055 24.1865C25.5086 24.1826 25.5116 24.1786 25.5148 24.1748C25.5117 24.1785 25.5085 24.1826 25.5055 24.1865ZM25.5418 24.1437C25.5456 24.1398 25.5493 24.1357 25.5532 24.1318C25.5494 24.1357 25.5455 24.1397 25.5418 24.1437ZM25.7598 23.9851C25.7622 23.984 25.7646 23.9826 25.7671 23.9815C25.7647 23.9826 25.7624 23.984 25.7598 23.9851ZM25.7966 23.9697C25.8048 23.9664 25.8129 23.963 25.8213 23.9601C25.8129 23.963 25.8048 23.9664 25.7966 23.9697ZM25.5817 24.1038L25.5946 24.0925C25.5903 24.0962 25.586 24.0999 25.5817 24.1038ZM26.0198 23.9224C26.0315 23.9219 26.0432 23.922 26.055 23.9221C26.0433 23.9219 26.0315 23.922 26.0198 23.9224ZM34.7906 25.8853L28.9734 24.5673L29.1234 25.1037L32.5731 25.8854C33.6647 26.1799 34.6085 26.792 35.3237 27.6138L36.2009 26.492L36.2046 26.489C35.7638 26.2227 35.2878 26.0195 34.7906 25.8853ZM25.4735 24.2309C25.4756 24.2276 25.4775 24.2244 25.4797 24.2212C25.4776 24.2243 25.4756 24.2276 25.4735 24.2309Z" fill="#373E49"/>
<path d="M26.0549 23.9221C26.063 23.9222 26.071 23.9221 26.079 23.9225C26.071 23.9221 26.0631 23.9222 26.0549 23.9221ZM26.1189 23.9259C26.1256 23.9266 26.1321 23.927 26.1389 23.9279C26.1322 23.9269 26.1256 23.9266 26.1189 23.9259ZM25.7671 23.9815C25.7767 23.9771 25.7867 23.9735 25.7966 23.9696C25.7867 23.9735 25.7768 23.9772 25.7671 23.9815ZM25.8774 23.9432C25.8862 23.9409 25.8953 23.939 25.9042 23.9371C25.8952 23.9391 25.8863 23.9409 25.8774 23.9432ZM25.8213 23.9602C25.8304 23.957 25.8397 23.9543 25.849 23.9515C25.8396 23.9542 25.8303 23.957 25.8213 23.9602Z" fill="#3F4651"/>
<path d="M26.199 23.9385C26.1791 23.934 26.1591 23.9304 26.1389 23.9278C26.1321 23.9268 26.1256 23.9265 26.1189 23.9257C26.1056 23.9243 26.0924 23.9231 26.0791 23.9224C26.071 23.922 26.063 23.9221 26.055 23.922C26.0433 23.9218 26.0315 23.9219 26.0198 23.9223C26.0113 23.9226 26.0027 23.9233 25.9942 23.9239C25.9743 23.9255 25.9546 23.9279 25.935 23.931C25.9246 23.9328 25.9144 23.9348 25.9042 23.937C25.8951 23.9389 25.8862 23.9408 25.8773 23.9431C25.8678 23.9455 25.8583 23.9485 25.8489 23.9513C25.8396 23.9541 25.8303 23.9568 25.8212 23.9599C25.8128 23.9628 25.8047 23.9662 25.7965 23.9695C25.7867 23.9733 25.7767 23.977 25.7671 23.9814C25.7646 23.9824 25.7622 23.9838 25.7598 23.9849C25.7327 23.9975 25.7063 24.0119 25.681 24.0278C25.6778 24.0299 25.6743 24.0317 25.6711 24.0339C25.6598 24.0412 25.6489 24.0492 25.6381 24.0573C25.6337 24.0605 25.6293 24.0635 25.6251 24.0669C25.6147 24.0751 25.6045 24.0836 25.5946 24.0924C25.5903 24.0961 25.586 24.0998 25.5818 24.1037C25.572 24.1128 25.5625 24.1221 25.5532 24.1317L25.5418 24.1436C25.5325 24.1537 25.5235 24.1639 25.5148 24.1746C25.5116 24.1784 25.5086 24.1824 25.5055 24.1863C25.4965 24.1975 25.488 24.2091 25.4798 24.221C25.4776 24.2242 25.4756 24.2274 25.4735 24.2306C25.4649 24.2436 25.4564 24.2569 25.4485 24.2707L29.1235 25.1034L28.9735 24.567L26.199 23.9385Z" fill="#373E49"/>
<path d="M36.201 26.4919L35.3238 27.6137C36.1624 28.5774 36.6863 29.8298 36.7616 31.1997L37.2038 39.7H38.4515C38.9738 39.7 39.3894 39.2622 39.3623 38.7407L38.9701 31.1997C38.8605 29.205 37.8008 27.459 36.201 26.4919Z" fill="#333A44"/>
<path d="M33.462 21.7666H6.53787C5.94733 21.7666 5.48373 22.3607 5.53506 23.0515L6.6092 37.6206H33.3906L34.4648 23.0514C34.5163 22.3607 34.0525 21.7666 33.462 21.7666Z" fill="#E6E6E6"/>
<path d="M33.462 21.7666H31.0891C31.6797 21.7666 32.1434 22.3607 32.092 23.0515L31.0177 37.6206H33.3906L34.4648 23.0514C34.5163 22.3607 34.0525 21.7666 33.462 21.7666Z" fill="#CCCCCC"/>
<path d="M34.4163 37.6195H5.58367C5.43965 37.6195 5.30153 37.6767 5.1997 37.7786C5.09786 37.8804 5.04064 38.0185 5.04062 38.1626V39.157C5.04064 39.301 5.09786 39.4391 5.1997 39.541C5.30153 39.6428 5.43965 39.7 5.58367 39.7001H34.4163C34.5604 39.7 34.6985 39.6428 34.8003 39.541C34.9021 39.4391 34.9594 39.301 34.9594 39.157V38.1626C34.9594 38.0185 34.9021 37.8804 34.8003 37.7786C34.6984 37.6767 34.5603 37.6195 34.4163 37.6195Z" fill="#CCCCCC"/>
<path d="M34.4163 37.6195H5.58367C5.43965 37.6195 5.30153 37.6767 5.1997 37.7786C5.09786 37.8804 5.04064 38.0185 5.04062 38.1626V39.157C5.04064 39.301 5.09786 39.4391 5.1997 39.541C5.30153 39.6428 5.43965 39.7 5.58367 39.7001H34.4163C34.5604 39.7 34.6985 39.6428 34.8003 39.541C34.9021 39.4391 34.9594 39.301 34.9594 39.157V38.1626C34.9594 38.0185 34.9021 37.8804 34.8003 37.7786C34.6984 37.6767 34.5603 37.6195 34.4163 37.6195Z" fill="#CCCCCC"/>
<path d="M20.7504 31.907H19.2496C18.8587 31.907 18.5317 31.5741 18.494 31.1377L18.2793 28.6547C18.2361 28.1543 18.5867 27.7209 19.035 27.7209H20.9649C21.4131 27.7209 21.7636 28.1542 21.7205 28.6547L21.5059 31.1377C21.4682 31.5741 21.1412 31.907 20.7504 31.907Z" fill="white"/>
<path d="M10.7722 36.2699H8.98177C8.81029 36.2699 8.67412 36.4109 8.68381 36.5783L8.74388 37.6193H11.1322L11.0702 36.5454C11.0613 36.3908 10.9306 36.2699 10.7722 36.2699Z" fill="#CCCCCC"/>
<path d="M10.7183 38.8727H9.15803C9.04822 38.8727 8.9429 38.8291 8.86525 38.7515C8.7876 38.6738 8.74397 38.5685 8.74397 38.4587V37.6194H11.1323V38.4587C11.1323 38.5685 11.0887 38.6738 11.0111 38.7514C10.9334 38.8291 10.8281 38.8727 10.7183 38.8727Z" fill="#B3B3B3"/>
<path d="M29.2277 36.2699H31.0181C31.1896 36.2699 31.3258 36.4109 31.3161 36.5783L31.256 37.6193H28.8677L28.9297 36.5454C28.9385 36.3908 29.0693 36.2699 29.2277 36.2699Z" fill="#CCCCCC"/>
<path d="M29.2816 38.8727H30.8419C30.9517 38.8727 31.057 38.8291 31.1347 38.7515C31.2123 38.6738 31.256 38.5685 31.256 38.4587V37.6194H28.8676V38.4587C28.8676 38.5685 28.9112 38.6738 28.9888 38.7514C29.0665 38.8291 29.1718 38.8727 29.2816 38.8727ZM34.9516 38.0748C34.9095 37.8167 34.6863 37.6194 34.4162 37.6194H32.7431V39.6999H34.4162C34.6862 39.6999 34.9095 39.5027 34.9516 39.2445V38.0748Z" fill="#B3B3B3"/>
<path d="M19.9999 19.5864C21.3877 19.5864 22.6084 18.7775 22.9685 17.6192C23.0155 17.4664 23.0261 17.3048 22.9994 17.1472C22.9728 16.9896 22.9096 16.8404 22.815 16.7115C22.7194 16.5822 22.5948 16.4771 22.4513 16.4045C22.3078 16.3319 22.1493 16.2939 21.9885 16.2936H18.0114C17.8505 16.2939 17.692 16.3319 17.5485 16.4045C17.4049 16.4771 17.2804 16.5823 17.1848 16.7116C17.0902 16.8405 17.0271 16.9896 17.0004 17.1473C16.9738 17.3049 16.9845 17.4665 17.0315 17.6193C17.3914 18.7775 18.6121 19.5864 19.9999 19.5864ZM21.6264 17.5487C21.3211 18.016 20.6902 18.3312 20 18.3312C19.3097 18.3312 18.679 18.0161 18.3736 17.5487H21.6264Z" fill="#232323"/>
<path d="M39.998 38.7081L39.6056 31.1653C39.4513 28.3537 37.5819 25.9884 34.9542 25.2794C34.9464 25.2773 34.9384 25.2753 34.9305 25.2735L35.0909 23.0981C35.1312 22.5558 34.9531 22.028 34.6021 21.65C34.2962 21.3205 33.8913 21.139 33.4622 21.139H31.5939C31.4274 21.139 31.2678 21.2051 31.1501 21.3228C31.0324 21.4405 30.9663 21.6001 30.9663 21.7666C30.9663 21.933 31.0324 22.0926 31.1501 22.2103C31.2678 22.328 31.4274 22.3941 31.5939 22.3941H33.4622C33.5599 22.3941 33.6357 22.4539 33.6823 22.504C33.7949 22.6252 33.8535 22.8125 33.8392 23.0053L32.8078 36.992H31.921L31.9427 36.6146C31.9496 36.4901 31.9311 36.3654 31.8883 36.2483C31.8455 36.1311 31.7793 36.0239 31.6938 35.9331C31.6068 35.8414 31.502 35.7683 31.3858 35.7183C31.2697 35.6683 31.1446 35.6425 31.0181 35.6424H29.2278C28.7373 35.6424 28.3311 36.0232 28.3032 36.5093L28.2753 36.9919H11.7246L11.6967 36.5094C11.6687 36.0232 11.2626 35.6424 10.7722 35.6424H8.98171C8.85526 35.6425 8.73016 35.6683 8.61402 35.7183C8.49787 35.7683 8.3931 35.8414 8.30608 35.9331C8.22053 36.0239 8.15435 36.1311 8.11156 36.2483C8.06876 36.3655 8.05026 36.4901 8.05718 36.6147L8.0789 36.9919H7.19226L6.16093 23.0049C6.14663 22.8125 6.20531 22.6252 6.31781 22.504C6.36437 22.4538 6.44023 22.3941 6.53788 22.3941H28.9614C29.1278 22.3941 29.2874 22.328 29.4051 22.2103C29.5228 22.0926 29.5889 21.933 29.5889 21.7666C29.5889 21.6001 29.5228 21.4405 29.4051 21.3228C29.2874 21.2051 29.1278 21.139 28.9614 21.139H24.3153C24.3973 21.0696 24.4769 20.9973 24.554 20.9224L26.0443 19.462C27.1321 18.3959 27.756 16.8925 27.756 15.3374V14.8685C28.7252 14.5726 29.4209 13.7292 29.4209 12.7542V11.8186C29.4209 11.3816 29.2811 10.971 29.0397 10.6242V7.31246C29.0397 3.90567 26.2681 1.13403 22.8613 1.13403H17.1747C13.7679 1.13403 10.9962 3.90575 10.9962 7.31246V10.6243C10.7549 10.971 10.6151 11.3817 10.6151 11.8186V12.7542C10.6151 13.7292 11.3108 14.5724 12.2799 14.8684V15.3373C12.2799 16.8924 12.9038 18.3958 13.9917 19.4619L15.482 20.9224C15.5591 20.9972 15.6387 21.0695 15.7207 21.1389H6.53781C6.10867 21.1389 5.70382 21.3204 5.39789 21.6499C5.04695 22.028 4.86882 22.5557 4.90914 23.0975L5.06953 25.2734C5.06156 25.2752 5.05367 25.2771 5.04578 25.2792C2.41797 25.9882 0.548754 28.3536 0.394223 31.1669L0.315161 32.6861C0.310738 32.7712 0.323687 32.8563 0.35322 32.9362C0.382753 33.0161 0.42825 33.0892 0.486939 33.1509C0.545628 33.2127 0.61628 33.2619 0.694589 33.2955C0.772897 33.329 0.857223 33.3463 0.942425 33.3462C1.10312 33.3461 1.25764 33.2843 1.37414 33.1736C1.49063 33.0629 1.56023 32.9118 1.5686 32.7513L1.64758 31.2339C1.76797 29.0405 3.1707 27.1865 5.16382 26.5524L5.93359 36.9917H5.58359C4.93812 36.9917 4.41297 37.5169 4.41297 38.1623V39.0722H1.53953C1.43328 39.0722 1.36477 39.0168 1.33328 38.9836C1.30662 38.9557 1.28596 38.9226 1.27259 38.8864C1.25922 38.8502 1.25342 38.8116 1.25555 38.773L1.43063 35.4079C1.43491 35.3256 1.42295 35.2432 1.39541 35.1656C1.36787 35.0879 1.3253 35.0164 1.27012 34.9552C1.21495 34.8939 1.14826 34.8442 1.07385 34.8087C0.99945 34.7733 0.918793 34.7528 0.836488 34.7486C0.490317 34.7301 0.195083 34.9965 0.177193 35.3427L0.00211473 38.7079C-0.00836247 38.9165 0.0235272 39.125 0.0958597 39.3209C0.168192 39.5169 0.279468 39.6961 0.422973 39.8479C0.567039 39.9991 0.740242 40.1195 0.932131 40.2019C1.12402 40.2843 1.33062 40.327 1.53946 40.3274H38.4603C38.8806 40.3274 39.2877 40.1526 39.577 39.8479C39.7205 39.6962 39.8318 39.517 39.9041 39.3211C39.9765 39.1252 40.0084 38.9167 39.998 38.7081ZM28.1656 12.7542C28.1656 13.0457 28.0069 13.311 27.7559 13.4905V11.1098C27.8192 11.1591 27.8765 11.2146 27.9266 11.2757C27.9593 11.3157 27.9965 11.3503 28.0367 11.3803C28.1183 11.5128 28.1655 11.6617 28.1655 11.8186L28.1656 12.7542ZM12.2512 7.31246C12.2512 4.5977 14.4598 2.38919 17.1744 2.38919H22.8611C25.5757 2.38919 27.7843 4.59785 27.7843 7.31246V9.71316C27.6023 9.65537 27.4143 9.61793 27.224 9.60152C27.2153 9.59832 27.2066 9.59486 27.1981 9.59113L27.1944 9.58956C27.186 9.58579 27.1778 9.58159 27.1699 9.57699L27.1698 9.57199C27.1698 5.98559 25.4969 5.06153 24.9843 4.86379C24.9051 4.83322 24.8205 4.81904 24.7356 4.8221C24.6508 4.82517 24.5675 4.84542 24.4907 4.88164C24.4139 4.91785 24.3453 4.96927 24.289 5.03278C24.2326 5.09629 24.1898 5.17058 24.163 5.25113C23.5441 7.11043 22.0786 8.09746 19.8065 8.1848C19.3568 8.20214 18.9114 8.2105 18.4449 8.2105C17.6602 8.2105 16.971 8.18621 16.3629 8.16488C15.9363 8.14988 15.5604 8.13668 15.2146 8.13355C15.1658 8.13312 15.1169 8.13289 15.0681 8.13285C14.1224 8.13285 13.0594 8.20183 12.4135 9.02503C12.3268 9.13553 12.2797 9.27192 12.2797 9.41238V9.70355C12.2701 9.70644 12.2606 9.70941 12.2512 9.71245V7.31246ZM11.8701 12.7542V11.8185C11.8701 11.6028 11.9574 11.4016 12.1043 11.2385C12.1138 11.2279 12.1242 11.2181 12.1342 11.2078C12.1499 11.1917 12.1657 11.1757 12.1826 11.1604C12.1935 11.1507 12.2051 11.1416 12.2165 11.1322C12.234 11.1177 12.2516 11.1031 12.2702 11.0896C12.2733 11.0873 12.2766 11.0853 12.2797 11.083V13.4904C12.0288 13.3109 11.8701 13.0456 11.8701 12.7542ZM14.8701 18.5655C14.0215 17.7339 13.5349 16.5572 13.5349 15.3372V9.66745C13.7979 9.46605 14.2482 9.38792 15.0681 9.38792C15.4322 9.38792 15.8429 9.40238 16.3187 9.41917C16.9371 9.44089 17.6381 9.46558 18.445 9.4655C18.9279 9.4655 19.389 9.45683 19.8548 9.43886C22.8641 9.32316 24.3288 7.86597 25.04 6.4166C25.4365 6.85473 25.9148 7.75902 25.9148 9.57175C25.9148 9.60628 25.9164 9.64019 25.9189 9.67386C25.9196 9.68339 25.9206 9.69284 25.9214 9.7023C25.9239 9.72808 25.927 9.75347 25.9308 9.77863C25.9321 9.78691 25.9332 9.79527 25.9346 9.80347C25.9403 9.83628 25.9468 9.86855 25.9549 9.90027L25.9562 9.90488C25.964 9.93503 25.9731 9.96449 25.983 9.99355C25.9854 10.0007 25.988 10.0078 25.9906 10.0149C25.9999 10.0407 26.01 10.0659 26.0211 10.0907C26.0232 10.0955 26.025 10.1003 26.0272 10.105C26.041 10.135 26.0558 10.1645 26.072 10.1932C26.0728 10.1946 26.0739 10.196 26.0746 10.1976C26.0929 10.2295 26.1126 10.2605 26.1337 10.2905C26.1509 10.315 26.1688 10.3389 26.1878 10.3621L26.1924 10.3679C26.2139 10.3938 26.2364 10.4189 26.2603 10.4432L26.2673 10.4499C26.2883 10.471 26.3103 10.4914 26.3331 10.5113L26.3477 10.5239C26.3725 10.5449 26.398 10.5653 26.4246 10.5847C26.4253 10.5852 26.4259 10.5857 26.4266 10.5861C26.4506 10.6035 26.4753 10.6204 26.5008 10.6366V15.337C26.5008 16.557 26.0143 17.7336 25.1657 18.5652L23.6754 20.0257C23.0625 20.6264 22.2642 20.9573 21.4276 20.9573H18.608C17.7714 20.9573 16.9732 20.6264 16.3602 20.0257L14.8701 18.5655ZM30.6691 36.8976L30.6294 37.5832C30.6288 37.5947 30.6284 37.6062 30.6284 37.6178L30.6283 37.6193V38.245H29.4952V37.6374L29.5379 36.8973H30.6691V36.8976ZM10.4619 36.8976L10.5047 37.6376V38.2452H9.37155V37.6195C9.37155 37.6074 9.37124 37.5953 9.37046 37.5833L9.33085 36.8976L10.4619 36.8976ZM5.66812 39.0725V38.2471H6.58452C6.5928 38.2474 6.60085 38.2483 6.60921 38.2483H8.11624V38.4588C8.11624 38.6881 8.19069 38.9003 8.31663 39.0725H5.66812ZM19.9999 39.0725H11.5594C11.6899 38.8945 11.7602 38.6795 11.7599 38.4588V38.2483H28.2402V38.4588C28.2402 38.6881 28.3146 38.9003 28.4407 39.0725H19.9999ZM31.6831 39.0725C31.8136 38.8945 31.8838 38.6795 31.8835 38.4588V38.2483H33.3906C33.3989 38.2483 33.4071 38.2474 33.4153 38.2471H34.3317V39.0725H31.6831ZM38.6666 38.9838C38.6401 39.0119 38.6082 39.0342 38.5727 39.0495C38.5372 39.0647 38.4989 39.0725 38.4603 39.0724H35.5869V38.1625C35.5869 37.517 35.0617 36.9919 34.4163 36.9919H34.0663L34.836 26.5526C36.8292 27.1866 38.2318 29.0405 38.3522 31.2322L38.7445 38.7732C38.7466 38.8117 38.7408 38.8503 38.7274 38.8866C38.714 38.9228 38.6933 38.9559 38.6666 38.9838Z" fill="#232323"/>
<path d="M19.035 27.0935C18.6584 27.0935 18.3064 27.2511 18.0438 27.5374C17.7587 27.8481 17.6167 28.2751 17.6542 28.7089L17.8688 31.1918C17.935 31.9574 18.5286 32.5348 19.2496 32.5348H20.7504C21.4713 32.5348 22.0649 31.9575 22.1311 31.1918L22.3457 28.7088C22.3832 28.275 22.2411 27.8481 21.9561 27.5373C21.6936 27.251 21.3415 27.0934 20.9649 27.0934H19.035V27.0935ZM21.0953 28.6007L20.8807 31.0837C20.8702 31.2051 20.7977 31.2795 20.7504 31.2795H19.2496C19.2022 31.2795 19.1297 31.205 19.1193 31.0837L18.9047 28.6007C18.8975 28.5176 18.9214 28.4373 18.9686 28.3859C18.9842 28.3689 19.0084 28.3486 19.0349 28.3486H20.9648C20.9914 28.3486 21.0155 28.3689 21.0311 28.3858C21.0784 28.4373 21.1024 28.5176 21.0953 28.6007Z" fill="#232323"/>
</svg>
