<svg width="44" height="45" viewBox="0 0 44 45" fill="none" xmlns="http://www.w3.org/2000/svg">
<path d="M14.28 21.0489C15.1023 17.9806 18.2517 14.8267 21.32 14.0044L39.4509 8.87808C42.5192 8.05582 44.34 9.87656 43.5177 12.9448L37.39 32.0738C36.5677 35.1421 33.4152 38.296 30.3469 39.1182L12.2179 44.2446C9.14964 45.0669 7.32889 43.2461 8.15116 40.1779L14.28 21.0489Z" fill="#818CF8"/>
<path d="M8.61769 17.3903C9.43996 14.322 12.5894 11.1681 15.6577 10.3459L33.7886 5.21951C36.8569 4.39725 38.6776 6.21799 37.8554 9.28626L31.7277 28.4152C30.9054 31.4835 27.7528 34.6374 24.6846 35.4597L6.55559 40.586C3.48732 41.4083 1.66658 39.5876 2.48884 36.5193L8.61769 17.3903Z" fill="#4F46E5"/>
</svg>
