<svg width="167" height="170" viewBox="0 0 167 170" fill="none" xmlns="http://www.w3.org/2000/svg">
<path fill-rule="evenodd" clip-rule="evenodd" d="M109.716 161.763H109.695C108.8 161.763 108.014 162.118 107.36 162.628C107.234 162.728 107.076 162.785 106.963 162.898C106.336 163.529 105.973 164.39 105.894 165.331C105.886 165.436 105.834 165.528 105.834 165.636C105.834 166.114 105.947 166.56 106.107 166.981C106.159 167.117 106.225 167.236 106.291 167.364C106.433 167.64 106.603 167.895 106.808 168.129C106.908 168.244 106.998 168.363 107.11 168.465C107.42 168.746 107.762 168.993 108.151 169.164H108.153C108.634 169.377 109.16 169.505 109.716 169.505C111.442 169.505 112.853 168.36 113.355 166.797C113.489 166.44 113.581 166.067 113.583 165.657C113.583 165.649 113.589 165.644 113.589 165.636C113.589 163.495 111.855 161.763 109.716 161.763M163.887 115.603C163.511 115.446 163.093 115.385 162.665 115.356C162.589 115.354 162.529 115.312 162.45 115.312H162.429C160.29 115.312 158.567 117.045 158.567 119.185C158.567 119.705 158.677 120.196 158.864 120.643C158.995 120.963 159.211 121.221 159.413 121.491C159.497 121.593 159.544 121.719 159.634 121.814C160.277 122.497 161.165 122.917 162.158 122.996C162.163 122.996 162.169 122.998 162.174 123.001V122.998C162.268 123.006 162.353 123.054 162.45 123.054C164.588 123.054 166.322 121.32 166.322 119.185C166.322 117.557 165.311 116.176 163.887 115.603M30.6165 47.1824H30.5955C28.4571 47.1824 26.7338 48.9157 26.7338 51.0534C26.7338 53.1885 28.4781 54.9244 30.6165 54.9244C32.7523 54.9244 34.4887 53.1885 34.4887 51.0534C34.4887 48.9157 32.7523 47.1824 30.6165 47.1824M30.6165 138.538H30.5955C28.4571 138.538 26.7338 140.269 26.7338 142.41C26.7338 144.546 28.4781 146.279 30.6165 146.279C32.7523 146.279 34.4887 144.546 34.4887 142.41C34.4887 140.269 32.7523 138.538 30.6165 138.538M56.9832 78.1503C59.1215 78.1503 60.8554 76.4144 60.8554 74.2793C60.8554 72.139 59.1215 70.4083 56.9832 70.4083H56.9648C54.8238 70.4083 53.1005 72.139 53.1005 74.2793C53.1005 76.4144 54.8448 78.1503 56.9832 78.1503M30.6165 23.9566H30.5955C28.4571 23.9566 26.7338 25.6899 26.7338 27.8276C26.7338 29.9653 28.4781 31.6986 30.6165 31.6986C32.7523 31.6986 34.4887 29.9653 34.4887 27.8276C34.4887 25.6899 32.7523 23.9566 30.6165 23.9566M30.6165 92.0858H30.5955C28.4571 92.0858 26.7338 93.8191 26.7338 95.9568C26.7338 98.0945 28.4781 99.8277 30.6165 99.8277C32.7523 99.8277 34.4887 98.0945 34.4887 95.9568C34.4887 93.8191 32.7523 92.0858 30.6165 92.0858M30.6165 115.312H30.5955C28.4571 115.312 26.7338 117.045 26.7338 119.185C26.7338 121.32 28.4781 123.054 30.6165 123.054C32.7523 123.054 34.4887 121.32 34.4887 119.185C34.4887 117.045 32.7523 115.312 30.6165 115.312M56.9832 31.6986C59.1215 31.6986 60.8554 29.9653 60.8554 27.8276C60.8554 25.6899 59.1215 23.9566 56.9832 23.9566H56.9648C54.8238 23.9566 53.1005 25.6899 53.1005 27.8276C53.1005 29.9653 54.8448 31.6986 56.9832 31.6986M56.9832 54.9244C59.1215 54.9244 60.8554 53.1885 60.8554 51.0534C60.8554 48.9157 59.1215 47.1824 56.9832 47.1824H56.9648C54.8238 47.1824 53.1005 48.9157 53.1005 51.0534C53.1005 53.1885 54.8448 54.9244 56.9832 54.9244M56.9832 8.47267C59.1215 8.47267 60.8554 6.73939 60.8554 4.60169C60.8554 2.46399 59.1215 0.730713 56.9832 0.730713H56.9648C54.8238 0.730713 53.1005 2.46399 53.1005 4.60169C53.1005 6.73939 54.8448 8.47267 56.9832 8.47267M30.6165 70.4083H30.5955C28.4571 70.4083 26.7338 72.139 26.7338 74.2793C26.7338 76.4144 28.4781 78.1503 30.6165 78.1503C32.7523 78.1503 34.4887 76.4144 34.4887 74.2793C34.4887 72.139 32.7523 70.4083 30.6165 70.4083M4.25249 92.0858H4.22884C2.09047 92.0858 0.367157 93.8191 0.367157 95.9568C0.367157 98.0945 2.11411 99.8278 4.25249 99.8278C6.39086 99.8278 8.12205 98.0945 8.12205 95.9568C8.12205 93.8191 6.39086 92.0858 4.25249 92.0858M4.25249 70.4083H4.22884C2.09047 70.4083 0.367157 72.139 0.367157 74.2793C0.367157 76.4144 2.11411 78.1503 4.25249 78.1503C6.39086 78.1503 8.12205 76.4144 8.12205 74.2793C8.12205 72.139 6.39086 70.4083 4.25249 70.4083M4.25117 115.312H4.22752C3.74136 115.312 3.28674 115.422 2.86365 115.59C2.64816 115.671 2.46947 115.803 2.275 115.921C2.11207 116.023 1.94652 116.115 1.79936 116.244C1.54445 116.451 1.34473 116.693 1.15027 116.961C1.11348 117.016 1.07669 117.066 1.0399 117.126C0.829665 117.452 0.67462 117.793 0.569504 118.177L0.566876 118.179V118.182C0.477528 118.508 0.367157 118.828 0.367157 119.185C0.367157 120.708 1.27378 121.998 2.55881 122.628V122.631H2.56144C3.07388 122.88 3.62574 123.046 4.23015 123.048C4.23803 123.048 4.24329 123.054 4.25117 123.054C6.39027 123.054 8.12205 121.32 8.12205 119.185C8.12205 118.649 8.01431 118.14 7.81722 117.678C7.2312 116.289 5.85418 115.312 4.25117 115.312M136.083 70.4083H136.062C133.924 70.4083 132.2 72.139 132.2 74.2793C132.2 76.4144 133.945 78.1503 136.083 78.1503C138.221 78.1503 139.955 76.4144 139.955 74.2793C139.955 72.139 138.221 70.4083 136.083 70.4083M4.25117 47.1824H4.22752C3.78604 47.1824 3.37872 47.2796 2.99504 47.4319C2.64554 47.5527 2.3407 47.7339 2.04638 47.944C2.04375 47.944 2.04375 47.944 2.04112 47.9467V47.9467C1.05041 48.6478 0.367157 49.7456 0.367157 51.0534C0.367157 51.2189 0.440738 51.3581 0.461761 51.5209H0.459133C0.459133 51.5261 0.461761 51.5288 0.464389 51.5314C0.585272 52.4742 1.00836 53.3067 1.68373 53.9107C1.7757 53.9947 1.89133 54.042 1.98856 54.1155C2.25398 54.3099 2.50888 54.5121 2.8216 54.6355C3.26046 54.8167 3.73874 54.9244 4.25117 54.9244C5.85418 54.9244 7.2312 53.9501 7.81722 52.5582C8.01431 52.096 8.12205 51.5865 8.12205 51.0534C8.12205 50.5203 8.01431 50.0108 7.81722 49.5486C7.2312 48.1568 5.85418 47.1824 4.25117 47.1824M136.083 92.0858H136.062C133.924 92.0858 132.2 93.8191 132.2 95.9568C132.2 98.0945 133.945 99.8277 136.083 99.8277C138.221 99.8277 139.955 98.0945 139.955 95.9568C139.955 93.8191 138.221 92.0858 136.083 92.0858M136.083 47.1824H136.062C133.924 47.1824 132.2 48.9157 132.2 51.0534C132.2 53.1885 133.945 54.9244 136.083 54.9244C138.221 54.9244 139.955 53.1885 139.955 51.0534C139.955 48.9157 138.221 47.1824 136.083 47.1824M136.083 138.538H136.062C133.924 138.538 132.2 140.269 132.2 142.41C132.2 144.546 133.945 146.279 136.083 146.279C138.221 146.279 139.955 144.546 139.955 142.41C139.955 140.269 138.221 138.538 136.083 138.538M136.083 115.312H136.062C133.924 115.312 132.2 117.045 132.2 119.185C132.2 121.32 133.945 123.054 136.083 123.054C138.221 123.054 139.955 121.32 139.955 119.185C139.955 117.045 138.221 115.312 136.083 115.312M109.718 8.47267C111.855 8.47267 113.589 6.73939 113.589 4.60169C113.589 4.60169 113.586 4.59906 113.586 4.59644C113.586 3.96878 113.402 3.3989 113.134 2.87367C113.108 2.82377 113.074 2.78701 113.045 2.73973C112.764 2.24339 112.381 1.83108 111.916 1.50018V1.50018H111.913C111.28 1.05111 110.55 0.730713 109.718 0.730713H109.697C107.559 0.730713 105.834 2.46399 105.834 4.60169C105.834 6.73939 107.58 8.47267 109.718 8.47267M136.083 23.9566H136.062C133.924 23.9566 132.2 25.6899 132.2 27.8276C132.2 29.9653 133.945 31.6986 136.083 31.6986C138.221 31.6986 139.955 29.9653 139.955 27.8276C139.955 25.6899 138.221 23.9566 136.083 23.9566M109.716 47.1824H109.695C107.557 47.1824 105.834 48.9157 105.834 51.0534C105.834 53.1885 107.578 54.9244 109.716 54.9244C111.855 54.9244 113.589 53.1885 113.589 51.0534C113.589 48.9157 111.855 47.1824 109.716 47.1824M109.716 115.312H109.695C107.557 115.312 105.834 117.045 105.834 119.185C105.834 121.32 107.578 123.054 109.716 123.054C111.855 123.054 113.589 121.32 113.589 119.185C113.589 117.045 111.855 115.312 109.716 115.312M109.716 92.0858H109.695C107.557 92.0858 105.834 93.8191 105.834 95.9568C105.834 98.0945 107.578 99.8277 109.716 99.8277C111.855 99.8277 113.589 98.0945 113.589 95.9568C113.589 93.8191 111.855 92.0858 109.716 92.0858M109.716 70.4083H109.695C107.557 70.4083 105.834 72.139 105.834 74.2793C105.834 76.4144 107.578 78.1503 109.716 78.1503C111.855 78.1503 113.589 76.4144 113.589 74.2793C113.589 72.139 111.855 70.4083 109.716 70.4083M109.716 138.538H109.695C107.557 138.538 105.834 140.269 105.834 142.41C105.834 144.546 107.578 146.279 109.716 146.279C111.855 146.279 113.589 144.546 113.589 142.41C113.589 140.269 111.855 138.538 109.716 138.538M56.9832 99.8277C59.1215 99.8277 60.8554 98.0945 60.8554 95.9568C60.8554 93.8191 59.1215 92.0858 56.9832 92.0858H56.9648C54.8238 92.0858 53.1005 93.8191 53.1005 95.9568C53.1005 98.0945 54.8448 99.8277 56.9832 99.8277M59.7205 162.898C59.6049 162.783 59.4473 162.725 59.3186 162.628C58.6644 162.118 57.879 161.763 56.9832 161.763H56.9621C54.8238 161.763 53.1005 163.495 53.1005 165.636C53.1005 166.687 53.5287 167.632 54.2117 168.331C54.2143 168.334 54.2143 168.336 54.2169 168.336C54.921 169.056 55.8982 169.505 56.9832 169.505C57.1881 169.505 57.3641 169.421 57.5611 169.39V169.39C57.5637 169.39 57.5664 169.387 57.569 169.387C58.4832 169.245 59.2818 168.825 59.8623 168.16C59.9569 168.058 60.0121 167.932 60.0935 167.819C60.2695 167.569 60.4561 167.333 60.5716 167.046C60.745 166.618 60.8475 166.151 60.8501 165.651C60.8501 165.646 60.8554 165.644 60.8554 165.636C60.8554 164.653 60.4587 163.781 59.8571 163.098C59.8019 163.035 59.7783 162.953 59.7205 162.898M160.94 54.6199C161.405 54.8168 161.915 54.9244 162.451 54.9244C163.016 54.9244 163.544 54.7905 164.028 54.5726C164.044 54.5647 164.054 54.5516 164.07 54.5437C164.543 54.3232 164.95 54.0134 165.294 53.6301C165.92 52.9449 166.322 52.0523 166.322 51.0547C166.322 48.9177 164.588 47.1824 162.451 47.1824H162.43C160.291 47.1824 158.567 48.9177 158.567 51.0547C158.567 52.6561 159.547 54.0318 160.94 54.6199M162.451 78.1503C164.588 78.1503 166.322 76.4144 166.322 74.2793C166.322 72.139 164.588 70.4083 162.451 70.4083H162.43C160.291 70.4083 158.567 72.139 158.567 74.2793C158.567 76.4144 160.309 78.1503 162.451 78.1503M162.451 99.8277C164.588 99.8277 166.322 98.0945 166.322 95.9568C166.322 93.8191 164.588 92.0858 162.451 92.0858H162.43C160.291 92.0858 158.567 93.8191 158.567 95.9568C158.567 98.0945 160.309 99.8277 162.451 99.8277M83.3498 47.1824H83.3314C81.193 47.1824 79.4671 48.9157 79.4671 51.0534C79.4671 53.1885 81.2114 54.9244 83.3498 54.9244C85.4882 54.9244 87.222 53.1885 87.222 51.0534C87.222 48.9157 85.4882 47.1824 83.3498 47.1824M83.3498 23.9566H83.3314C81.193 23.9566 79.4671 25.6899 79.4671 27.8276C79.4671 29.9653 81.2114 31.6986 83.3498 31.6986C85.4882 31.6986 87.222 29.9653 87.222 27.8276C87.222 25.6899 85.4882 23.9566 83.3498 23.9566M83.3498 0.730713H83.3314C81.193 0.730713 79.4671 2.46399 79.4671 4.60169C79.4671 6.73939 81.2114 8.47267 83.3498 8.47267C85.4882 8.47267 87.222 6.73939 87.222 4.60169C87.222 2.46399 85.4882 0.730713 83.3498 0.730713M56.9832 146.279C59.1215 146.279 60.8554 144.546 60.8554 142.41C60.8554 140.269 59.1215 138.538 56.9832 138.538H56.9648C54.8238 138.538 53.1005 140.269 53.1005 142.41C53.1005 144.546 54.8448 146.279 56.9832 146.279M56.9832 123.054C59.1215 123.054 60.8554 121.32 60.8554 119.185C60.8554 117.045 59.1215 115.312 56.9832 115.312H56.9648C54.8238 115.312 53.1005 117.045 53.1005 119.185C53.1005 121.32 54.8448 123.054 56.9832 123.054M83.3498 70.4083H83.3314C81.193 70.4083 79.4671 72.139 79.4671 74.2793C79.4671 76.4144 81.2114 78.1503 83.3498 78.1503C85.4882 78.1503 87.222 76.4144 87.222 74.2793C87.222 72.139 85.4882 70.4083 83.3498 70.4083M109.716 23.9566H109.695C107.557 23.9566 105.834 25.6899 105.834 27.8276C105.834 29.9653 107.578 31.6986 109.716 31.6986C111.855 31.6986 113.589 29.9653 113.589 27.8276C113.589 25.6899 111.855 23.9566 109.716 23.9566M83.3498 138.538H83.3314C81.193 138.538 79.4671 140.269 79.4671 142.41C79.4671 144.546 81.2114 146.279 83.3498 146.279C85.4882 146.279 87.222 144.546 87.222 142.41C87.222 140.269 85.4882 138.538 83.3498 138.538M83.3498 161.763H83.3314C81.193 161.763 79.4671 163.497 79.4671 165.636C79.4671 167.774 81.2114 169.505 83.3498 169.505C85.4882 169.505 87.222 167.774 87.222 165.636C87.222 163.497 85.4882 161.763 83.3498 161.763M83.3498 115.312H83.3314C81.193 115.312 79.4671 117.045 79.4671 119.185C79.4671 121.32 81.2114 123.054 83.3498 123.054C85.4882 123.054 87.222 121.32 87.222 119.185C87.222 117.045 85.4882 115.312 83.3498 115.312M83.3498 92.0858H83.3314C81.193 92.0858 79.4671 93.8191 79.4671 95.9568C79.4671 98.0945 81.2114 99.8277 83.3498 99.8277C85.4882 99.8277 87.222 98.0945 87.222 95.9568C87.222 93.8191 85.4882 92.0858 83.3498 92.0858" fill="#4338CA"/>
</svg>
