<svg width="317" height="148" viewBox="0 0 317 148" fill="none" xmlns="http://www.w3.org/2000/svg">
<path fill-rule="evenodd" clip-rule="evenodd" d="M13.9568 7.20911C13.9568 10.7873 11.0547 13.6875 7.47962 13.6875C3.90212 13.6875 1 10.7873 1 7.20911C1 3.63094 3.90212 0.730716 7.47962 0.730716C11.0547 0.730716 13.9568 3.63094 13.9568 7.20911Z" stroke="#4F46E5"/>
<path fill-rule="evenodd" clip-rule="evenodd" d="M49.1252 7.20911C49.1252 10.7873 46.2231 13.6875 42.648 13.6875C39.0705 13.6875 36.1684 10.7873 36.1684 7.20911C36.1684 3.63094 39.0705 0.730716 42.648 0.730716C46.2231 0.730716 49.1252 3.63094 49.1252 7.20911Z" stroke="#4F46E5"/>
<path fill-rule="evenodd" clip-rule="evenodd" d="M82.4427 7.20911C82.4427 10.7873 79.5405 13.6875 75.9655 13.6875C72.388 13.6875 69.4859 10.7873 69.4859 7.20911C69.4859 3.63094 72.388 0.730716 75.9655 0.730716C79.5405 0.730716 82.4427 3.63094 82.4427 7.20911Z" stroke="#4F46E5"/>
<path fill-rule="evenodd" clip-rule="evenodd" d="M115.76 7.20911C115.76 10.7873 112.86 13.6875 109.283 13.6875C105.705 13.6875 102.803 10.7873 102.803 7.20911C102.803 3.63094 105.705 0.730716 109.283 0.730716C112.86 0.730716 115.76 3.63094 115.76 7.20911Z" stroke="#4F46E5"/>
<path fill-rule="evenodd" clip-rule="evenodd" d="M149.078 7.20911C149.078 10.7873 146.177 13.6875 142.599 13.6875C139.021 13.6875 136.121 10.7873 136.121 7.20911C136.121 3.63094 139.021 0.730716 142.599 0.730716C146.177 0.730716 149.078 3.63094 149.078 7.20911Z" stroke="#4F46E5"/>
<path fill-rule="evenodd" clip-rule="evenodd" d="M182.395 7.20911C182.395 10.7873 179.495 13.6875 175.917 13.6875C172.338 13.6875 169.438 10.7873 169.438 7.20911C169.438 3.63094 172.338 0.730716 175.917 0.730716C179.495 0.730716 182.395 3.63094 182.395 7.20911Z" stroke="#4F46E5"/>
<path fill-rule="evenodd" clip-rule="evenodd" d="M215.712 7.20911C215.712 10.7873 212.812 13.6875 209.236 13.6875C205.656 13.6875 202.756 10.7873 202.756 7.20911C202.756 3.63094 205.656 0.730716 209.236 0.730716C212.812 0.730716 215.712 3.63094 215.712 7.20911Z" stroke="#4F46E5"/>
<path fill-rule="evenodd" clip-rule="evenodd" d="M249.03 7.20911C249.03 10.7873 246.128 13.6875 242.553 13.6875C238.973 13.6875 236.073 10.7873 236.073 7.20911C236.073 3.63094 238.973 0.730716 242.553 0.730716C246.128 0.730716 249.03 3.63094 249.03 7.20911Z" stroke="#4F46E5"/>
<path fill-rule="evenodd" clip-rule="evenodd" d="M282.347 7.20911C282.347 10.7873 279.445 13.6875 275.87 13.6875C272.293 13.6875 269.391 10.7873 269.391 7.20911C269.391 3.63094 272.293 0.730716 275.87 0.730716C279.445 0.730716 282.347 3.63094 282.347 7.20911Z" stroke="#4F46E5"/>
<path fill-rule="evenodd" clip-rule="evenodd" d="M315.665 7.20911C315.665 10.7873 312.763 13.6875 309.188 13.6875C305.61 13.6875 302.708 10.7873 302.708 7.20911C302.708 3.63094 305.61 0.730716 309.188 0.730716C312.763 0.730716 315.665 3.63094 315.665 7.20911Z" stroke="#4F46E5"/>
<path fill-rule="evenodd" clip-rule="evenodd" d="M13.9568 40.5265C13.9568 44.1047 11.0547 47.0049 7.47962 47.0049C3.90212 47.0049 1 44.1047 1 40.5265C1 36.9483 3.90212 34.0481 7.47962 34.0481C11.0547 34.0481 13.9568 36.9483 13.9568 40.5265Z" stroke="#4F46E5"/>
<path fill-rule="evenodd" clip-rule="evenodd" d="M49.1252 40.5265C49.1252 44.1047 46.2231 47.0049 42.648 47.0049C39.0705 47.0049 36.1684 44.1047 36.1684 40.5265C36.1684 36.9483 39.0705 34.0481 42.648 34.0481C46.2231 34.0481 49.1252 36.9483 49.1252 40.5265Z" stroke="#4F46E5"/>
<path fill-rule="evenodd" clip-rule="evenodd" d="M82.4427 40.5265C82.4427 44.1047 79.5405 47.0049 75.9655 47.0049C72.388 47.0049 69.4859 44.1047 69.4859 40.5265C69.4859 36.9483 72.388 34.0481 75.9655 34.0481C79.5405 34.0481 82.4427 36.9483 82.4427 40.5265Z" stroke="#4F46E5"/>
<path fill-rule="evenodd" clip-rule="evenodd" d="M115.76 40.5265C115.76 44.1047 112.86 47.0049 109.283 47.0049C105.705 47.0049 102.803 44.1047 102.803 40.5265C102.803 36.9483 105.705 34.0481 109.283 34.0481C112.86 34.0481 115.76 36.9483 115.76 40.5265Z" stroke="#4F46E5"/>
<path fill-rule="evenodd" clip-rule="evenodd" d="M149.078 40.5265C149.078 44.1047 146.177 47.0049 142.599 47.0049C139.021 47.0049 136.121 44.1047 136.121 40.5265C136.121 36.9483 139.021 34.0481 142.599 34.0481C146.177 34.0481 149.078 36.9483 149.078 40.5265Z" stroke="#4F46E5"/>
<path fill-rule="evenodd" clip-rule="evenodd" d="M182.395 40.5265C182.395 44.1047 179.495 47.0049 175.917 47.0049C172.338 47.0049 169.438 44.1047 169.438 40.5265C169.438 36.9483 172.338 34.0481 175.917 34.0481C179.495 34.0481 182.395 36.9483 182.395 40.5265Z" stroke="#4F46E5"/>
<path fill-rule="evenodd" clip-rule="evenodd" d="M215.712 40.5265C215.712 44.1047 212.812 47.0049 209.236 47.0049C205.656 47.0049 202.756 44.1047 202.756 40.5265C202.756 36.9483 205.656 34.0481 209.236 34.0481C212.812 34.0481 215.712 36.9483 215.712 40.5265Z" stroke="#4F46E5"/>
<path fill-rule="evenodd" clip-rule="evenodd" d="M249.03 40.5265C249.03 44.1047 246.128 47.0049 242.553 47.0049C238.973 47.0049 236.073 44.1047 236.073 40.5265C236.073 36.9483 238.973 34.0481 242.553 34.0481C246.128 34.0481 249.03 36.9483 249.03 40.5265Z" stroke="#4F46E5"/>
<path fill-rule="evenodd" clip-rule="evenodd" d="M282.347 40.5265C282.347 44.1047 279.445 47.0049 275.87 47.0049C272.293 47.0049 269.391 44.1047 269.391 40.5265C269.391 36.9483 272.293 34.0481 275.87 34.0481C279.445 34.0481 282.347 36.9483 282.347 40.5265Z" stroke="#4F46E5"/>
<path fill-rule="evenodd" clip-rule="evenodd" d="M315.665 40.5265C315.665 44.1047 312.763 47.0049 309.188 47.0049C305.61 47.0049 302.708 44.1047 302.708 40.5265C302.708 36.9483 305.61 34.0481 309.188 34.0481C312.763 34.0481 315.665 36.9483 315.665 40.5265Z" stroke="#4F46E5"/>
<path fill-rule="evenodd" clip-rule="evenodd" d="M13.9568 73.844C13.9568 77.4222 11.0547 80.3224 7.47962 80.3224C3.90212 80.3224 1 77.4222 1 73.844C1 70.2658 3.90212 67.3656 7.47962 67.3656C11.0547 67.3656 13.9568 70.2658 13.9568 73.844Z" stroke="#4F46E5"/>
<path fill-rule="evenodd" clip-rule="evenodd" d="M49.1252 73.844C49.1252 77.4222 46.2231 80.3224 42.648 80.3224C39.0705 80.3224 36.1684 77.4222 36.1684 73.844C36.1684 70.2658 39.0705 67.3656 42.648 67.3656C46.2231 67.3656 49.1252 70.2658 49.1252 73.844Z" stroke="#4F46E5"/>
<path fill-rule="evenodd" clip-rule="evenodd" d="M82.4427 73.844C82.4427 77.4222 79.5405 80.3224 75.9655 80.3224C72.388 80.3224 69.4859 77.4222 69.4859 73.844C69.4859 70.2658 72.388 67.3656 75.9655 67.3656C79.5405 67.3656 82.4427 70.2658 82.4427 73.844Z" stroke="#4F46E5"/>
<path fill-rule="evenodd" clip-rule="evenodd" d="M115.76 73.844C115.76 77.4222 112.86 80.3224 109.283 80.3224C105.705 80.3224 102.803 77.4222 102.803 73.844C102.803 70.2658 105.705 67.3656 109.283 67.3656C112.86 67.3656 115.76 70.2658 115.76 73.844Z" stroke="#4F46E5"/>
<path fill-rule="evenodd" clip-rule="evenodd" d="M149.078 73.844C149.078 77.4222 146.177 80.3224 142.599 80.3224C139.021 80.3224 136.121 77.4222 136.121 73.844C136.121 70.2658 139.021 67.3656 142.599 67.3656C146.177 67.3656 149.078 70.2658 149.078 73.844Z" stroke="#4F46E5"/>
<path fill-rule="evenodd" clip-rule="evenodd" d="M182.395 73.844C182.395 77.4222 179.495 80.3224 175.917 80.3224C172.338 80.3224 169.438 77.4222 169.438 73.844C169.438 70.2658 172.338 67.3656 175.917 67.3656C179.495 67.3656 182.395 70.2658 182.395 73.844Z" stroke="#4F46E5"/>
<path fill-rule="evenodd" clip-rule="evenodd" d="M215.712 73.844C215.712 77.4222 212.812 80.3224 209.236 80.3224C205.656 80.3224 202.756 77.4222 202.756 73.844C202.756 70.2658 205.656 67.3656 209.236 67.3656C212.812 67.3656 215.712 70.2658 215.712 73.844Z" stroke="#4F46E5"/>
<path fill-rule="evenodd" clip-rule="evenodd" d="M249.03 73.844C249.03 77.4222 246.128 80.3224 242.553 80.3224C238.973 80.3224 236.073 77.4222 236.073 73.844C236.073 70.2658 238.973 67.3656 242.553 67.3656C246.128 67.3656 249.03 70.2658 249.03 73.844Z" stroke="#4F46E5"/>
<path fill-rule="evenodd" clip-rule="evenodd" d="M282.347 73.844C282.347 77.4222 279.445 80.3224 275.87 80.3224C272.293 80.3224 269.391 77.4222 269.391 73.844C269.391 70.2658 272.293 67.3656 275.87 67.3656C279.445 67.3656 282.347 70.2658 282.347 73.844Z" stroke="#4F46E5"/>
<path fill-rule="evenodd" clip-rule="evenodd" d="M315.665 73.844C315.665 77.4222 312.763 80.3224 309.188 80.3224C305.61 80.3224 302.708 77.4222 302.708 73.844C302.708 70.2658 305.61 67.3656 309.188 67.3656C312.763 67.3656 315.665 70.2658 315.665 73.844Z" stroke="#4F46E5"/>
<path fill-rule="evenodd" clip-rule="evenodd" d="M13.9568 107.162C13.9568 110.74 11.0547 113.64 7.47962 113.64C3.90212 113.64 1 110.74 1 107.162C1 103.583 3.90212 100.683 7.47962 100.683C11.0547 100.683 13.9568 103.583 13.9568 107.162Z" stroke="#4F46E5"/>
<path fill-rule="evenodd" clip-rule="evenodd" d="M49.1252 107.162C49.1252 110.74 46.2231 113.64 42.648 113.64C39.0705 113.64 36.1684 110.74 36.1684 107.162C36.1684 103.583 39.0705 100.683 42.648 100.683C46.2231 100.683 49.1252 103.583 49.1252 107.162Z" stroke="#4F46E5"/>
<path fill-rule="evenodd" clip-rule="evenodd" d="M82.4427 107.162C82.4427 110.74 79.5405 113.64 75.9655 113.64C72.388 113.64 69.4859 110.74 69.4859 107.162C69.4859 103.583 72.388 100.683 75.9655 100.683C79.5405 100.683 82.4427 103.583 82.4427 107.162Z" stroke="#4F46E5"/>
<path fill-rule="evenodd" clip-rule="evenodd" d="M115.76 107.162C115.76 110.74 112.86 113.64 109.283 113.64C105.705 113.64 102.803 110.74 102.803 107.162C102.803 103.583 105.705 100.683 109.283 100.683C112.86 100.683 115.76 103.583 115.76 107.162Z" stroke="#4F46E5"/>
<path fill-rule="evenodd" clip-rule="evenodd" d="M149.078 107.162C149.078 110.74 146.177 113.64 142.599 113.64C139.021 113.64 136.121 110.74 136.121 107.162C136.121 103.583 139.021 100.683 142.599 100.683C146.177 100.683 149.078 103.583 149.078 107.162Z" stroke="#4F46E5"/>
<path fill-rule="evenodd" clip-rule="evenodd" d="M182.395 107.162C182.395 110.74 179.495 113.64 175.917 113.64C172.338 113.64 169.438 110.74 169.438 107.162C169.438 103.583 172.338 100.683 175.917 100.683C179.495 100.683 182.395 103.583 182.395 107.162Z" stroke="#4F46E5"/>
<path fill-rule="evenodd" clip-rule="evenodd" d="M215.712 107.162C215.712 110.74 212.812 113.64 209.236 113.64C205.656 113.64 202.756 110.74 202.756 107.162C202.756 103.583 205.656 100.683 209.236 100.683C212.812 100.683 215.712 103.583 215.712 107.162Z" stroke="#4F46E5"/>
<path fill-rule="evenodd" clip-rule="evenodd" d="M249.03 107.162C249.03 110.74 246.128 113.64 242.553 113.64C238.973 113.64 236.073 110.74 236.073 107.162C236.073 103.583 238.973 100.683 242.553 100.683C246.128 100.683 249.03 103.583 249.03 107.162Z" stroke="#4F46E5"/>
<path fill-rule="evenodd" clip-rule="evenodd" d="M282.347 107.162C282.347 110.74 279.445 113.64 275.87 113.64C272.293 113.64 269.391 110.74 269.391 107.162C269.391 103.583 272.293 100.683 275.87 100.683C279.445 100.683 282.347 103.583 282.347 107.162Z" stroke="#4F46E5"/>
<path fill-rule="evenodd" clip-rule="evenodd" d="M315.665 107.162C315.665 110.74 312.763 113.64 309.188 113.64C305.61 113.64 302.708 110.74 302.708 107.162C302.708 103.583 305.61 100.683 309.188 100.683C312.763 100.683 315.665 103.583 315.665 107.162Z" stroke="#4F46E5"/>
<path fill-rule="evenodd" clip-rule="evenodd" d="M13.9568 140.479C13.9568 144.057 11.0547 146.957 7.47962 146.957C3.90212 146.957 1 144.057 1 140.479C1 136.901 3.90212 134 7.47962 134C11.0547 134 13.9568 136.901 13.9568 140.479Z" stroke="#4F46E5"/>
<path fill-rule="evenodd" clip-rule="evenodd" d="M49.1252 140.479C49.1252 144.057 46.2231 146.957 42.648 146.957C39.0705 146.957 36.1684 144.057 36.1684 140.479C36.1684 136.901 39.0705 134 42.648 134C46.2231 134 49.1252 136.901 49.1252 140.479Z" stroke="#4F46E5"/>
<path fill-rule="evenodd" clip-rule="evenodd" d="M82.4427 140.479C82.4427 144.057 79.5405 146.957 75.9655 146.957C72.388 146.957 69.4859 144.057 69.4859 140.479C69.4859 136.901 72.388 134 75.9655 134C79.5405 134 82.4427 136.901 82.4427 140.479Z" stroke="#4F46E5"/>
<path fill-rule="evenodd" clip-rule="evenodd" d="M115.76 140.479C115.76 144.057 112.86 146.957 109.283 146.957C105.705 146.957 102.803 144.057 102.803 140.479C102.803 136.901 105.705 134 109.283 134C112.86 134 115.76 136.901 115.76 140.479Z" stroke="#4F46E5"/>
<path fill-rule="evenodd" clip-rule="evenodd" d="M149.078 140.479C149.078 144.057 146.177 146.957 142.599 146.957C139.021 146.957 136.121 144.057 136.121 140.479C136.121 136.901 139.021 134 142.599 134C146.177 134 149.078 136.901 149.078 140.479Z" stroke="#4F46E5"/>
<path fill-rule="evenodd" clip-rule="evenodd" d="M182.395 140.479C182.395 144.057 179.495 146.957 175.917 146.957C172.338 146.957 169.438 144.057 169.438 140.479C169.438 136.901 172.338 134 175.917 134C179.495 134 182.395 136.901 182.395 140.479Z" stroke="#4F46E5"/>
<path fill-rule="evenodd" clip-rule="evenodd" d="M215.712 140.479C215.712 144.057 212.812 146.957 209.236 146.957C205.656 146.957 202.756 144.057 202.756 140.479C202.756 136.901 205.656 134 209.236 134C212.812 134 215.712 136.901 215.712 140.479Z" stroke="#4F46E5"/>
<path fill-rule="evenodd" clip-rule="evenodd" d="M249.03 140.479C249.03 144.057 246.128 146.957 242.553 146.957C238.973 146.957 236.073 144.057 236.073 140.479C236.073 136.901 238.973 134 242.553 134C246.128 134 249.03 136.901 249.03 140.479Z" stroke="#4F46E5"/>
<path fill-rule="evenodd" clip-rule="evenodd" d="M282.347 140.479C282.347 144.057 279.445 146.957 275.87 146.957C272.293 146.957 269.391 144.057 269.391 140.479C269.391 136.901 272.293 134 275.87 134C279.445 134 282.347 136.901 282.347 140.479Z" stroke="#4F46E5"/>
<path fill-rule="evenodd" clip-rule="evenodd" d="M315.665 140.479C315.665 144.057 312.763 146.957 309.188 146.957C305.61 146.957 302.708 144.057 302.708 140.479C302.708 136.901 305.61 134 309.188 134C312.763 134 315.665 136.901 315.665 140.479Z" stroke="#4F46E5"/>
</svg>
