<svg width="124" height="113" viewBox="0 0 124 113" fill="none" xmlns="http://www.w3.org/2000/svg">
<path fill-rule="evenodd" clip-rule="evenodd" d="M3.66476 20.2875C4.45376 20.2875 5.22776 19.968 5.78576 19.4085C6.34526 18.8505 6.66476 18.078 6.66476 17.2875C6.66476 16.497 6.34526 15.7245 5.78576 15.1665C5.22776 14.607 4.45376 14.2875 3.66476 14.2875C2.87426 14.2875 2.10176 14.607 1.54226 15.1665C0.984264 15.7245 0.664764 16.497 0.664764 17.2875C0.664764 18.078 0.984264 18.8505 1.54226 19.4085C2.10176 19.968 2.87426 20.2875 3.66476 20.2875" fill="#4F46E5"/>
<path fill-rule="evenodd" clip-rule="evenodd" d="M36.6573 20.2875H36.6722C38.3256 20.2875 39.6648 18.9435 39.6648 17.2875C39.6648 15.6315 38.3256 14.2875 36.6722 14.2875H36.6573C35.0054 14.2875 33.6648 15.6315 33.6648 17.2875C33.6648 18.9435 35.0054 20.2875 36.6573 20.2875" fill="#4F46E5"/>
<path fill-rule="evenodd" clip-rule="evenodd" d="M20.6573 20.2875H20.6722C22.3241 20.2875 23.6648 18.9435 23.6648 17.2875C23.6648 15.6315 22.3241 14.2875 20.6722 14.2875H20.6573C19.0054 14.2875 17.6648 15.6315 17.6648 17.2875C17.6648 18.9435 19.0054 20.2875 20.6573 20.2875" fill="#4F46E5"/>
<path fill-rule="evenodd" clip-rule="evenodd" d="M53.6648 20.2875C54.4538 20.2875 55.2278 19.968 55.7858 19.4085C56.3453 18.8505 56.6648 18.078 56.6648 17.2875C56.6648 16.497 56.3453 15.7245 55.7858 15.1665C55.2278 14.607 54.4538 14.2875 53.6648 14.2875C52.8743 14.2875 52.1018 14.607 51.5423 15.1665C50.9843 15.7245 50.6648 16.497 50.6648 17.2875C50.6648 18.078 50.9843 18.8505 51.5423 19.4085C52.1018 19.968 52.8743 20.2875 53.6648 20.2875" fill="#4F46E5"/>
<path fill-rule="evenodd" clip-rule="evenodd" d="M70.6648 20.2875C71.4553 20.2875 72.2278 19.968 72.7873 19.4085C73.3453 18.8505 73.6648 18.078 73.6648 17.2875C73.6648 16.497 73.3453 15.7245 72.7873 15.1665C72.2278 14.607 71.4553 14.2875 70.6648 14.2875C69.8758 14.2875 69.1018 14.607 68.5438 15.1665C67.9843 15.7245 67.6648 16.497 67.6648 17.2875C67.6648 18.078 67.9843 18.8505 68.5438 19.4085C69.1018 19.968 69.8758 20.2875 70.6648 20.2875" fill="#4F46E5"/>
<path fill-rule="evenodd" clip-rule="evenodd" d="M103.657 20.2875H103.672C105.326 20.2875 106.665 18.9435 106.665 17.2875C106.665 15.6315 105.326 14.2875 103.672 14.2875H103.657C102.005 14.2875 100.665 15.6315 100.665 17.2875C100.665 18.9435 102.005 20.2875 103.657 20.2875" fill="#4F46E5"/>
<path fill-rule="evenodd" clip-rule="evenodd" d="M86.6573 20.2875H86.6722C88.3241 20.2875 89.6648 18.9435 89.6648 17.2875C89.6648 15.6315 88.3241 14.2875 86.6722 14.2875H86.6573C85.0054 14.2875 83.6648 15.6315 83.6648 17.2875C83.6648 18.9435 85.0054 20.2875 86.6573 20.2875" fill="#4F46E5"/>
<mask id="mask0_162_1380" style="mask-type:luminance" maskUnits="userSpaceOnUse" x="116" y="14" width="8" height="7">
<path fill-rule="evenodd" clip-rule="evenodd" d="M116.967 14.0753H123.367V20.4753H116.967V14.0753Z" fill="white"/>
</mask>
<g mask="url(#mask0_162_1380)">
<path fill-rule="evenodd" clip-rule="evenodd" d="M120.167 20.4753C121.009 20.4753 121.835 20.1345 122.43 19.5377C123.027 18.9425 123.367 18.1185 123.367 17.2753C123.367 16.4321 123.027 15.6081 122.43 15.0129C121.835 14.4161 121.009 14.0753 120.167 14.0753C119.324 14.0753 118.5 14.4161 117.903 15.0129C117.308 15.6081 116.967 16.4321 116.967 17.2753C116.967 18.1185 117.308 18.9425 117.903 19.5377C118.5 20.1345 119.324 20.4753 120.167 20.4753" fill="#4F46E5"/>
</g>
<path fill-rule="evenodd" clip-rule="evenodd" d="M3.66476 7.28748C4.45376 7.28748 5.22776 6.96798 5.78576 6.40848C6.34526 5.85048 6.66476 5.07648 6.66476 4.28748C6.66476 3.49698 6.34526 2.72448 5.78576 2.16498C5.22776 1.60698 4.45376 1.28748 3.66476 1.28748C2.87426 1.28748 2.10176 1.60698 1.54226 2.16498C0.984264 2.72448 0.664764 3.49698 0.664764 4.28748C0.664764 5.07648 0.984264 5.85048 1.54226 6.40848C2.10176 6.96798 2.87426 7.28748 3.66476 7.28748" fill="#4F46E5"/>
<path fill-rule="evenodd" clip-rule="evenodd" d="M36.6573 7.28748H36.6722C38.3256 7.28748 39.6648 5.94348 39.6648 4.28748C39.6648 2.63148 38.3256 1.28748 36.6722 1.28748H36.6573C35.0054 1.28748 33.6648 2.63148 33.6648 4.28748C33.6648 5.94348 35.0054 7.28748 36.6573 7.28748" fill="#4F46E5"/>
<path fill-rule="evenodd" clip-rule="evenodd" d="M20.6573 7.28748H20.6722C22.3241 7.28748 23.6648 5.94348 23.6648 4.28748C23.6648 2.63148 22.3241 1.28748 20.6722 1.28748H20.6573C19.0054 1.28748 17.6648 2.63148 17.6648 4.28748C17.6648 5.94348 19.0054 7.28748 20.6573 7.28748" fill="#4F46E5"/>
<path fill-rule="evenodd" clip-rule="evenodd" d="M53.6648 7.28748C54.4538 7.28748 55.2278 6.96798 55.7858 6.40848C56.3453 5.85048 56.6648 5.07648 56.6648 4.28748C56.6648 3.49698 56.3453 2.72448 55.7858 2.16498C55.2278 1.60698 54.4538 1.28748 53.6648 1.28748C52.8743 1.28748 52.1018 1.60698 51.5423 2.16498C50.9843 2.72448 50.6648 3.49698 50.6648 4.28748C50.6648 5.07648 50.9843 5.85048 51.5423 6.40848C52.1018 6.96798 52.8743 7.28748 53.6648 7.28748" fill="#4F46E5"/>
<path fill-rule="evenodd" clip-rule="evenodd" d="M70.6648 7.28748C71.4553 7.28748 72.2278 6.96798 72.7873 6.40848C73.3453 5.85048 73.6648 5.07648 73.6648 4.28748C73.6648 3.49698 73.3453 2.72448 72.7873 2.16498C72.2278 1.60698 71.4553 1.28748 70.6648 1.28748C69.8758 1.28748 69.1018 1.60698 68.5438 2.16498C67.9843 2.72448 67.6648 3.49698 67.6648 4.28748C67.6648 5.07648 67.9843 5.85048 68.5438 6.40848C69.1018 6.96798 69.8758 7.28748 70.6648 7.28748" fill="#4F46E5"/>
<path fill-rule="evenodd" clip-rule="evenodd" d="M103.657 7.28748H103.672C105.326 7.28748 106.665 5.94348 106.665 4.28748C106.665 2.63148 105.326 1.28748 103.672 1.28748H103.657C102.005 1.28748 100.665 2.63148 100.665 4.28748C100.665 5.94348 102.005 7.28748 103.657 7.28748" fill="#4F46E5"/>
<path fill-rule="evenodd" clip-rule="evenodd" d="M86.6573 7.28748H86.6722C88.3241 7.28748 89.6648 5.94348 89.6648 4.28748C89.6648 2.63148 88.3241 1.28748 86.6722 1.28748H86.6573C85.0054 1.28748 83.6648 2.63148 83.6648 4.28748C83.6648 5.94348 85.0054 7.28748 86.6573 7.28748" fill="#4F46E5"/>
<mask id="mask1_162_1380" style="mask-type:luminance" maskUnits="userSpaceOnUse" x="116" y="0" width="8" height="8">
<path fill-rule="evenodd" clip-rule="evenodd" d="M116.967 0.730713H123.367V7.13071H116.967V0.730713Z" fill="white"/>
</mask>
<g mask="url(#mask1_162_1380)">
<path fill-rule="evenodd" clip-rule="evenodd" d="M120.167 7.13071C121.009 7.13071 121.835 6.78991 122.43 6.19311C123.027 5.59791 123.367 4.77231 123.367 3.93071C123.367 3.08751 123.027 2.26351 122.43 1.66671C121.835 1.07151 121.009 0.730713 120.167 0.730713C119.324 0.730713 118.5 1.07151 117.903 1.66671C117.308 2.26351 116.967 3.08751 116.967 3.93071C116.967 4.77231 117.308 5.59791 117.903 6.19311C118.5 6.78991 119.324 7.13071 120.167 7.13071" fill="#4F46E5"/>
</g>
<path fill-rule="evenodd" clip-rule="evenodd" d="M3.66476 33.2875C4.45376 33.2875 5.22776 32.968 5.78576 32.4085C6.34526 31.8505 6.66476 31.078 6.66476 30.2875C6.66476 29.4985 6.34526 28.7245 5.78576 28.1665C5.22776 27.607 4.45376 27.2875 3.66476 27.2875C2.87426 27.2875 2.10176 27.607 1.54226 28.1665C0.984264 28.7245 0.664764 29.4985 0.664764 30.2875C0.664764 31.078 0.984264 31.8505 1.54226 32.4085C2.10176 32.968 2.87426 33.2875 3.66476 33.2875" fill="#4F46E5"/>
<path fill-rule="evenodd" clip-rule="evenodd" d="M36.6573 33.2875H36.6722C38.3256 33.2875 39.6648 31.9435 39.6648 30.2875C39.6648 28.6315 38.3256 27.2875 36.6722 27.2875H36.6573C35.0054 27.2875 33.6648 28.6315 33.6648 30.2875C33.6648 31.9435 35.0054 33.2875 36.6573 33.2875" fill="#4F46E5"/>
<path fill-rule="evenodd" clip-rule="evenodd" d="M20.6573 33.2875H20.6722C22.3241 33.2875 23.6648 31.9435 23.6648 30.2875C23.6648 28.6315 22.3241 27.2875 20.6722 27.2875H20.6573C19.0054 27.2875 17.6648 28.6315 17.6648 30.2875C17.6648 31.9435 19.0054 33.2875 20.6573 33.2875" fill="#4F46E5"/>
<path fill-rule="evenodd" clip-rule="evenodd" d="M53.6648 33.2875C54.4538 33.2875 55.2278 32.968 55.7858 32.4085C56.3453 31.8505 56.6648 31.078 56.6648 30.2875C56.6648 29.4985 56.3453 28.7245 55.7858 28.1665C55.2278 27.607 54.4538 27.2875 53.6648 27.2875C52.8743 27.2875 52.1018 27.607 51.5423 28.1665C50.9843 28.7245 50.6648 29.4985 50.6648 30.2875C50.6648 31.078 50.9843 31.8505 51.5423 32.4085C52.1018 32.968 52.8743 33.2875 53.6648 33.2875" fill="#4F46E5"/>
<path fill-rule="evenodd" clip-rule="evenodd" d="M70.6648 33.2875C71.4553 33.2875 72.2278 32.968 72.7873 32.4085C73.3453 31.8505 73.6648 31.078 73.6648 30.2875C73.6648 29.4985 73.3453 28.7245 72.7873 28.1665C72.2278 27.607 71.4553 27.2875 70.6648 27.2875C69.8758 27.2875 69.1018 27.607 68.5438 28.1665C67.9843 28.7245 67.6648 29.4985 67.6648 30.2875C67.6648 31.078 67.9843 31.8505 68.5438 32.4085C69.1018 32.968 69.8758 33.2875 70.6648 33.2875" fill="#4F46E5"/>
<path fill-rule="evenodd" clip-rule="evenodd" d="M103.657 33.2875H103.672C105.326 33.2875 106.665 31.9435 106.665 30.2875C106.665 28.6315 105.326 27.2875 103.672 27.2875H103.657C102.005 27.2875 100.665 28.6315 100.665 30.2875C100.665 31.9435 102.005 33.2875 103.657 33.2875" fill="#4F46E5"/>
<path fill-rule="evenodd" clip-rule="evenodd" d="M86.6573 33.2875H86.6722C88.3241 33.2875 89.6648 31.9435 89.6648 30.2875C89.6648 28.6315 88.3241 27.2875 86.6722 27.2875H86.6573C85.0054 27.2875 83.6648 28.6315 83.6648 30.2875C83.6648 31.9435 85.0054 33.2875 86.6573 33.2875" fill="#4F46E5"/>
<mask id="mask2_162_1380" style="mask-type:luminance" maskUnits="userSpaceOnUse" x="116" y="27" width="8" height="7">
<path fill-rule="evenodd" clip-rule="evenodd" d="M116.967 27.4198H123.367V33.8198H116.967V27.4198Z" fill="white"/>
</mask>
<g mask="url(#mask2_162_1380)">
<path fill-rule="evenodd" clip-rule="evenodd" d="M120.167 33.8198C121.009 33.8198 121.835 33.479 122.43 32.8822C123.027 32.287 123.367 31.463 123.367 30.6198C123.367 29.7782 123.027 28.9526 122.43 28.3574C121.835 27.7606 121.009 27.4198 120.167 27.4198C119.324 27.4198 118.5 27.7606 117.903 28.3574C117.308 28.9526 116.967 29.7782 116.967 30.6198C116.967 31.463 117.308 32.287 117.903 32.8822C118.5 33.479 119.324 33.8198 120.167 33.8198" fill="#4F46E5"/>
</g>
<path fill-rule="evenodd" clip-rule="evenodd" d="M3.66476 46.2875C4.45376 46.2875 5.22776 45.968 5.78576 45.4085C6.34526 44.8505 6.66476 44.078 6.66476 43.2875C6.66476 42.497 6.34526 41.7245 5.78576 41.1665C5.22776 40.607 4.45376 40.2875 3.66476 40.2875C2.87426 40.2875 2.10176 40.607 1.54226 41.1665C0.984264 41.7245 0.664764 42.497 0.664764 43.2875C0.664764 44.078 0.984264 44.8505 1.54226 45.4085C2.10176 45.968 2.87426 46.2875 3.66476 46.2875" fill="#4F46E5"/>
<path fill-rule="evenodd" clip-rule="evenodd" d="M36.6573 46.2875H36.6722C38.3256 46.2875 39.6648 44.9435 39.6648 43.2875C39.6648 41.6315 38.3256 40.2875 36.6722 40.2875H36.6573C35.0054 40.2875 33.6648 41.6315 33.6648 43.2875C33.6648 44.9435 35.0054 46.2875 36.6573 46.2875" fill="#4F46E5"/>
<path fill-rule="evenodd" clip-rule="evenodd" d="M20.6573 46.2875H20.6722C22.3241 46.2875 23.6648 44.9435 23.6648 43.2875C23.6648 41.6315 22.3241 40.2875 20.6722 40.2875H20.6573C19.0054 40.2875 17.6648 41.6315 17.6648 43.2875C17.6648 44.9435 19.0054 46.2875 20.6573 46.2875" fill="#4F46E5"/>
<path fill-rule="evenodd" clip-rule="evenodd" d="M53.6648 46.2875C54.4538 46.2875 55.2278 45.968 55.7858 45.4085C56.3453 44.8505 56.6648 44.078 56.6648 43.2875C56.6648 42.497 56.3453 41.7245 55.7858 41.1665C55.2278 40.607 54.4538 40.2875 53.6648 40.2875C52.8743 40.2875 52.1018 40.607 51.5423 41.1665C50.9843 41.7245 50.6648 42.497 50.6648 43.2875C50.6648 44.078 50.9843 44.8505 51.5423 45.4085C52.1018 45.968 52.8743 46.2875 53.6648 46.2875" fill="#4F46E5"/>
<path fill-rule="evenodd" clip-rule="evenodd" d="M70.6648 46.2875C71.4553 46.2875 72.2278 45.968 72.7873 45.4085C73.3453 44.8505 73.6648 44.078 73.6648 43.2875C73.6648 42.497 73.3453 41.7245 72.7873 41.1665C72.2278 40.607 71.4553 40.2875 70.6648 40.2875C69.8758 40.2875 69.1018 40.607 68.5438 41.1665C67.9843 41.7245 67.6648 42.497 67.6648 43.2875C67.6648 44.078 67.9843 44.8505 68.5438 45.4085C69.1018 45.968 69.8758 46.2875 70.6648 46.2875" fill="#4F46E5"/>
<path fill-rule="evenodd" clip-rule="evenodd" d="M103.657 46.2875H103.672C105.326 46.2875 106.665 44.9435 106.665 43.2875C106.665 41.6315 105.326 40.2875 103.672 40.2875H103.657C102.005 40.2875 100.665 41.6315 100.665 43.2875C100.665 44.9435 102.005 46.2875 103.657 46.2875" fill="#4F46E5"/>
<path fill-rule="evenodd" clip-rule="evenodd" d="M86.6573 46.2875H86.6722C88.3241 46.2875 89.6648 44.9435 89.6648 43.2875C89.6648 41.6315 88.3241 40.2875 86.6722 40.2875H86.6573C85.0054 40.2875 83.6648 41.6315 83.6648 43.2875C83.6648 44.9435 85.0054 46.2875 86.6573 46.2875" fill="#4F46E5"/>
<mask id="mask3_162_1380" style="mask-type:luminance" maskUnits="userSpaceOnUse" x="116" y="40" width="8" height="8">
<path fill-rule="evenodd" clip-rule="evenodd" d="M116.967 40.7643H123.367V47.1643H116.967V40.7643Z" fill="white"/>
</mask>
<g mask="url(#mask3_162_1380)">
<path fill-rule="evenodd" clip-rule="evenodd" d="M120.167 47.1643C121.009 47.1643 121.835 46.8235 122.43 46.2267C123.027 45.6315 123.367 44.8075 123.367 43.9643C123.367 43.1211 123.027 42.2971 122.43 41.7019C121.835 41.1051 121.009 40.7643 120.167 40.7643C119.324 40.7643 118.5 41.1051 117.903 41.7019C117.308 42.2971 116.967 43.1211 116.967 43.9643C116.967 44.8075 117.308 45.6315 117.903 46.2267C118.5 46.8235 119.324 47.1643 120.167 47.1643" fill="#4F46E5"/>
</g>
<path fill-rule="evenodd" clip-rule="evenodd" d="M3.66476 60.2875C4.45376 60.2875 5.22776 59.968 5.78576 59.4085C6.34526 58.8505 6.66476 58.078 6.66476 57.2875C6.66476 56.4985 6.34526 55.7245 5.78576 55.1665C5.22776 54.607 4.45376 54.2875 3.66476 54.2875C2.87426 54.2875 2.10176 54.607 1.54226 55.1665C0.984264 55.7245 0.664764 56.4985 0.664764 57.2875C0.664764 58.078 0.984264 58.8505 1.54226 59.4085C2.10176 59.968 2.87426 60.2875 3.66476 60.2875" fill="#4F46E5"/>
<path fill-rule="evenodd" clip-rule="evenodd" d="M36.6573 60.2875H36.6722C38.3256 60.2875 39.6648 58.9435 39.6648 57.2875C39.6648 55.6315 38.3256 54.2875 36.6722 54.2875H36.6573C35.0054 54.2875 33.6648 55.6315 33.6648 57.2875C33.6648 58.9435 35.0054 60.2875 36.6573 60.2875" fill="#4F46E5"/>
<path fill-rule="evenodd" clip-rule="evenodd" d="M20.6573 60.2875H20.6722C22.3241 60.2875 23.6648 58.9435 23.6648 57.2875C23.6648 55.6315 22.3241 54.2875 20.6722 54.2875H20.6573C19.0054 54.2875 17.6648 55.6315 17.6648 57.2875C17.6648 58.9435 19.0054 60.2875 20.6573 60.2875" fill="#4F46E5"/>
<path fill-rule="evenodd" clip-rule="evenodd" d="M53.6648 60.2875C54.4538 60.2875 55.2278 59.968 55.7858 59.4085C56.3453 58.8505 56.6648 58.078 56.6648 57.2875C56.6648 56.4985 56.3453 55.7245 55.7858 55.1665C55.2278 54.607 54.4538 54.2875 53.6648 54.2875C52.8743 54.2875 52.1018 54.607 51.5423 55.1665C50.9843 55.7245 50.6648 56.4985 50.6648 57.2875C50.6648 58.078 50.9843 58.8505 51.5423 59.4085C52.1018 59.968 52.8743 60.2875 53.6648 60.2875" fill="#4F46E5"/>
<path fill-rule="evenodd" clip-rule="evenodd" d="M70.6648 60.2875C71.4553 60.2875 72.2278 59.968 72.7873 59.4085C73.3453 58.8505 73.6648 58.078 73.6648 57.2875C73.6648 56.4985 73.3453 55.7245 72.7873 55.1665C72.2278 54.607 71.4553 54.2875 70.6648 54.2875C69.8758 54.2875 69.1018 54.607 68.5438 55.1665C67.9843 55.7245 67.6648 56.4985 67.6648 57.2875C67.6648 58.078 67.9843 58.8505 68.5438 59.4085C69.1018 59.968 69.8758 60.2875 70.6648 60.2875" fill="#4F46E5"/>
<path fill-rule="evenodd" clip-rule="evenodd" d="M103.657 60.2875H103.672C105.326 60.2875 106.665 58.9435 106.665 57.2875C106.665 55.6315 105.326 54.2875 103.672 54.2875H103.657C102.005 54.2875 100.665 55.6315 100.665 57.2875C100.665 58.9435 102.005 60.2875 103.657 60.2875" fill="#4F46E5"/>
<path fill-rule="evenodd" clip-rule="evenodd" d="M86.6573 60.2875H86.6722C88.3241 60.2875 89.6648 58.9435 89.6648 57.2875C89.6648 55.6315 88.3241 54.2875 86.6722 54.2875H86.6573C85.0054 54.2875 83.6648 55.6315 83.6648 57.2875C83.6648 58.9435 85.0054 60.2875 86.6573 60.2875" fill="#4F46E5"/>
<mask id="mask4_162_1380" style="mask-type:luminance" maskUnits="userSpaceOnUse" x="116" y="53" width="8" height="7">
<path fill-rule="evenodd" clip-rule="evenodd" d="M116.967 53.5089H123.367V59.9089H116.967V53.5089Z" fill="white"/>
</mask>
<g mask="url(#mask4_162_1380)">
<path fill-rule="evenodd" clip-rule="evenodd" d="M120.167 59.9089C121.009 59.9089 121.835 59.5681 122.43 58.9713C123.027 58.3761 123.367 57.5521 123.367 56.7089C123.367 55.8673 123.027 55.0417 122.43 54.4465C121.835 53.8497 121.009 53.5089 120.167 53.5089C119.324 53.5089 118.5 53.8497 117.903 54.4465C117.308 55.0417 116.967 55.8673 116.967 56.7089C116.967 57.5521 117.308 58.3761 117.903 58.9713C118.5 59.5681 119.324 59.9089 120.167 59.9089" fill="#4F46E5"/>
</g>
<path fill-rule="evenodd" clip-rule="evenodd" d="M3.66476 73.2875C4.45376 73.2875 5.22776 72.968 5.78576 72.41C6.34526 71.8505 6.66476 71.078 6.66476 70.2875C6.66476 69.4985 6.34526 68.7245 5.78576 68.1665C5.22776 67.607 4.45376 67.2875 3.66476 67.2875C2.87426 67.2875 2.10176 67.607 1.54226 68.1665C0.984264 68.7245 0.664764 69.4985 0.664764 70.2875C0.664764 71.078 0.984264 71.8505 1.54226 72.41C2.10176 72.968 2.87426 73.2875 3.66476 73.2875" fill="#4F46E5"/>
<path fill-rule="evenodd" clip-rule="evenodd" d="M36.6573 73.2875H36.6722C38.3256 73.2875 39.6648 71.9435 39.6648 70.2875C39.6648 68.6315 38.3256 67.2875 36.6722 67.2875H36.6573C35.0054 67.2875 33.6648 68.6315 33.6648 70.2875C33.6648 71.9435 35.0054 73.2875 36.6573 73.2875" fill="#4F46E5"/>
<path fill-rule="evenodd" clip-rule="evenodd" d="M20.6573 73.2875H20.6722C22.3241 73.2875 23.6648 71.9435 23.6648 70.2875C23.6648 68.6315 22.3241 67.2875 20.6722 67.2875H20.6573C19.0054 67.2875 17.6648 68.6315 17.6648 70.2875C17.6648 71.9435 19.0054 73.2875 20.6573 73.2875" fill="#4F46E5"/>
<path fill-rule="evenodd" clip-rule="evenodd" d="M53.6648 73.2875C54.4538 73.2875 55.2278 72.968 55.7858 72.41C56.3453 71.8505 56.6648 71.078 56.6648 70.2875C56.6648 69.4985 56.3453 68.7245 55.7858 68.1665C55.2278 67.607 54.4538 67.2875 53.6648 67.2875C52.8743 67.2875 52.1018 67.607 51.5423 68.1665C50.9843 68.7245 50.6648 69.4985 50.6648 70.2875C50.6648 71.078 50.9843 71.8505 51.5423 72.41C52.1018 72.968 52.8743 73.2875 53.6648 73.2875" fill="#4F46E5"/>
<path fill-rule="evenodd" clip-rule="evenodd" d="M70.6648 73.2875C71.4553 73.2875 72.2278 72.968 72.7873 72.41C73.3453 71.8505 73.6648 71.078 73.6648 70.2875C73.6648 69.4985 73.3453 68.7245 72.7873 68.1665C72.2278 67.607 71.4553 67.2875 70.6648 67.2875C69.8758 67.2875 69.1018 67.607 68.5438 68.1665C67.9843 68.7245 67.6648 69.4985 67.6648 70.2875C67.6648 71.078 67.9843 71.8505 68.5438 72.41C69.1018 72.968 69.8758 73.2875 70.6648 73.2875" fill="#4F46E5"/>
<path fill-rule="evenodd" clip-rule="evenodd" d="M103.657 73.2875H103.672C105.326 73.2875 106.665 71.9435 106.665 70.2875C106.665 68.6315 105.326 67.2875 103.672 67.2875H103.657C102.005 67.2875 100.665 68.6315 100.665 70.2875C100.665 71.9435 102.005 73.2875 103.657 73.2875" fill="#4F46E5"/>
<path fill-rule="evenodd" clip-rule="evenodd" d="M86.6573 73.2875H86.6722C88.3241 73.2875 89.6648 71.9435 89.6648 70.2875C89.6648 68.6315 88.3241 67.2875 86.6722 67.2875H86.6573C85.0054 67.2875 83.6648 68.6315 83.6648 70.2875C83.6648 71.9435 85.0054 73.2875 86.6573 73.2875" fill="#4F46E5"/>
<mask id="mask5_162_1380" style="mask-type:luminance" maskUnits="userSpaceOnUse" x="116" y="66" width="8" height="8">
<path fill-rule="evenodd" clip-rule="evenodd" d="M116.967 66.8534H123.367V73.2534H116.967V66.8534Z" fill="white"/>
</mask>
<g mask="url(#mask5_162_1380)">
<path fill-rule="evenodd" clip-rule="evenodd" d="M120.167 73.2534C121.009 73.2534 121.835 72.9126 122.43 72.3174C123.027 71.7206 123.367 70.8966 123.367 70.0534C123.367 69.2118 123.027 68.3862 122.43 67.791C121.835 67.1942 121.009 66.8534 120.167 66.8534C119.324 66.8534 118.5 67.1942 117.903 67.791C117.308 68.3862 116.967 69.2118 116.967 70.0534C116.967 70.8966 117.308 71.7206 117.903 72.3174C118.5 72.9126 119.324 73.2534 120.167 73.2534" fill="#4F46E5"/>
</g>
<path fill-rule="evenodd" clip-rule="evenodd" d="M3.66476 86.2875C4.45376 86.2875 5.22776 85.968 5.78576 85.4085C6.34526 84.8505 6.66476 84.078 6.66476 83.2875C6.66476 82.4985 6.34526 81.7245 5.78576 81.1665C5.22776 80.607 4.45376 80.2875 3.66476 80.2875C2.87426 80.2875 2.10176 80.607 1.54226 81.1665C0.984264 81.7245 0.664764 82.4985 0.664764 83.2875C0.664764 84.078 0.984264 84.8505 1.54226 85.4085C2.10176 85.968 2.87426 86.2875 3.66476 86.2875" fill="#4F46E5"/>
<path fill-rule="evenodd" clip-rule="evenodd" d="M36.6573 86.2875H36.6722C38.3256 86.2875 39.6648 84.9435 39.6648 83.2875C39.6648 81.6315 38.3256 80.2875 36.6722 80.2875H36.6573C35.0054 80.2875 33.6648 81.6315 33.6648 83.2875C33.6648 84.9435 35.0054 86.2875 36.6573 86.2875" fill="#4F46E5"/>
<path fill-rule="evenodd" clip-rule="evenodd" d="M20.6573 86.2875H20.6722C22.3241 86.2875 23.6648 84.9435 23.6648 83.2875C23.6648 81.6315 22.3241 80.2875 20.6722 80.2875H20.6573C19.0054 80.2875 17.6648 81.6315 17.6648 83.2875C17.6648 84.9435 19.0054 86.2875 20.6573 86.2875" fill="#4F46E5"/>
<path fill-rule="evenodd" clip-rule="evenodd" d="M53.6648 86.2875C54.4538 86.2875 55.2278 85.968 55.7858 85.4085C56.3453 84.8505 56.6648 84.078 56.6648 83.2875C56.6648 82.4985 56.3453 81.7245 55.7858 81.1665C55.2278 80.607 54.4538 80.2875 53.6648 80.2875C52.8743 80.2875 52.1018 80.607 51.5423 81.1665C50.9843 81.7245 50.6648 82.4985 50.6648 83.2875C50.6648 84.078 50.9843 84.8505 51.5423 85.4085C52.1018 85.968 52.8743 86.2875 53.6648 86.2875" fill="#4F46E5"/>
<path fill-rule="evenodd" clip-rule="evenodd" d="M70.6648 86.2875C71.4553 86.2875 72.2278 85.968 72.7873 85.4085C73.3453 84.8505 73.6648 84.078 73.6648 83.2875C73.6648 82.4985 73.3453 81.7245 72.7873 81.1665C72.2278 80.607 71.4553 80.2875 70.6648 80.2875C69.8758 80.2875 69.1018 80.607 68.5438 81.1665C67.9843 81.7245 67.6648 82.4985 67.6648 83.2875C67.6648 84.078 67.9843 84.8505 68.5438 85.4085C69.1018 85.968 69.8758 86.2875 70.6648 86.2875" fill="#4F46E5"/>
<path fill-rule="evenodd" clip-rule="evenodd" d="M103.657 86.2875H103.672C105.326 86.2875 106.665 84.9435 106.665 83.2875C106.665 81.6315 105.326 80.2875 103.672 80.2875H103.657C102.005 80.2875 100.665 81.6315 100.665 83.2875C100.665 84.9435 102.005 86.2875 103.657 86.2875" fill="#4F46E5"/>
<path fill-rule="evenodd" clip-rule="evenodd" d="M86.6573 86.2875H86.6722C88.3241 86.2875 89.6648 84.9435 89.6648 83.2875C89.6648 81.6315 88.3241 80.2875 86.6722 80.2875H86.6573C85.0054 80.2875 83.6648 81.6315 83.6648 83.2875C83.6648 84.9435 85.0054 86.2875 86.6573 86.2875" fill="#4F46E5"/>
<mask id="mask6_162_1380" style="mask-type:luminance" maskUnits="userSpaceOnUse" x="116" y="80" width="8" height="7">
<path fill-rule="evenodd" clip-rule="evenodd" d="M116.967 80.1979H123.367V86.5979H116.967V80.1979Z" fill="white"/>
</mask>
<g mask="url(#mask6_162_1380)">
<path fill-rule="evenodd" clip-rule="evenodd" d="M120.167 86.5979C121.009 86.5979 121.835 86.2571 122.43 85.6603C123.027 85.0651 123.367 84.2411 123.367 83.3979C123.367 82.5563 123.027 81.7307 122.43 81.1355C121.835 80.5387 121.009 80.1979 120.167 80.1979C119.324 80.1979 118.5 80.5387 117.903 81.1355C117.308 81.7307 116.967 82.5563 116.967 83.3979C116.967 84.2411 117.308 85.0651 117.903 85.6603C118.5 86.2571 119.324 86.5979 120.167 86.5979" fill="#4F46E5"/>
</g>
<path fill-rule="evenodd" clip-rule="evenodd" d="M3.66476 99.2875C4.45376 99.2875 5.22776 98.968 5.78576 98.41C6.34526 97.8505 6.66476 97.078 6.66476 96.2875C6.66476 95.4985 6.34526 94.7245 5.78576 94.1665C5.22776 93.607 4.45376 93.2875 3.66476 93.2875C2.87426 93.2875 2.10176 93.607 1.54226 94.1665C0.984264 94.7245 0.664764 95.4985 0.664764 96.2875C0.664764 97.078 0.984264 97.8505 1.54226 98.41C2.10176 98.968 2.87426 99.2875 3.66476 99.2875" fill="#4F46E5"/>
<path fill-rule="evenodd" clip-rule="evenodd" d="M36.6573 99.2875H36.6722C38.3256 99.2875 39.6648 97.945 39.6648 96.2875C39.6648 94.6315 38.3256 93.2875 36.6722 93.2875H36.6573C35.0054 93.2875 33.6648 94.6315 33.6648 96.2875C33.6648 97.945 35.0054 99.2875 36.6573 99.2875" fill="#4F46E5"/>
<path fill-rule="evenodd" clip-rule="evenodd" d="M20.6573 99.2875H20.6722C22.3241 99.2875 23.6648 97.945 23.6648 96.2875C23.6648 94.6315 22.3241 93.2875 20.6722 93.2875H20.6573C19.0054 93.2875 17.6648 94.6315 17.6648 96.2875C17.6648 97.945 19.0054 99.2875 20.6573 99.2875" fill="#4F46E5"/>
<path fill-rule="evenodd" clip-rule="evenodd" d="M53.6648 99.2875C54.4538 99.2875 55.2278 98.968 55.7858 98.41C56.3453 97.8505 56.6648 97.078 56.6648 96.2875C56.6648 95.4985 56.3453 94.7245 55.7858 94.1665C55.2278 93.607 54.4538 93.2875 53.6648 93.2875C52.8743 93.2875 52.1018 93.607 51.5423 94.1665C50.9843 94.7245 50.6648 95.4985 50.6648 96.2875C50.6648 97.078 50.9843 97.8505 51.5423 98.41C52.1018 98.968 52.8743 99.2875 53.6648 99.2875" fill="#4F46E5"/>
<path fill-rule="evenodd" clip-rule="evenodd" d="M70.6648 99.2875C71.4553 99.2875 72.2278 98.968 72.7873 98.41C73.3453 97.8505 73.6648 97.078 73.6648 96.2875C73.6648 95.4985 73.3453 94.7245 72.7873 94.1665C72.2278 93.607 71.4553 93.2875 70.6648 93.2875C69.8758 93.2875 69.1018 93.607 68.5438 94.1665C67.9843 94.7245 67.6648 95.4985 67.6648 96.2875C67.6648 97.078 67.9843 97.8505 68.5438 98.41C69.1018 98.968 69.8758 99.2875 70.6648 99.2875" fill="#4F46E5"/>
<path fill-rule="evenodd" clip-rule="evenodd" d="M103.657 99.2875H103.672C105.326 99.2875 106.665 97.945 106.665 96.2875C106.665 94.6315 105.326 93.2875 103.672 93.2875H103.657C102.005 93.2875 100.665 94.6315 100.665 96.2875C100.665 97.945 102.005 99.2875 103.657 99.2875" fill="#4F46E5"/>
<path fill-rule="evenodd" clip-rule="evenodd" d="M86.6573 99.2875H86.6722C88.3241 99.2875 89.6648 97.945 89.6648 96.2875C89.6648 94.6315 88.3241 93.2875 86.6722 93.2875H86.6573C85.0054 93.2875 83.6648 94.6315 83.6648 96.2875C83.6648 97.945 85.0054 99.2875 86.6573 99.2875" fill="#4F46E5"/>
<mask id="mask7_162_1380" style="mask-type:luminance" maskUnits="userSpaceOnUse" x="116" y="93" width="8" height="7">
<path fill-rule="evenodd" clip-rule="evenodd" d="M116.967 93.5426H123.367V99.9426H116.967V93.5426Z" fill="white"/>
</mask>
<g mask="url(#mask7_162_1380)">
<path fill-rule="evenodd" clip-rule="evenodd" d="M120.167 99.9426C121.009 99.9426 121.835 99.6018 122.43 99.0066C123.027 98.4098 123.367 97.5858 123.367 96.7426C123.367 95.901 123.027 95.0754 122.43 94.4802C121.835 93.8834 121.009 93.5426 120.167 93.5426C119.324 93.5426 118.5 93.8834 117.903 94.4802C117.308 95.0754 116.967 95.901 116.967 96.7426C116.967 97.5858 117.308 98.4098 117.903 99.0066C118.5 99.6018 119.324 99.9426 120.167 99.9426" fill="#4F46E5"/>
</g>
<mask id="mask8_162_1380" style="mask-type:luminance" maskUnits="userSpaceOnUse" x="0" y="106" width="7" height="7">
<path fill-rule="evenodd" clip-rule="evenodd" d="M0.665062 106.288H6.66506V112.288H0.665062V106.288Z" fill="white"/>
</mask>
<g mask="url(#mask8_162_1380)">
<path fill-rule="evenodd" clip-rule="evenodd" d="M3.66506 112.288C4.45406 112.288 5.22806 111.968 5.78606 111.409C6.34556 110.851 6.66506 110.077 6.66506 109.288C6.66506 108.497 6.34556 107.725 5.78606 107.165C5.22806 106.607 4.45406 106.288 3.66506 106.288C2.87456 106.288 2.10206 106.607 1.54256 107.165C0.984562 107.725 0.665062 108.497 0.665062 109.288C0.665062 110.077 0.984562 110.851 1.54256 111.409C2.10206 111.968 2.87456 112.288 3.66506 112.288" fill="#4F46E5"/>
</g>
<mask id="mask9_162_1380" style="mask-type:luminance" maskUnits="userSpaceOnUse" x="33" y="106" width="8" height="7">
<path fill-rule="evenodd" clip-rule="evenodd" d="M33.6572 106.288H40.0732V112.288H33.6572V106.288Z" fill="white"/>
</mask>
<g mask="url(#mask9_162_1380)">
<path fill-rule="evenodd" clip-rule="evenodd" d="M36.8572 112.288H36.8732C38.6412 112.288 40.0732 110.944 40.0732 109.288C40.0732 107.63 38.6412 106.288 36.8732 106.288H36.8572C35.0908 106.288 33.6572 107.63 33.6572 109.288C33.6572 110.944 35.0908 112.288 36.8572 112.288" fill="#4F46E5"/>
</g>
<mask id="mask10_162_1380" style="mask-type:luminance" maskUnits="userSpaceOnUse" x="17" y="106" width="7" height="7">
<path fill-rule="evenodd" clip-rule="evenodd" d="M17.1572 106.288H23.5732V112.288H17.1572V106.288Z" fill="white"/>
</mask>
<g mask="url(#mask10_162_1380)">
<path fill-rule="evenodd" clip-rule="evenodd" d="M20.3572 112.288H20.3732C22.1396 112.288 23.5732 110.944 23.5732 109.288C23.5732 107.63 22.1396 106.288 20.3732 106.288H20.3572C18.5908 106.288 17.1572 107.63 17.1572 109.288C17.1572 110.944 18.5908 112.288 20.3572 112.288" fill="#4F46E5"/>
</g>
<mask id="mask11_162_1380" style="mask-type:luminance" maskUnits="userSpaceOnUse" x="50" y="106" width="7" height="7">
<path fill-rule="evenodd" clip-rule="evenodd" d="M50.1659 106.288H56.5659V112.288H50.1659V106.288Z" fill="white"/>
</mask>
<g mask="url(#mask11_162_1380)">
<path fill-rule="evenodd" clip-rule="evenodd" d="M53.3659 112.288C54.2075 112.288 55.0331 111.968 55.6283 111.409C56.2251 110.851 56.5659 110.077 56.5659 109.288C56.5659 108.497 56.2251 107.725 55.6283 107.165C55.0331 106.607 54.2075 106.288 53.3659 106.288C52.5227 106.288 51.6987 106.607 51.1019 107.165C50.5067 107.725 50.1659 108.497 50.1659 109.288C50.1659 110.077 50.5067 110.851 51.1019 111.409C51.6987 111.968 52.5227 112.288 53.3659 112.288" fill="#4F46E5"/>
</g>
<mask id="mask12_162_1380" style="mask-type:luminance" maskUnits="userSpaceOnUse" x="67" y="106" width="7" height="7">
<path fill-rule="evenodd" clip-rule="evenodd" d="M67.0659 106.288H73.4659V112.288H67.0659V106.288Z" fill="white"/>
</mask>
<g mask="url(#mask12_162_1380)">
<path fill-rule="evenodd" clip-rule="evenodd" d="M70.2659 112.288C71.1091 112.288 71.9331 111.968 72.5299 111.409C73.1251 110.851 73.4659 110.077 73.4659 109.288C73.4659 108.497 73.1251 107.725 72.5299 107.165C71.9331 106.607 71.1091 106.288 70.2659 106.288C69.4243 106.288 68.5987 106.607 68.0035 107.165C67.4067 107.725 67.0659 108.497 67.0659 109.288C67.0659 110.077 67.4067 110.851 68.0035 111.409C68.5987 111.968 69.4243 112.288 70.2659 112.288" fill="#4F46E5"/>
</g>
<mask id="mask13_162_1380" style="mask-type:luminance" maskUnits="userSpaceOnUse" x="100" y="106" width="7" height="7">
<path fill-rule="evenodd" clip-rule="evenodd" d="M100.059 106.288H106.475V112.288H100.059V106.288Z" fill="white"/>
</mask>
<g mask="url(#mask13_162_1380)">
<path fill-rule="evenodd" clip-rule="evenodd" d="M103.259 112.288H103.275C105.043 112.288 106.475 110.944 106.475 109.288C106.475 107.63 105.043 106.288 103.275 106.288H103.259C101.492 106.288 100.059 107.63 100.059 109.288C100.059 110.944 101.492 112.288 103.259 112.288" fill="#4F46E5"/>
</g>
<mask id="mask14_162_1380" style="mask-type:luminance" maskUnits="userSpaceOnUse" x="83" y="106" width="7" height="7">
<path fill-rule="evenodd" clip-rule="evenodd" d="M83.5588 106.288H89.9748V112.288H83.5588V106.288Z" fill="white"/>
</mask>
<g mask="url(#mask14_162_1380)">
<path fill-rule="evenodd" clip-rule="evenodd" d="M86.7588 112.288H86.7748C88.5412 112.288 89.9748 110.944 89.9748 109.288C89.9748 107.63 88.5412 106.288 86.7748 106.288H86.7588C84.9924 106.288 83.5588 107.63 83.5588 109.288C83.5588 110.944 84.9924 112.288 86.7588 112.288" fill="#4F46E5"/>
</g>
<mask id="mask15_162_1380" style="mask-type:luminance" maskUnits="userSpaceOnUse" x="116" y="106" width="8" height="7">
<path fill-rule="evenodd" clip-rule="evenodd" d="M116.967 106.288H123.367V112.288H116.967V106.288Z" fill="white"/>
</mask>
<g mask="url(#mask15_162_1380)">
<path fill-rule="evenodd" clip-rule="evenodd" d="M120.167 112.288C121.009 112.288 121.835 111.968 122.43 111.409C123.027 110.851 123.367 110.077 123.367 109.288C123.367 108.497 123.027 107.725 122.43 107.165C121.835 106.607 121.009 106.288 120.167 106.288C119.324 106.288 118.5 106.607 117.903 107.165C117.308 107.725 116.967 108.497 116.967 109.288C116.967 110.077 117.308 110.851 117.903 111.409C118.5 111.968 119.324 112.288 120.167 112.288" fill="#4F46E5"/>
</g>
</svg>
