<svg width="200" height="147" viewBox="0 0 200 147" fill="none" xmlns="http://www.w3.org/2000/svg">
<g clip-path="url(#clip0_162_902)">
<path d="M93.5574 116.507L96.7169 115.1L92.7598 102.009L88.0963 104.085L93.5574 116.507Z" fill="#FFB6B6"/>
<path d="M91.2943 112.953L96.0207 109.632L97.3252 111.724L103.991 112.051C104.32 112.067 104.635 112.187 104.891 112.394C105.147 112.601 105.329 112.884 105.411 113.202C105.494 113.519 105.472 113.855 105.35 114.159C105.227 114.463 105.01 114.721 104.73 114.894L98.8864 118.501L96.5888 117.053L97.4859 119.365L95.2828 120.725L91.2943 112.953Z" fill="#2F2E41"/>
<path d="M174.718 91.7279C174.718 90.4113 174.274 89.3428 173.728 89.3403H24.9894C24.4414 89.3428 23.9995 90.4113 23.997 91.7279V145.927C23.997 146.049 23.9513 146.167 23.8688 146.258C23.7862 146.348 23.6727 146.405 23.5505 146.417C23.1513 146.455 22.752 146.49 22.3528 146.523C22.343 146.523 22.3331 146.526 22.3232 146.526C22.106 146.545 21.8887 146.56 21.6715 146.577H21.669C21.5572 146.372 21.4468 146.164 21.3376 145.955C21.3007 145.885 21.2814 145.806 21.2814 145.727V88.6304C21.2814 88.2669 21.2962 87.9009 21.3209 87.5398C21.3561 87.0439 21.4179 86.5503 21.506 86.061C21.9233 83.779 22.8663 82.2339 23.9377 82.229H174.777C174.934 82.23 175.088 82.2626 175.232 82.3248C175.442 82.4175 175.633 82.5502 175.792 82.7154C176.009 82.9393 176.194 83.1914 176.343 83.4646C176.871 84.3906 177.249 85.7711 177.382 87.3776C177.382 87.3924 177.384 87.4071 177.384 87.4219C177.419 87.8198 177.436 88.2251 177.434 88.6304L177.468 93.8945L177.491 97.0338L177.557 106.884L177.582 110.382L177.691 146.295C177.691 146.425 177.639 146.55 177.546 146.642C177.453 146.734 177.328 146.786 177.197 146.786H175.212C175.081 146.786 174.955 146.734 174.863 146.642C174.77 146.55 174.718 146.425 174.718 146.295V91.7279Z" fill="#E6E6E6"/>
<path d="M134.301 57.5972H118.274C118.048 57.5975 117.83 57.6874 117.67 57.8472C117.51 58.0069 117.42 58.2233 117.42 58.4489V83.6403H135.157V58.4489C135.157 58.3371 135.135 58.2263 135.092 58.1229C135.049 58.0195 134.986 57.9256 134.907 57.8465C134.827 57.7674 134.733 57.7047 134.629 57.6619C134.525 57.6191 134.414 57.5971 134.301 57.5972ZM126.342 71.9106C125.84 71.9083 125.36 71.7091 125.006 71.3565C124.652 71.0038 124.451 70.5262 124.449 70.0275V67.1219C124.45 66.6229 124.649 66.1445 125.004 65.7918C125.359 65.4391 125.84 65.241 126.342 65.241C126.843 65.241 127.324 65.4391 127.679 65.7918C128.034 66.1445 128.234 66.6229 128.234 67.1219V70.0275C128.232 70.5262 128.032 71.0038 127.677 71.3565C127.323 71.7091 126.843 71.9083 126.342 71.9106Z" fill="#2F2E41"/>
<path d="M117.365 82.8345V85.2649C117.366 85.3909 117.416 85.5116 117.506 85.6006C117.595 85.6897 117.716 85.7398 117.843 85.7401H134.735C134.861 85.7394 134.982 85.6892 135.072 85.6002C135.161 85.5113 135.212 85.3908 135.212 85.2649V82.8345H117.365Z" fill="#3F3D56"/>
<path d="M96.7738 22.5158C96.5893 22.9778 96.3053 23.394 95.9417 23.735C95.5781 24.076 95.1437 24.3335 94.6693 24.4895C94.1948 24.6454 93.6918 24.6959 93.1956 24.6374C92.6994 24.579 92.2221 24.413 91.7974 24.1511L69.1744 39.8326L68.5498 33.5833L90.7935 19.2438C91.2829 18.563 92.0063 18.0844 92.8266 17.8988C93.6469 17.7132 94.5071 17.8335 95.2443 18.2368C95.9814 18.6401 96.5443 19.2985 96.8262 20.0871C97.1081 20.8758 97.0895 21.7399 96.7738 22.5158Z" fill="#FFB6B6"/>
<path d="M46.1223 32.4032C46.1223 32.4032 43.6727 36.0047 47.5167 39.1918C51.3606 42.3789 66.9409 41.7448 69.4552 41.7175C71.9695 41.6901 83.5054 29.816 83.5054 29.816L83.4299 22.9584L69.5018 31.1814L46.1223 32.4032Z" fill="#10B981"/>
<path d="M44.7354 56.3143L44.9822 60.9815C44.9822 60.9815 44.2536 65.1157 44.8529 66.0079C45.4476 66.8956 61.7806 68.2162 61.7806 68.2162C61.7806 68.2162 61.2685 61.2557 62.1922 56.2209L44.7354 56.3143Z" fill="#FFB6B6"/>
<path d="M94.8616 103.834L88.5746 109.31L76.2523 84.235C64.0332 86.326 52.5056 86.9959 42.5346 84.4664C39.1587 83.6218 37.0951 80.1533 37.9255 76.7194C37.9643 76.5589 38.0092 76.4001 38.0601 76.243C39.2535 72.6203 42.3772 70.057 44.8382 66.0725L62.8148 66.3442L60.8069 73.2374L78.2699 70.989C81.7817 70.5368 84.989 73.0661 85.4336 76.6383C85.457 76.8269 85.4724 77.0163 85.4796 77.2064L94.8616 103.834Z" fill="#2F2E41"/>
<path d="M51.7545 24.9061C55.7859 24.9061 59.054 21.6543 59.054 17.6431C59.054 13.6318 55.7859 10.38 51.7545 10.38C47.7231 10.38 44.455 13.6318 44.455 17.6431C44.455 21.6543 47.7231 24.9061 51.7545 24.9061Z" fill="#FFB6B6"/>
<path d="M47.4752 27.5281L54.1682 28.3116C54.4504 28.3446 54.7153 28.4644 54.9258 28.6543C55.1364 28.8442 55.2822 29.0948 55.3429 29.371L56.4072 34.2173L63.0424 41.992C63.0424 41.992 65.425 46.4371 64.5315 51.4749C63.9938 54.5085 63.0637 57.46 61.7642 60.2559C61.7642 60.2559 45.4468 66.8961 44.8511 66.0071C44.2555 65.118 44.0622 61.0799 44.0622 61.0799L41.9629 37.8417C41.8427 36.6173 41.9964 35.3816 42.4127 34.2233C42.8291 33.0649 43.498 32.0126 44.3713 31.1418C44.901 30.6234 45.4237 30.2605 45.8491 30.2605C46.8102 30.2283 46.6869 28.0761 47.4752 27.5281Z" fill="#10B981"/>
<path d="M61.8366 126.244L64.9426 127.758L72.4196 116.292L67.8354 114.058L61.8366 126.244Z" fill="#FFB6B6"/>
<path d="M69.2768 123.652L62.896 121.242L71.6536 95.07C59.7559 91.5991 50.7814 86.0084 42.9455 79.3723C40.2873 77.136 38.2938 74.2642 40.5577 71.5439C40.6635 71.4167 40.774 71.2937 40.8892 71.175C43.5626 68.444 50.3474 68.9694 54.3192 66.4685L63.2021 75.905L62.6455 78.4328L79.3219 84.0577C82.6756 85.1889 84.4376 88.8642 83.2574 92.2667C83.1951 92.4464 83.1251 92.6232 83.0475 92.7971L69.2768 123.652Z" fill="#2F2E41"/>
<path d="M61.7307 124.417L67.0693 126.637L65.9806 128.848L69.2436 134.641C69.4048 134.927 69.4698 135.257 69.4293 135.582C69.3887 135.908 69.2447 136.212 69.0181 136.45C68.7916 136.688 68.4945 136.848 68.1701 136.906C67.8458 136.965 67.5112 136.918 67.2152 136.774L61.04 133.764L61.0524 131.058L59.56 133.043L57.2317 131.908L61.7307 124.417Z" fill="#2F2E41"/>
<path d="M51.2912 84.3441C50.8725 84.0727 50.5188 83.7132 50.2549 83.2911C49.991 82.8689 49.8233 82.3943 49.7636 81.9007C49.704 81.4071 49.7539 80.9065 49.9097 80.4341C50.0656 79.9617 50.3236 79.5291 50.6657 79.1667L39.6973 53.9972L45.9772 54.6255L55.6987 79.1594C56.2725 79.7715 56.6007 80.5718 56.6211 81.4086C56.6415 82.2454 56.3527 83.0606 55.8094 83.6997C55.2661 84.3387 54.5061 84.7573 53.6733 84.8761C52.8406 84.9949 51.993 84.8056 51.2912 84.3441Z" fill="#FFB6B6"/>
<path d="M51.5809 32.9856C51.5809 32.9856 48.518 29.8833 44.6172 33.0013C40.7164 36.1192 38.2558 51.4402 37.7849 53.8979C37.314 56.3555 46.727 69.9579 46.727 69.9579L53.4975 71.2422L48.1549 56.0297L51.5809 32.9856Z" fill="#10B981"/>
<path d="M160.84 18.2833H92.3315C91.7429 18.2843 91.1787 18.5173 90.7625 18.9314C90.3463 19.3456 90.1121 19.907 90.1111 20.4926V66.4917C90.1117 67.0775 90.3458 67.6391 90.7621 68.0533C91.1784 68.4675 91.7428 68.7004 92.3315 68.701H160.84C161.429 68.7004 161.993 68.4675 162.41 68.0533C162.826 67.6391 163.06 67.0775 163.061 66.4917V20.4926C163.06 19.907 162.825 19.3456 162.409 18.9314C161.993 18.5173 161.429 18.2843 160.84 18.2833Z" fill="#3F3D56"/>
<path d="M160.268 19.879H92.9039C92.5888 19.8797 92.2868 20.0047 92.0642 20.2267C91.8415 20.4487 91.7165 20.7494 91.7165 21.063V65.922C91.717 66.2352 91.8423 66.5354 92.0649 66.7569C92.2874 66.9783 92.5892 67.103 92.9039 67.1035H160.268C160.583 67.103 160.885 66.9783 161.107 66.7569C161.33 66.5354 161.455 66.2352 161.456 65.922V21.063C161.456 20.7494 161.331 20.4487 161.108 20.2267C160.885 20.0047 160.583 19.8797 160.268 19.879Z" fill="white"/>
<path d="M147.147 86.5859H107.069C106.959 86.5859 106.851 86.5615 106.752 86.5146C106.653 86.4676 106.565 86.3993 106.496 86.3145C106.427 86.2298 106.378 86.1307 106.352 86.0246C106.326 85.9185 106.325 85.808 106.347 85.7012L106.969 82.7624C107.005 82.598 107.095 82.4505 107.227 82.3446C107.358 82.2386 107.522 82.1805 107.69 82.1799H146.525C146.694 82.1805 146.858 82.2386 146.989 82.3446C147.12 82.4505 147.211 82.598 147.246 82.7624L147.868 85.7012C147.891 85.808 147.889 85.9185 147.863 86.0246C147.838 86.1307 147.788 86.2298 147.719 86.3145C147.65 86.3993 147.563 86.4676 147.464 86.5146C147.365 86.5615 147.257 86.5859 147.147 86.5859Z" fill="#2F2E41"/>
<path d="M109.089 82.7091H108.096C108.029 82.7091 107.975 82.7628 107.975 82.829V83.3261C107.975 83.3923 108.029 83.446 108.096 83.446H109.089C109.156 83.446 109.209 83.3923 109.209 83.3261V82.829C109.209 82.7628 109.156 82.7091 109.089 82.7091Z" fill="#3F3D56"/>
<path d="M111.558 82.7091H110.564C110.498 82.7091 110.444 82.7628 110.444 82.829V83.3261C110.444 83.3923 110.498 83.446 110.564 83.446H111.558C111.624 83.446 111.678 83.3923 111.678 83.3261V82.829C111.678 82.7628 111.624 82.7091 111.558 82.7091Z" fill="#3F3D56"/>
<path d="M114.026 82.7091H113.033C112.967 82.7091 112.913 82.7628 112.913 82.829V83.3261C112.913 83.3923 112.967 83.446 113.033 83.446H114.026C114.093 83.446 114.147 83.3923 114.147 83.3261V82.829C114.147 82.7628 114.093 82.7091 114.026 82.7091Z" fill="#3F3D56"/>
<path d="M116.495 82.7091H115.502C115.435 82.7091 115.381 82.7628 115.381 82.829V83.3261C115.381 83.3923 115.435 83.446 115.502 83.446H116.495C116.562 83.446 116.616 83.3923 116.616 83.3261V82.829C116.616 82.7628 116.562 82.7091 116.495 82.7091Z" fill="#3F3D56"/>
<path d="M118.964 82.7091H117.971C117.904 82.7091 117.85 82.7628 117.85 82.829V83.3261C117.85 83.3923 117.904 83.446 117.971 83.446H118.964C119.03 83.446 119.084 83.3923 119.084 83.3261V82.829C119.084 82.7628 119.03 82.7091 118.964 82.7091Z" fill="#3F3D56"/>
<path d="M121.433 82.7091H120.439C120.373 82.7091 120.319 82.7628 120.319 82.829V83.3261C120.319 83.3923 120.373 83.446 120.439 83.446H121.433C121.499 83.446 121.553 83.3923 121.553 83.3261V82.829C121.553 82.7628 121.499 82.7091 121.433 82.7091Z" fill="#3F3D56"/>
<path d="M123.901 82.7091H122.908C122.841 82.7091 122.788 82.7628 122.788 82.829V83.3261C122.788 83.3923 122.841 83.446 122.908 83.446H123.901C123.968 83.446 124.022 83.3923 124.022 83.3261V82.829C124.022 82.7628 123.968 82.7091 123.901 82.7091Z" fill="#3F3D56"/>
<path d="M126.37 82.7091H125.377C125.31 82.7091 125.256 82.7628 125.256 82.829V83.3261C125.256 83.3923 125.31 83.446 125.377 83.446H126.37C126.437 83.446 126.491 83.3923 126.491 83.3261V82.829C126.491 82.7628 126.437 82.7091 126.37 82.7091Z" fill="#3F3D56"/>
<path d="M128.839 82.7091H127.846C127.779 82.7091 127.725 82.7628 127.725 82.829V83.3261C127.725 83.3923 127.779 83.446 127.846 83.446H128.839C128.905 83.446 128.959 83.3923 128.959 83.3261V82.829C128.959 82.7628 128.905 82.7091 128.839 82.7091Z" fill="#3F3D56"/>
<path d="M131.308 82.7091H130.314C130.248 82.7091 130.194 82.7628 130.194 82.829V83.3261C130.194 83.3923 130.248 83.446 130.314 83.446H131.308C131.374 83.446 131.428 83.3923 131.428 83.3261V82.829C131.428 82.7628 131.374 82.7091 131.308 82.7091Z" fill="#3F3D56"/>
<path d="M133.776 82.7091H132.783C132.716 82.7091 132.662 82.7628 132.662 82.829V83.3261C132.662 83.3923 132.716 83.446 132.783 83.446H133.776C133.843 83.446 133.897 83.3923 133.897 83.3261V82.829C133.897 82.7628 133.843 82.7091 133.776 82.7091Z" fill="#3F3D56"/>
<path d="M136.245 82.7091H135.252C135.185 82.7091 135.131 82.7628 135.131 82.829V83.3261C135.131 83.3923 135.185 83.446 135.252 83.446H136.245C136.312 83.446 136.366 83.3923 136.366 83.3261V82.829C136.366 82.7628 136.312 82.7091 136.245 82.7091Z" fill="#3F3D56"/>
<path d="M138.714 82.7091H137.72C137.654 82.7091 137.6 82.7628 137.6 82.829V83.3261C137.6 83.3923 137.654 83.446 137.72 83.446H138.714C138.78 83.446 138.834 83.3923 138.834 83.3261V82.829C138.834 82.7628 138.78 82.7091 138.714 82.7091Z" fill="#3F3D56"/>
<path d="M141.183 82.7091H140.189C140.123 82.7091 140.069 82.7628 140.069 82.829V83.3261C140.069 83.3923 140.123 83.446 140.189 83.446H141.183C141.249 83.446 141.303 83.3923 141.303 83.3261V82.829C141.303 82.7628 141.249 82.7091 141.183 82.7091Z" fill="#3F3D56"/>
<path d="M143.651 82.7091H142.658C142.591 82.7091 142.537 82.7628 142.537 82.829V83.3261C142.537 83.3923 142.591 83.446 142.658 83.446H143.651C143.718 83.446 143.772 83.3923 143.772 83.3261V82.829C143.772 82.7628 143.718 82.7091 143.651 82.7091Z" fill="#3F3D56"/>
<path d="M146.12 82.7091H145.127C145.06 82.7091 145.006 82.7628 145.006 82.829V83.3261C145.006 83.3923 145.06 83.446 145.127 83.446H146.12C146.187 83.446 146.241 83.3923 146.241 83.3261V82.829C146.241 82.7628 146.187 82.7091 146.12 82.7091Z" fill="#3F3D56"/>
<path d="M109.06 83.9373H108.066C108 83.9373 107.946 83.9909 107.946 84.0572V84.5543C107.946 84.6205 108 84.6742 108.066 84.6742H109.06C109.126 84.6742 109.18 84.6205 109.18 84.5543V84.0572C109.18 83.9909 109.126 83.9373 109.06 83.9373Z" fill="#3F3D56"/>
<path d="M111.529 83.9373H110.535C110.469 83.9373 110.415 83.9909 110.415 84.0572V84.5543C110.415 84.6205 110.469 84.6742 110.535 84.6742H111.529C111.595 84.6742 111.649 84.6205 111.649 84.5543V84.0572C111.649 83.9909 111.595 83.9373 111.529 83.9373Z" fill="#3F3D56"/>
<path d="M113.997 83.9373H113.004C112.937 83.9373 112.883 83.9909 112.883 84.0572V84.5543C112.883 84.6205 112.937 84.6742 113.004 84.6742H113.997C114.064 84.6742 114.118 84.6205 114.118 84.5543V84.0572C114.118 83.9909 114.064 83.9373 113.997 83.9373Z" fill="#3F3D56"/>
<path d="M116.466 83.9373H115.473C115.406 83.9373 115.352 83.9909 115.352 84.0572V84.5543C115.352 84.6205 115.406 84.6742 115.473 84.6742H116.466C116.533 84.6742 116.587 84.6205 116.587 84.5543V84.0572C116.587 83.9909 116.533 83.9373 116.466 83.9373Z" fill="#3F3D56"/>
<path d="M118.935 83.9373H117.941C117.875 83.9373 117.821 83.9909 117.821 84.0572V84.5543C117.821 84.6205 117.875 84.6742 117.941 84.6742H118.935C119.001 84.6742 119.055 84.6205 119.055 84.5543V84.0572C119.055 83.9909 119.001 83.9373 118.935 83.9373Z" fill="#3F3D56"/>
<path d="M121.403 83.9373H120.41C120.344 83.9373 120.29 83.9909 120.29 84.0572V84.5543C120.29 84.6205 120.344 84.6742 120.41 84.6742H121.403C121.47 84.6742 121.524 84.6205 121.524 84.5543V84.0572C121.524 83.9909 121.47 83.9373 121.403 83.9373Z" fill="#3F3D56"/>
<path d="M123.872 83.9373H122.879C122.812 83.9373 122.758 83.9909 122.758 84.0572V84.5543C122.758 84.6205 122.812 84.6742 122.879 84.6742H123.872C123.939 84.6742 123.993 84.6205 123.993 84.5543V84.0572C123.993 83.9909 123.939 83.9373 123.872 83.9373Z" fill="#3F3D56"/>
<path d="M126.341 83.9373H125.348C125.281 83.9373 125.227 83.9909 125.227 84.0572V84.5543C125.227 84.6205 125.281 84.6742 125.348 84.6742H126.341C126.407 84.6742 126.461 84.6205 126.461 84.5543V84.0572C126.461 83.9909 126.407 83.9373 126.341 83.9373Z" fill="#3F3D56"/>
<path d="M128.81 83.9373H127.816C127.75 83.9373 127.696 83.9909 127.696 84.0572V84.5543C127.696 84.6205 127.75 84.6742 127.816 84.6742H128.81C128.876 84.6742 128.93 84.6205 128.93 84.5543V84.0572C128.93 83.9909 128.876 83.9373 128.81 83.9373Z" fill="#3F3D56"/>
<path d="M131.278 83.9373H130.285C130.219 83.9373 130.165 83.9909 130.165 84.0572V84.5543C130.165 84.6205 130.219 84.6742 130.285 84.6742H131.278C131.345 84.6742 131.399 84.6205 131.399 84.5543V84.0572C131.399 83.9909 131.345 83.9373 131.278 83.9373Z" fill="#3F3D56"/>
<path d="M133.747 83.9373H132.754C132.687 83.9373 132.633 83.9909 132.633 84.0572V84.5543C132.633 84.6205 132.687 84.6742 132.754 84.6742H133.747C133.814 84.6742 133.868 84.6205 133.868 84.5543V84.0572C133.868 83.9909 133.814 83.9373 133.747 83.9373Z" fill="#3F3D56"/>
<path d="M136.216 83.9373H135.223C135.156 83.9373 135.102 83.9909 135.102 84.0572V84.5543C135.102 84.6205 135.156 84.6742 135.223 84.6742H136.216C136.282 84.6742 136.336 84.6205 136.336 84.5543V84.0572C136.336 83.9909 136.282 83.9373 136.216 83.9373Z" fill="#3F3D56"/>
<path d="M138.685 83.9373H137.691C137.625 83.9373 137.571 83.9909 137.571 84.0572V84.5543C137.571 84.6205 137.625 84.6742 137.691 84.6742H138.685C138.751 84.6742 138.805 84.6205 138.805 84.5543V84.0572C138.805 83.9909 138.751 83.9373 138.685 83.9373Z" fill="#3F3D56"/>
<path d="M141.153 83.9373H140.16C140.093 83.9373 140.039 83.9909 140.039 84.0572V84.5543C140.039 84.6205 140.093 84.6742 140.16 84.6742H141.153C141.22 84.6742 141.274 84.6205 141.274 84.5543V84.0572C141.274 83.9909 141.22 83.9373 141.153 83.9373Z" fill="#3F3D56"/>
<path d="M143.622 83.9373H142.629C142.562 83.9373 142.508 83.9909 142.508 84.0572V84.5543C142.508 84.6205 142.562 84.6742 142.629 84.6742H143.622C143.689 84.6742 143.743 84.6205 143.743 84.5543V84.0572C143.743 83.9909 143.689 83.9373 143.622 83.9373Z" fill="#3F3D56"/>
<path d="M146.091 83.9373H145.097C145.031 83.9373 144.977 83.9909 144.977 84.0572V84.5543C144.977 84.6205 145.031 84.6742 145.097 84.6742H146.091C146.157 84.6742 146.211 84.6205 146.211 84.5543V84.0572C146.211 83.9909 146.157 83.9373 146.091 83.9373Z" fill="#3F3D56"/>
<path d="M129.55 85.4111H119.916C119.85 85.4111 119.796 85.4648 119.796 85.5311V86.0281C119.796 86.0944 119.85 86.1481 119.916 86.1481H129.55C129.617 86.1481 129.671 86.0944 129.671 86.0281V85.5311C129.671 85.4648 129.617 85.4111 129.55 85.4111Z" fill="#3F3D56"/>
<path d="M155.629 142.65L153.726 139.606L153.345 141.345C153.279 141.65 153.212 141.96 153.15 142.267C152.61 141.807 152.034 141.382 151.472 140.975C149.744 139.727 148.016 138.477 146.29 137.226L146.83 140.346C147.164 142.267 147.512 144.227 148.336 145.983C148.428 146.182 148.526 146.379 148.633 146.57H156.666C156.73 146.392 156.775 146.208 156.799 146.02C156.801 146.008 156.802 145.995 156.802 145.983C156.928 144.792 156.266 143.669 155.629 142.65Z" fill="#F0F0F0"/>
<path d="M47.0046 142.65L45.1012 139.606L44.721 141.345C44.6543 141.65 44.5877 141.96 44.526 142.267C43.9853 141.807 43.4101 141.382 42.8473 140.975C41.1191 139.727 39.3918 138.477 37.6653 137.226L38.206 140.346C38.5393 142.267 38.8874 144.227 39.7119 145.983C39.8033 146.182 39.902 146.379 40.0082 146.57H48.0415C48.1061 146.392 48.1508 146.208 48.1748 146.02C48.1768 146.008 48.1776 145.995 48.1772 145.983C48.3032 144.792 47.6415 143.669 47.0046 142.65Z" fill="#F0F0F0"/>
<path d="M199.706 146.903L131.631 146.979C131.553 146.978 131.478 146.947 131.423 146.893C131.368 146.838 131.338 146.764 131.338 146.686C131.338 146.609 131.368 146.534 131.423 146.48C131.478 146.425 131.553 146.394 131.631 146.394L199.706 146.318C199.784 146.318 199.858 146.349 199.913 146.404C199.968 146.459 199.999 146.533 199.999 146.611C199.999 146.688 199.968 146.762 199.913 146.817C199.858 146.872 199.784 146.903 199.706 146.903Z" fill="#CACACA"/>
<path d="M68.3693 146.903L0.293953 146.979C0.21614 146.978 0.141594 146.947 0.0866515 146.893C0.0317093 146.838 0.000854492 146.764 0.000854492 146.686C0.000854492 146.609 0.0317093 146.534 0.0866515 146.48C0.141594 146.425 0.21614 146.394 0.293953 146.394L68.3693 146.318C68.4471 146.318 68.5217 146.349 68.5766 146.404C68.6316 146.459 68.6624 146.533 68.6624 146.611C68.6624 146.688 68.6316 146.762 68.5766 146.817C68.5217 146.872 68.4471 146.903 68.3693 146.903Z" fill="#CACACA"/>
<path d="M44.0353 11.1686C42.8577 11.5174 41.7591 10.5373 40.9395 9.6088L41.2308 9.9527C39.3028 11.3037 38.1499 13.5047 37.4018 15.7326C36.6538 17.9581 36.2366 20.2893 35.3923 22.4828C34.548 24.674 33.1852 26.7938 31.0991 27.8869C28.3045 29.351 24.8804 28.6853 21.908 27.629C21.8685 27.6143 21.8315 27.602 21.792 27.5873C22.9959 25.3498 23.7331 22.8934 23.9596 20.3654C22.7368 22.7407 20.9734 24.799 18.8098 26.3763C16.8676 25.4978 15.0001 24.4644 13.2255 23.2861C12.0775 22.5221 10.8679 21.5347 10.7345 20.1665C10.5988 18.8081 11.6183 17.5676 12.8206 16.9142C14.0229 16.2608 15.4054 16.0397 16.7188 15.6467C18.0297 15.2561 19.3677 14.615 20.0565 13.4359C21.6439 10.724 18.9727 6.89938 20.6761 4.25628C21.5155 2.95684 23.1449 2.43608 24.6557 2.07499C26.9618 1.52614 29.3026 1.13304 31.662 0.898368C33.7333 0.69203 35.8737 0.615882 37.8437 1.27911C39.8138 1.94234 41.6011 3.48251 42.0233 5.51151C43.1737 6.11333 44.3908 6.77901 45.008 7.92124C45.6252 9.06101 45.282 10.8002 44.0353 11.1686Z" fill="#2F2E41"/>
<path d="M42.2774 10.7116C41.1498 12.1171 40.536 13.6371 40.536 14.5474C38.1935 18.8073 41.5433 22.4664 45.8247 24.7972C47.5324 25.7317 49.5041 26.0737 51.4289 25.7693L51.608 25.0085L51.8507 25.6938C51.8507 25.6938 54.6382 34.8545 55.5576 35.3919C55.2087 33.7616 54.809 26.2131 54.6148 24.6221C54.3459 22.4565 55.2833 19.2326 55.9595 17.2721C56.3787 16.0638 56.5939 14.7947 56.5962 13.5164V13.4605L57.2546 15.5648L59.6517 14.5474C59.2057 12.0023 59.6517 9.11305 54.3053 9.36363C51.4138 7.38491 48.8674 7.08349 46.7757 7.64471C46.5058 7.22945 44.9492 8.00721 44.4994 7.78855" fill="#2F2E41"/>
<path d="M161.456 21.063V65.922C161.455 66.2352 161.33 66.5354 161.107 66.7569C160.885 66.9783 160.583 67.103 160.268 67.1035H136.514C133.886 64.6787 131.73 61.7924 130.155 58.5896C130.051 58.3833 129.952 58.1745 129.858 57.9632C128.423 54.8632 127.553 51.5335 127.291 48.1302C127.274 47.9214 127.259 47.7126 127.249 47.5014C127.217 46.9609 127.202 46.4132 127.202 45.8629C127.197 42.2035 127.892 38.5765 129.249 35.1751C129.33 34.9638 129.417 34.755 129.505 34.5463C132.236 28.1627 137.17 22.9607 143.417 19.879H160.268C160.583 19.8797 160.885 20.0047 161.108 20.2267C161.331 20.4487 161.456 20.7494 161.456 21.063Z" fill="#10B981"/>
<path d="M156.882 26.0596H93.8494C93.7839 26.0582 93.7215 26.0313 93.6757 25.9847C93.6299 25.938 93.6042 25.8754 93.6042 25.8102C93.6042 25.745 93.6299 25.6824 93.6757 25.6357C93.7215 25.5891 93.7839 25.5622 93.8494 25.5608H156.882C156.948 25.5622 157.01 25.5891 157.056 25.6357C157.102 25.6824 157.127 25.745 157.127 25.8102C157.127 25.8754 157.102 25.938 157.056 25.9847C157.01 26.0313 156.948 26.0582 156.882 26.0596Z" fill="#CACACA"/>
<path d="M98.1401 24.2873C98.9515 24.2873 99.6091 23.6183 99.6091 22.7931C99.6091 21.9678 98.9515 21.2988 98.1401 21.2988C97.3288 21.2988 96.6711 21.9678 96.6711 22.7931C96.6711 23.6183 97.3288 24.2873 98.1401 24.2873Z" fill="#3F3D56"/>
<path d="M103.215 24.2873C104.026 24.2873 104.684 23.6183 104.684 22.7931C104.684 21.9678 104.026 21.2988 103.215 21.2988C102.404 21.2988 101.746 21.9678 101.746 22.7931C101.746 23.6183 102.404 24.2873 103.215 24.2873Z" fill="#3F3D56"/>
<path d="M108.29 24.2873C109.101 24.2873 109.759 23.6183 109.759 22.7931C109.759 21.9678 109.101 21.2988 108.29 21.2988C107.478 21.2988 106.821 21.9678 106.821 22.7931C106.821 23.6183 107.478 24.2873 108.29 24.2873Z" fill="#3F3D56"/>
<path d="M153.827 21.6692H150.222C150.15 21.6706 150.082 21.6998 150.032 21.7506C149.982 21.8014 149.954 21.8697 149.954 21.9408C149.954 22.0119 149.982 22.0802 150.032 22.131C150.082 22.1817 150.15 22.211 150.222 22.2124H153.827C153.898 22.211 153.966 22.1817 154.016 22.131C154.066 22.0802 154.094 22.0119 154.094 21.9408C154.094 21.8697 154.066 21.8014 154.016 21.7506C153.966 21.6998 153.898 21.6706 153.827 21.6692Z" fill="#3F3D56"/>
<path d="M153.827 22.6887H150.222C150.15 22.6901 150.082 22.7194 150.032 22.7701C149.982 22.8209 149.954 22.8892 149.954 22.9603C149.954 23.0314 149.982 23.0997 150.032 23.1505C150.082 23.2013 150.15 23.2305 150.222 23.2319H153.827C153.898 23.2305 153.966 23.2013 154.016 23.1505C154.066 23.0997 154.094 23.0314 154.094 22.9603C154.094 22.8892 154.066 22.8209 154.016 22.7701C153.966 22.7194 153.898 22.6901 153.827 22.6887Z" fill="#3F3D56"/>
<path d="M153.827 23.7068H150.222C150.15 23.7082 150.082 23.7374 150.032 23.7882C149.982 23.839 149.954 23.9073 149.954 23.9784C149.954 24.0495 149.982 24.1178 150.032 24.1685C150.082 24.2193 150.15 24.2486 150.222 24.25H153.827C153.898 24.2486 153.966 24.2193 154.016 24.1685C154.066 24.1178 154.094 24.0495 154.094 23.9784C154.094 23.9073 154.066 23.839 154.016 23.7882C153.966 23.7374 153.898 23.7082 153.827 23.7068Z" fill="#3F3D56"/>
<path d="M112.68 40.6305H104.804C104.212 40.6305 103.733 41.1077 103.733 41.6963V41.6963C103.733 42.285 104.212 42.7622 104.804 42.7622H112.68C113.272 42.7622 113.751 42.285 113.751 41.6963C113.751 41.1077 113.272 40.6305 112.68 40.6305Z" fill="#10B981"/>
<path d="M117.768 44.8938H99.7157C99.1241 44.8938 98.6446 45.371 98.6446 45.9596C98.6446 46.5483 99.1241 47.0255 99.7157 47.0255H117.768C118.36 47.0255 118.839 46.5483 118.839 45.9596C118.839 45.371 118.36 44.8938 117.768 44.8938Z" fill="#E6E6E6"/>
<path d="M117.768 49.1571H99.7157C99.1241 49.1571 98.6446 49.6343 98.6446 50.2229V50.2229C98.6446 50.8116 99.1241 51.2888 99.7157 51.2888H117.768C118.36 51.2888 118.839 50.8116 118.839 50.2229C118.839 49.6343 118.36 49.1571 117.768 49.1571Z" fill="#E6E6E6"/>
<path d="M100.293 64.5317C100.294 65.4097 100.137 66.2809 99.8287 67.1036H92.9039C92.5892 67.103 92.2874 66.9784 92.0649 66.7569C91.8423 66.5354 91.717 66.2352 91.7165 65.922V57.2558C92.1034 57.1936 92.4947 57.1623 92.8867 57.1625C93.8593 57.1624 94.8224 57.353 95.721 57.7233C96.6195 58.0936 97.436 58.6364 98.1238 59.3207C98.8115 60.005 99.357 60.8174 99.7292 61.7115C100.101 62.6057 100.293 63.5639 100.293 64.5317Z" fill="#10B981"/>
<path opacity="0.2" d="M161.518 35.1751V34.5462H150.924V27.2581H150.295V34.5462H138.153V27.2581H137.524V34.5462H129.505C129.417 34.755 129.33 34.9638 129.249 35.1751H137.524V47.5013H127.249C127.259 47.7126 127.274 47.9214 127.291 48.1302H137.524V57.9632H129.858C129.952 58.1744 130.051 58.3832 130.155 58.5896H137.524V66.8554H138.153V58.5896H150.295V66.8554H150.924V58.5896H161.518V57.9632H150.924V48.1302H161.518V47.5013H150.924V35.1751H161.518ZM150.295 57.9632H138.153V48.1302H150.295V57.9632ZM150.295 47.5013H138.153V35.1751H150.295V47.5013Z" fill="black"/>
<path d="M152.988 62.4496C152.853 62.4558 152.719 62.4205 152.605 62.3485C152.491 62.2765 152.401 62.1713 152.349 62.0471C152.297 61.9229 152.285 61.7858 152.313 61.6543C152.342 61.5228 152.411 61.4032 152.51 61.3119L152.555 61.133C152.549 61.1187 152.543 61.1044 152.537 61.0901C152.401 60.7702 152.173 60.4974 151.882 60.3061C151.59 60.1147 151.248 60.0133 150.899 60.0146C150.55 60.0159 150.209 60.1198 149.919 60.3133C149.629 60.5068 149.403 60.7813 149.269 61.1022C148.735 62.3831 148.054 63.6661 147.887 65.0204C147.813 65.6191 147.844 66.2259 147.979 66.814C146.723 64.0892 146.072 61.1277 146.067 58.1303C146.067 57.3781 146.109 56.6265 146.193 55.879C146.263 55.2662 146.359 54.6578 146.482 54.0537C147.155 50.7761 148.6 47.704 150.698 45.0898C151.713 44.5385 152.534 43.6909 153.05 42.661C153.237 42.2908 153.37 41.8956 153.443 41.4878C153.328 41.5027 153.212 41.512 153.097 41.5195C153.062 41.5214 153.024 41.5232 152.988 41.5251L152.975 41.5257C152.849 41.5313 152.724 41.5006 152.615 41.4373C152.507 41.374 152.419 41.2807 152.362 41.1688C152.305 41.0568 152.282 40.9309 152.296 40.8063C152.309 40.6816 152.359 40.5635 152.438 40.4662C152.488 40.4056 152.537 40.3451 152.587 40.2846C152.662 40.1912 152.739 40.0996 152.814 40.0062C152.822 39.9973 152.831 39.988 152.838 39.9782C152.925 39.8717 153.011 39.7671 153.097 39.6606C152.94 39.4171 152.728 39.2131 152.478 39.0646C151.612 38.5602 150.418 38.9095 149.793 39.6886C149.166 40.4677 149.047 41.5606 149.265 42.534C149.479 43.3622 149.834 44.1481 150.313 44.8581C150.266 44.9179 150.217 44.9758 150.17 45.0356C149.312 46.1335 148.564 47.3124 147.937 48.5554C148.09 47.1629 147.908 45.7542 147.406 44.4452C146.898 43.2253 145.945 42.1979 145.107 41.1434C144.099 39.8766 142.033 40.4295 141.855 42.0352C141.854 42.0508 141.852 42.0663 141.85 42.0818C141.975 42.1518 142.097 42.226 142.216 42.3045C142.366 42.4042 142.482 42.5466 142.549 42.7131C142.617 42.8796 142.632 43.0623 142.593 43.2375C142.554 43.4126 142.462 43.572 142.331 43.6946C142.199 43.8173 142.034 43.8976 141.855 43.9249L141.837 43.9277C141.881 44.3745 141.96 44.8173 142.072 45.2523C142.396 46.4666 142.969 47.6012 143.754 48.585C144.54 49.5688 145.521 50.3804 146.636 50.9692C146.71 51.0066 146.781 51.0439 146.854 51.0794C146.224 52.8556 145.829 54.7058 145.679 56.5833C145.594 57.691 145.599 58.8038 145.694 59.9107L145.688 59.8715C145.448 58.6406 144.788 57.53 143.82 56.7272C142.382 55.552 140.351 55.1193 138.8 54.1747C138.635 54.0694 138.443 54.0132 138.247 54.0127C138.052 54.0123 137.86 54.0675 137.694 54.172C137.529 54.2765 137.397 54.4259 137.314 54.6025C137.231 54.7792 137.201 54.9757 137.227 55.1689C137.229 55.1827 137.231 55.1964 137.233 55.2102C137.464 55.3039 137.689 55.4118 137.907 55.5334C138.032 55.6033 138.154 55.6776 138.273 55.7561C138.423 55.8557 138.539 55.9981 138.606 56.1646C138.674 56.3311 138.689 56.5139 138.65 56.689C138.611 56.8642 138.519 57.0235 138.388 57.1462C138.256 57.2688 138.09 57.3491 137.912 57.3764L137.894 57.3792C137.881 57.3811 137.87 57.383 137.857 57.3848C138.252 58.3234 138.806 59.1873 139.496 59.9387C140.348 60.8483 141.377 61.5752 142.521 62.0747C143.666 62.5743 144.9 62.836 146.15 62.8439H146.152C146.491 64.3105 146.983 65.738 147.618 67.1035H152.857C152.876 67.0456 152.893 66.9858 152.91 66.9279C152.425 66.9582 151.938 66.9294 151.46 66.842C151.849 66.3674 152.237 65.8891 152.626 65.4146C152.635 65.4058 152.643 65.3964 152.65 65.3866C152.848 65.1437 153.047 64.9027 153.244 64.6599L153.244 64.6596C153.254 63.9151 153.168 63.1723 152.988 62.4496ZM146.989 50.7076L146.992 50.7039L146.989 50.7114V50.7076ZM145.829 61.1158L145.784 61.0149C145.786 60.942 145.786 60.8692 145.784 60.7944C145.784 60.7739 145.78 60.7533 145.78 60.7328C145.797 60.8617 145.812 60.9906 145.831 61.1195L145.829 61.1158Z" fill="#2F2E41"/>
</g>
<defs>
<clipPath id="clip0_162_902">
<rect width="200" height="146.226" fill="white" transform="translate(0 0.752197)"/>
</clipPath>
</defs>
</svg>
