<svg width="200" height="182" viewBox="0 0 200 182" fill="none" xmlns="http://www.w3.org/2000/svg">
<g clip-path="url(#clip0_162_1046)">
<path d="M140.033 34.189C140.131 34.8695 140.489 35.4848 141.032 35.904C141.575 36.3232 142.26 36.5131 142.94 36.4335C143.078 36.4151 143.214 36.3852 143.347 36.3443L148.828 43.729L153.539 42.2557L144.942 32.9544C144.73 32.4134 144.346 31.958 143.849 31.6594C143.352 31.3607 142.771 31.2355 142.196 31.3034C141.869 31.3452 141.553 31.4512 141.267 31.6154C140.981 31.7796 140.73 31.9987 140.528 32.2603C140.326 32.5219 140.178 32.8208 140.091 33.14C140.005 33.4591 139.982 33.7923 140.023 34.1205C140.026 34.1434 140.029 34.1662 140.033 34.189Z" fill="#A0616A"/>
<path d="M178.732 67.171C178.732 67.171 158.268 57.5836 153.092 51.46L143.816 39.8985L148.52 36.0352L157.239 46.1166C157.159 48.2349 167.465 50.4066 173.005 53.4943L178.732 67.171Z" fill="#E6E6E6"/>
<path d="M183.763 177.015L179.749 177.015L177.84 161.473L183.764 161.473L183.763 177.015Z" fill="#A0616A"/>
<path d="M183.904 181.219L171.561 181.218V181.061C171.561 179.782 172.067 178.556 172.968 177.651C173.869 176.747 175.091 176.239 176.365 176.239L178.62 174.521L182.827 176.239L183.904 176.239L183.904 181.219Z" fill="#2F2E41"/>
<path d="M174.194 173.46L170.285 174.375L164.907 159.675L170.676 158.324L174.194 173.46Z" fill="#A0616A"/>
<path d="M175.283 177.521L163.262 180.337L163.227 180.184C162.937 178.938 163.153 177.628 163.825 176.542C164.498 175.456 165.573 174.682 166.814 174.391L166.814 174.391L168.621 172.205L173.107 172.918L174.156 172.672L175.283 177.521Z" fill="#2F2E41"/>
<path d="M135.016 86.258H23.2903C22.5852 86.2498 21.8833 86.1605 21.1985 85.9919C19.1544 85.4989 17.3359 84.328 16.037 82.6686C14.7382 81.0093 14.035 78.9586 14.0412 76.8483V38.7259C14.0451 36.2323 15.0342 33.842 16.7915 32.0796C18.5488 30.3171 20.9307 29.3264 23.4148 29.3247H135.016C136.521 29.3207 138.003 29.685 139.336 30.3861C139.866 30.6623 140.368 30.991 140.834 31.3673C141.946 32.241 142.844 33.3581 143.46 34.6334C144.077 35.9087 144.394 37.3085 144.39 38.7259V76.8483C144.387 79.3431 143.399 81.7349 141.641 83.4989C139.884 85.263 137.501 86.2552 135.016 86.258Z" fill="#F2F2F2"/>
<path d="M127.528 85.4245C132.6 73.0477 137.944 60.7932 143.56 48.6609V69.2305C139.666 75.0647 135.348 80.5405 130.342 85.4245H127.528Z" fill="#DC2626"/>
<path d="M140.313 32.0168C130.276 50.0944 119.773 67.897 108.805 85.4245H106.896C118.046 67.622 128.731 49.5221 138.952 31.125C139.434 31.376 139.89 31.6748 140.313 32.0168Z" fill="#DC2626"/>
<path d="M66.6539 51.7529C60.0945 63.3953 52.856 74.6387 44.9762 85.4245H33.5935C41.0492 76.3065 48.5103 67.1885 55.977 58.0705C58.119 55.4451 60.4437 52.6947 63.6567 51.6279L66.6539 51.7529Z" fill="#DC2626"/>
<path d="M51.5269 49.886C50.3396 51.1278 49.2021 52.4196 48.1311 53.7615C45.7732 56.6119 43.4485 59.4874 41.1155 62.3544C39.6626 64.138 38.2097 65.9216 36.7734 67.7052C36.3172 67.4111 35.8842 67.0823 35.4782 66.7217C33.184 64.7229 31.7609 61.9014 31.514 58.862C31.2672 55.8225 32.216 52.8069 34.1574 50.4614C36.0987 48.1158 38.878 46.6269 41.8997 46.3137C44.9215 46.0005 47.9452 46.8879 50.323 48.7858C50.7515 49.1213 51.154 49.4891 51.5269 49.886Z" fill="white"/>
<path d="M115.73 57.9872L93.9109 49.9777L83.0762 46.0022C79.5477 44.7103 76.0274 43.2351 72.3826 42.3016C69.213 41.3923 65.8473 41.4357 62.7019 42.4266C59.8973 43.4686 57.3305 45.0673 55.155 47.1273C54.1919 48.0191 53.2593 48.9387 52.3571 49.886C51.1698 51.1279 50.0324 52.4197 48.9614 53.7616C46.6035 56.612 44.2788 59.4874 41.9458 62.3545C40.4929 64.1381 39.0399 65.9217 37.6036 67.7053C32.8048 73.5978 28.0336 79.5042 23.2902 85.4245C22.6521 85.4171 22.0169 85.336 21.3972 85.1828C26.3455 79.0153 31.3159 72.8616 36.3085 66.7218C36.8813 66.0051 37.4708 65.2799 38.052 64.5631C40.4846 61.5711 42.92 58.5817 45.3581 55.5952C47.2428 53.2865 49.1108 50.9612 51.1533 48.7859C51.3359 48.5859 51.5186 48.3942 51.7095 48.1941C55.8524 43.8935 61.0249 40.093 67.2185 39.993C70.8633 39.9346 74.3835 41.0931 77.7709 42.3183C81.4157 43.6435 85.0522 44.9937 88.6969 46.3355L110.665 54.4034L116.161 56.4203C117.133 56.7704 116.718 58.3539 115.73 57.9872Z" fill="#DC2626"/>
<path d="M0.5781 42.9929V20.1061C0.579306 19.3918 0.862695 18.7072 1.3661 18.2024C1.86951 17.6976 2.55182 17.4139 3.26335 17.4135H32.8069V16.8331H3.26335C2.39854 16.8337 1.56928 17.1786 0.957493 17.7922C0.345706 18.4058 0.00135854 19.238 0 20.1061V42.9929L0.5781 42.9929Z" fill="#3F3D56"/>
<path d="M2.62881 98.0933C2.04317 97.952 1.52212 97.6166 1.14997 97.1411C0.777815 96.6657 0.57633 96.0782 0.578099 95.4736V72.5897H-8.22483e-07V95.4736C-0.00218099 96.2083 0.242634 96.9222 0.694828 97.4999C1.14702 98.0776 1.78015 98.4852 2.49177 98.6569C2.7302 98.7156 2.97455 98.7467 3.22004 98.7495H32.8069V98.1692H3.22356C3.02308 98.1666 2.82355 98.1412 2.62881 98.0933Z" fill="#3F3D56"/>
<path d="M134.985 72.5897V95.4736C134.984 96.1882 134.701 96.8734 134.198 97.3787C133.695 97.8841 133.012 98.1684 132.3 98.1692H102.757V98.7495H132.3C133.165 98.7486 133.995 98.4031 134.607 97.789C135.218 97.1748 135.562 96.3421 135.563 95.4736V72.5897H134.985Z" fill="#3F3D56"/>
<path d="M134.405 17.7176C134.556 17.7967 134.7 17.8908 134.833 17.9985C135.151 18.2486 135.409 18.5685 135.586 18.9338C135.762 19.299 135.854 19.7 135.853 20.1061V42.9929H136.431V20.1061C136.432 19.6127 136.322 19.1253 136.107 18.6813C135.892 18.2373 135.58 17.8484 135.193 17.5442C135.03 17.4132 134.856 17.2988 134.671 17.2026C134.207 16.9586 133.691 16.8317 133.167 16.8331H103.624V17.4135H133.167C133.598 17.4123 134.023 17.5168 134.405 17.7176Z" fill="#3F3D56"/>
<path d="M187.241 101.55L162.267 102.806L160.532 111.221V118.716L159.468 146.623L166.891 168.383H172.843L172.239 165.627C172.569 165.163 172.754 164.612 172.772 164.043C172.79 163.473 172.638 162.911 172.337 162.428L171.86 161.662L171.083 158.373L169.348 146.186L176.776 118.716L177.731 168.819H184.196L185.145 167.731C185.671 167.128 185.985 166.366 186.037 165.565C186.089 164.764 185.876 163.969 185.431 163.302V162.087L184.668 157.792L191.794 104.487L187.241 101.55Z" fill="#2F2E41"/>
<path d="M176.45 49.3124L168.303 49.7312L167.378 53.6074L161.462 58.1525C160.124 59.1801 159.1 60.5627 158.503 62.144C157.907 63.7254 157.764 65.4426 158.089 67.1017L161.368 83.849L161.155 94.3309L161.628 98.6232L161.592 99.273L160.868 99.8682C160.375 100.273 160.034 100.834 159.901 101.46C159.768 102.085 159.852 102.737 160.137 103.308C160.137 103.308 156.567 111.056 161.733 111.451C166.898 111.845 170.093 106.453 175.029 108.549C179.964 110.645 184.371 110.891 185.724 108.549C187.077 106.207 191.193 106.753 191.688 104.707C192.183 102.661 189.677 100.345 189.34 97.2958C189.004 94.2463 188.136 80.0283 188.136 80.0283L190.561 66.0693C190.905 64.093 190.599 62.0583 189.689 60.272C188.78 58.4858 187.316 57.0449 185.519 56.1668L177.755 52.3722L176.45 49.3124Z" fill="#E6E6E6"/>
<path d="M134.022 93.0171C134.35 92.3073 134.94 91.7538 135.668 91.4744C136.396 91.1951 137.204 91.2119 137.92 91.5213C138.064 91.5865 138.203 91.6635 138.335 91.7517L146.706 85.4941L151.364 88.6411L138.973 95.9686C138.566 96.4891 138 96.8598 137.361 97.0229C136.723 97.186 136.048 97.1322 135.443 96.8701C135.1 96.7176 134.791 96.4989 134.532 96.2263C134.274 95.9538 134.071 95.6328 133.936 95.2816C133.801 94.9305 133.736 94.5561 133.746 94.1798C133.755 93.8035 133.838 93.4327 133.989 93.0886C134 93.0646 134.011 93.0408 134.022 93.0171Z" fill="#A0616A"/>
<path d="M160.032 60.0161C160.032 60.0161 149.181 79.8515 144.978 85.6854L141.788 88.1866L142.077 96.362L149.206 92.4133C149.206 92.4133 163.59 81.4752 163.178 76.921C162.765 72.3668 160.032 60.0161 160.032 60.0161Z" fill="#E6E6E6"/>
<path d="M171.685 48.6574C175.937 48.6574 179.383 45.1977 179.383 40.9299C179.383 36.662 175.937 33.2023 171.685 33.2023C167.434 33.2023 163.988 36.662 163.988 40.9299C163.988 45.1977 167.434 48.6574 171.685 48.6574Z" fill="#A0616A"/>
<path d="M174.66 48.024C172.451 47.9512 172.25 47.3655 170.041 47.2928C169.338 47.2696 168.508 47.1728 168.168 46.5543C167.926 46.1138 168.037 45.559 168.25 45.1036C168.502 44.669 168.729 44.2203 168.931 43.7598C169.052 43.3986 169.084 43.0133 169.023 42.637C168.963 42.2607 168.812 41.9049 168.584 41.6002C168.356 41.2955 168.057 41.0512 167.714 40.8883C167.371 40.7255 166.993 40.6489 166.614 40.6654C165.942 40.6946 165.311 41.0119 164.64 41.0699C163.721 41.1494 161.688 38.1022 162.111 37.279C162.523 36.4778 163.352 35.8733 163.483 34.9811C163.568 34.3976 163.328 33.8178 163.295 33.229C163.247 32.3559 165.451 34.3245 165.047 33.5497C164.057 31.6489 173.39 29.2925 174.927 31.6734C175.501 32.5632 176.525 32.5025 177.437 33.0369C178.035 33.3871 179.544 34.5954 179.888 35.3486C180.203 36.1171 180.352 36.9441 180.325 37.7748C180.339 41.6381 179.752 45.1918 176.648 47.4754" fill="#2F2E41"/>
<path d="M136.283 179.439C134.195 179.624 132.093 179.338 130.13 178.603C128.167 177.868 126.392 176.701 124.935 175.19C123.03 173.173 121.723 170.578 120.458 168.068C120.09 167.338 119.71 166.583 119.323 165.859C118.892 165.07 118.705 164.169 118.788 163.273C118.871 162.377 119.22 161.526 119.789 160.83C120.334 160.134 121.074 159.619 121.914 159.349C122.754 159.08 123.655 159.069 124.501 159.319L124.686 159.372L126.346 165.876C126.594 164.906 127.125 162.72 127.461 160.579L127.489 160.399L127.655 160.473C129.388 161.243 131.019 162.229 132.507 163.408C135.143 165.531 137.287 168.205 138.79 171.244C140.293 174.282 141.119 177.613 141.211 181.005L141.215 181.207L136.283 179.439Z" fill="#F2F2F2"/>
<path d="M199.656 181.642L119.084 181.731C118.993 181.731 118.905 181.694 118.841 181.629C118.777 181.565 118.741 181.477 118.741 181.385C118.741 181.294 118.777 181.206 118.841 181.141C118.905 181.077 118.993 181.04 119.084 181.04L199.656 180.951C199.701 180.951 199.746 180.959 199.788 180.977C199.83 180.994 199.868 181.019 199.9 181.052C199.932 181.084 199.957 181.122 199.975 181.164C199.992 181.206 200.001 181.251 200.001 181.296C200.001 181.342 199.992 181.387 199.975 181.429C199.957 181.471 199.932 181.509 199.9 181.541C199.868 181.573 199.83 181.598 199.788 181.616C199.746 181.633 199.701 181.642 199.656 181.642Z" fill="#CACACA"/>
<path d="M46.0894 122.618C44.5937 122.618 43.1315 122.173 41.8879 121.339C40.6442 120.504 39.6749 119.319 39.1025 117.931C38.5301 116.544 38.3803 115.018 38.6721 113.545C38.9639 112.072 39.6842 110.72 40.7419 109.658C41.7995 108.596 43.147 107.873 44.614 107.58C46.081 107.287 47.6016 107.438 48.9835 108.012C50.3654 108.587 51.5465 109.56 52.3775 110.808C53.2085 112.057 53.652 113.525 53.652 115.026C53.652 117.04 52.8553 118.971 51.437 120.394C50.0187 121.818 48.0952 122.618 46.0894 122.618Z" fill="#E6E6E6"/>
<path d="M49.0734 114.277H46.8354V112.031C46.8351 111.832 46.7563 111.642 46.6164 111.502C46.4766 111.362 46.287 111.283 46.0894 111.283C45.8918 111.283 45.7023 111.362 45.5624 111.502C45.4226 111.642 45.3438 111.832 45.3434 112.031V114.277H43.1054C42.9078 114.278 42.7184 114.357 42.5788 114.497C42.4393 114.638 42.3609 114.828 42.3609 115.026C42.3609 115.225 42.4393 115.415 42.5788 115.555C42.7184 115.696 42.9078 115.775 43.1054 115.775H45.3434V118.022C45.3438 118.22 45.4226 118.41 45.5624 118.55C45.7023 118.69 45.8918 118.769 46.0894 118.769C46.287 118.769 46.4766 118.69 46.6164 118.55C46.7563 118.41 46.8351 118.22 46.8354 118.022V115.775H49.0734C49.1715 115.775 49.2687 115.756 49.3594 115.718C49.45 115.681 49.5325 115.626 49.6019 115.556C49.6713 115.487 49.7264 115.404 49.764 115.313C49.8016 115.222 49.8209 115.125 49.8209 115.026C49.8209 114.928 49.8016 114.83 49.764 114.739C49.7264 114.648 49.6713 114.566 49.6019 114.496C49.5325 114.427 49.45 114.371 49.3594 114.334C49.2687 114.296 49.1715 114.277 49.0734 114.277Z" fill="white"/>
<path d="M68.2153 122.618C66.7196 122.618 65.2574 122.173 64.0137 121.339C62.7701 120.504 61.8008 119.319 61.2284 117.931C60.656 116.544 60.5062 115.018 60.798 113.545C61.0898 112.072 61.8101 110.72 62.8677 109.658C63.9254 108.596 65.2729 107.873 66.7399 107.58C68.2069 107.287 69.7275 107.438 71.1094 108.012C72.4913 108.587 73.6724 109.56 74.5034 110.808C75.3344 112.057 75.7779 113.525 75.7779 115.026C75.7779 117.04 74.9811 118.971 73.5629 120.394C72.1446 121.818 70.221 122.618 68.2153 122.618Z" fill="#E6E6E6"/>
<path d="M71.1993 114.277H65.2313C65.0337 114.278 64.8443 114.357 64.7047 114.497C64.5651 114.638 64.4867 114.828 64.4867 115.026C64.4867 115.225 64.5651 115.415 64.7047 115.555C64.8443 115.696 65.0337 115.775 65.2313 115.775H71.1993C71.3971 115.775 71.5869 115.696 71.7268 115.556C71.8667 115.415 71.9453 115.225 71.9453 115.026C71.9453 114.828 71.8667 114.637 71.7268 114.497C71.5869 114.356 71.3971 114.277 71.1993 114.277Z" fill="white"/>
<path d="M90.3411 122.618C88.8454 122.618 87.3832 122.173 86.1396 121.339C84.8959 120.504 83.9266 119.319 83.3542 117.931C82.7818 116.544 82.632 115.018 82.9238 113.545C83.2157 112.072 83.9359 110.72 84.9936 109.658C86.0512 108.596 87.3988 107.873 88.8658 107.58C90.3328 107.287 91.8533 107.438 93.2352 108.012C94.6171 108.587 95.7982 109.56 96.6292 110.808C97.4602 112.057 97.9037 113.525 97.9037 115.026C97.9037 117.04 97.107 118.971 95.6887 120.394C94.2704 121.818 92.3469 122.618 90.3411 122.618Z" fill="#E6E6E6"/>
<path d="M94.5957 114.666L92.4517 111.524C92.4045 111.455 92.3443 111.396 92.2743 111.35C92.2043 111.304 92.1261 111.273 92.044 111.257C91.9619 111.242 91.8776 111.243 91.7959 111.26C91.7142 111.278 91.6367 111.311 91.5678 111.358C91.499 111.406 91.44 111.466 91.3944 111.536C91.3489 111.607 91.3175 111.685 91.3022 111.768C91.2868 111.85 91.2878 111.935 91.3051 112.017C91.3223 112.099 91.3555 112.176 91.4027 112.246L92.7892 114.277H87.3571C87.2591 114.277 87.1621 114.297 87.0716 114.334C86.9811 114.372 86.8989 114.427 86.8296 114.497C86.7603 114.566 86.7054 114.649 86.6679 114.74C86.6304 114.83 86.6111 114.928 86.6111 115.026C86.6111 115.125 86.6304 115.222 86.6679 115.313C86.7054 115.404 86.7603 115.486 86.8296 115.556C86.8989 115.625 86.9811 115.68 87.0716 115.718C87.1621 115.756 87.2591 115.775 87.3571 115.775H92.8575L91.4027 117.907C91.3074 118.046 91.2712 118.218 91.3022 118.385C91.3332 118.551 91.4287 118.698 91.5678 118.794C91.7069 118.89 91.8782 118.926 92.044 118.895C92.2098 118.864 92.3564 118.768 92.4517 118.628L94.5957 115.487C94.6655 115.361 94.7022 115.22 94.7022 115.076C94.7022 114.932 94.6655 114.791 94.5957 114.666Z" fill="white"/>
<path d="M68.2153 16.1215C72.65 16.1215 76.245 12.5126 76.245 8.06077C76.245 3.60893 72.65 0 68.2153 0C63.7806 0 60.1855 3.60893 60.1855 8.06077C60.1855 12.5126 63.7806 16.1215 68.2153 16.1215Z" fill="#DC2626"/>
<path d="M67.1199 12.2561C66.9812 12.2561 66.8444 12.2237 66.7204 12.1614C66.5964 12.0991 66.4886 12.0087 66.4054 11.8974L64.2147 8.96517C64.1441 8.87099 64.0927 8.76375 64.0634 8.64959C64.0341 8.53544 64.0275 8.4166 64.044 8.29989C64.0605 8.18317 64.0998 8.07087 64.1596 7.96941C64.2194 7.86795 64.2985 7.77932 64.3925 7.7086C64.4864 7.63787 64.5933 7.58643 64.7071 7.55723C64.8209 7.52803 64.9392 7.52164 65.0555 7.53842C65.1717 7.5552 65.2835 7.59482 65.3845 7.65502C65.4854 7.71523 65.5736 7.79482 65.6439 7.88926L67.077 9.80741L70.758 4.26471C70.823 4.16662 70.9067 4.08235 71.0041 4.01672C71.1016 3.95109 71.211 3.9054 71.3261 3.88224C71.4412 3.85908 71.5597 3.85892 71.6748 3.88175C71.7899 3.90459 71.8995 3.94999 71.9971 4.01534C72.0948 4.0807 72.1787 4.16473 72.2439 4.26264C72.3092 4.36055 72.3546 4.47042 72.3776 4.58596C72.4006 4.7015 72.4006 4.82045 72.3778 4.93602C72.3549 5.05158 72.3096 5.1615 72.2444 5.25947L67.8631 11.8568C67.7839 11.9761 67.6773 12.0746 67.5523 12.144C67.4273 12.2135 67.2875 12.2518 67.1447 12.2558C67.1364 12.2559 67.1282 12.2561 67.1199 12.2561Z" fill="white"/>
</g>
<defs>
<clipPath id="clip0_162_1046">
<rect width="200" height="181.731" fill="white"/>
</clipPath>
</defs>
</svg>
