<svg xmlns="http://www.w3.org/2000/svg" viewBox="0 0 750 500" xml:space="preserve"><ellipse transform="rotate(-87.713 590.773 92.33)" cx="590.788" cy="92.317" rx="37.008" ry="31.412" fill="#ebebeb"/><path d="M612.641 93.347c-.894 18.608-13.302 33.405-28.612 35.209 1.616.392 3.28.64 4.984.727 17.326.886 32.166-14.945 33.147-35.361.98-20.415-12.27-37.683-29.596-38.57a27.02 27.02 0 0 0-4.535.152c14.809 3.589 25.496 19.436 24.612 37.843z" fill="#e0e0e0"/><ellipse transform="rotate(-5.595 365.586 437.396)" cx="365.684" cy="437.5" rx="37.001" ry="17.951" fill="#ebebeb"/><path d="M365.981 450.025c-18.557 1.461-34.021-4.024-36.74-12.532a9.396 9.396 0 0 0-.421 2.909c.166 9.938 16.806 16.695 37.165 15.092 20.36-1.602 36.73-10.957 36.565-20.895a8.868 8.868 0 0 0-.425-2.56c-2.675 8.793-17.787 16.541-36.144 17.986z" fill="#e0e0e0"/><ellipse transform="rotate(-39.954 87 378.765)" cx="87.001" cy="378.778" rx="24.446" ry="28.802" fill="#ebebeb"/><path d="M74.029 389.804c9.399 11.039 24.08 14.254 34.37 8.085a20.93 20.93 0 0 1-2.725 2.818c-10.253 8.785-26.924 6.089-37.236-6.022-10.312-12.111-10.361-29.05-.108-37.836a20.983 20.983 0 0 1 2.866-2.063c-7.418 9.254-6.466 24.098 2.833 35.018z" fill="#e0e0e0"/><ellipse transform="rotate(-89.158 57.322 254.166)" cx="57.323" cy="254.169" rx="18.784" ry="12.84" fill="#ebebeb"/><path d="M48.386 253.861c-.204 9.453 4.401 17.414 10.586 18.908a8.947 8.947 0 0 1-2.053.179c-7.089-.209-12.653-8.786-12.43-19.157.224-10.371 6.152-18.61 13.241-18.401a9.007 9.007 0 0 1 1.844.249c-6.147 1.254-10.986 8.871-11.188 18.222z" fill="#e0e0e0"/><path d="M659.612 338.387c-5.377 10.147-2.742 22.05 5.885 26.587 8.627 4.537 19.979-.011 25.356-10.158 5.377-10.147 2.742-22.05-5.885-26.587-8.627-4.536-19.979.011-25.356 10.158z" fill="#ebebeb"/><path d="M686.088 352.367c4.901-9.249 3.145-19.955-3.737-25.214.893.274 1.768.631 2.617 1.077 8.627 4.537 11.262 16.44 5.885 26.587-5.377 10.147-16.729 14.695-25.356 10.158a15.118 15.118 0 0 1-2.148-1.373c8.186 2.509 17.891-2.086 22.739-11.235z" fill="#e0e0e0"/><ellipse transform="rotate(-70.67 185.83 83.843)" cx="185.82" cy="83.841" rx="28.802" ry="24.446" fill="#ebebeb"/><path d="M167.899 77.395c-4.689 13.719.046 27.983 10.606 33.677a21.056 21.056 0 0 1-3.814-.903c-12.79-4.327-18.987-20.036-13.843-35.087 5.144-15.052 19.682-23.746 32.472-19.42 1.132.383 2.212.857 3.238 1.41-11.746-1.649-24.021 6.752-28.659 20.323zM519.513 82.525l4.204 2.503c.545.325.501 1.131-.077 1.42l-4.462 2.232a.83.83 0 0 0-.339.312l-2.606 4.254c-.338.551-1.145.526-1.421-.045l-2.134-4.403a.782.782 0 0 0-.305-.332l-4.204-2.503c-.545-.325-.501-1.13.077-1.42l4.462-2.232a.834.834 0 0 0 .339-.311l2.605-4.254c.338-.552 1.145-.526 1.422.044l2.134 4.403a.783.783 0 0 0 .305.332zM112.622 444.408l4.204 2.503c.545.324.501 1.131-.077 1.42l-4.462 2.232a.83.83 0 0 0-.339.312l-2.606 4.254c-.338.552-1.145.526-1.421-.045l-2.134-4.403a.788.788 0 0 0-.305-.332l-4.204-2.503c-.545-.324-.501-1.13.077-1.42l4.462-2.232a.834.834 0 0 0 .339-.311l2.605-4.254c.338-.552 1.145-.526 1.422.044l2.134 4.403a.783.783 0 0 0 .305.332zM483.764 441.441l4.204 2.503c.545.324.501 1.131-.077 1.42l-4.462 2.232a.83.83 0 0 0-.339.312l-2.606 4.254c-.338.551-1.145.526-1.421-.045l-2.134-4.403a.788.788 0 0 0-.305-.332l-4.204-2.503c-.545-.324-.501-1.13.078-1.42l4.462-2.232a.834.834 0 0 0 .339-.311l2.605-4.254c.338-.552 1.145-.526 1.422.044l2.134 4.403a.774.774 0 0 0 .304.332zM666.919 437.832l4.204 2.503c.545.324.501 1.131-.077 1.42l-4.462 2.232a.83.83 0 0 0-.339.312l-2.606 4.254c-.338.552-1.145.526-1.421-.045l-2.134-4.403a.782.782 0 0 0-.305-.332l-4.204-2.503c-.545-.324-.501-1.13.078-1.42l4.462-2.232a.834.834 0 0 0 .339-.311l2.605-4.254c.338-.552 1.145-.526 1.422.044l2.134 4.403a.78.78 0 0 0 .304.332zM218.21 130.972l4.204 2.503c.545.324.501 1.131-.077 1.42l-4.462 2.232a.83.83 0 0 0-.339.312l-2.606 4.254c-.338.551-1.145.526-1.421-.045l-2.134-4.403a.782.782 0 0 0-.305-.332l-4.204-2.503c-.545-.325-.501-1.13.077-1.42l4.462-2.232a.834.834 0 0 0 .339-.311l2.605-4.254c.338-.552 1.145-.526 1.422.044l2.134 4.403a.788.788 0 0 0 .305.332zM245.056 46.531l4.204 2.503c.545.325.501 1.131-.077 1.42l-4.462 2.232a.83.83 0 0 0-.339.312l-2.606 4.254c-.338.552-1.145.526-1.421-.045l-2.134-4.403a.788.788 0 0 0-.305-.332l-4.204-2.503c-.545-.325-.501-1.13.077-1.42l4.462-2.232a.834.834 0 0 0 .339-.311l2.605-4.254c.338-.552 1.145-.526 1.422.044l2.134 4.403a.795.795 0 0 0 .305.332zM108.881 83.322l2.133 1.27c.277.165.254.574-.039.72l-2.264 1.132a.416.416 0 0 0-.172.158l-1.322 2.159c-.171.28-.581.267-.721-.023l-1.083-2.234a.399.399 0 0 0-.155-.168l-2.133-1.27c-.276-.165-.254-.574.039-.721l2.264-1.132a.416.416 0 0 0 .172-.158l1.322-2.159c.172-.28.581-.267.721.022l1.083 2.234c.034.072.088.13.155.17zM346.689 71.005l2.133 1.27c.277.165.254.574-.039.72l-2.264 1.132a.416.416 0 0 0-.172.158l-1.322 2.159c-.171.28-.581.267-.721-.023l-1.083-2.234a.393.393 0 0 0-.155-.168l-2.133-1.27c-.276-.165-.254-.574.039-.721l2.264-1.132a.416.416 0 0 0 .172-.158l1.322-2.159c.172-.28.581-.267.721.022l1.083 2.234c.035.072.088.13.155.17zM544.515 56.949l2.133 1.27c.276.165.254.574-.039.721l-2.264 1.132a.416.416 0 0 0-.172.158l-1.322 2.159c-.171.28-.581.267-.721-.023l-1.083-2.234a.393.393 0 0 0-.155-.168l-2.133-1.27c-.277-.165-.254-.574.039-.721l2.264-1.132a.416.416 0 0 0 .172-.158l1.322-2.159c.172-.28.581-.267.721.022l1.083 2.234a.396.396 0 0 0 .155.169zM681.13 63.899l2.133 1.27c.276.165.254.574-.039.721l-2.264 1.132a.416.416 0 0 0-.172.158l-1.322 2.159c-.171.28-.581.267-.721-.023l-1.083-2.234a.393.393 0 0 0-.155-.168l-2.133-1.27c-.276-.165-.254-.574.039-.72l2.264-1.132a.416.416 0 0 0 .172-.158l1.322-2.159c.172-.28.581-.267.721.023l1.083 2.234a.409.409 0 0 0 .155.167zM436.935 462.833l2.503 1.461c.325.189.303.667-.038.842l-2.632 1.345a.498.498 0 0 0-.2.186l-1.522 2.534c-.197.328-.676.318-.842-.019l-1.287-2.598a.462.462 0 0 0-.182-.195l-2.503-1.461c-.325-.189-.303-.667.039-.842l2.632-1.345a.495.495 0 0 0 .199-.186l1.522-2.534c.198-.329.675-.318.842.019l1.287 2.597c.04.083.103.15.182.196zM698.435 281.561l2.503 1.461c.324.189.303.667-.038.842l-2.632 1.345a.489.489 0 0 0-.199.186l-1.522 2.534c-.197.328-.675.318-.842-.019l-1.287-2.597a.462.462 0 0 0-.182-.195l-2.503-1.461c-.325-.189-.303-.667.039-.842l2.632-1.345a.495.495 0 0 0 .199-.186l1.522-2.534c.198-.329.676-.318.843.019l1.287 2.597c.038.082.101.15.18.195zM53.05 303.815l2.014 1.199c.261.155.24.542-.037.68l-2.137 1.069a.404.404 0 0 0-.163.149l-1.248 2.038c-.162.264-.548.252-.681-.021l-1.022-2.109a.38.38 0 0 0-.146-.159l-2.014-1.199c-.261-.155-.24-.541.037-.68l2.137-1.069a.401.401 0 0 0 .162-.149l1.248-2.038c.162-.264.548-.252.681.021l1.022 2.109a.37.37 0 0 0 .147.159zM265.69 452.523l2.014 1.199c.261.155.24.542-.037.68l-2.137 1.069a.394.394 0 0 0-.162.149l-1.248 2.038c-.162.264-.548.252-.681-.021l-1.022-2.109a.38.38 0 0 0-.146-.159l-2.014-1.199c-.261-.155-.24-.541.037-.68l2.137-1.069a.41.41 0 0 0 .163-.149l1.248-2.038c.162-.264.548-.252.681.021l1.022 2.109a.371.371 0 0 0 .145.159zM649.079 403.604l2.014 1.199c.261.156.24.542-.037.68l-2.137 1.069a.404.404 0 0 0-.163.149l-1.248 2.038c-.162.264-.548.252-.681-.021l-1.022-2.109a.38.38 0 0 0-.146-.159l-2.014-1.199c-.261-.155-.24-.542.037-.68l2.137-1.069a.401.401 0 0 0 .162-.149l1.248-2.038c.162-.264.548-.252.681.021l1.022 2.109a.395.395 0 0 0 .147.159zM606.54 451.099l2.014 1.199c.261.155.24.542-.037.68l-2.137 1.069a.404.404 0 0 0-.163.149l-1.248 2.038c-.162.264-.548.252-.681-.021l-1.022-2.109a.38.38 0 0 0-.146-.159l-2.014-1.199c-.261-.155-.24-.541.037-.68l2.137-1.069a.41.41 0 0 0 .163-.149l1.248-2.038c.162-.264.548-.252.681.021l1.022 2.109a.374.374 0 0 0 .146.159zM649.547 145.167l2.181 1.299c.283.168.26.587-.04.737l-2.315 1.158a.423.423 0 0 0-.176.162l-1.352 2.208c-.175.286-.594.273-.738-.023L646 148.422a.41.41 0 0 0-.158-.172l-2.182-1.299c-.283-.168-.26-.587.04-.737l2.315-1.158a.427.427 0 0 0 .176-.161l1.352-2.208c.176-.286.594-.273.738.023l1.107 2.285a.425.425 0 0 0 .159.172z" fill="#e0e0e0"/><path d="m579.762 183.212 1.04.644c.135.083.13.28-.008.346l-1.066.51a.19.19 0 0 0-.08.074l-.6 1.018c-.078.132-.274.12-.345-.022l-.552-1.091a.21.21 0 0 0-.076-.083l-1.04-.644c-.135-.083-.13-.28.008-.346l1.066-.51a.194.194 0 0 0 .08-.073l.6-1.018c.078-.132.274-.12.345.022l.552 1.091a.206.206 0 0 0 .076.082zM580.579 334.374l1.04.644c.135.083.13.28-.008.346l-1.066.51a.188.188 0 0 0-.08.073l-.6 1.018c-.078.132-.274.12-.345-.022l-.552-1.091a.21.21 0 0 0-.076-.083l-1.04-.644c-.135-.084-.13-.28.008-.346l1.066-.51a.194.194 0 0 0 .08-.073l.6-1.018c.078-.132.274-.12.346.022l.552 1.091a.2.2 0 0 0 .075.083zM622.106 265.105l2.012 1.198c.261.155.24.541-.037.68l-2.135 1.068a.397.397 0 0 0-.163.149l-1.247 2.036c-.162.264-.548.252-.68-.021l-1.021-2.107a.38.38 0 0 0-.146-.159l-2.012-1.198c-.261-.155-.24-.541.037-.68l2.135-1.068a.401.401 0 0 0 .162-.149l1.247-2.036c.162-.264.548-.252.68.021l1.021 2.107a.395.395 0 0 0 .147.159zM568.605 194.526l2.024 1.253c.262.162.254.545-.015.673l-2.075.993a.365.365 0 0 0-.156.143l-1.167 1.982c-.151.257-.533.233-.672-.043l-1.075-2.124a.408.408 0 0 0-.149-.162l-2.024-1.253c-.262-.162-.254-.545.015-.673l2.075-.993a.365.365 0 0 0 .156-.143l1.167-1.982c.151-.257.533-.233.672.042l1.075 2.124a.41.41 0 0 0 .149.163zM93.523 253.348l1.528.974c.198.126.188.417-.018.512l-1.589.735a.27.27 0 0 0-.12.107l-.909 1.497c-.118.194-.408.172-.511-.039l-.796-1.628a.314.314 0 0 0-.112-.125l-1.528-.974c-.198-.126-.188-.417.018-.512l1.589-.735a.276.276 0 0 0 .12-.107l.909-1.497c.118-.194.408-.172.511.039l.796 1.628a.314.314 0 0 0 .112.125zM126.645 287.953l1.478.846c.192.11.195.383.006.482l-1.459.761a.263.263 0 0 0-.108.106l-.786 1.445c-.102.187-.375.18-.482-.014l-.82-1.492a.289.289 0 0 0-.11-.112l-1.478-.846c-.192-.11-.195-.383-.006-.482l1.459-.761a.263.263 0 0 0 .108-.106l.786-1.445c.102-.188.375-.179.482.014l.82 1.492a.282.282 0 0 0 .11.112zM170.942 173.31l1.478.846c.191.11.195.383.006.482l-1.459.761a.263.263 0 0 0-.108.106l-.786 1.445c-.102.187-.375.18-.482-.014l-.82-1.492a.289.289 0 0 0-.11-.112l-1.478-.846c-.192-.11-.195-.383-.006-.482l1.459-.761a.263.263 0 0 0 .108-.106l.786-1.445c.102-.188.375-.179.482.014l.82 1.492a.303.303 0 0 0 .11.112zM285.883 149.013l1.478.846c.192.11.195.383.006.482l-1.459.761a.263.263 0 0 0-.108.106l-.786 1.445c-.102.187-.375.18-.482-.014l-.82-1.492a.285.285 0 0 0-.111-.112l-1.478-.846c-.192-.11-.195-.383-.006-.482l1.459-.761a.263.263 0 0 0 .108-.106l.786-1.445c.102-.188.375-.18.482.014l.82 1.492a.314.314 0 0 0 .111.112zM115.838 293.52l2.934 1.68c.381.218.387.761.012.957l-2.897 1.511a.506.506 0 0 0-.214.211l-1.56 2.87c-.202.372-.745.357-.956-.028l-1.629-2.963a.58.58 0 0 0-.219-.223l-2.934-1.68c-.381-.218-.387-.761-.011-.957l2.897-1.511a.51.51 0 0 0 .214-.21l1.56-2.87c.202-.372.745-.356.957.028l1.629 2.963a.565.565 0 0 0 .217.222zM306.608 133.656l2.934 1.68c.381.218.387.761.012.957l-2.897 1.511a.506.506 0 0 0-.214.211l-1.56 2.87c-.202.372-.745.356-.956-.028l-1.629-2.963a.58.58 0 0 0-.219-.223l-2.934-1.68c-.381-.218-.387-.761-.011-.957l2.897-1.511a.51.51 0 0 0 .214-.21l1.56-2.87c.203-.372.745-.357.957.027l1.629 2.963a.56.56 0 0 0 .217.223zM264.68 418.996l2.934 1.68c.381.218.387.761.012.957l-2.897 1.511a.506.506 0 0 0-.214.211l-1.56 2.87c-.202.372-.745.357-.956-.028l-1.629-2.963a.58.58 0 0 0-.219-.223l-2.934-1.68c-.38-.218-.387-.761-.011-.957l2.897-1.511a.51.51 0 0 0 .214-.21l1.56-2.87c.203-.372.745-.357.957.027l1.629 2.963a.554.554 0 0 0 .217.223zM537.668 366.865l2.934 1.68c.38.218.387.761.011.957l-2.897 1.511a.51.51 0 0 0-.214.21l-1.56 2.87c-.202.372-.745.356-.956-.028l-1.629-2.963a.58.58 0 0 0-.219-.223l-2.935-1.68c-.38-.218-.387-.761-.011-.957l2.897-1.511a.51.51 0 0 0 .214-.21l1.56-2.87c.203-.372.745-.357.957.027l1.629 2.963a.568.568 0 0 0 .219.224zM497.321 149.694l1.91 1.094c.248.142.252.495.008.623l-1.886.984a.328.328 0 0 0-.139.137l-1.016 1.869c-.132.242-.485.232-.623-.018l-1.061-1.929a.376.376 0 0 0-.143-.145l-1.911-1.094c-.248-.142-.252-.495-.007-.623l1.886-.984a.334.334 0 0 0 .139-.137l1.016-1.869c.132-.243.485-.232.623.018l1.061 1.929a.37.37 0 0 0 .143.145z" fill="#ff725e"/><ellipse transform="rotate(-17.215 282.383 92.588)" cx="282.343" cy="92.593" rx="22.719" ry="11.583" fill="#263238"/><path d="M279.527 85.024c10.877-3.524 21.352-2.387 24.783 2.397a6.06 6.06 0 0 0-.358-1.827c-2.192-6.016-13.644-7.759-25.578-3.893s-19.831 11.876-17.639 17.892c.194.533.462 1.031.795 1.496-.24-5.725 7.237-12.58 17.997-16.065z" fill="#455a64"/><ellipse transform="rotate(-43.038 567.008 410.958)" cx="566.963" cy="410.957" rx="42.827" ry="27.512" fill="#263238"/><path d="M580.155 424.853c-15.739 14.733-35.766 19.462-47.066 11.798a18.061 18.061 0 0 0 2.608 3.573c10.403 11.075 32.834 6.95 50.101-9.214 17.268-16.164 22.833-38.246 12.43-49.321a18.003 18.003 0 0 0-3.036-2.584c6.585 11.791.532 31.174-15.037 45.748z" fill="#455a64"/><ellipse transform="rotate(-81.234 415.504 136.247)" cx="415.508" cy="136.238" rx="22.035" ry="57.531" fill="#263238"/><path d="M419.338 121.313c28.528 4.861 50.012 16.842 51.212 27.874.768-1.032 1.321-2.13 1.63-3.292 3.144-11.818-19.68-25.722-50.98-31.055-31.299-5.333-59.221-.076-62.366 11.742a8.662 8.662 0 0 0-.233 3.181c7.045-9.457 32.516-13.259 60.737-8.45z" fill="#455a64"/><path d="M413.082 134.364c7.17 3.746 11.987 10.83 18.632 15.443 4.397 3.052 9.734 5.16 12.695 9.618-.293-2.607-2.077-4.776-3.86-6.701a98.271 98.271 0 0 0-16.769-14.433c-3.136-2.135-6.62-4.154-10.413-4.128" fill="#455a64"/><path d="M413.082 134.364c7.17 3.746 11.987 10.83 18.632 15.443 4.397 3.052 9.734 5.16 12.695 9.618-.293-2.607-2.077-4.776-3.86-6.701a98.271 98.271 0 0 0-16.769-14.433c-3.136-2.135-6.62-4.154-10.413-4.128" opacity=".2"/><path d="M447.198 37.584c-.129-1.163-.341-2.395-1.13-3.258-1.082-1.183-2.889-1.305-4.488-1.185-6.824.51-15.496 10.618-19.671 16.04l.699 30.094c18.678-9.788 26.194-27.242 24.59-41.691z" fill="#455a64"/><path d="M447.198 37.584c-.129-1.163-.341-2.395-1.13-3.258-1.082-1.183-2.889-1.305-4.488-1.185-6.824.51-15.496 10.618-19.671 16.04l.699 30.094c18.678-9.788 26.194-27.242 24.59-41.691z" opacity=".2"/><path d="M417.659 99.377c3.57-1.194 7.149-2.284 10.704-2.862 3.554-.578 7.128-2.066 10.633-2.89 4.545-1.069 8.788-3.119 13.147-4.791 4.359-1.672 9.007-2.987 13.648-2.483-3.426-1.735-7.328-2.356-11.168-2.351-3.84.005-7.651.611-11.443 1.215-5.263.839-10.621 1.707-15.385 4.094-4.764 2.388-9.148 4.831-10.136 10.068" fill="#455a64"/><path d="M417.659 99.377c3.57-1.194 7.149-2.284 10.704-2.862 3.554-.578 7.128-2.066 10.633-2.89 4.545-1.069 8.788-3.119 13.147-4.791 4.359-1.672 9.007-2.987 13.648-2.483-3.426-1.735-7.328-2.356-11.168-2.351-3.84.005-7.651.611-11.443 1.215-5.263.839-10.621 1.707-15.385 4.094-4.764 2.388-9.148 4.831-10.136 10.068" opacity=".2"/><path d="M393.434 100.402c-4.617-6.765-13.857-8.737-21.807-10.705 10.568 9.107 21.494 20.625 29.652 31.942 1.839-5.499-2.013-12.692-7.845-21.237z" fill="#455a64"/><path d="M393.434 100.402c-4.617-6.765-13.857-8.737-21.807-10.705 10.568 9.107 21.494 20.625 29.652 31.942 1.839-5.499-2.013-12.692-7.845-21.237z" opacity=".2"/><path d="M399.389 142.393c-9.507-2.748-17.352-13.609-26.725-16.676 10.819-.51 24.348 5.983 26.725 16.676" fill="#455a64"/><path d="M399.389 142.393c-9.507-2.748-17.352-13.609-26.725-16.676 10.819-.51 24.348 5.983 26.725 16.676" opacity=".2"/><path d="M408.855 120.444c5.324-.43 10.67.933 15.548 3.108s9.353 5.145 13.802 8.1c.41-3.446-1.596-6.666-3.518-9.556-1.446-2.175-2.904-4.364-4.734-6.226-1.831-1.862-4.08-3.397-6.627-3.974-3.072-.697-6.39.085-9.006 1.84-2.615 1.756-4.314 3.776-5.465 6.708" fill="#455a64"/><path d="M400.11 155.479s4.717-32.248 9.948-50.032c5.232-17.785 10.304-38.013 10.304-38.013l2.06.56s-11.04 35.122-15.339 56.946c-4.295 21.807-2.874 31.606-2.874 31.606l-4.099-1.067M445.279 35.321c.009.008-.066.121-.219.331l-.68.905c-.6.778-1.455 1.914-2.492 3.331a146.071 146.071 0 0 0-7.568 11.436 145.294 145.294 0 0 0-6.425 12.118 169.37 169.37 0 0 0-1.733 3.782l-.469 1.03c-.111.234-.175.355-.186.35-.011-.005.03-.134.12-.377l.408-1.056c.357-.917.913-2.228 1.633-3.833 1.438-3.211 3.606-7.571 6.348-12.193 2.747-4.617 5.539-8.606 7.671-11.405a88.518 88.518 0 0 1 2.585-3.267l.733-.864c.171-.197.265-.296.274-.288z" fill="#455a64"/><path d="M416.905 83.807c-6.149-6.805-7.909-16.235-5.348-25.042 1.791-6.156 5.694-11.459 9.758-16.419.352-.43.752-.887 1.299-.989.761-.142 1.447.453 1.959 1.034 4.436 5.038 5.719 12.176 5.402 18.882-.211 4.462-1.069 8.948-3.056 12.948-1.989 4.001-5.95 7.734-10.014 9.586" fill="#455a64"/><path d="M416.905 83.807c-.011-.004.022-.134.096-.376l.34-1.054c.31-.91.726-2.238 1.209-3.886.97-3.296 2.083-7.916 2.926-13.091.839-5.178 1.322-9.906 1.657-13.329l.39-4.055.118-1.102c.031-.252.053-.383.065-.382.012.001.014.134.006.388l-.052 1.107c-.051.961-.144 2.351-.278 4.067-.272 3.431-.716 8.171-1.557 13.364-.845 5.19-2.001 9.82-3.035 13.106-.515 1.644-.968 2.963-1.319 3.86l-.403 1.033c-.096.233-.152.355-.163.35z" fill="#263238"/><path d="M408.855 120.444c5.324-.43 10.67.933 15.548 3.108s9.353 5.145 13.802 8.1c.41-3.446-1.596-6.666-3.518-9.556-1.446-2.175-2.904-4.364-4.734-6.226-1.831-1.862-4.08-3.397-6.627-3.974-3.072-.697-6.39.085-9.006 1.84-2.615 1.756-4.314 3.776-5.465 6.708" opacity=".2"/><path d="M432.175 146.708c-.009.009-.1-.065-.267-.213l-.716-.658c-.615-.578-1.493-1.426-2.616-2.432a52.923 52.923 0 0 0-1.843-1.636 54.236 54.236 0 0 0-2.171-1.811c-1.559-1.232-3.314-2.553-5.323-3.646-1.998-1.107-4.1-1.802-6.083-1.818-.995-.028-1.935-.044-2.806.07a13.883 13.883 0 0 0-5.611 1.966c-.714.442-1.082.732-1.101.707-.008-.01.078-.09.248-.234.168-.147.43-.347.779-.588a12.766 12.766 0 0 1 3.222-1.582 13.48 13.48 0 0 1 2.427-.559c.89-.13 1.854-.124 2.853-.105 2.032-.003 4.22.709 6.241 1.833 2.04 1.111 3.802 2.45 5.358 3.703a49.448 49.448 0 0 1 2.16 1.844c.67.585 1.279 1.146 1.82 1.673a66.267 66.267 0 0 1 2.543 2.518l.67.705c.15.164.225.254.216.263zM393.552 135.726c.014-.02.209.101.551.338.345.232.817.605 1.372 1.099 1.112.983 2.509 2.523 3.683 4.475 1.168 1.956 1.869 3.913 2.212 5.358.174.722.281 1.315.323 1.728.048.412.063.641.038.645-.061.009-.198-.896-.603-2.308a22.394 22.394 0 0 0-2.274-5.24 22.422 22.422 0 0 0-3.551-4.474c-1.054-1.024-1.788-1.571-1.751-1.621zM381.019 97.223c.007-.01.135.07.374.231l1.035.719 1.626 1.157c.633.453 1.293 1.047 2.055 1.663 3.014 2.495 6.875 6.364 10.28 11.298 1.664 2.489 3.11 4.952 4.246 7.284 1.129 2.334 2.036 4.487 2.698 6.331a93.892 93.892 0 0 1 1.473 4.395l.375 1.202c.084.275.123.422.112.426-.011.004-.072-.134-.178-.402a27.724 27.724 0 0 1-.438-1.182c-.365-1.031-.878-2.528-1.576-4.351-.69-1.827-1.617-3.96-2.756-6.274-1.146-2.312-2.593-4.755-4.246-7.229-3.384-4.903-7.19-8.773-10.15-11.307-.748-.626-1.394-1.231-2.014-1.698l-1.586-1.202-.995-.772c-.227-.18-.342-.279-.335-.289zM424.641 118.969c-.013.021-.274-.089-.735-.305l-.833-.4c-.323-.159-.721-.269-1.142-.431-1.683-.591-4.224-1.129-6.914-.488-1.345.277-2.557.815-3.588 1.404a13.999 13.999 0 0 0-2.564 1.852c-1.357 1.206-1.94 2.185-1.993 2.149-.017-.01.109-.265.396-.692.301-.414.754-1.012 1.427-1.64a13.113 13.113 0 0 1 2.571-1.95c1.047-.619 2.289-1.182 3.674-1.468 2.775-.661 5.392-.063 7.077.598.423.18.82.309 1.139.486l.815.458c.444.256.683.407.67.427zM443.638 87.63c.002.012-.143.054-.422.125l-1.223.289c-1.062.248-2.595.622-4.474 1.136a84.449 84.449 0 0 0-6.509 2.096c-2.408.9-5.029 1.995-7.582 3.497-1.264.761-2.464 1.588-3.415 2.584a188.213 188.213 0 0 0-2.718 2.995c-1.709 1.927-3.166 3.733-4.294 5.319a38.25 38.25 0 0 0-2.446 3.902c-.522.956-.767 1.508-.799 1.493-.011-.005.042-.146.153-.412.109-.266.278-.656.524-1.145.482-.981 1.257-2.367 2.363-3.982 1.108-1.613 2.553-3.445 4.254-5.39.849-.974 1.759-1.979 2.707-3.014.989-1.043 2.207-1.881 3.489-2.654 2.584-1.52 5.224-2.61 7.65-3.498a76.15 76.15 0 0 1 6.557-2.032 78.259 78.259 0 0 1 4.51-1.029l1.238-.224c.285-.049.434-.068.437-.056zM408.576 115.483c-.024-.001-.033-.306-.027-.856l.028-2.327c.012-1.963-.028-4.677-.364-7.648-.328-2.974-.922-5.624-1.361-7.537l-.526-2.268c-.121-.537-.177-.836-.154-.843s.124.281.286.807c.162.526.384 1.291.636 2.243.502 1.901 1.139 4.56 1.469 7.558.339 2.994.339 5.727.263 7.693-.04.984-.088 1.78-.141 2.328-.046.549-.084.851-.109.85z" fill="#455a64"/><path d="M412.332 93.275c.497-3.713.022-7.515-1.039-11.108-2.91-9.851-10.425-18.236-19.9-22.203l15.161 36.71 1.636 6.336c2.543-2.751 3.645-6.021 4.142-9.735z" fill="#455a64"/><path d="M412.332 93.275c.497-3.713.022-7.515-1.039-11.108-2.91-9.851-10.425-18.236-19.9-22.203l15.161 36.71 1.636 6.336c2.543-2.751 3.645-6.021 4.142-9.735z" opacity=".2"/><ellipse transform="rotate(-44.919 191.762 409.936)" cx="191.745" cy="409.914" rx="29.02" ry="45.175" fill="#263238"/><path d="M177.551 424.303c-16.077-16.083-21.756-37.033-14.068-49.211a19.052 19.052 0 0 0-3.676 2.873c-11.316 11.35-6.19 34.856 11.449 52.501 17.639 17.645 41.111 22.748 52.427 11.398a19.05 19.05 0 0 0 2.619-3.29c-12.202 7.349-32.847 1.638-48.751-14.271zM195.537 402.619l14.247-15.17 1.696 1.695s-12.053 13.998-12.245 17.342l-3.698-3.867z" fill="#455a64"/><path fill="#ff725e" d="m172.319 393.885-19.508 29.128 29.562 29.569 29.381-22.417z"/><path d="M182.564 452.418c-2.671 2.618-11.384-1.938-19.46-10.176-8.076-8.239-12.458-17.04-9.787-19.659 2.671-2.618 11.384 1.938 19.46 10.176 8.077 8.239 12.458 17.04 9.787 19.659z" fill="#ff725e"/><path d="M182.564 452.418c-2.671 2.618-11.384-1.938-19.46-10.176-8.076-8.239-12.458-17.04-9.787-19.659 2.671-2.618 11.384 1.938 19.46 10.176 8.077 8.239 12.458 17.04 9.787 19.659z" opacity=".3"/><path d="M212.631 432.397c-2.441 2.221-14.789.327-28.268-12.073-13.479-12.4-21.117-21.731-14.24-29 5.652-5.974 16.928-1.431 30.407 10.969 13.479 12.401 20.119 22.81 12.101 30.104z" fill="#ff725e"/><path d="M182.373 452.582c-.008-.01.153-.151.472-.415l1.418-1.151 5.404-4.296 19.198-15.09-.028.026c.611-.678.613-1.761.422-2.737-.191-.998-.566-1.987-1.016-2.953-.908-1.934-2.102-3.809-3.437-5.641-2.677-3.665-5.924-7.177-9.493-10.528-3.893-3.645-7.976-6.865-12.155-9.431-2.091-1.274-4.207-2.397-6.358-3.199-1.075-.39-2.16-.725-3.242-.848-1.056-.135-2.221-.062-2.896.633l.021-.027-12.887 18.937-3.652 5.3-.978 1.388c-.225.312-.346.47-.356.463-.01-.007.091-.178.296-.503l.921-1.427 3.547-5.371 12.731-19.042.01-.014.012-.012c.415-.446.997-.678 1.564-.775.573-.101 1.152-.086 1.721-.017 1.143.127 2.254.467 3.355.862 2.199.811 4.339 1.941 6.454 3.223 4.223 2.58 8.334 5.816 12.249 9.481 3.588 3.369 6.85 6.904 9.546 10.61 1.343 1.853 2.548 3.751 3.471 5.734.457.991.843 2.009 1.042 3.07.189 1.027.234 2.254-.549 3.14l-.012.013-.017.013-19.314 14.941-5.484 4.193-1.462 1.094c-.334.244-.51.366-.518.356z" fill="#263238"/><g fill="#263238"><path d="M273.009 391.181v4.847h-17.803v-22.174h17.391v4.847h-11.182v3.737h9.852v4.689h-9.852v4.055h11.594zM286.185 390.136h-3.421v5.892h-6.272v-22.174h10.137c6.05 0 9.852 3.136 9.852 8.204 0 3.263-1.583 5.67-4.339 7.001l4.783 6.969h-6.716l-4.024-5.892zm.064-11.341h-3.485v6.494h3.485c2.597 0 3.896-1.204 3.896-3.232 0-2.058-1.299-3.262-3.896-3.262zM309.625 390.136h-3.421v5.892h-6.272v-22.174h10.137c6.05 0 9.852 3.136 9.852 8.204 0 3.263-1.583 5.67-4.339 7.001l4.783 6.969h-6.716l-4.024-5.892zm.063-11.341h-3.485v6.494h3.485c2.597 0 3.896-1.204 3.896-3.232 0-2.058-1.299-3.262-3.896-3.262zM322.231 384.941c0-6.652 5.227-11.53 12.322-11.53s12.322 4.878 12.322 11.53c0 6.652-5.227 11.53-12.322 11.53s-12.322-4.878-12.322-11.53zm18.309 0c0-3.833-2.629-6.336-5.987-6.336s-5.987 2.503-5.987 6.336 2.629 6.335 5.987 6.335 5.987-2.502 5.987-6.335zM359.861 390.136h-3.421v5.892h-6.272v-22.174h10.137c6.05 0 9.852 3.136 9.852 8.204 0 3.263-1.583 5.67-4.339 7.001l4.783 6.969h-6.716l-4.024-5.892zm.063-11.341h-3.485v6.494h3.485c2.597 0 3.896-1.204 3.896-3.232 0-2.058-1.298-3.262-3.896-3.262zM412.029 382.058c0 5.037-3.801 8.173-9.852 8.173h-3.864v5.797h-6.272v-22.174h10.137c6.05 0 9.851 3.136 9.851 8.204zm-6.335 0c0-2.059-1.299-3.263-3.897-3.263h-3.484v6.494h3.484c2.598 0 3.897-1.204 3.897-3.231zM428.817 391.72h-9.377l-1.742 4.308H411.3l9.788-22.174h6.177l9.82 22.174h-6.525l-1.743-4.308zm-1.838-4.625-2.85-7.096-2.851 7.096h5.701zM453.397 384.465h5.543v9.186c-2.565 1.838-6.082 2.819-9.313 2.819-7.065 0-12.228-4.783-12.228-11.53 0-6.747 5.163-11.53 12.354-11.53 4.15 0 7.508 1.425 9.693 4.055l-3.991 3.61c-1.521-1.679-3.263-2.471-5.385-2.471-3.802 0-6.336 2.503-6.336 6.336 0 3.738 2.534 6.335 6.272 6.335a7.984 7.984 0 0 0 3.39-.728v-6.082zM480.732 391.181v4.847H462.93v-22.174h17.391v4.847h-11.183v3.737h9.852v4.689h-9.852v4.055h11.594z"/></g><path d="M271.944 322.697H218.21V296.38l51.175-124.48h30.706v124.48h13.306v26.317h-13.306v33.423h-28.147v-33.423zm0-26.317v-71.846h-.512l-27.635 71.846h28.147z" fill="#ff725e"/><path d="M271.944 322.697H218.21V296.38l51.175-124.48h30.706v124.48h13.306v26.317h-13.306v33.423h-28.147v-33.423zm0-26.317v-71.846h-.512l-27.635 71.846h28.147z" opacity=".3"/><path d="M259.13 322.696h-53.734v-26.317l51.176-124.48h30.706v124.48h13.306v26.317h-13.306v33.423H259.13v-33.423zm0-26.317v-71.846h-.512l-27.635 71.846h28.147zM335.89 346.646c-7.336-8.067-11.003-19.475-11.003-34.212v-96.847c0-14.738 3.667-26.141 11.003-34.213 7.332-8.067 17.912-12.105 31.728-12.105 13.817 0 24.394 4.038 31.73 12.105 7.332 8.072 11.002 19.475 11.002 34.213v96.847c0 14.737-3.67 26.145-11.002 34.212-7.336 8.072-17.912 12.107-31.73 12.107-13.816-.001-24.395-4.035-31.728-12.107zm46.314-32.37V213.745c0-12.105-4.861-18.158-14.585-18.158-9.723 0-14.585 6.053-14.585 18.158v100.531c0 12.107 4.862 18.159 14.585 18.159s14.585-6.053 14.585-18.159z" fill="#ff725e"/><path d="M399.348 181.374c-7.336-8.067-17.912-12.105-31.73-12.105-13.817 0-24.396 4.038-31.728 12.105-7.336 8.072-11.003 19.475-11.003 34.213v96.847c0 14.737 3.667 26.145 11.003 34.212 7.332 8.072 17.912 12.107 31.728 12.107 13.817 0 24.394-4.034 31.73-12.107 7.332-8.067 11.002-19.475 11.002-34.212v-96.847c0-14.738-3.67-26.14-11.002-34.213zm-17.144 132.902c0 12.107-4.861 18.159-14.585 18.159-9.723 0-14.585-7.597-14.585-18.159V213.745c0-10.98 4.862-18.158 14.585-18.158 9.724 0 14.585 6.053 14.585 18.158v100.531z" opacity=".3"/><path d="M323.076 346.645c-7.336-8.067-11.003-19.475-11.003-34.212v-96.847c0-14.738 3.667-26.141 11.003-34.213 7.333-8.067 17.912-12.105 31.729-12.105s24.393 4.038 31.729 12.105c7.332 8.072 11.002 19.475 11.002 34.213v96.847c0 14.737-3.67 26.145-11.002 34.212-7.336 8.072-17.912 12.106-31.729 12.106-13.818 0-24.397-4.034-31.729-12.106zm46.313-32.37V213.744c0-12.105-4.861-18.158-14.585-18.158-9.723 0-14.585 6.053-14.585 18.158v100.531c0 12.106 4.862 18.159 14.585 18.159 9.724 0 14.585-6.053 14.585-18.159zM473.201 322.698h-53.735v-26.317l51.176-124.479h30.706v124.479h13.306v26.317h-13.306v33.423h-28.146v-33.423zm0-26.317v-71.846h-.512l-27.636 71.846h28.148z" fill="#ff725e"/><path d="M473.201 322.698h-53.735v-26.317l51.176-124.479h30.706v124.479h13.306v26.317h-13.306v33.423h-28.146v-33.423zm0-26.317v-71.846h-.512l-27.636 71.846h28.148z" opacity=".3"/><path d="M460.386 322.697h-53.735V296.38l51.175-124.48h30.706v124.48h13.306v26.317h-13.306v33.423h-28.147v-33.423zm0-26.317v-71.846h-.512l-27.636 71.846h28.148z" fill="#ff725e"/><ellipse transform="rotate(-11.409 547.49 251.72)" cx="547.59" cy="251.752" rx="24.39" ry="76.419" fill="#263238"/><path d="M564.276 248.57c-7.608-37.708-22.794-67.11-35.422-70.005 1.117-.875 2.324-1.462 3.623-1.723 13.204-2.664 30.674 28.715 39.021 70.087 8.347 41.372 4.409 77.069-8.795 79.733-1.169.236-2.372.2-3.599-.081 10.236-8.023 12.698-40.708 5.172-78.011z" fill="#455a64"/><path d="m696.227 177.265 14.146-20.646s25.737 7.445 28.722 3.883l-39.046-28.865-23.361 31.265 19.539 14.363z" fill="#263238"/><path d="M697.048 149.385c-.603-.765-.497-2.001.243-2.635.74-.634 1.997-.537 2.614.218.616.754.535 2.241-.272 2.789-.806.547-2.276.353-2.693-.528" fill="#e0e0e0"/><path d="m700.048 131.637-2.231 3.244 38.271 26.463s2.297.529 3.006-.841l-39.046-28.866z" fill="#455a64"/><path d="M710.859 157.286c.135-.195-.755-.987-1.24-2.293-.519-1.294-.392-2.478-.623-2.532-.203-.093-.761 1.257-.146 2.829.6 1.576 1.921 2.201 2.009 1.996zM716.206 158.619c.18-.152-.406-1.087-.457-2.372-.089-1.283.392-2.276.196-2.408-.157-.163-1.114.857-1.02 2.453.08 1.597 1.143 2.506 1.281 2.327zM722.156 155.437c-.143-.169-1.113.588-1.395 1.994-.292 1.405.302 2.481.5 2.382.224-.077.059-1.065.309-2.216.221-1.157.761-2.001.586-2.16zM707.113 161.633c.048-.233-1.021-.616-2.044-1.486-1.041-.849-1.613-1.831-1.833-1.741-.212.056.085 1.367 1.305 2.375 1.211 1.017 2.555 1.071 2.572.852z" fill="#fff"/><path d="m682.661 261.183 14.267-20.562s25.692 7.596 28.699 4.053l-38.875-29.095-23.544 31.126 19.453 14.478z" fill="#263238"/><path d="M683.647 233.308c-.599-.769-.485-2.003.258-2.633.743-.63 2-.525 2.612.233.612.758.521 2.245-.288 2.787-.809.542-2.278.339-2.69-.544" fill="#e0e0e0"/><path d="m686.752 215.579-2.25 3.23 38.115 26.688s2.294.542 3.011-.823l-38.876-29.095z" fill="#455a64"/><path d="M697.41 241.29c.136-.195-.749-.991-1.226-2.3-.511-1.297-.377-2.48-.608-2.535-.202-.094-.769 1.253-.163 2.828.591 1.58 1.908 2.212 1.997 2.007zM702.75 242.655c.181-.151-.399-1.09-.443-2.375-.081-1.284.406-2.274.21-2.407-.156-.164-1.119.85-1.034 2.447.07 1.598 1.128 2.513 1.267 2.335zM708.718 239.508c-.142-.169-1.116.581-1.407 1.986-.301 1.403.287 2.483.486 2.385.224-.076.065-1.065.321-2.214.23-1.156.775-1.997.6-2.157zM693.639 245.615c.05-.233-1.017-.622-2.035-1.499-1.036-.855-1.602-1.84-1.823-1.751-.213.055.077 1.368 1.291 2.383 1.206 1.024 2.549 1.086 2.567.867z" fill="#fff"/><path d="M535.393 276.084c1.328.003 119.907-34.16 128.154-41.581 8.248-7.421 41.932-66.182 41.932-66.182l-23.924-19.506L639.972 203l-73.017 6.592s-30.784-2.1-36.149 8.909l-.507 16.478 5.094 41.105z" fill="#263238"/><path d="M535.393 276.084c1.755.05 54.724 58.99 71.317 62.342 16.593 3.352 24.944-8.093 30.611-14.954 7.217-8.739 56.379-71.474 56.379-71.474l-24.663-20.399-54.067 57.533-32.511-44.772-28.343-2.657-17.233 15.265-1.49 19.116z" fill="#263238"/><path d="M610.157 294.635c-.007-.006.057-.089.187-.243l.588-.677 2.299-2.568 8.528-9.375 12.699-13.858 7.523-8.16 8.194-8.652 18.687-19.669.156-.164.172.144 17.782 14.835 4.99 4.214 1.306 1.128c.293.259.441.397.432.408-.008.01-.172-.109-.481-.348l-1.353-1.071-5.075-4.111-17.906-14.684.328-.02-18.641 19.709-8.201 8.644a39576.853 39576.853 0 0 1-20.33 21.915 78425.78 78425.78 0 0 1-8.654 9.258l-2.373 2.499-.627.641c-.146.142-.223.212-.23.205zM609.478 254.169c.01.035-.538.228-1.536.549l-4.238 1.325c-3.58 1.111-8.542 2.598-13.976 4.365l-3.96 1.326c-1.28.416-2.514.817-3.613 1.341a9.295 9.295 0 0 0-4.467 4.455c-.783 1.674-1.059 3.18-1.265 4.199-.189 1.028-.275 1.603-.316 1.598-.018-.002-.018-.148-.001-.424.014-.277.054-.683.117-1.205.148-1.036.366-2.569 1.131-4.322.75-1.74 2.287-3.629 4.592-4.732 1.136-.556 2.382-.97 3.663-1.394l3.956-1.335c5.447-1.771 10.425-3.202 14.034-4.223a221.56 221.56 0 0 1 4.286-1.167c1.017-.264 1.583-.391 1.593-.356zM519.423 225.369c-.016-.009.068-.171.243-.474l.33-.558.53-.707c.818-1.048 2.202-2.417 4.157-3.772 3.892-2.752 9.99-5.361 16.949-7.286 6.972-1.921 13.474-2.881 18.198-3.187 2.363-.158 4.284-.149 5.606-.074.662.037 1.174.085 1.519.138.346.046.526.079.524.096-.005.05-.732-.025-2.05-.032a59.235 59.235 0 0 0-5.571.239c-4.692.398-11.153 1.411-18.087 3.322-6.922 1.915-12.988 4.449-16.881 7.088-1.956 1.3-3.354 2.604-4.208 3.597l-.561.668-.367.524c-.202.282-.316.426-.331.418zM568.512 308.95c-.012.014-.154-.081-.414-.275l-1.121-.865-4.09-3.218c-3.455-2.716-8.361-6.28-13.813-10.193-5.456-3.916-10.17-7.782-13.424-10.744-1.624-1.485-2.925-2.701-3.794-3.571l-1.001-1.002c-.225-.233-.337-.362-.325-.375.012-.013.149.09.397.299l1.068.93c.911.824 2.248 1.997 3.9 3.443 3.311 2.887 8.038 6.688 13.486 10.599 5.447 3.908 10.337 7.532 13.737 10.326 1.704 1.392 3.069 2.535 3.99 3.35l1.059.941c.237.219.357.341.345.355z" fill="#455a64"/><ellipse transform="rotate(-69.476 178.06 258.503)" cx="178.049" cy="258.491" rx="80.402" ry="25.661" fill="#263238"/><path d="M161.245 252.405c14.188-37.905 34.865-65.917 48.466-66.82-1.014-1.095-2.171-1.906-3.476-2.394-13.273-4.968-36.652 24.717-52.218 66.305-15.567 41.587-17.426 79.328-4.154 84.296 1.175.44 2.431.603 3.752.515-9.295-10.04-6.405-44.405 7.63-81.902z" fill="#455a64"/><path d="M22.303 158.803s-3.54-9.029-5.073-12.296c-1.533-3.266-1.195-13.246-.179-15.058 1.016-1.812.077-3.188.077-3.188s-5.221-9.729-2.777-12.13l1.423-.161s5.226 10.441 5.404 10.647c.178.205 1.321.263 1.684-1.558.363-1.821-.517-7.216-.517-7.216s-1.977-3.442-2.123-5.798c-.055-.886.74-2.142 1.447-2.678l.715-.542s4.389 7.937 4.633 9.878c.244 1.942 1.052 6.149 1.052 6.149l.611-.491.05-9.736s-2.196-8.242-.526-10.045c1.67-1.803 1.83-.291 1.83-.291s3.135 8.414 3.368 10.546c.095.87.192 9.232.192 9.232l1.349-.556.469-7.822s-1.579-7.759.787-8.549l1.897-.061s1.8 10.212 1.996 10.688-1.378 12.134-1.378 12.134l.474 1.099 1.367-1.864s.611-1.789 3.336-3.284c2.725-1.496 3.916-.409 3.916-.409l-3.421 6.081s-3.114 7.105-4.387 8.744c-1.273 1.639-5.621 5.476-6.306 5.851-.686.376.084 3.531.084 3.531l1.078 2.202-12.552 6.951z" fill="#ffbf9d"/><path d="M35.991 135.004c.001.103-1.102.077-2.796.486-1.682.396-3.966 1.336-5.91 3.13-1.944 1.796-3.063 3.999-3.591 5.644-.542 1.656-.604 2.758-.706 2.748-.059.003-.149-1.123.307-2.867.44-1.728 1.549-4.072 3.59-5.958 2.811-2.242 5.104-3.1 6.223-3.105 1.775-.315 2.89-.137 2.883-.078zM36.461 123.844c-.005.199-4.107-.471-8.941.799-4.852 1.21-8.127 3.767-8.227 3.595-.041-.052.711-.757 2.119-1.64 1.402-.884 3.496-1.891 5.962-2.526 2.466-.627 4.786-.75 6.441-.648 1.658.098 2.657.355 2.646.42z" fill="#ff9a6c"/><path d="M22.303 158.803c.34.823 17.559 52.941 25.004 58.537 7.445 5.596 56.621 20.045 56.621 20.045l7.728-26.2-48.102-15.091-29.861-49.974-11.39 12.683z" fill="#ffbf9d"/><path fill="#ff725e" d="m114.834 203.994-37.147-6.337-7.935 32.298 42.97 9.832z"/><path d="m138.156 206.563-2.18-56.975c-.081-14.191-8.406-25.972-22.59-25.498l-1.308.12c-13.165 1.211-23.197 12.324-23.049 25.543.138 12.299.449 25.887 1.132 32.43 1.415 13.544 15.17 14.405 15.17 14.405.031-.001 4.215 16.856 4.215 16.856l4.803 1.595 23.807-8.476z" fill="#ffbf9d"/><path d="M105.332 196.588s8.593-.285 17.175-6.843c0 0-2.495 10.913-16.138 10.936l-1.037-4.093z" fill="#ff9a6c"/><path d="M95.87 160.783c.057 1.026.974 1.823 2.047 1.782 1.07-.041 1.893-.903 1.835-1.929-.058-1.026-.974-1.824-2.045-1.784-1.072.041-1.895.905-1.837 1.931zM92.464 155.475c.263.23 1.63-.99 3.715-1.176 2.079-.216 3.707.715 3.909.439.101-.123-.186-.557-.896-.98-.7-.422-1.861-.789-3.159-.664-1.297.127-2.345.705-2.928 1.251-.595.552-.77 1.028-.641 1.13zM112.341 160.41c.264.23 1.633-.99 3.716-1.176 2.079-.215 3.707.716 3.91.439.1-.123-.184-.556-.897-.98-.7-.423-1.861-.789-3.158-.665-1.297.127-2.345.705-2.928 1.251-.594.552-.771 1.029-.643 1.131zM106.932 170.779c-.001-.119-1.317-.224-3.44-.299-.537-.006-1.051-.065-1.174-.42-.161-.373.009-.967.21-1.61l1.201-4.196c1.655-5.97 2.8-10.858 2.56-10.923-.241-.064-1.778 4.722-3.432 10.691-.395 1.471-.773 2.873-1.132 4.215-.146.623-.429 1.341-.084 2.114.18.384.597.637.946.697.351.073.651.051.916.043 2.12-.082 3.431-.193 3.429-.312zM110.597 154.924c.332.506 2.303-.239 4.759-.519 2.452-.329 4.544-.087 4.743-.658.085-.271-.374-.712-1.281-1.063-.899-.352-2.251-.568-3.723-.387-1.471.184-2.73.723-3.516 1.284-.793.561-1.131 1.101-.982 1.343zM91.967 150.186c.47.44 2.131-.182 4.172-.363 2.035-.24 3.797.028 4.157-.498.156-.254-.153-.708-.943-1.098-.779-.39-2.053-.659-3.454-.515-1.401.145-2.584.669-3.257 1.209-.685.542-.884 1.048-.675 1.265z" fill="#263238"/><path d="M135.792 159.73c.222-.121 9.063-3.612 9.62 5.685.556 9.297-8.893 7.938-8.925 7.673-.031-.267-.695-13.358-.695-13.358z" fill="#ffbf9d"/><path d="M139.117 169.395c.039-.032.169.103.45.213a1.62 1.62 0 0 0 1.212-.048c.96-.419 1.694-2.028 1.639-3.707a5.372 5.372 0 0 0-.592-2.292c-.325-.663-.793-1.112-1.293-1.17a.826.826 0 0 0-.929.501c-.109.267-.039.449-.087.468-.024.025-.209-.144-.157-.532.027-.187.123-.413.331-.605.212-.195.535-.307.881-.29.72.007 1.405.628 1.778 1.34.413.713.686 1.606.716 2.558.053 1.877-.801 3.688-2.122 4.156-.644.21-1.201.045-1.496-.157-.301-.212-.363-.417-.331-.435z" fill="#ff9a6c"/><path d="M113.556 171.741c-.321-.004-.227 2.133-1.986 3.733-1.756 1.605-4.044 1.47-4.047 1.77-.023.135.526.392 1.489.374.944-.011 2.308-.377 3.384-1.356 1.073-.982 1.495-2.244 1.528-3.124.04-.898-.223-1.416-.368-1.397zM69.638 138.462c.114-.557.485-1.032.955-1.35 1.026-.695 2.258-.687 3.442-.779 2.947-.23 5.826-1.165 8.374-2.663-.946-.408-1.837-.92-2.61-1.601-1.595-1.406-2.601-3.648-2.037-5.698.106-.385.301-.793.674-.934.592-.223 1.158.338 1.608.782 1.48 1.461 2.8 2.046 4.852 1.71 1.275-.209 2.5-.573 3.469-1.264.038-.044.071-.093.109-.137.453-.529.895-1.034 1.331-1.524l.003-.005-.001.003c3.283-3.685 6.142-6.275 9.161-7.713 4.426-2.108 11.97-3.318 16.779-2.37 4.809.949 9.297 4.525 10.255 9.333 2.515-2.408 6.501-2.636 9.813-1.536l.079-.041c3.679 1.06 5.959 4.737 7.249 8.342.07.197.133.398.201.596 1.336 1.854 3.093 3.405 5.137 4.432.361.181.775.404.842.802.067.394-.248.744-.558.996a7.192 7.192 0 0 1-2.838 1.391c.383.852.822 1.676 1.35 2.456.449.663.983 1.457.672 2.195-.24.571-.93.842-1.547.791-.617-.052-1.18-.357-1.723-.655l1.383 2.809a8.536 8.536 0 0 1-3.932-.019c-.553 3.48-.734 9.874-1.474 12.255-2.465.196-3.081-.036-4.3.455-1.576.634-.786 3.445-2.931 2.765-1.092-.346-2.979-4.287-3.403-5.351a53.188 53.188 0 0 1-3.689-22.327 17.092 17.092 0 0 0-5.504-3.477l.17.135c-3.883-1.085-8.263-2.118-11.759-.11-2.712 1.557-4.177 4.562-6.125 7.008-3.692 4.635-8.034 7.256-13.928 7.876-.279 4.137-.021 10.859.015 14.701l-3.744-7.463-.001.031a15.624 15.624 0 0 1-.777-1.313l-.081-.133-.001-.017c-.38-.708-.744-1.418-1.212-2.112l-.035.035c-1.962 1.959-5.192-.651-3.694-2.984a5.388 5.388 0 0 1 1.085-1.234c-.893.949-2.281 1.463-3.548 1.158-1.267-.305-2.31-1.504-2.282-2.807.019-.889.603-1.72 1.38-2.119a8.538 8.538 0 0 1-4.917-.769c-.992-.486-1.987-1.327-1.737-2.552z" fill="#263238"/><path d="M121.818 126.079c-.025.037.592.325 1.442 1.164.842.836 1.82 2.32 2.368 4.388a17.22 17.22 0 0 1 .562 3.436c.083 1.252.065 2.6.057 4.02-.004 1.419-.013 2.92.174 4.468.093.773.236 1.556.453 2.335.219.764.475 1.593 1.101 2.223.5.514 1.294.707 1.96.527a3.055 3.055 0 0 0 1.667-1.083c.812-1.076.95-2.385 1.097-3.54l-.283.052c.53.998 1.072 1.982 1.832 2.748.748.771 1.748 1.25 2.736 1.278a2.61 2.61 0 0 0 1.387-.333c.416-.235.705-.61.895-.998.18-.395.26-.821.214-1.224a1.693 1.693 0 0 0-.502-1.031l-.137.138a8.786 8.786 0 0 0 3.058 2.012c.398.154.714.241.927.296.215.049.327.069.33.06.002-.009-.106-.046-.315-.112-.208-.071-.516-.173-.903-.341a9.067 9.067 0 0 1-2.959-2.05l-.136.137c.488.457.567 1.307.215 2.016-.178.35-.444.684-.81.884a2.383 2.383 0 0 1-1.259.286c-.908-.034-1.84-.484-2.542-1.218-.717-.732-1.242-1.691-1.767-2.69l-.222-.424-.061.477c-.147 1.154-.302 2.412-1.044 3.382a2.757 2.757 0 0 1-1.492.969 1.736 1.736 0 0 1-1.666-.446c-.547-.545-.805-1.329-1.019-2.081a15.749 15.749 0 0 1-.448-2.286c-.188-1.522-.186-3.012-.19-4.43 0-1.419.008-2.772-.087-4.04a17.186 17.186 0 0 0-.608-3.479c-.583-2.093-1.614-3.593-2.497-4.415-.892-.826-1.528-1.075-1.528-1.075zM80.548 141.922a.49.49 0 0 0 .115.086l.355.227c.155.102.352.22.599.334.243.12.521.268.855.384 1.301.522 3.364.993 5.888.687 2.501-.297 5.458-1.372 8.023-3.54 2.597-2.123 4.805-5.15 6.551-8.567.888-1.708 1.59-3.447 2.382-5.062.787-1.615 1.673-3.118 2.784-4.33 1.097-1.217 2.4-2.147 3.773-2.622.684-.25 1.382-.34 2.052-.366a7.317 7.317 0 0 1 1.915.246 7.884 7.884 0 0 1 4.602 3.428c.696 1.212.78 2.013.828 1.997.006-.001-.001-.049-.02-.142l-.09-.413c-.089-.36-.279-.878-.612-1.504a7.772 7.772 0 0 0-1.651-1.971 7.976 7.976 0 0 0-2.997-1.613 7.492 7.492 0 0 0-1.977-.275c-.694.019-1.428.109-2.136.362-1.427.481-2.776 1.434-3.904 2.674-1.144 1.235-2.051 2.765-2.847 4.391-.803 1.626-1.506 3.361-2.386 5.054-1.733 3.392-3.908 6.385-6.455 8.486-2.517 2.148-5.403 3.22-7.865 3.543-2.481.329-4.517-.099-5.816-.58-1.308-.488-1.944-.955-1.966-.914z" fill="#455a64"/><path d="M78.94 136.02c-.01.02.171.129.509.31.335.187.845.412 1.49.644.645.238 1.439.448 2.334.61.898.146 1.898.233 2.949.207a16.128 16.128 0 0 0 2.932-.382 14.255 14.255 0 0 0 2.294-.747c.631-.271 1.126-.525 1.449-.732.327-.201.501-.32.49-.339-.03-.052-.757.381-2.022.862-.631.245-1.404.476-2.274.67-.874.179-1.848.314-2.878.35a17.545 17.545 0 0 1-2.893-.178 16.002 16.002 0 0 1-2.31-.534c-1.292-.406-2.044-.795-2.07-.741z" fill="#455a64"/><path d="m180.383 310.842.939-4.504a98.97 98.97 0 0 1-30.3-20.912l-50.052-50.635 1.297-14.53 24.642-23.074s11.751-7.792 26.982-1.755c17.298 6.856 24.623 16.566 44.822 40.109 8.005 9.33 3.508 1.535 11.331 6.59 0 0-4.907 26.674-14.19 43.205-6.795 12.099-15.471 25.506-15.471 25.506z" fill="#ff725e"/><path d="M106.152 240.173c-.057.038-.79-.927-1.846-2.574a68.143 68.143 0 0 1-3.729-6.671 67.99 67.99 0 0 1-2.969-7.044c-.65-1.846-.961-3.016-.895-3.038.076-.026.514 1.099 1.252 2.901a116.975 116.975 0 0 0 3.098 6.943 116.794 116.794 0 0 0 3.571 6.71c.967 1.692 1.585 2.729 1.518 2.773z" fill="#263238"/><path d="M193.301 273.607s1.473-8.219-1.668-16.391c-3.141-8.173-11.25-19.673-11.25-19.673l-2.788 2.632 15.706 33.432z" opacity=".3"/><path d="m149.993 323.889 18.028-47.155-9.505-11.867-17.917-22.019s-12.793-6.642-18.915-16.436c-1.913-3.061-2.28-8.23-.283-12.007 5.597-10.585 17.195-14.782 28.743-11.619l10.157 6.658s33.533 52.553 32.993 62.678c-.382 7.154-28.657 55.574-28.657 55.574l-14.644-3.807z" fill="#ffbf9d"/><path d="m151.261 321.887-20.009 1.724a6.776 6.776 0 0 0-5.142 3.124l-8.952 14.13s3.569 1.653 5.933-.989c2.432-2.719 6.182-8.194 6.182-8.194l-1.701 15.741s4.615.451 5.391-3.059c.891-4.03.959-9.307.959-9.307l4.503 14.964s4.889-1.609 3.319-7.268c-.992-3.574-2.064-7.247-2.064-7.247l5.493 9.738s3.992-.353 2.955-3.971c-.691-2.41-2.811-7.191-2.811-7.191s11.522.87 13.812.041c3.12-1.129 6.31-7.751 6.31-7.751l-14.178-4.485z" fill="#ffbf9d"/><path d="M133.517 200.046s-16.787 9.025-14.951 21.648c1.836 12.622 16.28 19.195 16.28 19.195l18.769 20.122 29.496-25.626-26.839-33.346" fill="#ff725e"/><path d="M156.27 202.037c.005-.004.052.044.14.144l.385.448 1.471 1.77 5.518 6.75 19.511 24.086.144.178-.173.15-29.327 25.524-.146.127-.197.171-.178-.191-18.757-20.133.08.058a37.042 37.042 0 0 1-9.327-6.579c-2.596-2.564-4.716-5.445-5.898-8.543-.248-.788-.575-1.54-.744-2.324-.147-.788-.364-1.549-.443-2.324a13.751 13.751 0 0 1 .223-4.481c.609-2.841 1.979-5.199 3.403-7.118 2.922-3.834 6.033-6.132 8.142-7.627a36.14 36.14 0 0 1 2.511-1.6l.672-.37c.153-.079.234-.114.237-.108.004.007-.07.054-.216.146l-.649.406c-.569.362-1.409.902-2.459 1.663-2.07 1.531-5.135 3.862-7.986 7.677-1.39 1.909-2.714 4.238-3.288 7.01a13.4 13.4 0 0 0-.19 4.356c.081.751.3 1.499.446 2.267.169.765.495 1.5.739 2.269 2.428 6.038 8.091 11.322 15.036 14.818l.05.025.031.033 18.78 20.111-.375-.02.146-.127 29.37-25.474-.029.328-19.36-24.208-5.415-6.833-1.414-1.815-.356-.472a.877.877 0 0 1-.108-.168z" fill="#263238"/><path d="M135.622 325.751c-.001.086-.656.07-1.637.348-.972.267-2.282.907-3.269 2.088-.984 1.184-1.377 2.588-1.464 3.592-.097 1.015.038 1.656-.047 1.673-.053.018-.324-.608-.321-1.692-.005-1.066.356-2.612 1.432-3.906 1.079-1.291 2.534-1.925 3.584-2.112 1.065-.2 1.73-.046 1.722.009zM137.462 328.102c.035.065-.396.358-1.069.849-.334.247-.732.542-1.136.9-.393.365-.833.771-1.013 1.309-.381 1.14-.302 2.324-.237 3.132.077.822.21 1.322.136 1.348-.06.025-.324-.449-.5-1.292-.158-.835-.321-2.051.111-3.365.243-.694.767-1.136 1.193-1.498a9.834 9.834 0 0 1 1.245-.843c.74-.422 1.237-.603 1.27-.54zM145.832 329.98c.018.071-.603.252-1.609.366-.967.139-2.464.224-3.366 1.382-.879 1.152-1.055 2.603-.871 3.528.187.955.509 1.513.428 1.552-.042.029-.485-.456-.787-1.471-.293-1.008-.187-2.607.823-3.934.511-.663 1.268-1.05 1.942-1.211.681-.171 1.295-.189 1.8-.212 1.013-.021 1.624-.069 1.64 0zM161.379 325.747c-.052.134-2.453-.675-5.369-1.789a122.623 122.623 0 0 1-3.712-1.481c-.942-.395-1.519-.668-1.497-.697.048-.208 2.482.58 5.395 1.691 2.917 1.115 5.235 2.142 5.183 2.276z" fill="#ff9a6c"/><path d="M206.344 236.703s-3.594 31.411-10.626 44.208a1815.498 1815.498 0 0 0-12.819 23.761l-.505 2.42s14.284-22.528 16.867-28.134c2.583-5.607 7.288-16.872 9.881-27.806 2.579-10.878 2.988-12.772 2.913-12.772.002 0-4.085-2.995-5.711-1.677z" opacity=".3"/></svg>