<svg width="200" height="128" viewBox="0 0 200 128" fill="none" xmlns="http://www.w3.org/2000/svg">
<g clip-path="url(#clip0_162_975)">
<path d="M75.7971 20.4122C75.6592 20.5904 75.4687 20.7204 75.2528 20.7835C75.0369 20.8466 74.8066 20.8396 74.5948 20.7636C74.5304 20.7445 74.4673 20.7214 74.4057 20.6944C74.4752 19.9491 74.4408 19.1977 74.3033 18.462C74.2494 19.0944 74.0951 19.7141 73.8464 20.2979C73.6437 20.094 73.4777 19.8564 73.356 19.5957C73.129 19.0562 72.9787 18.4875 72.9092 17.9062C72.5736 15.9256 72.2424 13.865 72.7901 11.9294C73.5923 9.10188 76.1223 7.06917 77.179 4.32578L77.6996 3.85718C78.5907 5.3788 78.6302 7.2696 78.2669 8.99501C77.9056 10.7239 77.1774 12.3464 76.6018 14.0137C76.0261 15.6809 75.5948 17.4543 75.8619 19.1989C75.9233 19.6097 76.017 20.0612 75.7971 20.4122Z" fill="#2F2E41"/>
<path d="M64.227 44.3375L60.8344 59.8965L75.6529 64.736L73.4739 44.3375H64.227Z" fill="#FFB6B6"/>
<path d="M168.796 126.909H175.511V96.041C175.502 88.0747 172.342 80.4372 166.724 74.8041C161.106 69.1711 153.489 66.0024 145.544 65.9934H83.1372C75.1923 66.0024 67.5754 69.1711 61.9575 74.8041C56.3396 80.4372 53.1796 88.0747 53.1706 96.041V126.909H59.8856V105.821C59.8946 97.7807 63.084 90.0722 68.7542 84.3867C74.4243 78.7012 82.1121 75.5032 90.1309 75.4941H138.551C146.569 75.5032 154.257 78.7012 159.927 84.3867C165.597 90.0722 168.787 97.7807 168.796 105.821V126.909Z" fill="#E6E6E6"/>
<path d="M87.1972 110.761L80.0406 108.588C79.5753 106.67 79.3405 104.704 79.3415 102.73C79.3449 102.285 79.4748 101.849 79.7161 101.475C79.9573 101.1 80.3 100.802 80.7039 100.616C81.1077 100.43 81.5562 100.363 81.9967 100.423C82.4372 100.483 82.8516 100.667 83.1914 100.955C87.0298 104.256 92.6521 106.017 96.2804 109.779C97.7821 111.36 98.9097 113.26 99.5797 115.337C100.25 117.414 100.445 119.616 100.151 121.779L101.717 126.86C98.2113 126.606 94.8019 125.593 91.724 123.891C88.646 122.189 85.9727 119.838 83.8882 117C82.7345 115.397 81.7868 113.654 81.0675 111.813C84.1027 111.467 87.1972 110.761 87.1972 110.761Z" fill="#F2F2F2"/>
<path d="M105.849 119.08L109.499 117.972C109.504 117.953 109.508 117.933 109.513 117.914C109.614 117.466 109.582 116.999 109.421 116.569C109.26 116.139 108.977 115.766 108.607 115.496C108.237 115.226 107.797 115.07 107.339 115.048C106.882 115.026 106.428 115.139 106.034 115.373C104.378 116.36 102.538 117.21 101.216 118.58C100.45 119.386 99.8752 120.355 99.5335 121.414C99.1918 122.474 99.0923 123.597 99.2423 124.7L98.4433 127.291C100.231 127.162 101.97 126.645 103.54 125.777C105.11 124.909 106.474 123.71 107.537 122.263C108.125 121.445 108.608 120.556 108.975 119.617C107.427 119.441 105.849 119.08 105.849 119.08Z" fill="#F2F2F2"/>
<path d="M135.396 43.2288H121.182C120.981 43.2291 120.788 43.3094 120.646 43.4522C120.504 43.5949 120.424 43.7884 120.425 43.99V66.5049H136.155V43.99C136.155 43.89 136.136 43.791 136.098 43.6986C136.059 43.6063 136.004 43.5223 135.933 43.4516C135.863 43.3809 135.779 43.3248 135.687 43.2866C135.595 43.2484 135.496 43.2287 135.396 43.2288ZM128.337 56.0214C127.892 56.0193 127.467 55.8414 127.152 55.5262C126.838 55.211 126.66 54.7842 126.658 54.3384V51.7415C126.659 51.2956 126.836 50.8681 127.151 50.5529C127.465 50.2377 127.892 50.0607 128.337 50.0607C128.782 50.0607 129.208 50.2377 129.523 50.5529C129.838 50.8681 130.015 51.2956 130.015 51.7415V54.3384C130.013 54.7842 129.836 55.211 129.521 55.5262C129.207 55.8414 128.781 56.0194 128.337 56.0214Z" fill="#3F3D56"/>
<path d="M158.934 8.0918H98.1733C97.6513 8.09263 97.1509 8.30093 96.7818 8.67106C96.4126 9.04118 96.2049 9.54293 96.204 10.0664V51.1782C96.2045 51.7018 96.4122 52.2037 96.7814 52.5739C97.1506 52.9441 97.6512 53.1523 98.1733 53.1528H158.934C159.456 53.1523 159.956 52.9441 160.325 52.5739C160.695 52.2037 160.902 51.7018 160.903 51.1782V10.0664C160.902 9.54293 160.694 9.04118 160.325 8.67106C159.956 8.30094 159.456 8.09263 158.934 8.0918Z" fill="#3F3D56"/>
<path d="M158.426 9.51794H98.681C98.4014 9.51855 98.1336 9.63031 97.9362 9.82869C97.7387 10.0271 97.6278 10.2959 97.6278 10.5761V50.669C97.6283 50.9489 97.7394 51.2172 97.9368 51.4152C98.1342 51.6131 98.4018 51.7245 98.681 51.725H158.426C158.706 51.7245 158.973 51.6131 159.171 51.4152C159.368 51.2172 159.479 50.9489 159.48 50.669V10.5761C159.48 10.2959 159.369 10.0271 159.171 9.82869C158.974 9.63031 158.706 9.51855 158.426 9.51794Z" fill="white"/>
<path d="M120.376 65.7847V67.9569C120.376 68.0695 120.421 68.1773 120.5 68.2569C120.58 68.3365 120.687 68.3813 120.799 68.3816H135.781C135.893 68.381 136 68.3361 136.079 68.2566C136.159 68.177 136.204 68.0694 136.204 67.9569V65.7847H120.376Z" fill="#3F3D56"/>
<path d="M146.789 69.1374H111.244C111.146 69.1374 111.05 69.1156 110.963 69.0737C110.875 69.0317 110.797 68.9706 110.736 68.8949C110.675 68.8191 110.631 68.7306 110.608 68.6358C110.585 68.5409 110.584 68.4422 110.604 68.3467L111.155 65.7201C111.187 65.5732 111.267 65.4414 111.384 65.3468C111.5 65.2521 111.645 65.2001 111.795 65.1996H146.238C146.387 65.2001 146.533 65.2521 146.649 65.3467C146.765 65.4414 146.846 65.5732 146.877 65.7201L147.429 68.3467C147.449 68.4422 147.447 68.5409 147.425 68.6358C147.402 68.7306 147.358 68.8191 147.297 68.8949C147.235 68.9706 147.158 69.0317 147.07 69.0737C146.982 69.1156 146.886 69.1374 146.789 69.1374Z" fill="#3F3D56"/>
<path d="M113.006 65.6726H112.184C112.108 65.6726 112.048 65.7337 112.048 65.809V66.1948C112.048 66.2702 112.108 66.3312 112.184 66.3312H113.006C113.081 66.3312 113.142 66.2702 113.142 66.1948V65.809C113.142 65.7337 113.081 65.6726 113.006 65.6726Z" fill="#E6E6E6"/>
<path d="M115.196 65.6726H114.373C114.298 65.6726 114.237 65.7337 114.237 65.809V66.1948C114.237 66.2702 114.298 66.3312 114.373 66.3312H115.196C115.271 66.3312 115.332 66.2702 115.332 66.1948V65.809C115.332 65.7337 115.271 65.6726 115.196 65.6726Z" fill="#E6E6E6"/>
<path d="M117.385 65.6726H116.563C116.488 65.6726 116.427 65.7337 116.427 65.809V66.1948C116.427 66.2702 116.488 66.3312 116.563 66.3312H117.385C117.46 66.3312 117.521 66.2702 117.521 66.1948V65.809C117.521 65.7337 117.46 65.6726 117.385 65.6726Z" fill="#E6E6E6"/>
<path d="M119.575 65.6726H118.752C118.677 65.6726 118.616 65.7337 118.616 65.809V66.1948C118.616 66.2702 118.677 66.3312 118.752 66.3312H119.575C119.65 66.3312 119.711 66.2702 119.711 66.1948V65.809C119.711 65.7337 119.65 65.6726 119.575 65.6726Z" fill="#E6E6E6"/>
<path d="M121.764 65.6726H120.942C120.867 65.6726 120.806 65.7337 120.806 65.809V66.1948C120.806 66.2702 120.867 66.3312 120.942 66.3312H121.764C121.84 66.3312 121.9 66.2702 121.9 66.1948V65.809C121.9 65.7337 121.84 65.6726 121.764 65.6726Z" fill="#E6E6E6"/>
<path d="M123.954 65.6726H123.131C123.056 65.6726 122.995 65.7337 122.995 65.809V66.1948C122.995 66.2702 123.056 66.3312 123.131 66.3312H123.954C124.029 66.3312 124.09 66.2702 124.09 66.1948V65.809C124.09 65.7337 124.029 65.6726 123.954 65.6726Z" fill="#E6E6E6"/>
<path d="M126.143 65.6726H125.321C125.246 65.6726 125.185 65.7337 125.185 65.809V66.1948C125.185 66.2702 125.246 66.3312 125.321 66.3312H126.143C126.219 66.3312 126.279 66.2702 126.279 66.1948V65.809C126.279 65.7337 126.219 65.6726 126.143 65.6726Z" fill="#E6E6E6"/>
<path d="M128.333 65.6726H127.51C127.435 65.6726 127.374 65.7337 127.374 65.809V66.1948C127.374 66.2702 127.435 66.3312 127.51 66.3312H128.333C128.408 66.3312 128.469 66.2702 128.469 66.1948V65.809C128.469 65.7337 128.408 65.6726 128.333 65.6726Z" fill="#E6E6E6"/>
<path d="M130.522 65.6726H129.7C129.625 65.6726 129.564 65.7337 129.564 65.809V66.1948C129.564 66.2702 129.625 66.3312 129.7 66.3312H130.522C130.598 66.3312 130.658 66.2702 130.658 66.1948V65.809C130.658 65.7337 130.598 65.6726 130.522 65.6726Z" fill="#E6E6E6"/>
<path d="M132.712 65.6726H131.889C131.814 65.6726 131.753 65.7337 131.753 65.809V66.1948C131.753 66.2702 131.814 66.3312 131.889 66.3312H132.712C132.787 66.3312 132.848 66.2702 132.848 66.1948V65.809C132.848 65.7337 132.787 65.6726 132.712 65.6726Z" fill="#E6E6E6"/>
<path d="M134.901 65.6726H134.079C134.004 65.6726 133.943 65.7337 133.943 65.809V66.1948C133.943 66.2702 134.004 66.3312 134.079 66.3312H134.901C134.977 66.3312 135.038 66.2702 135.038 66.1948V65.809C135.038 65.7337 134.977 65.6726 134.901 65.6726Z" fill="#E6E6E6"/>
<path d="M137.091 65.6726H136.268C136.193 65.6726 136.132 65.7337 136.132 65.809V66.1948C136.132 66.2702 136.193 66.3312 136.268 66.3312H137.091C137.166 66.3312 137.227 66.2702 137.227 66.1948V65.809C137.227 65.7337 137.166 65.6726 137.091 65.6726Z" fill="#E6E6E6"/>
<path d="M139.281 65.6726H138.458C138.383 65.6726 138.322 65.7337 138.322 65.809V66.1948C138.322 66.2702 138.383 66.3312 138.458 66.3312H139.281C139.356 66.3312 139.417 66.2702 139.417 66.1948V65.809C139.417 65.7337 139.356 65.6726 139.281 65.6726Z" fill="#E6E6E6"/>
<path d="M141.47 65.6726H140.647C140.572 65.6726 140.511 65.7337 140.511 65.809V66.1948C140.511 66.2702 140.572 66.3312 140.647 66.3312H141.47C141.545 66.3312 141.606 66.2702 141.606 66.1948V65.809C141.606 65.7337 141.545 65.6726 141.47 65.6726Z" fill="#E6E6E6"/>
<path d="M143.66 65.6726H142.837C142.762 65.6726 142.701 65.7337 142.701 65.809V66.1948C142.701 66.2702 142.762 66.3312 142.837 66.3312H143.66C143.735 66.3312 143.796 66.2702 143.796 66.1948V65.809C143.796 65.7337 143.735 65.6726 143.66 65.6726Z" fill="#E6E6E6"/>
<path d="M145.849 65.6726H145.026C144.951 65.6726 144.89 65.7337 144.89 65.809V66.1948C144.89 66.2702 144.951 66.3312 145.026 66.3312H145.849C145.924 66.3312 145.985 66.2702 145.985 66.1948V65.809C145.985 65.7337 145.924 65.6726 145.849 65.6726Z" fill="#E6E6E6"/>
<path d="M112.98 66.7703H112.158C112.083 66.7703 112.022 66.8313 112.022 66.9067V67.2925C112.022 67.3678 112.083 67.4289 112.158 67.4289H112.98C113.056 67.4289 113.116 67.3678 113.116 67.2925V66.9067C113.116 66.8313 113.056 66.7703 112.98 66.7703Z" fill="#E6E6E6"/>
<path d="M115.17 66.7703H114.347C114.272 66.7703 114.211 66.8313 114.211 66.9067V67.2925C114.211 67.3678 114.272 67.4289 114.347 67.4289H115.17C115.245 67.4289 115.306 67.3678 115.306 67.2925V66.9067C115.306 66.8313 115.245 66.7703 115.17 66.7703Z" fill="#E6E6E6"/>
<path d="M117.359 66.7703H116.537C116.462 66.7703 116.401 66.8313 116.401 66.9067V67.2925C116.401 67.3678 116.462 67.4289 116.537 67.4289H117.359C117.435 67.4289 117.496 67.3678 117.496 67.2925V66.9067C117.496 66.8313 117.435 66.7703 117.359 66.7703Z" fill="#E6E6E6"/>
<path d="M119.549 66.7703H118.726C118.651 66.7703 118.59 66.8313 118.59 66.9067V67.2925C118.59 67.3678 118.651 67.4289 118.726 67.4289H119.549C119.624 67.4289 119.685 67.3678 119.685 67.2925V66.9067C119.685 66.8313 119.624 66.7703 119.549 66.7703Z" fill="#E6E6E6"/>
<path d="M121.738 66.7703H120.916C120.841 66.7703 120.78 66.8313 120.78 66.9067V67.2925C120.78 67.3678 120.841 67.4289 120.916 67.4289H121.738C121.814 67.4289 121.875 67.3678 121.875 67.2925V66.9067C121.875 66.8313 121.814 66.7703 121.738 66.7703Z" fill="#E6E6E6"/>
<path d="M123.928 66.7703H123.105C123.03 66.7703 122.969 66.8313 122.969 66.9067V67.2925C122.969 67.3678 123.03 67.4289 123.105 67.4289H123.928C124.003 67.4289 124.064 67.3678 124.064 67.2925V66.9067C124.064 66.8313 124.003 66.7703 123.928 66.7703Z" fill="#E6E6E6"/>
<path d="M126.118 66.7703H125.295C125.22 66.7703 125.159 66.8313 125.159 66.9067V67.2925C125.159 67.3678 125.22 67.4289 125.295 67.4289H126.118C126.193 67.4289 126.254 67.3678 126.254 67.2925V66.9067C126.254 66.8313 126.193 66.7703 126.118 66.7703Z" fill="#E6E6E6"/>
<path d="M128.307 66.7703H127.484C127.409 66.7703 127.348 66.8313 127.348 66.9067V67.2925C127.348 67.3678 127.409 67.4289 127.484 67.4289H128.307C128.382 67.4289 128.443 67.3678 128.443 67.2925V66.9067C128.443 66.8313 128.382 66.7703 128.307 66.7703Z" fill="#E6E6E6"/>
<path d="M130.497 66.7703H129.674C129.599 66.7703 129.538 66.8313 129.538 66.9067V67.2925C129.538 67.3678 129.599 67.4289 129.674 67.4289H130.497C130.572 67.4289 130.633 67.3678 130.633 67.2925V66.9067C130.633 66.8313 130.572 66.7703 130.497 66.7703Z" fill="#E6E6E6"/>
<path d="M132.686 66.7703H131.863C131.788 66.7703 131.727 66.8313 131.727 66.9067V67.2925C131.727 67.3678 131.788 67.4289 131.863 67.4289H132.686C132.761 67.4289 132.822 67.3678 132.822 67.2925V66.9067C132.822 66.8313 132.761 66.7703 132.686 66.7703Z" fill="#E6E6E6"/>
<path d="M134.876 66.7703H134.053C133.978 66.7703 133.917 66.8313 133.917 66.9067V67.2925C133.917 67.3678 133.978 67.4289 134.053 67.4289H134.876C134.951 67.4289 135.012 67.3678 135.012 67.2925V66.9067C135.012 66.8313 134.951 66.7703 134.876 66.7703Z" fill="#E6E6E6"/>
<path d="M137.065 66.7703H136.242C136.167 66.7703 136.106 66.8313 136.106 66.9067V67.2925C136.106 67.3678 136.167 67.4289 136.242 67.4289H137.065C137.14 67.4289 137.201 67.3678 137.201 67.2925V66.9067C137.201 66.8313 137.14 66.7703 137.065 66.7703Z" fill="#E6E6E6"/>
<path d="M139.255 66.7703H138.432C138.357 66.7703 138.296 66.8313 138.296 66.9067V67.2925C138.296 67.3678 138.357 67.4289 138.432 67.4289H139.255C139.33 67.4289 139.391 67.3678 139.391 67.2925V66.9067C139.391 66.8313 139.33 66.7703 139.255 66.7703Z" fill="#E6E6E6"/>
<path d="M141.444 66.7703H140.622C140.546 66.7703 140.485 66.8313 140.485 66.9067V67.2925C140.485 67.3678 140.546 67.4289 140.622 67.4289H141.444C141.519 67.4289 141.58 67.3678 141.58 67.2925V66.9067C141.58 66.8313 141.519 66.7703 141.444 66.7703Z" fill="#E6E6E6"/>
<path d="M143.634 66.7703H142.811C142.736 66.7703 142.675 66.8313 142.675 66.9067V67.2925C142.675 67.3678 142.736 67.4289 142.811 67.4289H143.634C143.709 67.4289 143.77 67.3678 143.77 67.2925V66.9067C143.77 66.8313 143.709 66.7703 143.634 66.7703Z" fill="#E6E6E6"/>
<path d="M145.823 66.7703H145.001C144.925 66.7703 144.865 66.8313 144.865 66.9067V67.2925C144.865 67.3678 144.925 67.4289 145.001 67.4289H145.823C145.898 67.4289 145.959 67.3678 145.959 67.2925V66.9067C145.959 66.8313 145.898 66.7703 145.823 66.7703Z" fill="#E6E6E6"/>
<path d="M131.153 68.0875H122.667C122.592 68.0875 122.531 68.1486 122.531 68.2239V68.6097C122.531 68.6851 122.592 68.7462 122.667 68.7462H131.153C131.229 68.7462 131.289 68.6851 131.289 68.6097V68.2239C131.289 68.1486 131.229 68.0875 131.153 68.0875Z" fill="#E6E6E6"/>
<path d="M149.518 19.5826V40.6853C149.518 42.0985 148.958 43.4538 147.961 44.4531C146.965 45.4523 145.613 46.0138 144.204 46.014H117.863C116.826 46.0142 115.811 45.7104 114.944 45.14C114.077 44.5695 113.396 43.7573 112.983 42.8034C112.845 42.4881 112.739 42.1594 112.668 41.8226C113.228 42.0398 113.824 42.1506 114.424 42.1495H140.765C142.064 42.1477 143.309 41.6295 144.227 40.7087C145.145 39.7878 145.662 38.5394 145.664 37.2371V16.1344C145.665 15.5324 145.554 14.9355 145.338 14.374C145.674 14.4454 146.002 14.5512 146.316 14.6898C147.267 15.1034 148.077 15.787 148.646 16.6563C149.215 17.5257 149.518 18.5428 149.518 19.5826Z" fill="#F2F2F2"/>
<path d="M51.2483 103.542L48.6357 105.164L40.9389 95.6774L44.7947 93.2838L51.2483 103.542Z" fill="#FFB6B6"/>
<path d="M53.5039 106.93L51.4023 107.871L50.1414 106.05L50.0664 108.469L44.4924 110.964C44.2252 111.084 43.9269 111.115 43.641 111.052C43.3551 110.99 43.0966 110.837 42.9032 110.617C42.7099 110.397 42.5917 110.121 42.5661 109.828C42.5405 109.536 42.6087 109.243 42.7608 108.993L45.8397 103.918L44.9442 101.906L49.7509 100.091L53.5039 106.93Z" fill="#2F2E41"/>
<path d="M43.9296 101.717L48.3422 97.4294C45.0638 89.3178 44.8019 84.2899 40.2571 74.4795C51.04 76.6909 58.7492 76.5565 67.667 74.5737C70.686 73.913 78.4757 67.8797 77.8352 64.7861C77.8053 64.6415 77.7699 64.4983 77.7291 64.3564C76.7719 61.0838 77.446 56.0724 75.3741 52.4409C71.5409 50.9919 65.7171 55.8851 61.1614 58.8679C58.9647 60.3061 60.5727 62.2661 58.932 62.7799L52.6425 64.8271L37.2113 62.3281C36.4655 62.2148 35.7047 62.2505 34.9728 62.4334C34.2409 62.6162 33.5523 62.9425 32.9468 63.3934C32.3412 63.8443 31.8306 64.4109 31.4445 65.0606C31.0583 65.7103 30.8042 66.4302 30.6968 67.1788C30.6707 67.3468 30.6518 67.5157 30.6401 67.6856C31.3501 71.6265 32.0902 75.464 32.887 79.1068C33.1443 80.2827 32.71 82.537 33.6773 82.5705C34.6446 82.6041 34.2549 84.9356 34.5562 86.0755C36.4107 93.093 37.5835 96.4891 43.9296 101.717Z" fill="#2F2E41"/>
<path d="M35.484 120.524L32.7621 119.099L37.0686 107.66L41.0857 109.763L35.484 120.524Z" fill="#FFB6B6"/>
<path d="M35.0303 111.984L39.3948 114.997C44.7439 107.24 48.2171 96.8748 50.8037 85.2767C60.8747 80.8715 69.6872 75.8316 75.8281 69.0716C76.8366 67.9382 77.3654 66.4557 77.3025 64.9381C77.2396 63.4205 76.5899 61.9871 75.4911 60.9415C75.3837 60.8405 75.2725 60.7438 75.1578 60.6512C72.4979 58.5268 66.5904 59.7492 62.8146 57.9735L56.0694 67.3344L56.8447 69.5146L54.4983 70.66L52.5171 71.6271L50.2492 72.7341L42.8145 76.3632C42.1405 76.701 41.5398 77.1693 41.0472 77.741C40.5546 78.3128 40.1797 78.9766 39.9442 79.6944C39.7087 80.4121 39.6173 81.1695 39.6752 81.9228C39.7331 82.6762 39.9392 83.4106 40.2816 84.0837C40.3567 84.2361 40.4382 84.3851 40.5262 84.5307L37.765 98.3235C37.765 98.3235 38.5248 100.725 37.3293 100.5C36.1338 100.275 36.7853 103.218 36.7853 103.218L35.0303 111.984Z" fill="#2F2E41"/>
<path d="M33.8357 126.828L31.7953 125.76L32.4365 123.638L30.4984 125.081L25.0869 122.249C24.8275 122.114 24.6182 121.898 24.4895 121.635C24.3607 121.371 24.3194 121.074 24.3714 120.785C24.4235 120.496 24.5662 120.232 24.7788 120.03C24.9914 119.828 25.2626 119.7 25.553 119.664L31.4321 118.933L32.4485 116.98L36.8523 119.631L33.8357 126.828Z" fill="#2F2E41"/>
<path d="M93.3275 66.8613L90.1441 59.1473L87.636 60.5445L89.1507 68.3915C88.999 68.8886 88.9886 69.4184 89.1206 69.9211C89.2527 70.4238 89.5221 70.8797 89.8983 71.2373C90.2746 71.595 90.743 71.8403 91.2507 71.9458C91.7584 72.0512 92.2854 72.0125 92.7723 71.8341C93.2593 71.6557 93.6871 71.3446 94.0074 70.9358C94.3277 70.527 94.528 70.0367 94.5857 69.52C94.6433 69.0034 94.5561 68.4808 94.3339 68.0111C94.1116 67.5414 93.7631 67.1432 93.3275 66.8613Z" fill="#FFB6B6"/>
<path d="M39.9091 5.8623L44.7529 12.6524L46.88 10.7217L43.6315 3.4229C43.667 2.90423 43.5574 2.38594 43.3151 1.92629C43.0729 1.46664 42.7076 1.08386 42.2602 0.820976C41.8129 0.558096 41.3013 0.425539 40.783 0.438208C40.2647 0.450877 39.7601 0.608271 39.3261 0.892693C38.8921 1.17712 38.5458 1.57729 38.3262 2.04823C38.1066 2.51917 38.0223 3.0422 38.0829 3.55853C38.1434 4.07485 38.3465 4.564 38.6691 4.97098C38.9917 5.37796 39.4211 5.68663 39.9091 5.8623Z" fill="#FFB6B6"/>
<path d="M61.7824 48.8987C58.6407 53.7849 70.1506 64.4312 76.2101 61.9417C77.2712 61.5058 80.921 60.066 78.4262 58.0698C75.9314 56.0736 78.7155 58.3076 78.7813 57.0082C78.8253 56.1394 78.1545 54.2336 78.8544 54.3153C79.5543 54.397 79.956 52.3673 78.4317 51.8503C77.9016 51.6605 77.4366 51.3231 77.0911 50.8777C76.7456 50.4323 76.5339 49.8972 76.4809 49.3354C76.3352 43.9797 78.144 38.388 78.144 38.388L85.5284 57.3153C85.5284 57.3153 85.4739 60.5898 86.4156 59.5892C87.3573 58.5885 87.2888 61.8272 87.2888 61.8272C87.2888 61.8272 88.689 62.8071 87.8838 63.3524C87.0786 63.8977 88.7507 65.5743 88.7507 65.5743L92.6522 65.2949C92.6522 65.2949 92.5911 62.3888 91.9249 61.7461C91.2588 61.1034 91.586 60.0921 91.586 60.0921C91.586 60.0921 90.2126 58.8112 91.0144 57.3027C91.8162 55.7942 85.1758 28.8115 85.1758 28.8115C84.9097 27.5133 84.2909 26.3141 83.3876 25.3466C82.4844 24.379 81.3319 23.6807 80.0575 23.3289L75.8436 22.1655L75.0954 19.1887H69.1619L68.1284 21.1447L58.6533 20.3064C58.6533 20.3064 49.2778 11.7531 49.7355 11.0852C50.1933 10.4173 48.74 8.85372 48.74 8.85372C48.74 8.85372 47.4987 8.44639 48.1991 8.22891C48.8995 8.01143 47.5757 7.50863 47.5757 7.50863C47.5757 7.50863 46.3496 7.18558 46.9278 6.76021C47.5061 6.33485 44.998 6.05542 44.998 6.05542L41.7438 8.71772L42.4015 9.83598C42.4015 9.83598 42.0005 11.3587 42.5238 10.8028C43.0472 10.2469 43.1457 11.8602 43.1457 11.8602C43.1457 11.8602 43.413 13.6267 44.998 14.1589C46.5829 14.6912 47.7848 19.7476 47.7848 19.7476L61.1614 30.9248C59.1241 33.2696 59.609 35.7215 61.4138 38.2296L61.7824 48.8987Z" fill="#4338CA"/>
<path d="M71.9948 17.2108C75.5433 17.2108 78.42 14.3264 78.42 10.7683C78.42 7.2102 75.5433 4.32581 71.9948 4.32581C68.4463 4.32581 65.5697 7.2102 65.5697 10.7683C65.5697 14.3264 68.4463 17.2108 71.9948 17.2108Z" fill="#FFB6B6"/>
<path d="M77.6035 8.84967C77.4391 8.89717 75.0257 9.21293 73.9807 9.40853C72.9551 9.60134 72.7768 8.29081 71.938 8.53671C71.9384 8.53097 71.9374 8.52522 71.9352 8.51994C71.8051 7.82555 71.583 7.15173 71.2747 6.51641C71.3865 7.1249 71.4025 7.74721 71.3221 8.36066C71.3216 8.37663 71.3197 8.39253 71.3165 8.40817C71.3137 8.43611 71.3081 8.46126 71.3054 8.4892C70.4192 8.09799 69.8562 8.44729 69.2431 8.57024C68.5576 8.70716 68.0225 9.00894 68.4071 11.3645C69.1958 16.2099 73.2979 17.9396 72.5873 21.1446C72.4479 21.779 72.0968 22.5725 71.6565 22.7709C71.5265 22.0765 71.3043 21.4027 70.996 20.7674C71.1079 21.3759 71.1239 21.9982 71.0434 22.6117C70.3607 21.8712 69.8674 19.2836 67.5711 17.2326C67.0053 16.7296 64.1712 13.7453 63.8312 13.0411C63.9355 13.6041 63.9859 14.1758 63.9817 14.7485C63.9823 15.1317 63.9563 15.5145 63.9036 15.8941C63.9036 15.9186 63.9008 15.943 63.8953 15.9668C63.8925 16.0115 63.8841 16.0506 63.8786 16.0925C63.873 16.14 63.8646 16.1847 63.8563 16.2322C62.9283 16.0981 62.1062 15.936 61.7188 15.556C59.8349 13.7174 62.134 10.1351 63.3909 6.89365C65.1884 2.25229 70.408 1.63475 70.9152 1.58445C73.1502 1.35811 76.9263 1.83874 78.1609 4.37877C79.0248 6.15874 78.473 8.59817 77.6035 8.84967Z" fill="#2F2E41"/>
<path d="M64.0555 9.89731L68.7098 2.6376C67.5943 1.98832 66.3242 1.65424 65.0345 1.67088C64.3918 1.68427 63.7591 1.83332 63.1776 2.10831C62.5962 2.38329 62.0791 2.77805 61.6599 3.26684C60.7094 4.4514 60.5463 6.12592 60.9024 7.6038C61.0254 8.11421 63.3676 6.31831 62.8103 7.15661C62.3527 7.81294 61.6045 10.5717 61.4169 11.3481C61.1149 12.5976 60.2845 13.8803 61.0242 14.9305C61.8989 16.1725 63.4598 16.7898 64.9749 16.8525C66.4899 16.9152 67.9812 16.4942 69.421 16.0173L64.0555 9.89731Z" fill="#2F2E41"/>
<path d="M65.8439 9.61098C65.7766 9.6109 65.7117 9.58648 65.6611 9.5422C65.6104 9.49792 65.5774 9.43677 65.5681 9.37003C65.5589 9.30328 65.574 9.23543 65.6107 9.17897C65.6474 9.12251 65.7032 9.08124 65.7678 9.06276C65.8409 8.94188 65.8109 8.43309 65.7868 8.02199C65.6962 6.47843 65.5445 3.89507 68.0458 2.1512C68.1065 2.1089 68.1814 2.0925 68.2542 2.1056C68.3269 2.1187 68.3914 2.16023 68.4336 2.22106C68.4758 2.28189 68.4922 2.35703 68.4791 2.42996C68.466 2.50288 68.4246 2.56762 68.364 2.60992C66.1193 4.17504 66.254 6.47038 66.3433 7.98911C66.3941 8.85742 66.431 9.48462 65.9058 9.60403C65.8855 9.60867 65.8647 9.61101 65.8439 9.61098Z" fill="#6C63FF"/>
<path d="M5.07822e-07 126.729C-0.000260046 126.817 0.0343274 126.901 0.0961496 126.963C0.157972 127.026 0.241965 127.061 0.329657 127.061H199.668C199.756 127.061 199.841 127.026 199.903 126.964C199.965 126.901 200 126.817 200 126.729C200 126.64 199.965 126.556 199.903 126.494C199.841 126.431 199.756 126.396 199.668 126.396H0.331638C0.288216 126.396 0.245196 126.404 0.20503 126.421C0.164864 126.438 0.128339 126.462 0.0975443 126.493C0.0667496 126.523 0.0422877 126.56 0.0255527 126.6C0.00881763 126.64 0.000136547 126.683 9.01245e-06 126.727L5.07822e-07 126.729Z" fill="#CCCCCC"/>
<path d="M123.325 26.9433H119.108C118.997 26.9433 118.889 26.8988 118.81 26.8195C118.731 26.7402 118.687 26.6326 118.687 26.5205C118.687 26.4084 118.731 26.3008 118.81 26.2215C118.889 26.1422 118.997 26.0977 119.108 26.0977H123.325C123.437 26.0977 123.545 26.1422 123.624 26.2215C123.703 26.3008 123.747 26.4084 123.747 26.5205C123.747 26.6326 123.703 26.7402 123.624 26.8195C123.545 26.8988 123.437 26.9433 123.325 26.9433Z" fill="#6C63FF"/>
<path d="M130.916 26.9433H126.699C126.644 26.9433 126.589 26.9324 126.538 26.9111C126.486 26.8899 126.44 26.8587 126.401 26.8195C126.362 26.7802 126.331 26.7336 126.309 26.6823C126.288 26.631 126.277 26.576 126.277 26.5205C126.277 26.465 126.288 26.41 126.309 26.3587C126.331 26.3074 126.362 26.2608 126.401 26.2215C126.44 26.1822 126.486 26.1511 126.538 26.1298C126.589 26.1086 126.644 26.0977 126.699 26.0977H130.916C130.971 26.0977 131.026 26.1086 131.077 26.1298C131.129 26.1511 131.175 26.1822 131.214 26.2215C131.253 26.2608 131.284 26.3074 131.306 26.3587C131.327 26.41 131.338 26.465 131.338 26.5205C131.338 26.576 131.327 26.631 131.306 26.6823C131.284 26.7336 131.253 26.7802 131.214 26.8195C131.175 26.8587 131.129 26.8899 131.077 26.9111C131.026 26.9324 130.971 26.9433 130.916 26.9433Z" fill="#6C63FF"/>
<path d="M134.711 30.326H130.494C130.439 30.326 130.384 30.3151 130.333 30.2938C130.282 30.2726 130.235 30.2414 130.196 30.2022C130.157 30.1629 130.126 30.1163 130.105 30.065C130.084 30.0137 130.073 29.9587 130.073 29.9032C130.073 29.8477 130.084 29.7927 130.105 29.7414C130.126 29.6901 130.157 29.6435 130.196 29.6042C130.235 29.5649 130.282 29.5338 130.333 29.5125C130.384 29.4913 130.439 29.4803 130.494 29.4803H134.711C134.767 29.4803 134.822 29.4913 134.873 29.5125C134.924 29.5338 134.97 29.5649 135.009 29.6042C135.049 29.6435 135.08 29.6901 135.101 29.7414C135.122 29.7927 135.133 29.8477 135.133 29.9032C135.133 29.9587 135.122 30.0137 135.101 30.065C135.08 30.1163 135.049 30.1629 135.009 30.2022C134.97 30.2414 134.924 30.2726 134.873 30.2938C134.822 30.3151 134.767 30.326 134.711 30.326Z" fill="#6C63FF"/>
<path d="M127.144 30.326H119.108C118.997 30.326 118.889 30.2815 118.81 30.2022C118.731 30.1229 118.687 30.0153 118.687 29.9032C118.687 29.791 118.731 29.6835 118.81 29.6042C118.889 29.5249 118.997 29.4803 119.108 29.4803H127.144C127.256 29.4803 127.363 29.5249 127.442 29.6042C127.521 29.6835 127.566 29.791 127.566 29.9032C127.566 30.0153 127.521 30.1229 127.442 30.2022C127.363 30.2815 127.256 30.326 127.144 30.326Z" fill="#6C63FF"/>
<path d="M142.325 26.9433H134.29C134.178 26.9433 134.071 26.8988 133.991 26.8195C133.912 26.7402 133.868 26.6326 133.868 26.5205C133.868 26.4084 133.912 26.3008 133.991 26.2215C134.071 26.1422 134.178 26.0977 134.29 26.0977H142.325C142.381 26.0977 142.435 26.1086 142.487 26.1298C142.538 26.1511 142.584 26.1822 142.623 26.2215C142.663 26.2608 142.694 26.3074 142.715 26.3587C142.736 26.41 142.747 26.465 142.747 26.5205C142.747 26.576 142.736 26.631 142.715 26.6823C142.694 26.7336 142.663 26.7802 142.623 26.8195C142.584 26.8587 142.538 26.8899 142.487 26.9111C142.435 26.9324 142.381 26.9433 142.325 26.9433Z" fill="#6C63FF"/>
<path d="M126.212 20.5377H118.177C118.121 20.5378 118.066 20.527 118.015 20.5058C117.964 20.4846 117.917 20.4535 117.878 20.4142C117.839 20.375 117.808 20.3283 117.786 20.2769C117.765 20.2256 117.754 20.1705 117.754 20.1149C117.754 20.0592 117.765 20.0042 117.786 19.9528C117.808 19.9014 117.839 19.8548 117.878 19.8155C117.917 19.7762 117.964 19.7451 118.015 19.7239C118.066 19.7027 118.121 19.6919 118.177 19.692H126.212C126.324 19.692 126.432 19.7366 126.511 19.8159C126.59 19.8952 126.634 20.0027 126.634 20.1149C126.634 20.227 126.59 20.3346 126.511 20.4139C126.432 20.4931 126.324 20.5377 126.212 20.5377Z" fill="#6C63FF"/>
<path d="M126.873 23.0081C126.794 23.0081 126.718 22.9835 126.654 22.9376C126.59 22.8918 126.541 22.827 126.516 22.7523C126.49 22.6777 126.489 22.5969 126.511 22.5212C126.534 22.4456 126.579 22.3789 126.641 22.3304L128.699 20.7268C128.781 20.6623 128.85 20.5814 128.9 20.489C128.95 20.3967 128.98 20.295 128.988 20.1903C128.997 20.0857 128.984 19.9804 128.95 19.8811C128.916 19.7818 128.861 19.6907 128.79 19.6136L127.063 17.7384C127.029 17.7019 127.003 17.6591 126.986 17.6125C126.969 17.5658 126.961 17.5162 126.963 17.4665C126.965 17.4169 126.976 17.368 126.997 17.3229C127.018 17.2777 127.047 17.2371 127.084 17.2034C127.12 17.1696 127.163 17.1434 127.209 17.1262C127.256 17.109 127.305 17.1011 127.355 17.1031C127.404 17.105 127.453 17.1168 127.498 17.1376C127.543 17.1584 127.584 17.1879 127.617 17.2244L130.183 20.0089C130.218 20.0474 130.245 20.0929 130.262 20.1425C130.279 20.1921 130.286 20.2447 130.282 20.2969C130.277 20.3492 130.262 20.4 130.237 20.4461C130.213 20.4923 130.178 20.5327 130.137 20.5649L127.105 22.9284C127.039 22.9801 126.957 23.0081 126.873 23.0081Z" fill="#6C63FF"/>
<path d="M117.77 23.0081C117.849 23.0081 117.926 22.9835 117.99 22.9376C118.054 22.8918 118.102 22.827 118.128 22.7523C118.153 22.6777 118.155 22.5969 118.132 22.5212C118.11 22.4456 118.064 22.3789 118.002 22.3304L115.945 20.7268C115.862 20.6623 115.794 20.5814 115.744 20.489C115.694 20.3967 115.664 20.295 115.655 20.1903C115.647 20.0857 115.66 19.9804 115.694 19.8811C115.728 19.7818 115.782 19.6907 115.853 19.6136L117.581 17.7384C117.614 17.7019 117.641 17.6591 117.658 17.6125C117.675 17.5658 117.683 17.5162 117.681 17.4665C117.679 17.4169 117.667 17.368 117.646 17.3229C117.626 17.2777 117.596 17.2371 117.56 17.2034C117.523 17.1696 117.481 17.1434 117.434 17.1262C117.388 17.109 117.338 17.1011 117.289 17.1031C117.239 17.105 117.19 17.1168 117.145 17.1376C117.1 17.1584 117.06 17.1879 117.026 17.2244L114.461 20.0089C114.425 20.0474 114.398 20.0929 114.381 20.1425C114.364 20.1921 114.357 20.2447 114.362 20.2969C114.366 20.3492 114.381 20.4 114.406 20.4461C114.431 20.4923 114.465 20.5327 114.506 20.5649L117.539 22.9284C117.605 22.9801 117.686 23.0081 117.77 23.0081Z" fill="#6C63FF"/>
<path d="M130.367 37.5774H122.331C122.219 37.5774 122.112 37.5328 122.033 37.4535C121.954 37.3742 121.909 37.2667 121.909 37.1545C121.909 37.0424 121.954 36.9348 122.033 36.8555C122.112 36.7762 122.219 36.7317 122.331 36.7317H130.367C130.478 36.7317 130.586 36.7762 130.665 36.8555C130.744 36.9348 130.788 37.0424 130.788 37.1545C130.788 37.2667 130.744 37.3742 130.665 37.4535C130.586 37.5328 130.478 37.5774 130.367 37.5774Z" fill="#6C63FF"/>
<path d="M131.782 39.6692C131.704 39.6692 131.627 39.6446 131.563 39.5988C131.499 39.5529 131.451 39.4881 131.425 39.4135C131.4 39.3388 131.398 39.258 131.42 39.1824C131.443 39.1067 131.488 39.04 131.551 38.9916L133.608 37.3879C133.691 37.3234 133.759 37.2425 133.809 37.1501C133.859 37.0578 133.889 36.9561 133.898 36.8514C133.906 36.7468 133.893 36.6415 133.859 36.5422C133.825 36.4429 133.771 36.3519 133.699 36.2747L131.972 34.3996C131.938 34.363 131.912 34.3202 131.895 34.2736C131.878 34.2269 131.87 34.1773 131.872 34.1277C131.874 34.078 131.886 34.0292 131.906 33.984C131.927 33.9389 131.957 33.8982 131.993 33.8645C132.03 33.8307 132.072 33.8045 132.119 33.7873C132.165 33.7701 132.215 33.7623 132.264 33.7642C132.314 33.7662 132.362 33.7779 132.408 33.7987C132.453 33.8195 132.493 33.849 132.527 33.8856L135.092 36.6701C135.128 36.7086 135.155 36.7541 135.172 36.8036C135.189 36.8532 135.195 36.9058 135.191 36.9581C135.187 37.0103 135.172 37.0611 135.147 37.1073C135.122 37.1534 135.088 37.1938 135.046 37.226L132.014 39.5895C131.948 39.6412 131.866 39.6692 131.782 39.6692Z" fill="#6C63FF"/>
<path d="M117.77 39.6692C117.849 39.6692 117.926 39.6446 117.99 39.5988C118.054 39.5529 118.102 39.4881 118.128 39.4135C118.153 39.3388 118.155 39.258 118.132 39.1824C118.11 39.1067 118.064 39.04 118.002 38.9916L115.945 37.3879C115.862 37.3234 115.794 37.2425 115.744 37.1501C115.694 37.0578 115.664 36.9561 115.655 36.8514C115.647 36.7468 115.66 36.6415 115.694 36.5422C115.728 36.4429 115.782 36.3519 115.853 36.2747L117.581 34.3996C117.649 34.3258 117.685 34.228 117.681 34.1277C117.677 34.0273 117.633 33.9326 117.56 33.8645C117.486 33.7963 117.389 33.7603 117.289 33.7642C117.188 33.7682 117.094 33.8118 117.026 33.8856L114.461 36.6701C114.425 36.7086 114.398 36.7541 114.381 36.8036C114.364 36.8532 114.357 36.9058 114.362 36.9581C114.366 37.0103 114.381 37.0611 114.406 37.1073C114.431 37.1534 114.465 37.1938 114.506 37.226L117.539 39.5895C117.605 39.6412 117.686 39.6692 117.77 39.6692Z" fill="#6C63FF"/>
<path d="M118.487 38.4844L120.177 34.61C120.222 34.5078 120.305 34.4276 120.409 34.387C120.513 34.3465 120.629 34.3489 120.731 34.3937C120.833 34.4385 120.914 34.522 120.954 34.626C120.995 34.7301 120.993 34.8461 120.949 34.9487L119.26 38.8231C119.238 38.8742 119.206 38.9205 119.166 38.9593C119.127 38.998 119.079 39.0285 119.028 39.0489C118.976 39.0694 118.921 39.0794 118.865 39.0784C118.81 39.0773 118.755 39.0653 118.704 39.043C118.653 39.0207 118.607 38.9885 118.569 38.9483C118.53 38.9082 118.5 38.8607 118.48 38.8088C118.46 38.7569 118.45 38.7015 118.451 38.6458C118.453 38.5902 118.465 38.5353 118.487 38.4844Z" fill="#6C63FF"/>
</g>
<defs>
<clipPath id="clip0_162_975">
<rect width="200" height="126.852" fill="white" transform="translate(0 0.439453)"/>
</clipPath>
</defs>
</svg>
