<?xml version="1.0" standalone="no"?>
<!DOCTYPE svg PUBLIC "-//W3C//DTD SVG 20010904//EN"
 "http://www.w3.org/TR/2001/REC-SVG-20010904/DTD/svg10.dtd">
<svg version="1.0" xmlns="http://www.w3.org/2000/svg"
 width="1024.000000pt" height="1024.000000pt" viewBox="0 0 1024.000000 1024.000000"
 preserveAspectRatio="xMidYMid meet">
<metadata>
Created by potrace 1.14, written by Peter Selinger 2001-2017
</metadata>
<g transform="translate(0.000000,1024.000000) scale(0.100000,-0.100000)"
fill="#000000" stroke="none">
<path d="M6333 10075 c-24 -17 -46 -66 -41 -91 2 -14 9 -11 41 18 50 47 50
108 0 73z"/>
<path d="M7295 10010 c-3 -5 -2 -10 4 -10 5 0 13 5 16 10 3 6 2 10 -4 10 -5 0
-13 -4 -16 -10z"/>
<path d="M7240 9970 c-9 -6 -10 -10 -3 -10 6 0 15 5 18 10 8 12 4 12 -15 0z"/>
<path d="M7195 9940 c-3 -6 1 -7 9 -4 18 7 21 14 7 14 -6 0 -13 -4 -16 -10z"/>
<path d="M7135 9880 c-3 -5 -1 -10 4 -10 6 0 11 5 11 10 0 6 -2 10 -4 10 -3 0
-8 -4 -11 -10z"/>
<path d="M7020 9810 c-9 -6 -10 -10 -3 -10 6 0 15 5 18 10 8 12 4 12 -15 0z"/>
<path d="M6955 9770 c-3 -5 -2 -10 4 -10 5 0 13 5 16 10 3 6 2 10 -4 10 -5 0
-13 -4 -16 -10z"/>
<path d="M6789 9723 c-13 -16 -12 -17 4 -4 9 7 17 15 17 17 0 8 -8 3 -21 -13z"/>
<path d="M6187 9641 c-4 -17 -3 -21 5 -13 5 5 8 16 6 23 -3 8 -7 3 -11 -10z"/>
<path d="M6695 9560 c-9 -18 -14 -34 -12 -37 3 -2 12 10 21 28 9 18 14 34 12
37 -3 2 -12 -10 -21 -28z"/>
<path d="M6138 9558 c-15 -13 -31 -63 -44 -143 -11 -68 -15 -88 -30 -155 -8
-36 -19 -86 -24 -112 -5 -27 -18 -67 -29 -90 -10 -24 -22 -70 -26 -103 -9 -79
-39 -234 -71 -365 -14 -58 -27 -115 -30 -128 -2 -12 -12 -31 -22 -41 -9 -10
-22 -26 -28 -37 -6 -10 -24 -21 -40 -22 -53 -7 -69 51 -38 141 9 26 14 52 11
59 -3 7 -8 -2 -12 -20 -4 -18 -13 -31 -19 -29 -6 3 -11 -8 -12 -27 0 -17 -17
-65 -36 -106 -68 -144 -91 -148 -58 -9 17 75 21 119 19 228 -1 87 3 153 11
182 11 38 11 52 1 78 -13 31 -43 42 -57 20 -12 -20 -6 -88 12 -124 15 -31 16
-56 11 -173 -6 -133 -18 -230 -37 -303 -7 -25 -20 -41 -47 -56 -39 -22 -138
-117 -170 -163 -22 -30 -63 -106 -97 -177 -14 -29 -30 -53 -35 -53 -6 0 -11
-12 -11 -26 0 -16 -12 -37 -31 -55 -24 -22 -30 -35 -25 -52 3 -12 14 -58 23
-102 8 -44 25 -98 36 -120 26 -49 47 -105 47 -125 0 -8 -15 -31 -33 -50 -18
-19 -40 -47 -49 -62 -21 -32 -75 -60 -100 -52 -10 3 -18 0 -18 -6 0 -6 -11
-16 -25 -22 -14 -6 -25 -16 -25 -21 0 -21 -52 -77 -71 -77 -18 0 -23 -13 -21
-50 0 -7 -6 -26 -13 -41 -11 -19 -11 -29 -3 -37 9 -9 4 -20 -20 -45 -18 -18
-32 -40 -32 -49 0 -13 -19 -28 -35 -28 -13 0 -75 65 -76 79 0 13 -1 14 -7 1
-9 -20 -83 -23 -75 -4 3 8 0 14 -6 14 -6 0 -11 -6 -11 -13 0 -22 30 -77 42
-77 6 0 8 -3 5 -7 -4 -3 -2 -11 3 -18 5 -6 11 -26 12 -44 1 -18 6 -35 11 -38
5 -3 -5 -13 -21 -23 -29 -18 -50 -60 -29 -60 6 0 7 -3 4 -7 -7 -6 30 -73 46
-84 5 -4 4 -9 -2 -13 -17 -11 -13 -36 7 -37 13 0 12 -2 -5 -9 -23 -9 -43 -39
-43 -62 1 -7 8 -2 16 12 14 23 15 23 11 3 -3 -12 -2 -22 2 -21 26 3 31 -6 31
-64 0 -35 1 -74 3 -88 1 -16 -3 -24 -10 -23 -7 2 -13 -2 -13 -7 0 -6 9 -10 20
-10 11 0 20 7 20 15 0 9 7 18 15 21 8 4 12 10 9 15 -3 5 2 17 12 26 16 16 16
16 9 -7 -4 -14 -15 -41 -25 -60 -10 -19 -26 -55 -36 -80 -9 -25 -27 -67 -39
-95 -34 -76 -40 -114 -21 -121 10 -4 26 4 42 19 32 33 61 42 79 27 15 -12 55
2 55 20 0 5 6 7 14 4 15 -6 46 21 46 39 0 8 3 8 11 0 15 -15 61 1 120 43 25
17 60 39 78 49 25 12 30 20 22 28 -6 6 -11 18 -11 27 1 12 2 12 11 -2 9 -17
12 -17 34 -2 19 13 23 20 15 34 -7 13 -6 20 7 24 9 4 18 4 21 1 3 -3 0 -5 -7
-5 -7 0 -9 -5 -5 -11 8 -13 17 -1 29 39 6 21 4 23 -17 21 -12 -2 -29 0 -35 4
-7 5 -18 5 -25 1 -8 -5 -6 -10 8 -14 16 -6 14 -8 -13 -14 -18 -4 -33 -11 -33
-16 0 -4 -14 -10 -31 -14 -30 -6 -32 -26 -3 -26 8 0 14 -7 14 -15 0 -8 -8 -15
-18 -15 -10 0 -22 -4 -28 -9 -5 -6 -26 0 -54 15 -38 21 -40 24 -15 19 17 -4
32 -11 33 -16 4 -10 22 -2 22 10 0 4 -10 12 -23 18 -25 12 -34 53 -11 53 8 0
14 5 14 10 0 13 -13 13 -27 -1 -8 -8 -18 -6 -36 6 -14 9 -31 15 -39 14 -27 -3
-58 1 -58 9 0 4 16 8 35 9 53 2 67 17 48 53 -19 39 -30 38 -41 -2 -6 -22 -16
-34 -34 -39 -21 -5 -25 -4 -21 7 3 8 8 13 11 10 9 -10 42 42 36 58 -4 11 -1
16 10 16 22 0 21 38 -1 42 -11 3 -4 6 15 9 28 5 32 3 26 -14 -4 -11 -1 -23 7
-28 17 -10 40 8 33 26 -3 7 0 32 6 56 12 42 12 43 25 20 l12 -24 15 22 16 22
30 -31 c17 -16 25 -30 19 -30 -7 0 -4 -5 5 -11 12 -7 24 -6 37 1 11 5 28 10
38 9 10 0 13 -3 6 -6 -22 -8 -14 -21 10 -15 20 5 21 4 7 -13 -14 -17 -13 -18
12 -12 22 6 26 4 22 -8 -4 -9 -19 -15 -36 -15 -16 0 -27 4 -24 9 7 10 -17 21
-46 21 -11 0 -18 -5 -16 -12 4 -11 19 -17 98 -35 30 -7 50 -22 50 -37 0 -7 -3
-6 -8 2 -7 10 -15 10 -36 2 -24 -9 -26 -12 -15 -26 12 -15 7 -16 -46 -14 -95
5 -117 -2 -35 -10 46 -4 80 -3 88 3 8 6 17 5 27 -3 14 -11 19 -7 16 13 0 4 6
7 14 7 8 0 15 9 15 20 0 22 10 26 27 9 8 -8 13 -8 17 0 4 6 0 11 -8 11 -9 0
-16 5 -16 10 0 6 4 10 9 10 6 0 13 21 17 46 5 34 10 44 21 40 8 -3 19 -6 24
-6 20 0 7 -30 -16 -36 -16 -4 -25 -13 -25 -26 0 -12 4 -17 12 -12 8 5 9 2 5
-10 -4 -10 -7 -22 -7 -26 0 -5 -16 -26 -36 -47 -37 -40 -59 -73 -48 -73 8 0
39 37 76 93 37 56 49 60 38 13 -8 -39 -7 -35 -75 -141 -67 -102 -135 -233
-135 -260 0 -11 -9 -54 -20 -95 -11 -41 -20 -97 -20 -124 0 -32 -9 -68 -27
-105 -22 -47 -27 -76 -34 -181 -7 -120 -17 -189 -39 -275 -18 -76 -11 -145 16
-145 10 0 14 14 14 50 0 28 5 50 10 50 6 0 10 -21 10 -47 1 -69 14 -115 47
-165 23 -34 35 -43 58 -43 20 -1 31 -6 33 -18 7 -33 18 -16 41 60 17 58 36 95
81 155 33 43 64 96 70 117 15 58 50 131 61 131 16 0 1 -40 -40 -110 -5 -8 -17
-35 -27 -59 -10 -24 -31 -61 -46 -81 -31 -44 -43 -82 -64 -210 -30 -178 -29
-194 1 -266 25 -58 30 -64 57 -64 l31 0 -6 -167 c-6 -201 -20 -283 -49 -283
-14 0 -18 -5 -14 -16 3 -8 2 -12 -4 -9 -5 3 -17 -6 -26 -20 -12 -18 -25 -25
-50 -25 -20 0 -38 -7 -46 -18 -7 -9 -26 -23 -41 -30 -16 -7 -31 -21 -34 -32
-3 -11 -9 -17 -15 -14 -5 3 -31 0 -58 -6 -41 -10 -54 -9 -80 3 -17 9 -28 11
-25 6 4 -5 -8 -9 -24 -9 -29 0 -46 -19 -18 -20 6 -1 -4 -9 -23 -20 -31 -17
-33 -25 -5 -21 6 1 1 -5 -9 -14 -13 -10 -31 -13 -56 -9 -27 4 -41 1 -53 -11
-16 -16 -43 -12 -32 5 9 14 -16 23 -28 11 -15 -15 -27 -14 -27 4 0 8 -7 15
-16 15 -10 0 -14 -6 -11 -15 4 -8 2 -17 -3 -20 -6 -4 -10 -1 -10 4 0 6 -9 11
-20 11 -11 0 -20 5 -20 10 0 6 -15 10 -34 10 -32 0 -35 3 -50 48 -18 56 -53
234 -62 312 -8 79 -10 83 -33 70 -11 -5 -20 -18 -21 -28 0 -9 -2 -63 -3 -118
-2 -84 -5 -106 -21 -123 -21 -23 -46 -28 -46 -8 0 8 -4 7 -10 -3 -9 -13 -11
-13 -19 -1 -7 11 -10 9 -13 -10 -4 -23 -5 -22 -12 6 -4 17 -17 50 -28 74 -11
24 -25 60 -30 80 -29 111 -36 134 -37 116 -2 -37 33 -235 41 -235 14 0 9 -29
-7 -37 -8 -5 -42 -6 -75 -3 -54 5 -60 4 -60 -13 0 -13 -5 -17 -16 -13 -9 3
-25 6 -36 6 -14 0 -18 5 -14 15 3 8 1 16 -4 16 -6 1 -16 2 -22 3 -7 1 -19 -2
-25 -7 -9 -7 -13 -5 -13 6 0 9 -6 20 -13 24 -8 4 -19 17 -26 28 -10 18 -11 16
-5 -10 8 -39 44 -101 90 -156 20 -24 51 -67 69 -94 21 -34 55 -66 102 -98 71
-48 89 -55 95 -36 2 7 12 7 30 -2 18 -8 32 -26 42 -56 9 -27 11 -41 4 -37 -7
5 -9 0 -6 -14 5 -18 2 -20 -29 -16 -25 3 -32 1 -27 -8 5 -8 2 -9 -10 -5 -10 4
-20 7 -22 7 -3 0 -3 3 -1 8 3 4 -6 7 -19 7 -30 0 -39 -21 -12 -29 18 -4 19 -7
8 -20 -11 -14 -9 -16 13 -16 14 0 33 7 41 16 17 16 21 8 7 -14 -10 -16 -88
-24 -113 -11 -12 6 -25 6 -37 -1 -13 -7 -22 -7 -26 0 -3 5 3 10 15 10 12 0 18
4 15 10 -8 13 -55 13 -55 -1 0 -5 -5 -7 -10 -4 -6 4 -10 12 -9 18 3 25 -1 37
-13 37 -7 0 -19 11 -25 25 -7 14 -19 36 -25 50 -16 30 -24 31 -38 5 -11 -21
-7 -24 30 -21 8 0 3 -5 -12 -12 l-28 -13 21 -18 c11 -9 30 -21 42 -26 21 -8
21 -9 -4 -9 -24 -1 -37 8 -94 69 -11 12 -20 29 -20 38 0 9 -8 18 -19 20 -13 3
-16 0 -10 -10 5 -7 9 -19 10 -26 3 -20 45 -96 58 -104 8 -6 8 -10 0 -15 -12
-8 -15 -43 -4 -43 3 0 6 -9 7 -20 1 -12 -4 -20 -13 -20 -22 0 -28 -27 -10 -46
14 -13 14 -19 4 -32 -8 -9 -8 -13 -2 -9 13 8 40 -20 30 -30 -4 -4 -16 -2 -27
5 -11 7 -24 10 -29 7 -5 -3 -11 -1 -14 4 -4 5 -2 12 4 16 5 3 10 11 10 16 0 6
-7 3 -16 -5 -17 -18 -39 -22 -29 -6 3 6 0 10 -7 10 -47 0 -303 174 -330 223
-26 51 -67 92 -138 140 -41 28 -77 53 -80 56 -3 4 -18 12 -34 19 -34 15 -152
84 -181 105 -11 9 -17 18 -13 22 8 8 152 -73 225 -127 29 -21 54 -38 57 -38 2
0 41 -22 85 -50 76 -47 121 -62 121 -40 0 5 -10 15 -23 22 -37 21 -153 151
-177 199 -13 24 -31 56 -41 71 -11 14 -19 34 -19 43 0 14 3 14 26 -4 15 -12
31 -21 35 -21 39 0 -95 296 -173 385 -44 50 -128 191 -128 215 0 8 16 -9 35
-37 30 -45 55 -72 55 -60 0 2 -15 64 -34 138 -19 74 -37 157 -41 184 -7 52
-32 183 -39 206 -2 8 -7 26 -10 41 -5 21 -11 26 -31 24 -21 -3 -24 0 -19 20 4
14 0 29 -9 39 -25 24 -39 18 -21 -10 15 -23 15 -25 -1 -31 -9 -4 -33 2 -53 12
-21 10 -40 20 -45 22 -13 7 16 -52 47 -92 26 -34 66 -131 66 -161 0 -6 -11
-17 -24 -23 -21 -9 -23 -15 -18 -61 3 -30 0 -51 -5 -51 -12 0 -103 114 -103
128 0 6 -3 12 -7 14 -17 7 -102 126 -128 178 -28 57 -88 151 -116 182 -9 10
-33 62 -54 116 -40 104 -62 132 -103 132 l-26 0 30 -32 c17 -18 37 -44 46 -58
22 -37 58 -163 58 -205 0 -20 5 -46 11 -57 8 -15 8 -23 0 -31 -18 -18 -41 3
-60 50 -9 24 -35 58 -59 78 -23 20 -42 40 -42 44 0 5 -24 48 -54 97 -97 162
-126 226 -126 278 0 39 -5 53 -29 77 -34 34 -51 36 -75 10 -16 -18 -16 -22 -2
-49 9 -17 29 -40 45 -51 17 -13 37 -41 47 -69 9 -26 25 -66 35 -89 17 -40 17
-43 1 -52 -35 -18 -92 28 -92 75 0 29 -73 135 -125 181 -78 70 -83 73 -89 56
-3 -8 -6 -22 -6 -30 0 -23 -68 -83 -95 -83 -14 0 -32 13 -50 36 -33 43 -28 76
15 94 16 7 30 16 30 21 0 13 -22 61 -48 103 -18 30 -26 36 -33 25 -12 -20 -11
-29 4 -29 8 0 19 -12 26 -26 10 -23 9 -26 -4 -21 -8 4 -15 2 -15 -2 0 -5 5
-11 12 -13 6 -2 12 -11 13 -19 2 -10 -6 -15 -24 -14 -21 0 -26 5 -24 23 2 17
-2 22 -22 22 -30 0 -32 11 -5 28 17 10 20 10 20 -3 0 -17 16 -20 25 -4 9 13
-27 40 -40 30 -5 -5 -22 -11 -36 -15 -33 -7 -46 -34 -21 -42 45 -15 46 -17 17
-24 l-30 -7 25 -10 25 -11 -25 -10 c-24 -10 -24 -11 9 -11 26 -1 32 -4 27 -17
-5 -13 -2 -15 14 -11 27 7 26 -6 -2 -18 -17 -7 -23 -20 -25 -47 -1 -21 3 -38
8 -38 6 0 7 -4 4 -10 -10 -17 -51 -11 -70 10 -21 23 -35 26 -35 6 0 -8 11 -17
25 -20 36 -9 34 -38 -3 -31 -26 6 -26 6 -8 -9 11 -9 28 -16 38 -16 10 0 18 -5
18 -11 0 -6 -7 -9 -15 -6 -8 4 -17 2 -20 -3 -4 -6 -1 -10 4 -10 6 0 11 -4 11
-10 0 -5 -6 -10 -14 -10 -7 0 -20 -8 -27 -17 -12 -15 -12 -16 6 -11 11 3 27 9
35 12 9 4 24 0 35 -9 19 -14 19 -16 2 -29 -16 -13 -16 -14 5 -28 20 -14 20
-14 -14 -10 -55 6 -57 -21 -6 -71 24 -23 41 -48 40 -54 -2 -7 1 -13 6 -13 5 0
15 -13 22 -30 7 -16 18 -30 26 -30 24 0 27 -23 4 -40 l-23 -17 31 -14 c29 -12
53 -51 29 -46 -6 1 -12 -5 -14 -13 -4 -19 56 -44 81 -34 22 8 20 -2 -5 -29
l-20 -22 21 -3 c12 -2 27 1 33 7 16 16 28 13 25 -6 -2 -12 4 -19 20 -21 17 -3
22 2 22 17 0 12 -5 21 -11 21 -5 0 -8 4 -4 10 3 5 12 7 20 4 10 -4 12 0 8 15
-3 11 -9 19 -13 16 -10 -6 -32 20 -24 28 4 3 19 3 35 0 16 -3 35 0 43 6 12 10
19 8 35 -8 16 -16 18 -21 6 -21 -8 0 -15 -2 -15 -5 0 -14 52 -85 62 -85 7 0 4
-6 -6 -13 -16 -12 -16 -14 7 -39 14 -15 27 -24 30 -21 3 3 11 2 17 -2 8 -5 8
-11 -1 -21 -9 -11 -9 -17 1 -29 6 -8 9 -18 6 -24 -12 -18 13 -61 34 -61 20 0
20 -1 6 -16 -22 -21 -20 -34 4 -34 18 0 25 -11 21 -33 -1 -5 11 -6 27 -3 22 5
33 1 56 -23 16 -17 34 -28 39 -24 6 3 7 1 3 -6 -5 -7 12 -31 43 -61 28 -27 51
-46 51 -42 0 5 -5 13 -12 20 -6 6 -8 15 -4 19 4 4 11 1 16 -7 5 -8 12 -11 15
-8 4 4 -2 17 -14 29 -11 12 -17 27 -14 33 4 7 8 6 11 -2 6 -19 22 -14 22 8 0
11 5 20 10 20 6 0 10 -4 10 -10 0 -13 67 -13 75 0 3 6 -3 10 -14 10 -12 0 -21
6 -21 13 0 9 10 12 30 9 22 -3 30 0 30 11 0 10 6 13 21 10 16 -4 19 -11 15
-29 -7 -27 18 -35 27 -10 10 25 59 -4 53 -29 -3 -12 1 -33 9 -49 19 -36 20
-33 -11 -39 -23 -4 -25 -2 -19 24 9 38 1 37 -24 -6 -11 -19 -24 -35 -28 -34
-20 3 -34 -2 -28 -11 4 -7 13 -6 27 1 13 7 23 8 30 1 7 -7 3 -14 -12 -22 -20
-11 -20 -13 -6 -29 21 -23 20 -37 -1 -20 -15 12 -16 12 -8 -1 18 -33 28 -41
35 -30 5 8 9 6 13 -5 4 -9 3 -13 -3 -10 -22 13 -8 -13 20 -40 17 -16 28 -35
26 -41 -3 -7 2 -18 10 -24 31 -27 12 -29 -21 -3 -33 27 -49 52 -22 37 9 -5 9
-4 0 6 -17 18 -44 5 -36 -17 6 -17 5 -17 -13 0 -19 18 -19 18 4 36 21 15 22
19 8 30 -10 9 -16 9 -16 3 0 -6 -11 -22 -25 -36 l-25 -25 42 -27 c24 -15 70
-45 102 -66 33 -21 62 -38 66 -38 4 0 33 -25 66 -55 32 -30 98 -83 147 -117
48 -35 87 -66 87 -71 0 -11 -128 77 -229 157 -86 69 -148 106 -176 106 -8 0
-15 4 -15 8 0 11 -51 35 -58 27 -3 -3 0 -5 7 -5 7 0 9 -5 6 -10 -4 -6 -1 -9 6
-8 6 2 16 -10 21 -25 13 -35 -4 -57 -43 -57 -25 0 -29 -4 -29 -28 0 -15 -6
-34 -12 -40 -7 -7 -14 -17 -14 -22 -1 -6 -2 -14 -3 -20 0 -5 -8 -10 -17 -10
-13 0 -15 -11 -11 -66 4 -64 3 -66 -32 -101 -21 -21 -31 -38 -24 -40 17 -6
-20 -41 -52 -49 -35 -9 -41 -22 -13 -33 13 -6 19 -10 14 -10 -5 -1 -3 -8 4
-16 15 -18 12 -18 -29 -4 -17 6 -31 14 -31 19 0 4 -9 10 -20 13 -11 3 -20 3
-20 1 0 -8 80 -54 105 -60 17 -4 32 -18 39 -35 11 -26 12 -40 7 -102 -1 -12
-21 -27 -57 -44 -65 -29 -91 -28 -244 12 -52 14 -176 44 -275 66 -99 23 -187
45 -195 49 -8 5 -83 20 -165 35 -106 19 -156 33 -171 47 -26 24 -85 34 -112
19 -17 -9 -42 -6 -118 14 -103 27 -150 31 -174 15 -13 -9 -12 -12 5 -25 33
-26 85 -34 166 -28 66 5 86 3 128 -16 27 -11 69 -21 93 -21 41 0 179 -31 278
-63 25 -8 86 -22 135 -30 104 -18 212 -47 305 -81 64 -24 103 -37 107 -37 14
1 82 -37 107 -60 17 -16 34 -29 37 -29 15 0 17 -31 3 -45 -12 -11 -12 -15 -2
-15 19 0 33 13 33 30 0 10 8 14 23 12 12 -2 22 2 22 7 0 6 -4 11 -10 11 -5 0
-10 5 -10 11 0 5 10 3 22 -5 23 -17 74 -21 103 -9 15 5 15 8 -6 24 -35 26 -16
34 38 17 42 -14 52 -14 93 0 25 8 57 24 72 34 16 11 32 17 38 13 18 -11 120
53 120 76 0 5 -18 13 -40 19 -22 6 -40 13 -40 16 0 3 10 2 23 -2 25 -9 266 -6
281 3 5 3 0 13 -10 22 -11 9 -28 27 -39 41 -15 19 -11 17 18 -8 42 -36 59 -39
77 -17 7 8 27 15 44 15 28 -1 56 -9 171 -53 22 -8 65 -23 95 -32 30 -10 60
-22 65 -28 19 -19 -66 4 -201 53 -114 42 -138 48 -154 37 -11 -6 -20 -15 -20
-19 0 -4 -15 -19 -34 -33 -32 -24 -37 -25 -96 -16 -67 11 -95 5 -140 -32 -15
-12 -36 -27 -46 -33 -17 -10 -17 -11 5 -17 16 -4 21 -2 17 8 -3 9 8 16 37 20
23 4 47 11 52 15 21 16 56 22 53 9 -2 -9 9 -12 37 -10 53 3 107 20 100 32 -4
5 4 10 17 11 65 5 104 2 110 -7 4 -5 22 -15 40 -21 22 -7 33 -17 33 -30 0 -13
7 -19 23 -19 33 -1 46 -28 32 -69 -6 -18 -8 -40 -5 -48 4 -9 2 -19 -4 -23 -6
-3 -14 0 -17 9 -7 18 -35 30 -31 14 2 -14 -88 -18 -115 -6 -9 5 -20 4 -23 -2
-3 -5 1 -10 10 -10 8 0 20 -12 26 -26 10 -27 4 -47 -9 -29 -7 11 -48 35 -57
35 -4 0 -4 -4 -1 -9 7 -10 -17 -21 -45 -21 -12 0 -19 7 -19 20 0 29 -15 25
-16 -5 -1 -14 3 -25 9 -25 6 0 4 -8 -6 -17 -14 -14 -20 -15 -41 -3 -14 7 -23
17 -20 21 15 25 -106 48 -144 27 -17 -9 -25 -9 -34 0 -13 13 25 31 70 33 17 1
6 6 -27 13 -30 6 -56 17 -59 24 -2 6 -17 12 -33 12 -16 0 -29 5 -29 12 0 6 3
8 7 5 3 -4 16 -1 27 7 12 7 36 17 54 20 17 4 32 12 32 17 0 13 -24 11 -39 -4
-11 -10 -12 -9 -6 2 6 11 3 13 -13 9 -12 -4 -20 -2 -16 3 8 14 1 11 -69 -21
-35 -16 -91 -36 -123 -43 -69 -17 -181 -62 -201 -83 -8 -8 -19 -14 -24 -14 -5
0 -9 -6 -9 -14 0 -8 -13 -19 -30 -25 -16 -5 -30 -14 -30 -20 0 -12 -57 -98
-81 -122 -38 -38 -151 -120 -266 -193 -97 -62 -128 -76 -155 -74 -26 1 -46 -7
-80 -33 -26 -19 -70 -47 -99 -64 -29 -16 -78 -53 -108 -82 -39 -35 -93 -69
-173 -108 -65 -31 -118 -60 -118 -65 0 -22 22 -17 79 20 95 62 157 90 198 91
68 2 88 12 85 41 -5 41 37 64 110 60 52 -2 61 1 83 24 14 15 25 33 25 39 0 24
181 133 362 218 149 70 185 82 202 68 15 -13 27 -4 19 15 -3 8 4 15 19 18 12
2 49 9 80 16 32 6 77 9 100 5 24 -3 68 -7 98 -9 82 -6 150 -17 150 -26 0 -4
-20 -16 -44 -26 -24 -10 -42 -22 -40 -26 5 -8 42 4 99 33 l40 21 55 -36 c91
-59 95 -62 93 -86 -2 -29 -10 -34 -105 -66 -44 -14 -78 -31 -78 -39 0 -7 -10
-16 -22 -20 -19 -6 -20 -8 -6 -12 9 -2 36 6 59 17 55 29 137 53 150 45 6 -5 5
-15 -5 -31 -21 -31 -20 -37 5 -29 26 9 89 -21 89 -42 0 -9 -21 -37 -48 -62
-83 -80 -177 -193 -180 -218 -2 -13 -17 -33 -36 -45 -17 -11 -48 -47 -68 -78
-21 -31 -53 -68 -73 -81 -19 -13 -35 -27 -35 -31 0 -9 -98 -125 -151 -179 -61
-61 -207 -169 -229 -169 -10 0 -20 -7 -23 -14 -3 -8 -23 -20 -45 -25 -21 -6
-55 -26 -74 -45 -32 -31 -36 -41 -41 -101 l-5 -67 -78 -80 c-44 -44 -116 -111
-161 -150 -46 -38 -83 -74 -83 -79 0 -23 34 -3 106 64 204 186 250 218 285
196 8 -5 25 -9 39 -9 32 0 100 70 100 103 0 13 8 33 18 46 31 42 107 111 122
111 8 0 31 16 51 36 37 36 37 36 49 15 6 -13 13 -81 15 -159 2 -75 6 -145 10
-155 4 -9 5 -36 1 -60 -7 -49 -22 -588 -20 -727 2 -136 14 -409 20 -447 5 -35
28 -44 38 -16 4 9 9 289 12 622 3 333 9 647 14 696 5 50 10 122 10 162 0 48 4
73 13 76 9 4 9 6 0 6 -9 1 -13 18 -13 50 l0 49 91 76 c50 42 121 92 157 112
37 20 90 51 117 69 70 45 78 47 190 50 107 2 193 21 263 58 l42 22 65 -23 c35
-12 74 -22 86 -22 27 0 86 -36 99 -60 17 -31 11 -53 -25 -99 -52 -66 -47 -76
45 -83 28 -2 37 -8 45 -32 9 -25 6 -31 -21 -55 -34 -29 -34 -58 -1 -63 15 -2
31 -20 50 -58 36 -72 32 -118 -16 -191 -112 -170 -140 -205 -184 -238 -26 -20
-62 -59 -80 -86 -17 -28 -45 -68 -62 -91 -37 -49 -38 -54 -8 -54 46 0 105 52
155 136 42 70 164 237 198 272 9 9 15 9 20 1 4 -7 12 0 19 18 23 54 77 100 87
74 5 -14 54 32 72 68 24 46 56 63 113 59 l48 -3 0 -50 c0 -27 -4 -56 -9 -62
-13 -20 22 -28 61 -14 30 11 37 11 55 -6 17 -15 19 -26 14 -75 -6 -58 7 -87
20 -46 7 23 31 47 47 48 15 0 47 -85 47 -128 0 -27 -9 -60 -25 -90 -32 -60
-31 -78 4 -125 l29 -38 3 -382 c1 -210 3 -411 3 -447 1 -36 -3 -136 -7 -222
l-8 -158 34 0 c33 0 34 2 46 55 7 33 10 81 6 122 -10 108 12 1019 25 1043 15
28 30 22 51 -21 36 -69 88 -581 96 -936 l6 -263 36 0 36 0 2 502 c2 511 6 634
25 700 24 82 87 104 131 45 86 -113 90 -150 92 -722 1 -264 3 -490 4 -502 1
-20 6 -23 44 -23 l44 0 6 148 c4 81 11 338 17 572 10 379 13 432 31 486 23 71
69 148 97 163 45 24 47 6 48 -423 1 -349 3 -406 18 -438 13 -31 16 -76 16
-273 0 -204 2 -235 15 -235 14 0 15 33 15 254 -1 212 1 260 14 285 14 27 14
37 2 98 -10 45 -17 172 -22 378 -6 297 -5 314 16 405 12 52 29 102 38 110 26
23 42 66 49 131 7 68 24 85 64 66 15 -8 27 -25 31 -47 35 -167 40 -231 50
-640 9 -402 5 -537 -18 -618 -5 -18 -2 -24 15 -29 21 -5 21 -10 21 -199 l0
-194 23 0 22 0 0 312 c1 623 1 975 1 1058 -1 102 4 158 17 184 6 12 5 32 -4
58 -11 34 -10 52 5 126 17 86 37 132 56 132 6 0 10 -10 10 -22 0 -13 4 -30 9
-37 8 -12 11 -10 15 10 3 13 7 39 8 58 3 28 10 38 40 53 42 22 61 17 115 -35
21 -20 37 -27 49 -23 15 6 15 9 -7 32 -13 14 -48 40 -76 57 -29 18 -53 36 -53
42 0 5 9 25 20 43 11 18 20 41 20 52 0 21 27 40 57 40 10 0 30 12 44 28 14 15
38 33 53 41 24 13 30 13 56 -3 25 -14 30 -15 30 -3 0 8 11 18 24 21 14 3 34
19 45 35 13 18 35 32 54 36 17 4 38 12 45 18 9 7 20 6 38 -2 14 -6 33 -11 42
-11 31 0 47 -31 46 -91 -2 -108 -15 -244 -25 -271 -14 -35 13 -133 41 -148 30
-16 58 -12 80 13 25 26 21 69 -9 102 -14 14 -21 41 -26 95 -3 41 -9 95 -12
120 -5 39 -7 42 -14 20 -5 -17 -7 -20 -8 -7 -1 10 3 27 9 37 7 13 6 22 -3 32
-17 17 -30 51 -16 43 5 -4 18 3 28 14 l19 21 113 -36 c129 -41 278 -108 296
-131 12 -16 67 -28 58 -13 -3 4 2 13 10 20 8 7 15 19 15 26 0 17 5 17 32 3 19
-10 20 -9 13 7 -5 11 -10 38 -13 61 -3 36 0 44 22 58 35 23 99 24 123 2 11 -9
25 -17 32 -17 7 0 65 -26 128 -57 108 -52 124 -64 225 -165 100 -101 108 -106
108 -80 0 20 -7 33 -24 41 -21 12 -52 58 -44 67 2 1 21 -8 43 -21 22 -13 58
-34 80 -46 22 -12 58 -37 81 -55 50 -41 88 -48 92 -18 2 16 -7 27 -33 43 -20
11 -43 21 -51 21 -25 0 -86 36 -153 91 -35 28 -103 76 -150 107 -147 94 -231
175 -231 223 0 23 44 36 64 20 19 -16 61 -28 181 -51 112 -22 129 -24 121 -11
-3 4 -39 14 -79 20 -41 7 -105 22 -143 35 -38 13 -91 27 -119 31 -55 8 -64 15
-58 49 7 33 46 48 140 52 63 3 102 -2 176 -21 161 -42 283 -84 302 -105 11
-12 31 -20 50 -20 59 0 266 -76 328 -121 45 -32 78 -37 98 -13 15 19 63 12 91
-12 22 -21 15 -34 -18 -34 -37 0 -25 -21 29 -50 25 -14 63 -43 83 -63 41 -40
70 -53 103 -42 24 7 36 44 27 77 -8 32 -75 76 -126 84 -23 4 -54 17 -68 28
-35 29 -145 73 -202 81 -55 8 -462 154 -805 291 -61 24 -185 33 -185 13 0 -15
-53 -9 -97 11 -48 21 -53 40 -23 72 14 16 17 25 9 34 -14 17 2 46 33 62 13 7
50 20 83 31 l60 19 -30 13 c-43 20 -61 40 -68 76 -5 26 -3 31 8 26 25 -9 47
17 41 49 -3 15 -1 28 4 28 18 0 31 39 20 60 -9 16 -13 18 -24 8 -8 -7 -12 -16
-9 -20 2 -5 0 -8 -6 -8 -6 0 -15 9 -21 21 -9 16 -8 24 5 39 9 10 12 21 7 24
-5 3 -10 29 -10 58 0 35 -5 55 -15 63 -9 6 -15 18 -15 26 2 36 -2 50 -14 43
-7 -4 -5 2 5 13 24 27 22 33 -18 76 -38 40 -48 62 -14 31 18 -16 22 -17 30 -4
22 38 30 45 36 33 2 -7 13 -13 24 -13 20 0 26 -15 9 -25 -18 -11 -11 -25 13
-25 13 0 17 -3 10 -8 -6 -4 10 -8 35 -9 50 -2 72 9 72 36 -1 18 -50 59 -50 41
0 -6 -5 -8 -10 -5 -6 4 -8 16 -4 28 6 19 5 20 -10 8 -9 -7 -16 -20 -16 -27 0
-8 -4 -14 -10 -14 -11 0 -2 29 16 50 7 9 20 32 29 53 8 20 20 37 25 37 6 0 10
6 10 13 0 21 47 60 62 51 7 -4 10 -4 6 1 -10 11 174 146 191 140 8 -3 11 0 8
9 -3 8 4 22 15 33 15 12 19 13 14 3 -4 -8 -1 -7 8 3 10 13 21 17 35 12 16 -5
20 -3 15 10 -4 10 -13 14 -22 10 -12 -5 -12 -1 3 15 19 21 30 27 20 10 -8 -12
-8 -13 40 4 41 14 62 39 26 29 -12 -3 -21 -1 -21 6 0 6 6 11 13 11 14 0 31 27
42 68 4 12 11 22 16 22 5 0 9 9 9 20 0 23 15 27 24 5 9 -24 -4 -45 -28 -45
-16 0 -18 -2 -7 -9 9 -6 24 -6 38 0 32 12 32 12 26 -13 -4 -19 -3 -20 6 -8 14
20 14 26 -5 45 -12 11 -13 19 -5 29 13 15 5 26 -21 26 -10 0 -18 5 -18 11 0 5
5 7 10 4 6 -4 18 -1 27 7 15 11 16 11 10 -4 -3 -10 -2 -18 3 -18 10 0 14 13
11 43 -2 10 8 21 21 26 13 6 20 10 16 10 -4 1 -3 14 2 29 6 23 4 31 -11 40
-11 7 -19 18 -19 25 0 8 4 7 10 -3 7 -11 8 -2 4 28 -4 28 -3 42 5 42 6 0 11
-8 11 -19 0 -10 7 -24 15 -31 18 -15 19 -3 5 35 -8 22 -7 25 8 23 12 -2 17 4
18 22 1 43 4 50 16 47 16 -3 45 73 30 82 -6 4 -8 12 -3 20 11 18 31 5 31 -20
0 -11 7 -19 16 -19 10 0 14 5 10 15 -3 8 -9 22 -12 30 -4 10 0 15 10 15 9 0
16 7 16 16 0 11 -6 14 -21 9 -16 -5 -20 -3 -17 6 3 8 15 13 28 11 20 -2 21 0
9 15 -12 15 -12 16 5 10 14 -6 17 -4 12 8 -3 9 -2 13 4 10 6 -3 10 -1 10 6 0
8 4 8 13 2 6 -6 24 -13 40 -17 18 -4 27 -13 27 -26 0 -11 7 -20 15 -20 16 0
10 29 -9 43 -8 5 -6 10 4 16 14 10 70 -15 70 -31 0 -4 5 -8 12 -8 9 0 9 3 0
12 -7 7 -12 16 -12 20 0 15 80 8 106 -8 17 -12 28 -14 36 -6 6 6 21 7 39 2 17
-5 27 -5 24 0 -8 13 9 20 56 25 38 4 53 13 62 39 4 12 43 -1 63 -21 14 -14 16
-14 21 6 3 11 9 21 14 21 5 0 2 -15 -7 -32 l-16 -33 23 25 c13 13 24 27 25 30
11 68 148 175 276 216 32 9 74 31 93 47 63 52 35 107 -37 72 -18 -8 -70 -49
-115 -89 -45 -41 -91 -77 -102 -81 -12 -3 -18 -11 -15 -17 4 -6 1 -9 -7 -6 -8
3 -22 1 -32 -4 -30 -15 -63 -1 -77 32 -16 39 -8 57 59 132 28 31 51 59 51 62
0 3 -13 6 -30 6 -24 0 -30 4 -30 21 0 11 5 30 11 42 13 25 170 187 181 187 5
0 25 15 46 34 20 19 50 46 65 59 16 14 27 28 25 31 -9 18 46 70 117 112 99 58
125 81 125 111 0 46 -58 16 -131 -68 -29 -34 -76 -78 -103 -99 -28 -20 -82
-66 -121 -102 -83 -76 -197 -156 -234 -163 -30 -6 -98 -23 -125 -32 -13 -4
-17 -2 -12 5 9 15 -73 -32 -107 -62 -30 -26 -33 -56 -7 -63 12 -4 12 -3 2 5
-14 9 -8 15 23 22 6 1 16 6 22 12 7 6 20 8 28 4 8 -3 15 -1 15 4 0 6 7 10 15
10 8 0 15 -4 15 -10 0 -5 17 -10 38 -11 20 0 30 -3 22 -6 -8 -2 -21 -6 -28 -9
-11 -3 -10 -7 2 -20 9 -8 16 -20 16 -25 0 -17 -51 -14 -62 4 -5 8 -9 6 -13 -5
-4 -9 -13 -14 -21 -11 -10 3 -11 10 -4 23 9 17 4 30 -12 30 -4 0 -8 -9 -8 -19
0 -11 -4 -23 -10 -26 -5 -3 -10 -17 -10 -30 0 -18 -4 -22 -20 -18 -14 4 -20 0
-20 -11 0 -12 -7 -14 -30 -10 -22 5 -31 2 -36 -10 -3 -9 -16 -16 -28 -16 -13
0 -36 -15 -54 -36 -18 -20 -37 -34 -44 -32 -6 2 -20 -4 -30 -14 -10 -10 -27
-18 -38 -18 -11 0 -19 -5 -17 -12 1 -6 -7 -14 -18 -16 -30 -6 -41 -20 -27 -34
16 -16 15 -28 -3 -28 -8 0 -15 -5 -15 -10 0 -6 -12 -23 -26 -37 l-27 -27 -19
24 c-11 13 -28 29 -40 34 -31 17 -55 63 -40 78 9 9 17 10 30 2 13 -9 21 -8 30
2 10 11 10 14 -3 14 -10 0 -15 10 -15 30 0 23 5 30 19 30 11 0 36 16 57 35 26
24 41 32 48 25 16 -16 25 -12 19 10 -4 14 0 20 11 20 10 0 15 4 11 9 -3 5 0
13 6 16 5 4 8 13 6 20 -7 16 55 45 82 38 14 -3 21 -1 19 6 -2 6 17 21 41 33
59 30 64 48 14 48 -72 0 -80 36 -32 133 17 34 41 73 53 86 11 13 16 21 9 17
-8 -4 -15 2 -19 18 -6 26 11 66 48 107 13 14 48 54 78 90 30 35 77 87 104 116
29 32 43 54 35 55 -8 0 -18 2 -24 3 -5 2 -16 3 -23 4 -7 0 -10 5 -7 11 3 5 0
7 -7 5 -12 -5 -108 -128 -117 -150 -17 -42 -241 -224 -262 -213 -3 2 -14 -3
-23 -11 -25 -21 -103 -24 -114 -5 -7 13 -14 10 -41 -15 -36 -34 -54 -40 -45
-16 16 39 -9 7 -53 -71 -54 -97 -108 -159 -158 -180 -19 -8 -79 -39 -135 -69
-82 -45 -105 -53 -121 -45 -22 12 -44 3 -71 -29 -11 -13 -24 -18 -35 -15 -13
4 -14 3 -5 -3 19 -14 -5 -31 -56 -39 -43 -7 -48 -3 -43 34 1 8 -3 20 -9 27 -8
10 -7 21 4 44 9 16 16 36 16 43 0 8 15 18 33 23 29 9 32 13 29 43 -4 37 9 56
51 82 16 10 36 32 45 51 18 34 21 36 90 65 23 9 47 23 53 31 9 11 2 13 -40 13
-87 0 -66 33 72 111 45 25 82 50 84 56 2 5 -14 9 -36 9 -23 0 -37 -4 -34 -10
3 -5 1 -6 -5 -2 -7 4 -12 13 -12 21 0 14 100 90 158 119 40 21 76 13 69 -15
-7 -27 3 -24 62 21 30 21 59 41 65 43 27 10 -3 15 -44 7 -25 -5 -47 -6 -50 -3
-5 5 24 29 44 36 6 2 8 8 3 12 -4 5 -18 2 -32 -5 -61 -33 -34 28 29 65 25 14
51 36 59 49 10 15 30 25 55 30 22 3 45 13 52 21 18 22 0 19 -72 -10 -56 -23
-98 -32 -98 -21 0 8 44 80 75 123 16 23 72 74 124 113 52 39 117 92 145 117
61 55 119 85 155 81 16 -1 50 11 84 30 31 18 63 32 71 32 7 0 19 6 25 14 6 8
35 24 64 36 44 19 49 24 32 30 -31 12 -65 0 -131 -47 -73 -51 -130 -76 -157
-69 -11 3 -32 -1 -46 -8 -14 -8 -37 -17 -50 -21 -22 -7 -23 -5 -17 19 7 30
-13 36 -34 11 -12 -14 -40 -21 -40 -9 0 3 14 25 30 49 27 39 88 92 201 175 18
14 45 36 59 50 l25 25 -22 3 c-38 6 -26 34 46 107 38 38 66 75 64 83 -7 16 59
123 102 168 23 23 32 40 28 54 -11 40 -45 13 -72 -57 -20 -51 -62 -124 -88
-151 -6 -6 -15 -22 -19 -34 -3 -12 -16 -30 -28 -40 -11 -9 -18 -17 -14 -18 9
0 -63 -70 -72 -70 -18 0 -230 -224 -275 -290 -109 -160 -175 -210 -200 -152
-5 12 -12 22 -15 22 -3 0 -25 -27 -49 -60 -63 -88 -161 -165 -176 -140 -9 15
-19 12 -45 -10 -28 -24 -58 -26 -67 -4 -8 22 15 122 30 127 9 3 9 8 0 18 -28
29 -15 68 43 129 31 33 54 64 52 70 -2 6 -27 -12 -56 -42 -28 -29 -52 -46 -52
-38 0 8 -8 -1 -19 -20 -21 -40 -54 -47 -59 -13 -2 12 4 35 12 52 9 16 22 56
30 89 11 49 11 61 0 77 -7 10 -11 22 -8 27 3 5 1 14 -5 21 -5 7 -7 18 -3 24
12 19 76 53 100 53 27 0 118 73 127 101 4 11 -3 36 -16 58 l-22 40 23 55 c21
52 21 56 5 72 -17 17 -17 25 1 113 4 19 23 57 43 85 32 44 33 49 14 44 -12 -3
-30 0 -40 7 -15 12 -16 17 -5 32 23 34 24 44 6 64 -17 19 -17 21 4 65 12 24
22 53 22 64 0 10 5 22 11 26 14 8 53 94 46 100 -3 3 -25 -23 -49 -58 -24 -35
-48 -63 -53 -63 -6 0 -11 16 -13 36 -3 30 4 44 41 87 23 28 64 67 89 86 25 20
95 95 155 167 59 72 137 166 173 210 146 176 462 548 520 612 58 63 166 147
189 147 65 0 250 162 337 296 70 108 78 140 52 194 -20 40 -22 41 -57 35 -109
-20 -198 -96 -309 -265 -42 -63 -93 -136 -114 -161 -21 -25 -54 -77 -72 -115
-20 -41 -65 -104 -110 -154 -41 -47 -116 -137 -165 -201 -161 -206 -299 -360
-545 -602 -260 -257 -385 -368 -457 -406 -52 -28 -75 -24 -85 15 -4 15 -15 35
-25 45 -15 15 -18 15 -23 3 -3 -9 -10 -13 -15 -10 -21 13 -40 -9 -67 -76 -27
-67 -32 -73 -108 -124 -75 -50 -82 -53 -103 -39 -29 19 -39 19 -23 0 7 -8 9
-15 5 -15 -4 0 -3 -6 2 -12 13 -17 14 -96 2 -103 -5 -4 -6 -17 -3 -31 5 -19 2
-24 -12 -24 -16 0 -17 -2 -4 -10 13 -9 7 -14 -12 -11 -8 1 -10 -6 -12 -39 -1
-8 -15 -24 -33 -35 -18 -11 -32 -28 -33 -38 0 -9 -9 -25 -20 -34 -11 -10 -16
-21 -11 -27 5 -6 11 -22 13 -36 3 -14 9 -33 13 -42 6 -14 2 -18 -16 -18 -24
-1 -24 -1 -4 -17 18 -14 18 -15 1 -9 -23 8 -46 -10 -47 -38 0 -20 -1 -20 -9
-1 -7 18 -9 17 -20 -12 -10 -28 -16 -32 -36 -27 -37 9 -75 -4 -72 -24 2 -11
-3 -16 -15 -14 -23 4 -47 -21 -47 -48 0 -13 -5 -20 -12 -17 -7 2 -21 0 -30 -4
-16 -9 -16 -12 2 -52 36 -79 22 -103 -45 -77 -24 9 -27 15 -23 50 2 23 0 36
-6 30 -12 -12 -16 -51 -15 -135 0 -38 0 -91 -1 -117 0 -25 7 -70 16 -98 21
-65 10 -91 -61 -131 -45 -26 -56 -28 -110 -23 -52 5 -62 4 -79 -14 -15 -17
-21 -19 -31 -8 -18 17 -24 53 -35 195 -5 68 -11 126 -14 129 -14 13 -16 -10
-7 -79 5 -41 12 -118 16 -172 6 -94 5 -99 -14 -104 -12 -3 -21 -9 -21 -14 0
-5 -11 -9 -24 -9 -16 0 -27 -7 -31 -20 -4 -12 -15 -20 -29 -20 -12 0 -38 -9
-59 -19 l-37 -19 -15 52 c-18 58 -35 214 -36 328 0 43 -5 81 -10 84 -21 13 -5
-222 27 -397 l16 -85 -34 -35 c-18 -19 -46 -51 -63 -72 -30 -38 -52 -49 -41
-22 7 20 -4 75 -16 75 -5 0 -9 -15 -8 -32 1 -18 2 -39 1 -45 -1 -16 -35 -17
-62 -3 -23 13 -26 58 -4 66 24 10 17 22 -12 26 -21 2 -29 9 -31 27 -2 15 0 21
7 17 16 -10 13 0 -5 18 -8 9 -11 16 -5 16 6 0 11 4 11 9 0 14 -40 25 -75 22
-26 -3 -27 -1 -16 13 11 13 11 19 0 33 -12 15 -12 16 4 10 11 -4 17 -2 17 7 0
7 9 21 20 31 11 10 24 32 29 49 5 19 14 30 22 28 8 -2 11 0 7 3 -4 4 -3 16 3
26 7 15 6 19 -6 19 -8 0 -15 -4 -15 -10 0 -12 -40 -13 -57 -2 -18 11 -5 75 21
104 28 32 48 68 38 68 -4 0 -12 -4 -18 -10 -6 -6 -25 -4 -54 4 -44 14 -44 14
-20 24 25 11 25 11 2 11 -12 1 -25 8 -29 17 -4 11 -13 14 -29 10 -14 -4 -24
-2 -24 4 0 5 5 10 10 10 6 0 10 5 10 10 0 6 -8 10 -17 10 -17 1 -17 1 0 11 17
10 18 12 1 30 -9 10 -20 16 -25 13 -14 -8 -21 43 -9 65 7 14 7 21 0 21 -17 0
-11 28 8 40 16 9 16 11 -4 28 -13 11 -18 23 -13 32 12 24 22 54 21 63 -1 4 7
7 18 7 11 0 20 5 20 10 0 6 -6 9 -12 8 -7 -2 -13 4 -13 12 0 8 5 14 12 13 17
-3 28 16 43 77 17 73 42 118 60 112 11 -3 12 -2 4 8 -9 9 -6 18 12 37 13 15
22 28 19 31 -7 7 23 58 83 138 55 75 62 98 36 108 -24 9 -46 7 -39 -3 3 -5 1
-12 -5 -16 -13 -8 -13 0 1 48 8 30 15 38 28 34 10 -2 18 1 18 9 0 7 -5 12 -11
11 -5 -1 -12 7 -14 17 -3 14 0 17 12 13 20 -8 20 -3 1 16 -12 13 -9 15 26 21
32 5 40 10 35 22 -3 9 -6 18 -6 20 0 3 -5 2 -12 -2 -7 -4 -8 -3 -4 4 4 7 13
12 20 12 7 0 20 8 29 18 13 14 14 21 5 30 -9 9 -6 12 15 12 19 0 31 7 38 24 7
14 17 22 25 19 8 -3 14 1 14 11 0 9 8 16 20 16 13 0 24 10 31 28 6 15 21 36
35 47 18 15 26 33 29 67 3 26 10 56 17 67 9 15 9 28 -1 60 -13 44 -29 51 -57
24 -17 -17 -18 -17 -11 0 3 9 2 17 -3 17 -15 0 -12 37 4 52 11 10 11 21 1 59
-11 41 -11 49 4 64 15 15 15 17 -3 31 -11 8 -16 14 -10 14 5 0 4 4 -2 8 -6 4
-14 17 -18 30 -6 16 -3 22 8 22 11 0 16 9 16 26 0 23 -2 25 -15 14 -19 -16
-27 -8 -31 27 -11 95 -17 123 -25 123 -5 0 -9 4 -9 10 0 5 3 9 8 9 20 -3 32 2
32 16 0 8 -4 15 -10 15 -5 0 -10 7 -10 15 0 8 5 15 11 15 5 0 7 5 4 11 -4 6 3
21 15 34 12 12 23 29 24 36 2 14 38 76 54 95 5 5 16 26 25 45 45 99 99 207
114 230 10 15 28 42 41 60 18 26 14 24 -18 -11 -23 -25 -52 -65 -65 -90 -37
-75 -96 -180 -153 -275 -30 -49 -68 -113 -84 -141 -33 -59 -52 -79 -69 -69
-29 19 29 264 80 340 16 22 34 50 40 63 12 22 11 23 -7 13 -11 -6 -22 -8 -24
-5 -9 8 -27 -21 -88 -138 -71 -135 -76 -122 -25 81 19 77 35 148 35 158 0 11
12 43 26 72 23 45 25 58 16 86 -7 24 -6 50 3 92 32 149 78 297 100 323 17 19
23 72 10 77 -6 2 -18 -2 -27 -9z m-278 -2326 c0 -5 -7 -17 -15 -28 -14 -18
-14 -17 -4 9 12 27 19 34 19 19z m-44 -79 c-10 -10 -19 5 -10 18 6 11 8 11 12
0 2 -7 1 -15 -2 -18z m-31 7 c3 -5 1 -10 -4 -10 -6 0 -11 5 -11 10 0 6 2 10 4
10 3 0 8 -4 11 -10z m-75 -195 c0 -8 -4 -15 -10 -15 -5 0 -7 7 -4 15 4 8 8 15
10 15 2 0 4 -7 4 -15z m-954 -132 c-10 -10 -19 5 -10 18 6 11 8 11 12 0 2 -7
1 -15 -2 -18z m858 -33 c-6 -6 -10 -3 -10 10 0 13 4 16 10 10 7 -7 7 -13 0
-20z m-37 -6 c-3 -3 -12 -4 -19 -1 -8 3 -5 6 6 6 11 1 17 -2 13 -5z m-8 -68
c-23 -40 -37 -44 -17 -5 21 39 30 51 34 46 3 -2 -5 -21 -17 -41z m-524 -86
c-3 -5 -12 -10 -18 -10 -7 0 -6 4 3 10 19 12 23 12 15 0z m474 -11 c-6 -12 -9
-30 -6 -40 3 -10 1 -17 -4 -13 -5 3 -17 0 -26 -5 -16 -9 -15 -11 7 -11 24 -1
24 -2 4 -10 -12 -4 -24 -16 -28 -25 -3 -10 -12 -15 -21 -11 -9 3 -20 -3 -27
-14 -14 -21 -38 -27 -38 -9 0 15 33 69 42 69 4 0 8 8 8 18 1 23 19 45 50 59
41 19 53 16 39 -8z m-399 -29 c0 -5 -5 -10 -11 -10 -5 0 -7 5 -4 10 3 6 8 10
11 10 2 0 4 -4 4 -10z m-390 -30 c6 -11 7 -20 2 -20 -6 0 -12 9 -15 20 -3 11
-3 20 -1 20 2 0 8 -9 14 -20z m310 0 c11 -11 16 -20 12 -20 -4 0 -13 5 -18 10
-22 22 -44 -1 -44 -44 -1 -31 -3 -37 -10 -24 -15 25 -8 70 12 76 10 2 18 8 18
13 0 14 8 11 30 -11z m80 -20 c0 -5 -2 -10 -4 -10 -3 0 -8 5 -11 10 -3 6 -1
10 4 10 6 0 11 -4 11 -10z m79 -19 c21 -14 -4 -22 -33 -11 -14 5 -26 12 -26
15 0 8 44 5 59 -4z m156 -11 c-3 -5 -10 -10 -16 -10 -5 0 -9 5 -9 10 0 6 7 10
16 10 8 0 12 -4 9 -10z m-427 -20 c-14 -22 -24 -19 -15 5 4 8 11 15 17 15 6 0
6 -7 -2 -20z m392 16 c0 -3 -4 -8 -10 -11 -5 -3 -10 -1 -10 4 0 6 5 11 10 11
6 0 10 -2 10 -4z m180 -11 c0 -8 -4 -15 -10 -15 -5 0 -10 7 -10 15 0 8 5 15
10 15 6 0 10 -7 10 -15z m-246 -20 c-4 -8 -7 -15 -9 -15 -2 0 -5 7 -9 15 -3 9
0 15 9 15 9 0 12 -6 9 -15z m216 -5 c0 -5 -4 -10 -9 -10 -6 0 -13 5 -16 10 -3
6 1 10 9 10 9 0 16 -4 16 -10z m-20 -37 c-1 -14 -40 -56 -47 -49 -10 9 18 56
34 56 7 0 13 -3 13 -7z m-593 -49 c-3 -3 -12 -4 -19 -1 -8 3 -5 6 6 6 11 1 17
-2 13 -5z m-67 -44 c0 -5 -4 -10 -10 -10 -5 0 -10 5 -10 10 0 6 5 10 10 10 6
0 10 -4 10 -10z m12 -35 c7 4 5 0 -4 -8 -10 -8 -18 -19 -18 -26 0 -6 -5 -11
-11 -11 -6 0 -9 7 -6 15 4 8 2 17 -4 20 -5 4 -7 11 -3 16 4 6 11 6 19 -1 8 -7
20 -9 27 -5z m966 -8 c7 -8 7 -18 2 -27 -8 -13 -10 -12 -10 3 0 9 -4 17 -10
17 -5 0 -10 5 -10 10 0 14 16 12 28 -3z m-778 -63 c0 -10 -12 -14 -42 -13 -25
1 -33 4 -20 6 21 4 22 6 7 17 -14 10 -11 12 19 8 22 -3 36 -10 36 -18z m-100
6 c0 -5 -7 -10 -15 -10 -8 0 -15 5 -15 10 0 6 7 10 15 10 8 0 15 -4 15 -10z
m863 -7 c-7 -2 -19 -2 -25 0 -7 3 -2 5 12 5 14 0 19 -2 13 -5z m-574 -34 c-16
-10 -23 -4 -14 10 3 6 11 8 17 5 6 -4 5 -9 -3 -15z m561 1 c0 -5 -4 -10 -10
-10 -5 0 -10 5 -10 10 0 6 5 10 10 10 6 0 10 -4 10 -10z m-780 -20 c0 -13 -11
-13 -30 0 -12 8 -11 10 8 10 12 0 22 -4 22 -10z m-85 -10 c-3 -5 -10 -10 -16
-10 -5 0 -9 5 -9 10 0 6 7 10 16 10 8 0 12 -4 9 -10z m-55 -16 c0 -8 -19 -13
-24 -6 -3 5 1 9 9 9 8 0 15 -2 15 -3z m75 -23 c3 -5 1 -12 -5 -16 -5 -3 -10 1
-10 9 0 18 6 21 15 7z m199 -20 c3 -4 -8 -8 -24 -7 -17 1 -30 2 -30 3 0 1 3 8
6 17 5 12 11 13 24 6 11 -6 21 -14 24 -19z m-169 -11 c3 -5 -1 -10 -10 -10 -9
0 -13 5 -10 10 3 6 8 10 10 10 2 0 7 -4 10 -10z m85 0 c0 -5 -11 -10 -25 -10
-14 0 -25 5 -25 10 0 6 11 10 25 10 14 0 25 -4 25 -10z m-230 -20 c6 -11 8
-20 6 -20 -3 0 -10 9 -16 20 -6 11 -8 20 -6 20 3 0 10 -9 16 -20z m115 0 c6
-1 -3 -6 -19 -10 -30 -9 -46 -6 -46 10 0 7 16 7 65 0z m-115 -40 c0 -5 -5 -10
-11 -10 -5 0 -7 5 -4 10 3 6 8 10 11 10 2 0 4 -4 4 -10z m51 -7 c12 -15 12
-16 -4 -10 -10 4 -23 7 -28 7 -6 0 -7 5 -4 10 9 15 21 12 36 -7z m-26 -52 c-6
-5 -25 10 -25 20 0 5 6 4 14 -3 8 -7 12 -15 11 -17z m42 -7 c-3 -3 -12 -4 -19
-1 -8 3 -5 6 6 6 11 1 17 -2 13 -5z m1437 -230 c20 -19 20 -70 2 -126 -21 -67
-36 -133 -56 -257 -17 -103 -17 -117 -4 -151 14 -35 14 -43 -5 -105 -12 -37
-18 -71 -15 -76 9 -14 24 -10 24 6 0 9 7 30 16 47 12 22 19 27 27 19 14 -14
27 -14 27 0 0 24 63 65 83 52 6 -4 19 -8 27 -10 8 -1 16 -7 18 -12 2 -6 10
-11 17 -11 7 0 20 -11 29 -25 9 -13 25 -29 36 -35 16 -9 23 -4 46 35 32 55 44
103 33 133 -6 16 -5 24 5 28 9 4 12 16 9 35 -2 16 0 29 5 29 6 0 13 11 16 25
4 16 11 22 21 19 9 -4 15 0 15 10 0 10 9 16 24 16 13 0 35 9 50 21 28 22 46
18 46 -11 0 -25 16 -34 24 -14 5 13 9 14 20 5 11 -9 13 -27 9 -67 -4 -36 -2
-54 5 -54 7 0 9 11 6 28 -4 20 0 32 11 42 16 13 17 11 10 -28 -4 -28 -3 -42 4
-42 6 0 11 -7 11 -16 0 -10 6 -14 14 -11 18 7 38 -16 31 -35 -3 -8 -1 -27 4
-41 9 -24 16 -27 60 -27 32 0 51 -5 54 -14 4 -11 -2 -12 -33 -5 -41 9 -114
-11 -91 -25 7 -4 17 -3 24 2 9 8 20 5 37 -9 21 -17 22 -19 5 -15 -11 3 -26 2
-34 -3 -11 -7 -9 -10 7 -15 11 -4 22 -12 25 -19 5 -13 -2 -14 -68 -17 -36 -2
-50 -20 -15 -20 22 0 27 -15 8 -24 -9 -3 -7 -10 7 -21 19 -16 18 -16 -17 -10
l-38 7 0 -37 c0 -31 -3 -36 -19 -30 -25 8 -35 -9 -16 -25 21 -18 8 -32 -24
-25 -20 4 -32 0 -50 -19 -13 -14 -21 -31 -18 -39 3 -8 1 -20 -4 -28 -7 -11 -9
-12 -9 0 0 10 -9 12 -36 6 -26 -4 -40 -2 -46 7 -6 9 -8 3 -6 -18 4 -26 1 -30
-14 -26 -14 3 -16 7 -7 18 8 9 8 14 1 14 -6 0 -14 -4 -17 -10 -3 -5 -12 -10
-18 -10 -8 0 -8 3 -2 8 6 4 17 16 25 26 14 18 14 19 -8 5 -12 -8 -25 -25 -29
-37 -3 -13 -8 -20 -12 -14 -3 5 -37 -24 -75 -65 -69 -74 -69 -74 -71 -137 -2
-34 -6 -89 -10 -122 -5 -51 -4 -64 13 -84 l19 -24 54 27 c81 39 131 87 211
201 84 119 108 147 119 140 4 -2 -15 -35 -43 -72 -68 -90 -124 -207 -109 -226
18 -22 44 -9 128 62 99 84 142 131 194 210 39 58 65 80 57 48 -6 -27 -167
-212 -240 -277 -191 -168 -278 -294 -367 -531 -22 -58 -54 -126 -70 -151 -17
-25 -31 -51 -31 -59 0 -8 -5 -19 -12 -26 -7 -7 -8 -12 -4 -12 13 0 144 68 201
105 120 76 137 86 130 76 -13 -22 -166 -130 -267 -189 -90 -53 -231 -172 -203
-172 11 1 118 35 150 48 94 40 209 101 253 134 29 23 55 38 58 35 3 -3 -22
-26 -57 -51 -79 -58 -161 -99 -359 -179 -322 -132 -341 -140 -405 -189 -83
-63 -260 -151 -287 -142 -12 4 -18 2 -14 -4 5 -8 -22 -19 -69 -27 -5 -1 -17
-4 -25 -8 -33 -12 -60 -15 -66 -6 -3 5 -17 9 -32 9 -20 0 -23 3 -13 9 8 5 11
16 8 25 -4 9 -1 16 5 16 6 0 9 2 6 5 -3 4 -18 3 -32 -1 -15 -3 -24 -9 -21 -12
3 -3 -4 -16 -16 -28 -18 -19 -24 -21 -40 -11 -22 14 -26 29 -5 21 8 -3 16 4
20 19 3 13 18 36 33 51 18 19 23 30 15 34 -8 6 -3 24 17 64 20 39 25 60 18 67
-7 7 -1 12 17 17 17 4 25 12 22 20 -3 8 6 15 24 19 17 4 38 17 49 31 10 13 27
24 37 25 18 0 17 1 -1 9 -11 5 -14 9 -6 9 8 1 11 7 7 17 -4 12 -1 14 14 9 16
-5 19 -3 13 11 -5 14 -3 16 11 11 9 -4 15 -3 12 2 -3 5 11 26 32 47 20 22 47
53 60 70 12 16 38 48 58 70 41 44 29 57 -26 29 -18 -9 -34 -14 -37 -11 -6 6
-83 -34 -83 -44 0 -4 -12 -5 -26 -2 -19 3 -22 7 -12 13 10 7 10 9 -2 10 -8 1
-21 1 -27 0 -7 -1 -13 3 -13 9 0 5 -9 10 -20 10 -11 0 -20 7 -20 15 0 9 -9 15
-25 15 -19 0 -25 5 -25 23 0 18 -2 19 -11 7 -8 -12 -9 -9 -4 10 8 32 77 173
89 182 5 3 11 14 12 23 3 19 25 47 32 40 3 -2 -1 -11 -8 -20 -8 -9 -8 -15 -2
-15 17 0 41 40 35 59 -4 12 -3 13 5 2 7 -10 14 -10 29 -2 21 11 53 53 53 71 0
5 20 36 44 68 52 68 64 103 42 121 -13 11 -20 9 -45 -8 -41 -29 -55 -27 -47 7
4 15 9 61 13 102 4 62 2 78 -11 89 -14 12 -16 11 -16 -5 0 -9 6 -33 13 -52 9
-28 9 -36 0 -39 -8 -3 -11 -15 -8 -31 3 -15 2 -20 -2 -12 -3 8 -13 21 -21 29
-13 13 -14 11 -7 -18 5 -24 4 -31 -4 -27 -6 4 -11 18 -11 32 0 16 -7 27 -22
33 -17 6 -23 17 -24 42 -2 62 -4 69 -17 69 -20 0 -14 70 7 82 43 24 95 196
106 353 l7 100 1 -97 c1 -53 -3 -131 -9 -173 -9 -59 -9 -78 1 -90 32 -39 77 1
66 59 -5 27 -4 29 8 14 19 -25 27 -23 69 20 43 44 85 144 147 354 24 81 46
146 47 144 2 -1 -8 -50 -21 -107 -12 -57 -21 -110 -18 -116 6 -19 40 -15 46 5
3 10 20 22 37 27 41 13 83 72 114 160 29 83 30 79 9 -33 -19 -104 -13 -129 22
-87 40 48 54 82 69 159 8 39 26 117 41 171 22 83 25 114 21 179 -4 61 -2 85
10 103 18 27 26 28 47 7z m-4594 -94 c0 -5 -7 -10 -15 -10 -8 0 -15 5 -15 10
0 6 7 10 15 10 8 0 15 -4 15 -10z m3718 -201 c-24 -34 -53 -76 -65 -94 -26
-38 -28 -40 -68 -49 l-30 -7 32 23 c18 13 51 48 74 78 44 57 90 110 96 110 2
0 -16 -28 -39 -61z m1412 -29 c0 -5 -5 -10 -11 -10 -5 0 -7 5 -4 10 3 6 8 10
11 10 2 0 4 -4 4 -10z m-723 -92 c-3 -7 -5 -2 -5 12 0 14 2 19 5 13 2 -7 2
-19 0 -25z m-3820 -26 c22 -37 23 -43 9 -48 -9 -3 -27 -3 -41 0 -19 5 -25 13
-25 35 0 37 10 63 22 59 6 -2 21 -23 35 -46z m-607 28 c0 -5 -4 -10 -10 -10
-5 0 -10 5 -10 10 0 6 5 10 10 10 6 0 10 -4 10 -10z m35 -40 c-3 -5 -10 -10
-16 -10 -5 0 -9 5 -9 10 0 6 7 10 16 10 8 0 12 -4 9 -10z m5225 -10 c0 -5 -2
-10 -4 -10 -3 0 -8 5 -11 10 -3 6 -1 10 4 10 6 0 11 -4 11 -10z m52 -56 c-24
-17 -39 -14 -27 5 3 6 16 11 28 11 l21 0 -22 -16z m-712 -9 c-7 -9 -15 -13
-17 -11 -7 7 7 26 19 26 6 0 6 -6 -2 -15z m747 -36 c1 -15 -2 -19 -13 -15 -9
3 -18 6 -20 6 -12 0 -1 19 14 23 9 3 17 5 17 6 1 0 1 -8 2 -20z m1730 -15 c-3
-3 -12 -4 -19 -1 -8 3 -5 6 6 6 11 1 17 -2 13 -5z m-6742 -68 c8 -7 11 -16 8
-19 -5 -6 -33 17 -33 27 0 10 11 7 25 -8z m5790 -13 c-5 -75 -64 -207 -118
-265 -39 -42 -48 -45 -71 -22 -12 12 -16 12 -17 2 0 -10 -2 -10 -6 0 -2 6 -9
12 -15 12 -12 0 -73 50 -61 50 4 0 0 5 -10 11 -9 5 -23 7 -30 3 -33 -20 36 44
91 83 45 33 222 146 238 152 1 1 1 -11 -1 -26z m-2208 -25 c-3 -8 -6 -5 -6 6
-1 11 2 17 5 13 3 -3 4 -12 1 -19z m3043 -48 c0 -5 -7 -10 -16 -10 -8 0 -12 5
-9 10 3 6 10 10 16 10 5 0 9 -4 9 -10z m-40 -32 c0 -6 -7 -5 -15 2 -8 7 -15
17 -15 22 0 6 7 5 15 -2 8 -7 15 -17 15 -22z m-540 -98 c0 -5 -2 -10 -4 -10
-3 0 -8 5 -11 10 -3 6 -1 10 4 10 6 0 11 -4 11 -10z m-30 -84 c0 -3 -4 -8 -10
-11 -5 -3 -10 -1 -10 4 0 6 5 11 10 11 6 0 10 -2 10 -4z m-30 -22 c0 -8 -4
-12 -10 -9 -5 3 -10 10 -10 16 0 5 5 9 10 9 6 0 10 -7 10 -16z m68 -26 c-7
-19 -38 -22 -38 -4 0 10 9 16 21 16 12 0 19 -5 17 -12z m26 -37 c4 -5 -3 -7
-14 -4 -23 6 -26 13 -6 13 8 0 17 -4 20 -9z m453 -7 c-3 -3 -12 -4 -19 -1 -8
3 -5 6 6 6 11 1 17 -2 13 -5z m-489 -49 c-7 -7 -12 -6 -15 3 -3 6 -11 12 -19
12 -9 0 -13 4 -10 9 4 5 16 4 31 -2 17 -8 21 -15 13 -22z m-5378 -35 c0 -5 -2
-10 -4 -10 -3 0 -8 5 -11 10 -3 6 -1 10 4 10 6 0 11 -4 11 -10z m5385 -40
c-10 -11 -20 -18 -23 -15 -7 6 18 35 31 35 5 0 2 -9 -8 -20z m-2545 -200 c0
-5 -7 -7 -15 -4 -8 4 -15 8 -15 10 0 2 7 4 15 4 8 0 15 -4 15 -10z m2420 1 c0
-5 -9 -7 -20 -4 -11 3 -20 7 -20 9 0 2 9 4 20 4 11 0 20 -4 20 -9z m9 -145
c-9 -8 -10 -7 -5 7 3 10 7 24 7 30 1 7 3 4 6 -7 3 -10 -1 -23 -8 -30z m-769
-116 c0 -5 -5 -10 -11 -10 -5 0 -7 5 -4 10 3 6 8 10 11 10 2 0 4 -4 4 -10z
m-50 -19 c0 -5 10 -11 21 -14 17 -5 20 -11 17 -32 -7 -33 6 -41 30 -17 18 18
23 18 70 -7 12 -6 22 -7 22 -3 0 5 12 15 28 23 15 7 30 15 33 16 11 7 30 -50
20 -60 -7 -7 -7 -16 0 -29 8 -15 7 -24 -5 -37 -9 -10 -16 -22 -16 -28 0 -6 -9
-13 -20 -16 -13 -3 -18 -10 -14 -21 6 -16 -5 -21 -35 -16 -8 1 -20 -5 -27 -14
-6 -9 -26 -18 -45 -21 -19 -3 -28 -3 -21 1 6 3 12 12 12 21 0 8 -3 13 -7 11
-5 -2 -21 -10 -38 -17 -68 -30 -75 -35 -75 -47 0 -9 -10 -12 -30 -10 -24 3
-30 0 -30 -15 0 -14 -7 -19 -25 -19 -28 0 -49 -37 -39 -65 4 -9 0 -15 -9 -15
-10 0 -18 -14 -22 -41 -7 -38 -8 -39 -25 -24 -16 15 -18 14 -23 -7 -4 -12 -1
-28 4 -35 8 -9 7 -17 -4 -28 -20 -20 -24 -19 -38 6 -8 16 -8 23 1 29 8 5 9 10
2 14 -6 3 -17 -1 -26 -10 -18 -18 -38 -10 -29 11 3 9 -1 15 -9 15 -8 0 -25 14
-38 32 l-23 31 20 17 c11 9 24 30 27 48 6 23 11 29 23 25 12 -5 14 -3 8 7 -6
10 -4 12 7 7 21 -8 94 54 169 143 28 34 89 135 89 148 0 6 9 16 20 22 11 6 18
15 15 21 -4 5 3 9 14 9 12 0 21 -4 21 -9z m299 -17 c3 -16 1 -17 -13 -5 -19
16 -21 34 -3 29 6 -3 14 -13 16 -24z m-37 -19 c0 -5 -5 -11 -11 -13 -6 -2 -11
4 -11 13 0 9 5 15 11 13 6 -2 11 -8 11 -13z m-1722 -370 c-6 -8 -20 -17 -29
-20 -10 -3 -23 -15 -28 -28 -6 -12 -32 -46 -58 -75 -45 -50 -115 -93 -215
-132 -39 -16 -279 -142 -325 -172 -26 -17 -25 -15 7 14 37 34 321 218 337 218
4 0 16 10 27 21 29 33 180 138 208 145 14 3 32 14 42 25 21 23 53 27 34 4z
m-1216 -214 c-8 -8 -104 97 -104 112 1 7 25 -15 55 -47 30 -33 52 -62 49 -65z
m-1717 22 c-6 -6 -76 21 -72 27 3 4 20 1 40 -8 19 -9 33 -17 32 -19z m-270
-59 c-3 -3 -12 -4 -19 -1 -8 3 -5 6 6 6 11 1 17 -2 13 -5z m1877 -14 c-10 -4
-26 -5 -34 -2 -11 4 -8 8 10 12 31 8 51 -1 24 -10z m-646 -70 c133 -68 216
-119 209 -127 -6 -5 -286 144 -322 171 -39 30 -2 15 113 -44z m3482 50 c0 -5
-21 -9 -47 -9 -47 2 -47 2 -13 9 52 11 60 11 60 0z m-2985 -10 c3 -5 -1 -10
-9 -10 -8 0 -18 5 -21 10 -3 6 1 10 9 10 8 0 18 -4 21 -10z m-1443 -126 c13
-8 9 -25 -4 -23 -30 4 -58 -2 -58 -11 0 -5 10 -10 22 -10 38 0 15 -7 -44 -14
-50 -5 -58 -4 -58 10 0 13 6 15 30 11 16 -4 32 -2 35 3 3 6 -1 10 -10 10 -24
0 -7 20 18 21 21 0 21 1 2 10 -14 7 -9 8 20 3 22 -3 43 -8 47 -10z m2228 -28
c0 -2 -8 -10 -17 -17 -16 -13 -17 -12 -4 4 13 16 21 21 21 13z m-1755 -16 c3
-5 -3 -10 -15 -10 -12 0 -18 5 -15 10 3 6 10 10 15 10 5 0 12 -4 15 -10z
m-445 -25 c0 -8 -4 -15 -10 -15 -5 0 -10 7 -10 15 0 8 5 15 10 15 6 0 10 -7
10 -15z m3779 -22 c28 8 49 11 46 7 -8 -13 -93 -33 -117 -27 -13 4 -32 13 -43
21 -17 13 -14 13 21 0 38 -15 47 -15 93 -1z m-3449 0 c-8 -3 -18 -11 -22 -17
-4 -6 -10 -7 -15 -3 -9 10 16 27 37 26 13 -1 13 -1 0 -6z m665 -3 c-14 -6 1
-9 48 -9 68 -1 154 -17 171 -32 14 -13 -61 -22 -121 -15 -34 4 -68 2 -88 -5
-28 -11 -37 -9 -66 9 -33 20 -41 20 -204 12 -94 -5 -197 -16 -230 -25 -33 -8
-71 -14 -85 -14 -43 1 119 37 235 53 160 21 205 25 205 15 0 -5 5 -9 11 -9 5
0 8 3 5 8 -2 4 14 6 36 4 22 -3 45 1 51 7 6 6 20 11 32 10 20 0 20 0 0 -9z
m2702 -46 c-3 -3 -12 -4 -19 -1 -8 3 -5 6 6 6 11 1 17 -2 13 -5z m-47 -13
c-25 -15 -136 -41 -171 -41 -32 1 -33 1 -15 15 12 9 44 15 80 16 34 0 70 4 81
9 26 11 44 12 25 1z m-3299 -36 c-18 -8 -38 -15 -45 -15 -15 1 46 28 64 29 8
0 0 -6 -19 -14z m-397 -11 c33 -8 65 -20 71 -25 12 -12 6 -12 -62 6 -31 8 -84
15 -118 16 -45 1 -54 3 -35 9 40 13 78 11 144 -6z m326 -14 c-8 -5 -19 -10
-25 -10 -5 0 -3 5 5 10 8 5 20 10 25 10 6 0 3 -5 -5 -10z m-73 -31 c-16 -12
-26 -14 -34 -7 -18 15 -8 25 26 25 l29 0 -21 -18z m3114 -1 c-23 -11 -68 -22
-100 -24 -64 -5 -54 2 39 27 88 23 116 22 61 -3z m-3036 -69 c-4 -5 2 -9 13
-9 21 0 72 -66 72 -92 0 -22 -37 -33 -56 -17 -11 9 -14 22 -9 45 5 27 1 36
-20 52 -14 12 -31 22 -37 24 -6 2 -8 10 -4 16 5 9 13 9 27 2 11 -6 17 -15 14
-21z m2951 -18 c5 -5 17 -11 28 -13 14 -2 7 -9 -25 -25 -24 -12 -46 -19 -49
-16 -3 3 0 8 6 10 6 2 20 10 30 18 18 13 18 14 -6 24 -14 5 -18 10 -9 10 8 1
19 -3 25 -8z m1205 -9 c-9 -16 -71 -30 -71 -16 0 13 35 33 58 34 19 0 21 -3
13 -18z m-202 -8 c3 -3 -1 -10 -7 -16 -8 -8 -7 -15 6 -24 16 -12 15 -13 -5
-14 -12 0 -30 -3 -40 -6 -13 -4 -15 -3 -4 4 14 10 7 51 -13 65 -6 5 5 5 24 1
19 -3 37 -8 39 -10z m-2315 -70 c8 -21 4 -18 -39 28 l-40 41 37 -27 c20 -15
39 -34 42 -42z m2380 42 c-8 -20 -18 -20 -34 -1 -11 13 -10 14 3 10 8 -4 18
-1 22 5 10 16 17 6 9 -14z m-1943 -28 c-22 -24 -52 -56 -66 -73 -21 -24 -24
-25 -15 -7 13 27 102 122 114 122 4 0 -10 -19 -33 -42z m1829 22 c0 -5 -6 -10
-14 -10 -8 0 -18 5 -21 10 -3 6 3 10 14 10 12 0 21 -4 21 -10z m-2460 -55 c17
-9 30 -18 30 -21 0 -2 -10 1 -22 7 -12 6 -33 15 -47 20 -17 5 -20 8 -8 8 10 1
31 -6 47 -14z m244 -41 c5 -14 4 -15 -9 -4 -17 14 -19 20 -6 20 5 0 12 -7 15
-16z m968 -11 c12 -11 44 -19 91 -23 l72 -6 -60 -9 c-33 -5 -94 -9 -135 -7
-52 1 -70 -1 -60 -8 13 -8 12 -10 -3 -10 -10 0 -21 8 -24 18 -4 9 -14 22 -22
29 -14 10 -14 12 1 18 9 4 25 2 35 -2 10 -5 34 -10 53 -10 19 -1 27 1 17 4 -9
2 -15 9 -12 14 9 14 26 11 47 -8z m-152 -33 c0 -12 -8 -12 -35 0 -18 8 -17 9
8 9 15 1 27 -3 27 -9z m410 0 c0 -12 -8 -12 -35 0 -18 8 -17 9 8 9 15 1 27 -3
27 -9z m-533 -76 c-15 -8 -40 -14 -55 -12 -23 3 -21 5 18 15 62 15 69 15 37
-3z m-147 -38 c-14 -7 -36 -16 -50 -20 -18 -5 -16 -1 10 13 19 10 42 19 50 20
8 0 4 -6 -10 -13z"/>
<path d="M6247 4888 c-10 -39 9 -191 28 -228 9 -18 14 -38 11 -46 -3 -9 2 -15
14 -15 11 -1 25 -2 32 -3 7 -1 22 15 33 35 11 20 43 53 70 74 28 21 58 46 68
56 10 11 25 19 33 19 8 0 12 5 9 10 -3 6 0 10 8 10 17 0 51 36 40 43 -4 2 -32
5 -60 6 -48 2 -53 0 -53 -20 0 -18 -3 -19 -15 -9 -8 6 -19 9 -25 5 -6 -3 -36
-3 -68 1 -31 4 -51 9 -44 11 6 3 10 9 6 14 -10 16 -22 10 -27 -13 -3 -21 -5
-20 -16 10 -7 17 -17 32 -21 32 -5 0 -10 8 -12 18 -3 12 -6 10 -11 -10z"/>
<path d="M6595 4870 c-3 -6 1 -7 9 -4 18 7 21 14 7 14 -6 0 -13 -4 -16 -10z"/>
<path d="M6043 4855 c-3 -9 -3 -18 0 -22 10 -10 37 6 37 22 0 20 -29 20 -37 0z"/>
<path d="M6623 4805 c0 -8 4 -12 9 -9 5 3 6 10 3 15 -9 13 -12 11 -12 -6z"/>
<path d="M5517 4523 c-4 -3 -7 -11 -7 -17 0 -6 5 -5 12 2 6 6 9 14 7 17 -3 3
-9 2 -12 -2z"/>
<path d="M6585 4312 c-40 -25 -58 -49 -51 -67 8 -21 17 -19 46 9 39 37 59 64
53 70 -9 9 -16 7 -48 -12z"/>
<path d="M6514 4185 c-10 -14 -24 -25 -31 -25 -7 0 -13 -7 -13 -15 0 -22 35
-3 56 31 22 33 12 41 -12 9z"/>
<path d="M5840 3991 c0 -5 5 -13 10 -16 6 -3 10 -2 10 4 0 5 -4 13 -10 16 -5
3 -10 2 -10 -4z"/>
<path d="M5735 3785 c-22 -19 -35 -34 -30 -34 11 0 43 26 64 52 20 26 10 21
-34 -18z"/>
<path d="M5375 3080 c-3 -5 -1 -10 4 -10 6 0 11 5 11 10 0 6 -2 10 -4 10 -3 0
-8 -4 -11 -10z"/>
<path d="M6636 9429 c-35 -80 -28 -87 8 -8 15 33 26 63 23 65 -2 3 -16 -23
-31 -57z"/>
<path d="M6595 9330 c-4 -12 -5 -24 -2 -27 3 -2 8 5 12 17 4 12 5 24 2 27 -3
2 -8 -5 -12 -17z"/>
<path d="M6551 9231 c-10 -22 -28 -56 -41 -75 -12 -20 -17 -36 -11 -36 6 0 17
12 23 28 7 15 19 38 28 52 16 24 32 70 24 70 -2 0 -12 -18 -23 -39z"/>
<path d="M6232 9136 c-11 -14 -27 -38 -35 -53 -14 -28 -31 -113 -23 -113 15 0
59 62 76 108 31 83 24 106 -18 58z"/>
<path d="M6436 9068 c-13 -18 -22 -36 -19 -41 3 -6 12 2 20 17 7 14 18 26 22
26 5 0 11 7 15 15 10 26 -12 16 -38 -17z"/>
<path d="M5765 9050 c-17 -33 -19 -73 -5 -99 13 -26 15 -82 6 -181 -5 -47 -5
-82 -2 -79 4 4 9 37 12 75 6 95 22 171 40 189 25 24 30 82 9 105 -25 28 -42
25 -60 -10z"/>
<path d="M1480 8941 c0 -5 5 -13 10 -16 6 -3 10 -2 10 4 0 5 -4 13 -10 16 -5
3 -10 2 -10 -4z"/>
<path d="M8600 8904 c-83 -75 -101 -144 -39 -144 38 0 129 85 129 121 -1 59
-39 69 -90 23z"/>
<path d="M8421 8709 c-69 -42 -156 -137 -198 -218 -19 -35 -16 -36 22 -2 20
17 48 34 63 37 43 10 104 49 150 97 47 48 51 71 17 93 -18 12 -25 11 -54 -7z"/>
<path d="M5027 8503 c-21 -20 22 -103 53 -103 11 0 5 41 -11 71 -11 22 -35 40
-42 32z"/>
<path d="M8069 8363 c-122 -127 -221 -226 -266 -265 -24 -20 -43 -42 -43 -48
0 -6 5 -8 10 -5 6 3 10 1 10 -4 0 -6 -9 -11 -19 -11 -17 0 -37 -27 -28 -37 8
-7 86 62 82 73 -2 6 2 11 10 10 11 -1 134 106 305 264 49 45 67 79 49 91 -25
16 -36 9 -110 -68z m-269 -297 c0 -3 -4 -8 -10 -11 -5 -3 -10 -1 -10 4 0 6 5
11 10 11 6 0 10 -2 10 -4z"/>
<path d="M7692 8348 c-7 -7 -12 -18 -12 -25 0 -7 -4 -13 -10 -13 -5 0 -10 -4
-10 -10 0 -21 17 -8 32 25 17 39 17 40 0 23z"/>
<path d="M4806 8305 c-22 -22 -30 -81 -18 -123 7 -21 13 -46 15 -57 4 -30 57
90 57 129 -1 28 -19 66 -33 66 -3 0 -12 -7 -21 -15z"/>
<path d="M8427 8113 c-4 -3 -7 -15 -7 -25 0 -26 24 -17 28 10 3 21 -8 29 -21
15z"/>
<path d="M5196 8032 c-2 -4 -1 -14 5 -22 7 -12 9 -10 9 8 0 23 -5 28 -14 14z"/>
<path d="M4687 7723 c-9 -8 -9 -50 -1 -80 5 -18 8 -20 19 -9 15 14 18 28 16
69 -1 25 -19 36 -34 20z"/>
<path d="M7995 7679 c-4 -6 -5 -12 -2 -15 2 -3 7 2 10 11 7 17 1 20 -8 4z"/>
<path d="M5110 7670 c0 -5 5 -10 11 -10 5 0 7 5 4 10 -3 6 -8 10 -11 10 -2 0
-4 -4 -4 -10z"/>
<path d="M4681 7584 c0 -11 3 -14 6 -6 3 7 2 16 -1 19 -3 4 -6 -2 -5 -13z"/>
<path d="M4882 7490 c0 -14 2 -19 5 -12 2 6 2 18 0 25 -3 6 -5 1 -5 -13z"/>
<path d="M8276 7468 c-31 -52 -20 -61 31 -25 60 42 66 58 20 55 -26 -2 -40
-10 -51 -30z"/>
<path d="M7996 7455 c-11 -30 -6 -40 11 -22 12 12 14 20 6 28 -7 7 -12 6 -17
-6z"/>
<path d="M8184 7442 c-28 -10 -67 -31 -85 -46 -59 -49 -55 -55 23 -34 99 26
128 43 128 73 0 29 0 29 -66 7z"/>
<path d="M4583 7350 c-9 -13 -9 -21 -2 -26 12 -7 29 13 29 34 0 18 -14 15 -27
-8z"/>
<path d="M5010 7290 c0 -5 5 -10 10 -10 6 0 10 5 10 10 0 6 -4 10 -10 10 -5 0
-10 -4 -10 -10z"/>
<path d="M8045 7290 c-3 -5 -1 -10 4 -10 6 0 11 5 11 10 0 6 -2 10 -4 10 -3 0
-8 -4 -11 -10z"/>
<path d="M4672 7223 c1 -18 6 -33 10 -33 11 0 10 32 -2 50 -8 11 -10 7 -8 -17z"/>
<path d="M9130 6996 c-19 -13 -48 -41 -65 -62 -16 -21 -43 -53 -59 -71 -15
-18 -26 -33 -23 -33 3 0 35 13 71 30 121 54 183 109 169 148 -8 20 -56 14 -93
-12z"/>
<path d="M8021 6947 c-13 -23 -18 -37 -10 -30 19 16 52 73 42 73 -4 0 -19 -19
-32 -43z"/>
<path d="M3060 6776 c0 -9 5 -16 10 -16 6 0 10 4 10 9 0 6 -4 13 -10 16 -5 3
-10 -1 -10 -9z"/>
<path d="M7910 6770 c-6 -11 -8 -20 -6 -20 3 0 10 9 16 20 6 11 8 20 6 20 -3
0 -10 -9 -16 -20z"/>
<path d="M3045 6710 c3 -5 8 -10 11 -10 2 0 4 5 4 10 0 6 -5 10 -11 10 -5 0
-7 -4 -4 -10z"/>
<path d="M6127 6702 c-8 -9 -29 -47 -45 -83 -16 -36 -42 -85 -57 -108 -39 -63
-26 -58 22 7 23 31 50 66 60 77 50 56 73 88 73 106 0 24 -31 25 -53 1z"/>
<path d="M3060 6686 c0 -2 7 -17 15 -32 16 -30 19 -25 9 14 -5 18 -24 33 -24
18z"/>
<path d="M8020 6664 c0 -8 5 -12 10 -9 6 3 10 10 10 16 0 5 -4 9 -10 9 -5 0
-10 -7 -10 -16z"/>
<path d="M8861 6599 c-13 -11 -21 -22 -18 -25 9 -9 47 16 47 31 0 19 0 19 -29
-6z"/>
<path d="M6676 6594 c-5 -14 -4 -15 9 -4 17 14 19 20 6 20 -5 0 -12 -7 -15
-16z"/>
<path d="M5035 6470 c3 -5 8 -10 11 -10 2 0 4 5 4 10 0 6 -5 10 -11 10 -5 0
-7 -4 -4 -10z"/>
<path d="M5900 6469 c0 -5 5 -7 10 -4 6 3 10 8 10 11 0 2 -4 4 -10 4 -5 0 -10
-5 -10 -11z"/>
<path d="M5031 6434 c0 -11 3 -14 6 -6 3 7 2 16 -1 19 -3 4 -6 -2 -5 -13z"/>
<path d="M4970 6380 c0 -5 9 -10 21 -10 11 0 17 5 14 10 -3 6 -13 10 -21 10
-8 0 -14 -4 -14 -10z"/>
<path d="M5041 6300 c0 -22 24 -50 43 -50 9 0 16 7 16 15 0 8 -7 15 -16 15 -9
0 -23 8 -30 18 -11 14 -13 14 -13 2z"/>
<path d="M1200 6245 c0 -18 17 -20 22 -4 3 8 10 5 21 -6 10 -9 21 -15 24 -11
9 9 -28 35 -49 36 -10 0 -18 -7 -18 -15z"/>
<path d="M1330 6240 c-8 -5 -11 -12 -7 -16 4 -4 13 -2 19 4 15 15 7 24 -12 12z"/>
<path d="M5040 6234 c0 -8 5 -12 10 -9 6 4 8 11 5 16 -9 14 -15 11 -15 -7z"/>
<path d="M1350 6213 c0 -7 5 -13 11 -13 8 0 8 -4 0 -14 -8 -10 -9 -16 -1 -21
5 -3 10 -3 10 0 0 3 10 -3 22 -15 24 -22 18 -41 -7 -20 -8 7 -15 8 -15 2 0 -5
7 -15 16 -23 14 -11 14 -13 -1 -22 -9 -5 -19 -6 -22 -3 -4 3 -1 6 5 6 7 0 12
5 12 10 0 6 -16 10 -35 10 -27 0 -37 -6 -49 -27 -8 -16 -15 -22 -16 -15 0 6
-11 12 -25 12 -29 0 -32 -8 -9 -24 14 -10 11 -16 -18 -49 -26 -27 -39 -35 -56
-30 -12 3 -22 1 -22 -5 0 -5 7 -9 17 -8 10 0 19 -9 23 -25 7 -23 5 -26 -11
-22 -11 3 -19 12 -19 19 0 8 -3 14 -7 14 -14 0 -56 -50 -49 -58 4 -3 10 -1 14
5 4 6 15 7 30 2 27 -10 29 -29 3 -29 -28 0 -78 -21 -63 -27 6 -3 12 -11 12
-18 0 -8 10 -19 21 -26 21 -11 21 -12 -10 -26 -39 -19 -40 -33 -3 -33 15 0 33
-5 40 -12 15 -15 16 -48 1 -48 -5 0 -7 -4 -4 -10 3 -5 17 -10 31 -10 13 0 24
-4 24 -9 0 -13 -36 -20 -51 -10 -19 12 -69 11 -69 -1 0 -16 51 -33 63 -21 7 7
16 6 28 -5 24 -21 60 -3 52 26 -5 17 0 20 26 20 21 0 31 -5 31 -15 0 -25 29
-17 36 10 8 33 -3 75 -20 75 -14 0 -30 29 -21 38 3 3 5 0 5 -7 0 -8 5 -7 16 4
12 12 13 19 5 29 -9 10 -9 16 -1 21 6 3 8 10 5 15 -3 5 5 12 19 16 26 6 63 40
53 50 -3 3 -14 1 -25 -5 -24 -13 -72 -15 -72 -3 0 8 49 32 67 32 7 0 13 5 13
10 0 6 9 19 21 31 22 22 59 18 59 -7 0 -12 19 -19 43 -15 4 0 7 -3 7 -9 0 -6
-4 -10 -10 -10 -21 0 -9 -16 34 -45 24 -16 42 -33 39 -37 -5 -9 29 -10 51 -2
9 3 13 10 10 15 -3 5 -10 6 -16 3 -7 -4 -8 -2 -4 4 4 6 -6 18 -24 27 -28 15
-30 19 -30 73 0 69 -34 132 -96 178 -22 16 -51 42 -66 59 -15 16 -27 24 -28
18z m92 -135 c-5 -5 -20 -8 -33 -5 -22 4 -21 4 4 6 19 1 26 5 21 13 -5 7 -3 8
5 3 8 -5 9 -11 3 -17z m58 -32 c0 -3 -4 -8 -10 -11 -5 -3 -10 -1 -10 4 0 6 5
11 10 11 6 0 10 -2 10 -4z m-100 -41 c0 -1 -11 -5 -24 -7 -16 -3 -23 -1 -19 7
3 10 43 10 43 0z m77 9 c-3 -3 -12 -4 -19 -1 -8 3 -5 6 6 6 11 1 17 -2 13 -5z
m-332 -174 c3 -5 -1 -10 -9 -10 -9 0 -16 5 -16 10 0 6 4 10 9 10 6 0 13 -4 16
-10z m84 1 c9 -6 10 -11 2 -15 -13 -8 -31 1 -31 15 0 11 11 11 29 0z m-21 -46
c-3 -3 -9 2 -12 12 -6 14 -5 15 5 6 7 -7 10 -15 7 -18z"/>
<path d="M4721 6179 c-24 -26 -26 -35 -9 -45 8 -5 9 -2 5 9 -4 11 2 22 15 31
12 9 19 18 16 21 -3 4 -15 -4 -27 -16z"/>
<path d="M5250 6163 c-25 -10 -42 -32 -34 -44 4 -7 3 -9 -4 -5 -6 3 -26 -19
-47 -54 -30 -49 -35 -63 -25 -75 16 -20 29 -19 37 3 4 9 9 19 13 22 8 6 72
118 82 142 8 19 3 21 -22 11z"/>
<path d="M8380 6150 c0 -13 18 -22 24 -11 3 5 -1 11 -9 15 -8 3 -15 1 -15 -4z"/>
<path d="M4656 6123 c-6 -14 -5 -15 5 -6 7 7 10 15 7 18 -3 3 -9 -2 -12 -12z"/>
<path d="M1001 6123 c-1 -6 -4 -20 -7 -30 -5 -17 -5 -17 6 0 6 10 9 23 6 30
-3 9 -5 9 -5 0z"/>
<path d="M1264 6119 c-3 -6 -1 -16 5 -22 8 -8 11 -5 11 11 0 24 -5 28 -16 11z"/>
<path d="M4685 6120 c-3 -5 -1 -10 4 -10 6 0 11 5 11 10 0 6 -2 10 -4 10 -3 0
-8 -4 -11 -10z"/>
<path d="M4508 6088 c3 -13 -1 -18 -18 -18 -18 0 -21 -4 -17 -22 4 -12 -9 -63
-28 -120 -48 -137 -61 -215 -42 -259 l14 -34 18 35 c10 19 21 37 24 40 19 14
62 80 57 88 -3 5 1 18 9 28 11 14 17 16 23 7 7 -11 37 3 90 42 1 1 0 9 -4 18
-4 12 -14 15 -33 12 -22 -5 -23 -4 -6 4 l20 10 -20 0 c-16 1 -17 3 -5 11 10 6
23 4 39 -7 22 -14 24 -14 18 2 -4 9 -7 20 -7 24 0 5 -11 6 -25 3 -15 -2 -25 0
-25 7 0 6 11 11 25 11 29 0 34 16 8 23 -11 2 -9 3 4 2 12 -1 28 2 35 6 10 7 8
9 -5 9 -10 0 -15 5 -12 10 4 6 14 9 23 8 13 -2 17 4 15 25 -1 22 2 27 12 23 8
-3 15 -1 15 4 0 6 -4 10 -9 10 -5 0 -17 3 -27 7 -14 5 -16 3 -11 -13 7 -18 6
-18 -7 -1 -13 17 -32 24 -22 8 3 -5 0 -9 -7 -8 -44 1 -58 -5 -68 -30 -7 -19
-7 -29 0 -31 6 -2 11 -8 11 -13 0 -4 -7 -5 -17 -2 -11 4 -14 3 -9 -5 4 -7 1
-12 -7 -12 -10 0 -13 -10 -11 -35 1 -19 -1 -35 -5 -35 -4 0 -8 -19 -10 -42 -2
-42 -26 -81 -45 -75 -16 5 -17 52 -1 83 8 16 15 35 15 42 0 6 5 12 11 12 6 0
8 7 5 16 -3 8 1 29 9 45 9 16 13 34 9 40 -3 6 3 13 13 15 26 7 20 50 -6 50
-12 0 -17 -6 -13 -18z m169 -50 c-3 -8 -6 -5 -6 6 -1 11 2 17 5 13 3 -3 4 -12
1 -19z"/>
<path d="M5910 6100 c0 -5 5 -10 10 -10 6 0 10 5 10 10 0 6 -4 10 -10 10 -5 0
-10 -4 -10 -10z"/>
<path d="M8200 6045 c-20 -24 -6 -28 15 -5 10 11 13 20 8 20 -6 0 -16 -7 -23
-15z"/>
<path d="M981 6034 c0 -11 3 -14 6 -6 3 7 2 16 -1 19 -3 4 -6 -2 -5 -13z"/>
<path d="M1106 6021 c-17 -7 -17 -8 -2 -24 10 -9 20 -17 23 -17 4 0 3 3 0 7
-4 3 -2 12 4 19 13 16 0 24 -25 15z"/>
<path d="M3919 6023 c0 -5 -2 -20 -4 -35 -4 -31 6 -36 24 -14 9 11 10 20 1 35
-11 22 -19 27 -21 14z"/>
<path d="M1047 6003 c8 -3 11 -14 7 -29 -6 -22 -4 -23 17 -16 13 5 24 13 26
19 3 9 -39 34 -55 32 -4 0 -1 -3 5 -6z"/>
<path d="M8610 5985 c-24 -13 -24 -14 -4 -15 12 0 27 7 34 15 16 19 3 19 -30
0z"/>
<path d="M8500 5960 c-13 -8 -13 -10 2 -10 9 0 20 5 23 10 8 13 -5 13 -25 0z"/>
<path d="M2288 5953 c-10 -2 -20 -18 -24 -39 -7 -39 3 -124 15 -124 4 0 13
-12 20 -26 21 -47 75 -105 166 -179 50 -40 134 -119 186 -175 94 -101 94 -102
101 -166 7 -56 13 -70 44 -100 40 -40 55 -41 24 -1 -13 16 -17 28 -10 32 6 4
10 12 9 18 -3 27 2 47 11 47 5 0 37 -27 71 -60 33 -33 65 -60 70 -60 5 0 10
-10 10 -22 1 -18 2 -19 6 -5 4 14 8 16 19 6 11 -9 14 -8 14 4 0 9 -10 22 -22
28 -25 13 -126 119 -186 194 -22 28 -59 68 -82 90 -67 64 -130 167 -160 264
-33 106 -47 133 -96 189 -64 76 -122 102 -186 85z m127 -185 c23 -10 29 -20
26 -40 0 -5 5 -8 12 -8 20 0 54 -41 63 -74 6 -25 5 -27 -12 -17 -52 29 -114
101 -120 139 -3 15 -1 15 31 0z m-70 -47 c-6 -5 -25 10 -25 20 0 5 6 4 14 -3
8 -7 12 -15 11 -17z"/>
<path d="M1008 5913 c6 -2 18 -2 25 0 6 3 1 5 -13 5 -14 0 -19 -2 -12 -5z"/>
<path d="M8290 5889 c-52 -17 -121 -37 -154 -46 -44 -12 -54 -18 -42 -25 24
-14 138 19 251 73 76 35 64 35 -55 -2z"/>
<path d="M1412 5898 c6 -18 28 -21 28 -4 0 9 -7 16 -16 16 -9 0 -14 -5 -12
-12z"/>
<path d="M4476 5875 c-9 -26 -7 -32 5 -12 6 10 9 21 6 23 -2 3 -7 -2 -11 -11z"/>
<path d="M815 5817 c-7 -36 8 -87 26 -87 8 0 8 4 1 13 -5 6 -13 23 -17 36 -6
20 -4 23 9 18 19 -7 22 9 4 17 -10 5 -10 7 0 12 6 3 10 10 6 15 -11 18 -23 8
-29 -24z"/>
<path d="M9651 5833 c-32 -16 -103 -83 -166 -158 -16 -19 -32 -38 -35 -41 -3
-3 11 3 30 14 19 11 59 30 89 42 96 37 171 103 171 150 0 15 -51 12 -89 -7z"/>
<path d="M1335 5831 c-3 -6 3 -14 12 -20 16 -9 16 -12 3 -21 -8 -5 -10 -10 -4
-10 6 0 17 7 24 15 10 11 9 18 -3 30 -18 17 -24 19 -32 6z"/>
<path d="M1000 5800 c0 -5 7 -10 16 -10 8 0 12 5 9 10 -3 6 -10 10 -16 10 -5
0 -9 -4 -9 -10z"/>
<path d="M1520 5801 c0 -13 37 -24 52 -15 8 5 6 10 -8 15 -27 11 -44 11 -44 0z"/>
<path d="M1402 5780 c-10 -16 -10 -20 1 -20 14 0 37 20 37 32 0 16 -25 8 -38
-12z"/>
<path d="M850 5702 c0 -27 28 -79 46 -86 8 -3 12 -10 9 -16 -7 -11 25 -70 38
-70 4 0 6 -4 2 -9 -3 -5 0 -13 6 -17 9 -5 10 1 5 22 -4 16 -12 32 -18 35 -6 4
-9 12 -6 19 2 7 -6 24 -19 38 -26 29 -22 45 12 36 12 -3 26 -1 29 5 5 7 -7 11
-33 11 -23 0 -41 5 -41 11 0 5 -5 7 -11 3 -8 -4 -9 0 -4 15 4 12 2 21 -4 21
-6 0 -11 -8 -11 -18z"/>
<path d="M4307 5694 c-10 -13 -13 -24 -8 -24 10 0 36 39 29 45 -2 2 -11 -8
-21 -21z"/>
<path d="M1595 5680 c-3 -5 1 -10 10 -10 9 0 13 5 10 10 -3 6 -8 10 -10 10 -2
0 -7 -4 -10 -10z"/>
<path d="M1540 5649 c0 -5 5 -7 10 -4 6 3 10 8 10 11 0 2 -4 4 -10 4 -5 0 -10
-5 -10 -11z"/>
<path d="M1460 5640 c0 -5 5 -10 10 -10 6 0 10 5 10 10 0 6 -4 10 -10 10 -5 0
-10 -4 -10 -10z"/>
<path d="M4132 5630 c0 -14 2 -19 5 -12 2 6 2 18 0 25 -3 6 -5 1 -5 -13z"/>
<path d="M4513 5635 c-6 -11 -14 -36 -17 -55 -7 -34 -6 -34 14 9 20 44 23 84
3 46z"/>
<path d="M1590 5619 c0 -5 5 -7 10 -4 6 3 10 8 10 11 0 2 -4 4 -10 4 -5 0 -10
-5 -10 -11z"/>
<path d="M4198 5622 c-10 -2 -18 -10 -18 -18 0 -8 -4 -13 -9 -10 -4 3 -6 -7
-3 -22 l5 -27 -20 24 c-37 45 -58 -6 -29 -72 7 -18 19 -52 25 -77 7 -25 17
-58 23 -74 l12 -30 8 29 c4 16 5 46 2 66 -4 20 2 75 11 123 10 48 16 88 14 90
-2 1 -12 1 -21 -2z"/>
<path d="M1350 5612 c-31 -11 -55 -52 -30 -52 6 0 10 5 10 10 0 6 9 10 19 10
10 0 21 7 24 15 7 17 -2 24 -23 17z"/>
<path d="M4248 5560 c-12 -39 -10 -76 3 -63 6 6 9 28 7 49 -3 35 -4 36 -10 14z"/>
<path d="M4080 5535 c-1 -5 -1 -22 0 -37 1 -20 -3 -28 -14 -28 -9 0 -16 -7
-16 -16 0 -13 -3 -14 -15 -4 -8 7 -12 16 -9 21 3 5 -4 9 -15 9 -12 0 -20 -6
-18 -12 1 -8 -8 -13 -20 -12 -13 0 -23 -3 -23 -8 0 -4 -9 -8 -20 -8 -13 0 -18
-5 -14 -15 7 -16 -6 -20 -21 -7 -6 5 -22 13 -37 20 -23 9 -26 9 -21 -3 3 -9
-1 -15 -10 -15 -8 0 -17 -9 -20 -21 -10 -39 -32 -15 -29 32 1 39 1 41 -9 19
-6 -14 -8 -52 -6 -85 3 -33 7 -99 10 -147 3 -64 10 -98 27 -130 34 -64 57
-137 70 -222 7 -42 16 -76 20 -76 4 0 10 48 12 108 3 59 11 121 18 137 7 17
16 39 21 50 5 11 12 44 17 74 10 78 32 79 32 2 0 -33 4 -63 10 -66 10 -6 15 9
30 90 5 28 14 73 20 100 7 28 13 57 14 67 1 9 7 22 13 30 19 23 22 52 14 108
-5 30 -10 51 -11 45z"/>
<path d="M5010 5518 c0 -19 2 -20 10 -8 13 19 13 30 0 30 -5 0 -10 -10 -10
-22z"/>
<path d="M3457 5500 c3 -11 11 -20 18 -20 8 0 11 8 8 20 -3 11 -11 20 -18 20
-8 0 -11 -8 -8 -20z"/>
<path d="M960 5481 c0 -17 54 -73 92 -95 l33 -19 -25 25 c-14 14 -29 24 -34
24 -5 -1 -16 11 -23 25 -16 32 -43 57 -43 40z"/>
<path d="M3690 5470 c0 -5 5 -10 11 -10 5 0 7 5 4 10 -3 6 -8 10 -11 10 -2 0
-4 -4 -4 -10z"/>
<path d="M4251 5464 c0 -11 3 -14 6 -6 3 7 2 16 -1 19 -3 4 -6 -2 -5 -13z"/>
<path d="M3731 5424 c0 -11 3 -14 6 -6 3 7 2 16 -1 19 -3 4 -6 -2 -5 -13z"/>
<path d="M1561 5414 c0 -11 3 -14 6 -6 3 7 2 16 -1 19 -3 4 -6 -2 -5 -13z"/>
<path d="M3728 5335 c-3 -14 -1 -25 3 -25 5 0 9 11 9 25 0 14 -2 25 -4 25 -2
0 -6 -11 -8 -25z"/>
<path d="M9180 5340 c-13 -9 -13 -10 0 -11 8 0 -1 -8 -21 -17 -19 -9 -55 -34
-80 -55 -47 -41 -23 -34 48 14 23 16 45 29 50 29 4 0 19 10 33 21 l25 20 -24
-6 c-16 -5 -21 -4 -17 4 9 13 6 14 -14 1z"/>
<path d="M3246 5322 c-6 -11 -1 -76 8 -91 13 -20 -3 -64 -32 -88 -15 -12 -22
-22 -15 -23 6 0 9 -9 6 -20 -3 -11 -9 -18 -13 -15 -5 3 -10 -5 -12 -17 -4 -29
-23 -33 -47 -9 -10 10 -22 17 -25 14 -3 -4 -6 4 -6 16 0 18 -3 20 -19 12 -24
-13 -19 -61 20 -218 42 -168 121 -306 150 -262 17 26 21 61 11 85 -13 28 -5
65 9 42 5 -7 9 -29 9 -49 0 -39 17 -98 32 -114 6 -6 7 8 3 40 l-6 50 30 -70
c17 -38 31 -75 31 -83 0 -7 7 -15 15 -18 8 -4 15 -14 15 -25 0 -10 9 -23 20
-29 11 -6 20 -20 20 -31 0 -23 54 -134 71 -145 8 -5 10 3 7 25 -3 18 -1 34 4
37 4 3 8 -3 8 -13 0 -29 56 -118 92 -147 18 -14 40 -33 49 -41 25 -24 29 -18
13 21 -8 20 -13 43 -11 52 2 10 23 -23 49 -78 36 -74 62 -113 123 -178 127
-135 186 -165 101 -50 -26 35 -49 74 -52 88 -3 14 -21 61 -39 105 -18 44 -41
118 -49 164 -30 157 -18 511 16 459 16 -26 8 59 -12 119 -11 33 -22 86 -26
119 -3 32 -10 70 -15 84 -9 27 -17 72 -18 108 l-1 22 -40 -25 c-31 -20 -40
-22 -40 -10 0 8 -3 15 -7 15 -12 0 -65 -37 -64 -44 3 -23 0 -26 -19 -16 -29
15 -70 59 -70 74 0 7 -3 16 -7 20 -5 4 -8 12 -8 17 0 6 -13 18 -30 27 -16 9
-32 18 -35 20 -2 2 2 7 10 12 25 15 2 23 -60 21 -45 -1 -60 1 -60 11 0 8 -15
19 -33 26 -39 14 -44 15 -51 4z m424 -292 c0 -5 -2 -10 -4 -10 -3 0 -8 5 -11
10 -3 6 -1 10 4 10 6 0 11 -4 11 -10z m30 -660 c11 -22 18 -40 15 -40 -6 0
-45 62 -45 73 0 16 11 5 30 -33z m53 -15 c4 -27 3 -35 -3 -25 -5 8 -10 28 -10
44 0 39 6 30 13 -19z"/>
<path d="M7695 5319 c-4 -6 -4 -13 -1 -16 8 -8 36 5 36 17 0 13 -27 13 -35 -1z"/>
<path d="M3357 5309 c7 -7 15 -10 18 -7 3 3 -2 9 -12 12 -14 6 -15 5 -6 -5z"/>
<path d="M872 5280 c4 -15 105 -88 121 -89 8 -1 -13 16 -112 93 -11 9 -13 8
-9 -4z"/>
<path d="M1222 5131 c2 -7 7 -12 11 -12 12 1 9 15 -3 20 -7 2 -11 -2 -8 -8z"/>
<path d="M1970 5034 c0 -14 3 -14 15 -4 8 7 15 14 15 16 0 2 -7 4 -15 4 -8 0
-15 -7 -15 -16z"/>
<path d="M1350 4991 c0 -5 5 -13 10 -16 6 -3 10 -2 10 4 0 5 -4 13 -10 16 -5
3 -10 2 -10 -4z"/>
<path d="M1807 4939 c7 -7 15 -10 18 -7 3 3 -2 9 -12 12 -14 6 -15 5 -6 -5z"/>
<path d="M2000 4830 c0 -5 9 -10 20 -10 11 0 20 5 20 10 0 6 -9 10 -20 10 -11
0 -20 -4 -20 -10z"/>
<path d="M8080 4829 c0 -5 5 -7 10 -4 6 3 10 8 10 11 0 2 -4 4 -10 4 -5 0 -10
-5 -10 -11z"/>
<path d="M1295 4800 c3 -5 8 -10 11 -10 2 0 4 5 4 10 0 6 -5 10 -11 10 -5 0
-7 -4 -4 -10z"/>
<path d="M8143 4803 c-15 -6 -17 -33 -3 -33 6 0 10 6 10 14 0 8 6 17 13 19 6
3 8 5 2 5 -5 0 -16 -2 -22 -5z"/>
<path d="M723 4739 c-41 -12 -50 -40 -26 -81 34 -59 96 -87 189 -88 31 0 52
-8 84 -32 60 -46 82 -58 105 -58 23 1 26 -3 -103 98 -23 19 -42 39 -42 46 0
22 -92 106 -129 116 -41 11 -35 11 -78 -1z"/>
<path d="M8677 4694 c-9 -10 2 -24 18 -24 9 0 12 6 9 15 -6 16 -17 19 -27 9z"/>
<path d="M8156 4665 c-4 -11 1 -15 19 -15 28 0 33 15 9 24 -21 8 -21 8 -28 -9z"/>
<path d="M2195 4624 c-23 -17 -16 -25 25 -28 39 -3 44 5 16 25 -19 14 -24 15
-41 3z"/>
<path d="M8150 4630 c0 -5 5 -10 10 -10 6 0 10 5 10 10 0 6 -4 10 -10 10 -5 0
-10 -4 -10 -10z"/>
<path d="M2251 4576 c-10 -11 -9 -14 1 -12 14 2 23 15 15 22 -2 2 -10 -2 -16
-10z"/>
<path d="M2531 4561 c-14 -9 -7 -31 10 -31 6 0 7 5 3 11 -3 6 0 15 7 20 8 5
10 9 4 9 -5 0 -16 -4 -24 -9z"/>
<path d="M8515 4560 c-3 -5 1 -10 9 -10 9 0 16 5 16 10 0 6 -4 10 -9 10 -6 0
-13 -4 -16 -10z"/>
<path d="M3827 4544 c-13 -13 -7 -91 7 -103 20 -17 28 1 20 46 -8 46 -18 66
-27 57z"/>
<path d="M2459 4471 c11 -7 11 -10 0 -17 -7 -4 -14 -3 -17 4 -2 7 -8 10 -13 6
-5 -3 4 -19 21 -37 l29 -32 19 21 c17 18 18 23 6 39 -8 10 -24 20 -36 22 -16
2 -19 0 -9 -6z m21 -26 c-7 -8 -18 -15 -24 -15 -6 0 -2 7 8 15 25 19 32 19 16
0z m14 -20 c-4 -8 -11 -15 -16 -15 -6 0 -5 6 2 15 7 8 14 15 16 15 2 0 1 -7
-2 -15z"/>
<path d="M1096 4462 c5 -5 45 -23 89 -41 44 -18 95 -42 114 -53 41 -23 133
-59 139 -54 2 2 -6 7 -17 11 -12 3 -19 10 -16 15 2 4 -9 10 -26 14 -19 3 -28
10 -23 17 4 8 0 9 -15 4 -18 -5 -21 -2 -21 25 0 33 -23 51 -43 31 -18 -18 -66
-13 -119 14 -49 25 -82 33 -62 17z"/>
<path d="M1715 4450 c-3 -5 -2 -18 4 -27 7 -14 9 -12 8 10 -2 30 -3 31 -12 17z"/>
<path d="M2523 4405 c0 -8 4 -12 9 -9 5 3 6 10 3 15 -9 13 -12 11 -12 -6z"/>
<path d="M1570 4406 c0 -2 7 -7 16 -10 8 -3 12 -2 9 4 -6 10 -25 14 -25 6z"/>
<path d="M1658 4393 c12 -2 30 -2 40 0 9 3 -1 5 -23 4 -22 0 -30 -2 -17 -4z"/>
<path d="M4410 4348 l-25 -11 25 -7 c28 -8 50 4 35 19 -6 5 -20 5 -35 -1z"/>
<path d="M4172 4310 c0 -14 2 -19 5 -12 2 6 2 18 0 25 -3 6 -5 1 -5 -13z"/>
<path d="M8629 4300 l-24 -21 30 6 c17 3 36 6 43 7 7 1 11 6 9 12 -6 19 -33
17 -58 -4z"/>
<path d="M9090 4229 c-32 -17 -33 -19 -10 -19 27 1 66 25 53 33 -4 3 -24 -4
-43 -14z"/>
<path d="M1630 4180 c-13 -8 -12 -10 3 -10 9 0 17 5 17 10 0 12 -1 12 -20 0z"/>
<path d="M1395 4120 c-8 -12 20 -24 35 -15 6 3 8 11 5 16 -8 12 -32 12 -40 -1z"/>
<path d="M1233 4113 c-7 -3 -13 -11 -13 -19 0 -18 36 -18 43 0 6 16 -11 26
-30 19z"/>
<path d="M9615 4019 c-38 -17 -88 -38 -111 -48 -23 -9 -42 -20 -43 -26 -2 -15
186 -18 237 -4 48 13 131 82 112 94 -6 4 -37 9 -68 11 -48 4 -68 0 -127 -27z"/>
<path d="M7840 4016 c0 -9 5 -16 10 -16 6 0 10 4 10 9 0 6 -4 13 -10 16 -5 3
-10 -1 -10 -9z"/>
<path d="M7920 4021 c0 -6 -6 -8 -14 -5 -8 3 -17 1 -21 -5 -4 -7 3 -11 17 -12
16 0 11 -4 -17 -13 -48 -15 -105 -66 -105 -94 0 -20 -51 -47 -64 -35 -3 4 -6
-1 -6 -11 0 -9 -7 -19 -15 -22 -26 -10 -16 -22 13 -16 24 5 26 4 13 -11 -7
-10 -20 -17 -27 -17 -18 0 -18 -10 0 -24 8 -6 16 -29 19 -52 2 -23 13 -50 23
-62 30 -33 40 -46 47 -65 4 -10 20 -23 37 -28 16 -6 30 -15 30 -20 0 -5 5 -9
10 -9 6 0 10 9 10 20 0 11 5 20 10 20 6 0 10 7 10 15 0 19 16 20 23 1 3 -8 19
-17 36 -21 17 -4 38 -13 46 -22 14 -13 20 -13 53 0 27 11 43 12 56 5 28 -16
45 7 20 28 -18 14 -17 15 19 9 29 -5 37 -3 37 10 0 8 -7 15 -15 15 -9 0 -12 6
-9 15 4 8 12 15 20 15 8 0 14 -7 14 -15 0 -8 9 -15 20 -15 12 0 24 -10 30 -22
l9 -23 0 23 c1 16 -6 26 -19 29 -23 6 -27 23 -6 23 8 0 16 -6 19 -14 4 -10 22
-14 61 -14 31 0 53 5 50 9 -3 5 -13 9 -22 9 -13 0 -12 3 6 16 22 15 30 44 12
44 -5 0 -10 7 -10 15 0 19 19 20 26 1 9 -24 31 -26 29 -3 -1 14 -11 24 -26 28
-24 6 -22 8 21 22 12 4 11 6 -2 6 -21 1 -25 31 -4 31 7 0 19 7 27 16 10 13 10
17 -2 24 -11 7 -11 12 -2 21 14 14 73 23 73 11 0 -4 14 -8 30 -9 17 -1 30 2
30 7 0 6 -4 10 -10 10 -21 0 -9 41 15 52 19 9 25 19 25 44 0 18 -4 35 -9 38
-5 3 -75 -25 -155 -64 -197 -94 -330 -118 -424 -76 -54 25 -54 44 3 85 25 18
45 34 45 37 0 2 -26 2 -57 0 -32 -3 -52 -2 -45 1 6 2 10 9 6 14 -3 5 2 9 11 9
9 0 15 6 13 13 -6 15 -38 22 -38 8z m-60 -82 c0 -5 -4 -9 -10 -9 -5 0 -10 7
-10 16 0 8 5 12 10 9 6 -3 10 -10 10 -16z m-95 -259 c3 -5 1 -10 -4 -10 -6 0
-11 5 -11 10 0 6 2 10 4 10 3 0 8 -4 11 -10z m315 -110 c0 -5 -9 -10 -20 -10
-11 0 -20 5 -20 10 0 6 9 10 20 10 11 0 20 -4 20 -10z"/>
<path d="M8000 3990 c0 -5 7 -7 15 -4 8 4 15 8 15 10 0 2 -7 4 -15 4 -8 0 -15
-4 -15 -10z"/>
<path d="M8885 3939 c-38 -26 -76 -48 -83 -48 -7 -1 -11 -5 -8 -10 3 -4 -5 -6
-17 -4 -26 4 -59 -15 -39 -24 20 -8 14 -37 -10 -48 -13 -6 -22 -16 -20 -23 3
-17 -34 -55 -49 -50 -8 3 -7 9 5 20 9 9 12 19 7 23 -5 3 -12 1 -15 -3 -3 -5
-17 -7 -31 -4 -15 2 -25 0 -25 -8 0 -7 -8 -9 -19 -5 -16 5 -18 1 -15 -32 1
-22 -1 -32 -6 -24 -5 9 -17 11 -36 7 -20 -5 -24 -10 -15 -15 11 -7 11 -10 0
-14 -8 -3 -4 -6 9 -6 25 -1 31 -21 6 -21 -8 0 -12 -5 -8 -11 4 -7 -1 -9 -12
-7 -12 2 -18 11 -16 23 3 15 1 17 -8 9 -8 -8 -9 -18 -2 -30 5 -11 7 -25 4 -33
-3 -9 5 -7 23 7 42 33 187 76 235 69 76 -10 184 28 194 69 7 25 69 57 166 84
90 26 270 81 298 91 13 5 20 14 17 19 -4 7 -13 7 -25 0 -13 -7 -63 -8 -138 -4
-100 6 -123 4 -151 -10 -33 -18 -110 -24 -132 -11 -6 4 -9 21 -7 37 3 16 2 30
-1 32 -3 2 -37 -19 -76 -45z m120 -49 c17 -4 22 -8 13 -9 -10 0 -18 -5 -18
-11 0 -5 -9 -10 -20 -10 -13 0 -18 5 -14 14 5 13 2 13 -20 3 l-25 -12 21 -22
c12 -13 16 -23 10 -23 -19 0 -27 4 -24 13 1 5 -8 5 -20 2 -31 -10 -35 -15 -19
-25 9 -5 11 -15 7 -26 -5 -13 -9 -15 -14 -6 -6 8 -13 6 -25 -8 -9 -11 -27 -19
-39 -19 -15 1 -17 3 -7 6 21 5 22 53 2 53 -10 0 -12 -6 -8 -19 5 -16 2 -18
-15 -14 -16 4 -18 9 -9 19 6 7 9 23 7 36 -3 21 1 23 45 22 26 0 47 3 47 8 0 4
-5 8 -11 8 -8 0 -8 5 1 15 13 16 81 19 135 5z m-55 -96 c0 -2 -9 -4 -21 -4
-11 0 -18 4 -14 10 5 8 35 3 35 -6z m-233 -86 c-3 -8 -6 -5 -6 6 -1 11 2 17 5
13 3 -3 4 -12 1 -19z m-102 -18 c3 -5 -1 -10 -10 -10 -9 0 -13 5 -10 10 3 6 8
10 10 10 2 0 7 -4 10 -10z m-40 -20 c3 -5 1 -10 -4 -10 -6 0 -11 5 -11 10 0 6
2 10 4 10 3 0 8 -4 11 -10z"/>
<path d="M5008 3923 c7 -3 16 -2 19 1 4 3 -2 6 -13 5 -11 0 -14 -3 -6 -6z"/>
<path d="M1646 3905 c-6 -18 22 -35 58 -35 31 0 35 25 7 40 -28 14 -58 12 -65
-5z"/>
<path d="M2460 3880 c0 -5 5 -10 10 -10 6 0 10 5 10 10 0 6 -4 10 -10 10 -5 0
-10 -4 -10 -10z"/>
<path d="M8690 3879 c0 -5 5 -7 10 -4 6 3 10 8 10 11 0 2 -4 4 -10 4 -5 0 -10
-5 -10 -11z"/>
<path d="M8701 3850 c-8 -4 -19 -7 -25 -6 -6 2 -8 1 -3 -1 4 -3 7 -11 7 -19 0
-16 16 -19 25 -4 4 6 10 8 15 5 14 -9 21 12 7 23 -7 6 -18 7 -26 2z"/>
<path d="M2445 3840 c-3 -5 -1 -10 4 -10 6 0 11 5 11 10 0 6 -2 10 -4 10 -3 0
-8 -4 -11 -10z"/>
<path d="M8548 3832 c-15 -11 -22 -11 -34 -1 -16 13 -30 6 -19 -10 3 -6 16
-11 28 -11 17 0 19 -2 8 -9 -17 -11 -7 -41 14 -41 8 0 15 5 15 10 0 6 7 10 15
10 24 0 85 33 78 43 -3 6 -8 5 -12 0 -9 -15 -81 -26 -81 -13 0 5 15 10 34 10
18 0 39 7 46 15 11 14 8 15 -30 13 -23 -2 -51 -9 -62 -16z"/>
<path d="M8420 3830 c0 -5 6 -10 14 -10 8 0 18 5 21 10 3 6 -3 10 -14 10 -12
0 -21 -4 -21 -10z"/>
<path d="M8535 3740 c3 -5 10 -10 16 -10 5 0 9 5 9 10 0 6 -7 10 -16 10 -8 0
-12 -4 -9 -10z"/>
<path d="M8430 3689 c0 -11 5 -17 10 -14 6 3 10 13 10 21 0 8 -4 14 -10 14 -5
0 -10 -9 -10 -21z"/>
<path d="M9155 3691 c-3 -5 4 -13 16 -16 23 -8 34 -1 24 14 -8 13 -32 14 -40
2z"/>
<path d="M4151 3656 c19 -16 101 -57 95 -48 -7 12 -78 52 -92 52 -4 0 -5 -2
-3 -4z"/>
<path d="M1860 3631 c0 -12 6 -21 16 -21 9 0 14 7 12 17 -5 25 -28 28 -28 4z"/>
<path d="M8405 3639 c-10 -15 3 -25 16 -12 7 7 7 13 1 17 -6 3 -14 1 -17 -5z"/>
<path d="M8328 3583 c7 -3 16 -2 19 1 4 3 -2 6 -13 5 -11 0 -14 -3 -6 -6z"/>
<path d="M8420 3575 c0 -8 2 -15 4 -15 2 0 6 7 10 15 3 8 1 15 -4 15 -6 0 -10
-7 -10 -15z"/>
<path d="M8450 3579 c0 -5 5 -7 10 -4 6 3 10 8 10 11 0 2 -4 4 -10 4 -5 0 -10
-5 -10 -11z"/>
<path d="M4277 3573 c-9 -2 -15 -9 -11 -14 4 -6 11 -6 20 2 7 6 21 9 29 5 8
-3 15 -1 15 4 0 10 -21 11 -53 3z"/>
<path d="M8432 3540 c-9 -16 -9 -20 0 -20 7 0 -5 -9 -27 -20 -45 -23 -45 -23
-45 -11 0 5 11 12 25 15 14 4 25 13 25 22 0 13 -5 12 -26 -5 -15 -12 -33 -21
-40 -21 -8 0 -14 -4 -14 -10 0 -5 7 -10 16 -10 13 0 11 -5 -7 -21 -24 -20 -23
-20 13 1 20 11 51 28 68 36 16 9 28 20 24 25 -3 6 0 16 6 24 7 8 8 15 4 15 -5
0 -15 -9 -22 -20z"/>
<path d="M7890 3535 c0 -8 8 -15 18 -15 10 0 23 -5 29 -11 6 -6 16 -8 22 -5
15 9 -24 46 -49 46 -11 0 -20 -7 -20 -15z"/>
<path d="M8000 3500 c0 -5 5 -10 10 -10 6 0 10 5 10 10 0 6 -4 10 -10 10 -5 0
-10 -4 -10 -10z"/>
<path d="M7215 3480 c-3 -5 1 -10 9 -10 8 0 18 5 21 10 3 6 -1 10 -9 10 -8 0
-18 -4 -21 -10z"/>
<path d="M3230 3420 c0 -5 4 -10 9 -10 6 0 13 5 16 10 3 6 -1 10 -9 10 -9 0
-16 -4 -16 -10z"/>
<path d="M2866 3392 c-3 -6 -1 -14 5 -17 15 -10 25 3 12 16 -7 7 -13 7 -17 1z"/>
<path d="M8230 3373 c0 -7 4 -13 9 -13 5 0 11 6 14 13 3 8 -1 14 -9 14 -8 0
-14 -6 -14 -14z"/>
<path d="M2871 3331 c-16 -10 -6 -31 15 -31 16 0 18 9 6 27 -4 7 -13 9 -21 4z"/>
<path d="M3158 3293 c7 -3 16 -2 19 1 4 3 -2 6 -13 5 -11 0 -14 -3 -6 -6z"/>
<path d="M2346 3280 c-19 -6 -19 -7 -1 -14 10 -3 22 -3 28 3 12 12 -4 20 -27
11z"/>
<path d="M3008 3283 c7 -3 16 -2 19 1 4 3 -2 6 -13 5 -11 0 -14 -3 -6 -6z"/>
<path d="M8195 3280 c-3 -5 -1 -10 4 -10 6 0 11 5 11 10 0 6 -2 10 -4 10 -3 0
-8 -4 -11 -10z"/>
<path d="M7265 3230 c3 -5 8 -10 11 -10 2 0 4 5 4 10 0 6 -5 10 -11 10 -5 0
-7 -4 -4 -10z"/>
<path d="M7381 3214 c0 -11 3 -14 6 -6 3 7 2 16 -1 19 -3 4 -6 -2 -5 -13z"/>
<path d="M8332 3198 c7 -20 58 -23 58 -4 0 11 -10 16 -31 16 -20 0 -29 -4 -27
-12z"/>
<path d="M9060 3130 c0 -12 35 -31 44 -23 8 9 -14 33 -30 33 -8 0 -14 -4 -14
-10z"/>
<path d="M8110 3050 c0 -5 5 -10 10 -10 6 0 10 5 10 10 0 6 -4 10 -10 10 -5 0
-10 -4 -10 -10z"/>
<path d="M1865 2990 c-8 -13 5 -13 25 0 13 8 13 10 -2 10 -9 0 -20 -4 -23 -10z"/>
<path d="M8052 2968 c9 -13 24 -24 34 -26 16 -3 17 -1 4 7 -8 6 -10 11 -5 11
12 1 -25 30 -38 30 -5 0 -3 -10 5 -22z"/>
<path d="M7758 2948 c17 -8 26 -8 34 0 9 9 4 12 -22 11 -33 0 -34 -1 -12 -11z"/>
<path d="M7878 2943 c7 -3 16 -2 19 1 4 3 -2 6 -13 5 -11 0 -14 -3 -6 -6z"/>
<path d="M7900 2926 c0 -2 7 -9 15 -16 12 -10 15 -10 15 4 0 9 -7 16 -15 16
-8 0 -15 -2 -15 -4z"/>
<path d="M2345 2870 c-3 -6 1 -7 9 -4 18 7 21 14 7 14 -6 0 -13 -4 -16 -10z"/>
<path d="M1023 2813 c-13 -2 -23 -9 -23 -14 0 -10 32 -4 60 12 13 7 13 8 0 7
-8 0 -25 -3 -37 -5z"/>
<path d="M7796 2752 c-8 -14 18 -56 46 -71 23 -13 30 -13 52 -1 31 16 33 29 6
58 -15 15 -33 22 -60 22 -21 0 -41 -4 -44 -8z"/>
<path d="M2623 2738 c-14 -7 -21 -19 -20 -36 1 -13 -4 -27 -12 -30 -10 -3 -13
2 -9 22 3 14 1 26 -3 26 -5 0 -9 -5 -9 -11 0 -8 -4 -8 -15 1 -11 9 -19 8 -37
-5 -22 -17 -22 -17 -2 -12 12 2 28 1 35 -4 10 -6 11 -9 2 -9 -7 0 -13 -7 -13
-15 0 -8 -4 -15 -10 -15 -5 0 -10 5 -10 11 0 5 -5 7 -10 4 -6 -4 -7 -11 -4
-17 4 -7 25 -8 58 -3 28 4 59 7 69 6 9 0 15 4 12 8 -2 5 2 14 10 21 15 13 12
30 -6 30 -6 0 -7 -6 -3 -12 5 -10 4 -10 -5 -2 -10 9 -10 17 -2 33 7 12 10 21
9 20 -2 0 -13 -5 -25 -11z"/>
<path d="M2226 2518 c2 -4 -5 -10 -17 -13 -11 -4 -18 -9 -16 -11 5 -6 77 22
77 29 0 3 -11 4 -24 3 -13 0 -22 -4 -20 -8z"/>
<path d="M2145 2480 c-3 -5 -22 -10 -41 -10 -45 0 -104 -31 -138 -71 -37 -44
-31 -63 22 -67 40 -3 46 0 83 40 22 24 47 56 55 71 8 15 25 32 37 37 16 6 18
9 5 9 -9 1 -20 -3 -23 -9z"/>
<path d="M7758 2443 c7 -3 16 -2 19 1 4 3 -2 6 -13 5 -11 0 -14 -3 -6 -6z"/>
<path d="M953 2315 c-45 -21 -73 -40 -73 -49 0 -9 3 -16 8 -16 6 0 149 85 161
96 15 14 -35 -3 -96 -31z"/>
<path d="M7490 2260 c0 -5 5 -10 11 -10 5 0 7 5 4 10 -3 6 -8 10 -11 10 -2 0
-4 -4 -4 -10z"/>
<path d="M3538 2233 c7 -3 16 -2 19 1 4 3 -2 6 -13 5 -11 0 -14 -3 -6 -6z"/>
<path d="M6590 2215 c0 -18 19 -40 26 -32 4 4 0 15 -9 24 -9 10 -17 13 -17 8z"/>
<path d="M7788 2143 c7 -3 16 -2 19 1 4 3 -2 6 -13 5 -11 0 -14 -3 -6 -6z"/>
<path d="M7890 2079 c0 -5 5 -7 10 -4 6 3 10 8 10 11 0 2 -4 4 -10 4 -5 0 -10
-5 -10 -11z"/>
<path d="M7905 2060 c-3 -5 -1 -10 4 -10 6 0 11 5 11 10 0 6 -2 10 -4 10 -3 0
-8 -4 -11 -10z"/>
<path d="M3653 2038 c-19 -24 -24 -38 -15 -38 5 0 14 11 20 25 13 27 10 32 -5
13z"/>
<path d="M7005 2010 c9 -29 45 -83 52 -77 2 3 -10 27 -27 53 -19 29 -29 39
-25 24z"/>
<path d="M3596 1975 c-20 -20 -20 -22 -1 -22 8 0 17 7 20 15 8 22 0 25 -19 7z"/>
<path d="M6600 1935 c0 -8 5 -15 10 -15 6 0 10 7 10 15 0 8 -4 15 -10 15 -5 0
-10 -7 -10 -15z"/>
<path d="M7670 1905 c0 -9 38 -78 53 -97 33 -41 72 -7 43 37 -15 22 -96 73
-96 60z"/>
<path d="M6115 1858 c8 -29 38 -71 53 -76 6 -2 17 8 24 22 10 23 8 29 -12 51
-13 14 -34 25 -47 25 -20 0 -23 -4 -18 -22z"/>
<path d="M7940 1851 c0 -10 9 -30 20 -44 56 -71 130 -87 130 -28 0 32 -21 54
-73 76 -50 21 -77 20 -77 -4z"/>
<path d="M3651 1843 c-21 -17 -21 -19 -6 -38 16 -19 16 -19 11 -1 -4 11 0 27
10 37 22 24 13 24 -15 2z"/>
<path d="M3120 1831 c0 -6 5 -13 10 -16 6 -3 10 1 10 9 0 9 -4 16 -10 16 -5 0
-10 -4 -10 -9z"/>
<path d="M3670 1819 c0 -5 5 -7 10 -4 6 3 10 8 10 11 0 2 -4 4 -10 4 -5 0 -10
-5 -10 -11z"/>
<path d="M7810 1770 c0 -5 5 -10 10 -10 6 0 10 5 10 10 0 6 -4 10 -10 10 -5 0
-10 -4 -10 -10z"/>
<path d="M3580 1760 c-9 -6 -10 -10 -3 -10 6 0 15 5 18 10 8 12 4 12 -15 0z"/>
<path d="M2947 1723 c-12 -11 -8 -23 8 -23 8 0 15 7 15 15 0 16 -12 20 -23 8z"/>
<path d="M3534 1722 c-6 -4 -27 -25 -47 -48 -36 -40 -36 -41 -12 -40 18 1 33
14 54 49 29 44 30 56 5 39z"/>
<path d="M5778 1720 c-14 -9 -15 -16 -7 -40 8 -22 20 -32 47 -40 20 -5 38 -8
40 -5 8 7 -40 95 -51 95 -7 0 -20 -5 -29 -10z"/>
<path d="M1840 1710 c0 -5 5 -10 10 -10 6 0 10 5 10 10 0 6 -4 10 -10 10 -5 0
-10 -4 -10 -10z"/>
<path d="M6550 1671 c0 -5 5 -13 10 -16 6 -3 10 -2 10 4 0 5 -4 13 -10 16 -5
3 -10 2 -10 -4z"/>
<path d="M1770 1640 c0 -5 7 -7 15 -4 8 4 15 8 15 10 0 2 -7 4 -15 4 -8 0 -15
-4 -15 -10z"/>
<path d="M7070 1615 c0 -15 6 -25 14 -25 19 0 28 14 20 34 -10 25 -34 19 -34
-9z"/>
<path d="M6290 1621 c0 -12 29 -35 36 -28 11 10 -5 37 -21 37 -8 0 -15 -4 -15
-9z"/>
<path d="M3363 1543 c-38 -38 -87 -83 -108 -102 -22 -19 -59 -60 -82 -90 -79
-104 -108 -134 -154 -163 -47 -28 -64 -51 -53 -69 15 -26 57 5 96 71 14 25 60
78 102 118 41 40 94 97 117 125 24 29 70 80 103 115 81 83 66 79 -21 -5z"/>
<path d="M8254 1546 c61 -59 94 -81 84 -57 -4 10 -117 104 -138 115 -8 4 16
-22 54 -58z"/>
<path d="M7880 1543 c0 -14 19 -38 25 -32 8 8 -5 39 -16 39 -5 0 -9 -3 -9 -7z"/>
<path d="M6376 1519 c-13 -19 -12 -25 12 -64 14 -24 34 -46 44 -48 9 -3 27
-20 39 -38 11 -19 18 -25 14 -14 -4 11 -11 32 -15 46 -4 14 -15 39 -24 57 -20
38 -20 42 -1 42 8 0 15 5 15 11 0 6 -9 8 -20 4 -13 -4 -22 -1 -26 9 -8 22 -20
20 -38 -5z"/>
<path d="M4176 1466 c-40 -40 -73 -86 -62 -86 14 0 126 103 126 115 0 25 -19
17 -64 -29z"/>
<path d="M7492 1459 c18 -28 38 -36 38 -16 0 7 -12 19 -27 26 -26 12 -26 12
-11 -10z"/>
<path d="M3957 1426 c-4 -10 -5 -21 -2 -24 9 -9 17 6 13 25 -3 17 -4 17 -11
-1z"/>
<path d="M5883 1415 c10 -21 13 -22 19 -7 11 27 9 32 -11 32 -17 0 -18 -3 -8
-25z"/>
<path d="M3742 1328 c-26 -26 1 -65 38 -53 16 5 20 14 18 33 -3 30 -35 41 -56
20z"/>
<path d="M3952 1324 c-11 -12 -10 -17 2 -30 15 -14 16 -12 16 15 0 35 0 36
-18 15z"/>
<path d="M3372 1298 c-14 -14 -16 -38 -2 -38 9 0 30 31 30 44 0 10 -15 7 -28
-6z"/>
<path d="M8500 1290 c0 -21 29 -65 62 -97 39 -38 78 -37 78 3 0 24 -37 57 -97
88 -38 19 -43 20 -43 6z"/>
<path d="M6520 1265 c0 -42 46 -134 74 -146 34 -16 56 3 56 46 0 26 -10 42
-50 79 -56 52 -80 59 -80 21z"/>
<path d="M3921 1254 c0 -11 3 -14 6 -6 3 7 2 16 -1 19 -3 4 -6 -2 -5 -13z"/>
<path d="M3946 1208 c-3 -13 -6 -47 -6 -77 0 -46 -2 -52 -15 -41 -17 14 -21
35 -5 25 6 -3 10 4 10 16 0 12 -3 19 -7 16 -3 -4 -12 -2 -19 4 -10 8 -15 8
-19 -3 -3 -8 -7 -174 -8 -370 -2 -337 -1 -357 17 -377 11 -11 25 -21 33 -21
32 0 36 51 35 449 -1 217 -3 396 -6 398 -2 2 -6 -7 -10 -19z m-7 -205 c-1 -53
-6 -49 -11 10 -2 20 0 37 4 37 4 0 8 -21 7 -47z"/>
<path d="M1497 1170 c-31 -25 -35 -40 -9 -40 25 0 59 37 45 51 -6 6 -18 3 -36
-11z"/>
<path d="M1997 1116 c-6 -16 2 -28 14 -20 12 7 11 34 0 34 -5 0 -11 -6 -14
-14z"/>
<path d="M4245 1099 c-10 -15 3 -25 16 -12 7 7 7 13 1 17 -6 3 -14 1 -17 -5z"/>
<path d="M3622 1075 c-13 -28 -16 -55 -6 -55 13 0 44 44 44 62 0 27 -25 22
-38 -7z"/>
<path d="M3366 1064 c-5 -14 -4 -15 9 -4 17 14 19 20 6 20 -5 0 -12 -7 -15
-16z"/>
<path d="M3242 977 c-26 -27 -28 -52 -6 -61 37 -14 86 54 53 75 -20 12 -23 12
-47 -14z"/>
<path d="M3561 894 c0 -11 3 -14 6 -6 3 7 2 16 -1 19 -3 4 -6 -2 -5 -13z"/>
<path d="M4315 847 c-4 -10 -5 -21 -1 -24 10 -10 18 4 13 24 -4 17 -4 17 -12
0z"/>
<path d="M3180 760 c0 -5 4 -10 9 -10 6 0 13 5 16 10 3 6 -1 10 -9 10 -9 0
-16 -4 -16 -10z"/>
<path d="M3406 554 c-11 -28 -6 -39 9 -20 8 11 15 23 15 28 0 14 -18 9 -24 -8z"/>
<path d="M3265 159 c-4 -6 -3 -15 3 -21 6 -6 11 -4 15 6 7 18 -9 31 -18 15z"/>
</g>
</svg>
