<?xml version="1.0" standalone="no"?>
<!DOCTYPE svg PUBLIC "-//W3C//DTD SVG 20010904//EN"
 "http://www.w3.org/TR/2001/REC-SVG-20010904/DTD/svg10.dtd">
<svg version="1.0" xmlns="http://www.w3.org/2000/svg"
 width="512.000000pt" height="512.000000pt" viewBox="0 0 512.000000 512.000000"
 preserveAspectRatio="xMidYMid meet">
<metadata>
Created by potrace 1.14, written by Peter Selinger 2001-2017
</metadata>
<g transform="translate(0.000000,512.000000) scale(0.100000,-0.100000)"
fill="#000000" stroke="none">
<path d="M0 2560 l0 -2560 2560 0 2560 0 0 2560 0 2560 -2560 0 -2560 0 0
-2560z m2595 1690 c-3 -5 -12 -10 -18 -10 -7 0 -6 4 3 10 19 12 23 12 15 0z
m-315 -15 c0 -8 -6 -15 -12 -16 -9 0 -9 -2 1 -6 10 -4 8 -9 -10 -19 -22 -13
-21 -13 21 -8 24 2 46 7 49 9 2 3 9 1 15 -4 13 -9 98 -2 91 8 -2 4 13 5 33 1
20 -3 36 -11 35 -18 -2 -6 4 -9 12 -6 8 4 13 9 11 13 -2 3 38 7 90 8 58 1 92
-2 89 -7 -4 -6 -1 -10 4 -10 6 0 11 6 12 13 0 10 2 10 6 0 2 -7 17 -13 33 -13
39 0 60 -9 60 -27 0 -10 -6 -13 -17 -8 -14 5 -15 4 -6 -6 10 -10 15 -9 27 1 9
7 13 17 9 23 -3 6 -1 7 6 3 7 -4 10 -13 8 -19 -6 -19 19 -37 50 -36 l28 1 -34
12 c-29 10 -31 13 -17 25 12 10 16 10 16 1 0 -7 6 -10 13 -7 46 17 57 18 57 3
0 -10 15 -17 48 -22 26 -5 50 -7 55 -6 4 1 7 -5 7 -14 0 -14 -3 -14 -15 -4
-12 10 -18 10 -32 -1 -9 -8 -14 -9 -10 -3 10 17 -62 29 -77 14 -8 -9 -7 -11 4
-10 8 1 26 -1 38 -5 18 -6 20 -10 10 -16 -9 -6 -4 -9 15 -9 17 0 27 5 27 15 0
8 5 15 11 15 5 0 8 -3 6 -7 -3 -5 1 -13 8 -20 11 -10 14 -10 18 0 2 8 11 7 30
-6 28 -18 38 -43 13 -34 -7 3 -18 1 -24 -5 -13 -13 -73 -17 -94 -6 -12 6 -18
5 -18 -2 0 -6 -4 -8 -10 -5 -5 3 -10 3 -10 -2 0 -4 -48 -8 -108 -8 -223 0
-156 -10 98 -15 191 -4 123 -6 -240 -6 -326 0 -427 2 -285 6 213 5 193 9 -80
14 -82 1 -145 -2 -170 -10 l-40 -13 35 -1 c32 -2 31 -3 -15 -12 -34 -6 -55 -6
-67 1 -12 7 -18 8 -18 1 0 -5 6 -10 13 -11 6 0 -4 -6 -23 -13 -66 -25 -83 -28
-76 -18 3 5 22 13 41 16 19 4 35 11 35 16 0 13 -28 8 -66 -13 -28 -14 -33 -15
-44 -2 -9 11 -9 15 -1 15 6 0 11 -5 11 -11 0 -5 5 -7 10 -4 14 9 13 21 -2 23
-57 5 -75 22 -70 66 4 31 6 34 19 21 20 -21 26 -19 13 4 -13 25 -13 44 1 36 5
-4 26 1 45 10 19 9 44 18 56 20 11 3 36 9 54 15 36 12 56 7 48 -13 -6 -16 63
-10 73 6 3 6 1 7 -5 3 -7 -4 -12 -3 -12 3 0 5 8 15 18 20 15 9 15 12 2 21 -13
8 -13 10 3 10 16 0 19 4 21 33 1 11 20 25 39 26 4 1 7 -6 7 -14z m30 0 c0 -8
-4 -15 -10 -15 -5 0 -7 7 -4 15 4 8 8 15 10 15 2 0 4 -7 4 -15z m79 12 c-10
-9 -59 -17 -59 -9 0 4 14 9 32 10 18 2 30 1 27 -1z m304 -4 c-7 -2 -19 -2 -25
0 -7 3 -2 5 12 5 14 0 19 -2 13 -5z m-523 -35 c0 -16 -3 -19 -11 -11 -6 6 -8
16 -5 22 11 17 16 13 16 -11z m615 12 c3 -5 1 -10 -4 -10 -6 0 -11 5 -11 10 0
6 2 10 4 10 3 0 8 -4 11 -10z m130 -1 c11 -17 -1 -21 -15 -4 -8 9 -8 15 -2 15
6 0 14 -5 17 -11z m-715 -3 c0 -3 -4 -8 -10 -11 -5 -3 -10 -1 -10 4 0 6 5 11
10 11 6 0 10 -2 10 -4z m-482 -18 c7 -7 12 -16 12 -22 0 -5 -6 -2 -12 7 -11
15 -41 17 -248 20 l-235 2 236 3 c172 1 238 -1 247 -10z m422 3 c0 -8 -41 -23
-48 -18 -2 1 -8 -6 -13 -15 -11 -19 -54 -24 -79 -8 -19 12 -16 13 55 32 72 19
85 21 85 9z m840 0 c0 -6 -4 -13 -10 -16 -5 -3 -10 1 -10 9 0 9 5 16 10 16 6
0 10 -4 10 -9z m-1760 -1143 c0 -622 -2 -1129 -5 -1126 -3 2 -5 244 -5 536 -1
423 -3 530 -14 526 -8 -3 -11 -20 -9 -47 7 -95 6 -100 -13 -116 -11 -9 -19
-22 -18 -28 1 -7 2 -22 3 -34 0 -11 5 -18 10 -15 5 3 6 -8 2 -27 -9 -42 -7
-68 9 -96 7 -15 8 -21 1 -17 -10 6 -16 -13 -12 -36 2 -13 -3 -9 -23 14 -15 18
-16 20 -2 15 25 -10 19 8 -8 23 -14 7 -22 18 -19 26 7 19 21 17 19 -2 0 -9 6
-19 14 -22 12 -4 13 -2 4 9 -11 14 -11 45 0 57 3 3 -2 15 -11 26 -17 20 -17
20 1 6 18 -14 18 -13 11 20 -4 19 -11 40 -16 46 -5 6 -6 14 -3 17 3 3 7 22 9
42 1 21 8 41 16 46 10 6 10 9 2 9 -7 0 -12 11 -11 25 1 14 7 25 13 25 6 0 10
25 10 59 0 33 2 58 4 56 2 -2 9 2 16 8 9 8 10 18 4 30 -7 11 -6 17 1 17 7 0
11 12 10 28 -5 64 0 1032 5 1032 3 0 5 -509 5 -1132z m492 911 l3 -220 55 42
c66 50 211 120 312 151 71 21 90 22 585 26 561 3 621 -1 760 -54 37 -14 78
-27 90 -28 11 0 19 -5 15 -10 -3 -5 2 -6 12 -3 9 4 15 3 12 -2 -7 -10 92 -73
104 -66 4 3 14 -3 21 -13 13 -16 12 -16 -6 -2 -20 15 -20 14 -1 -8 19 -22 43
-31 31 -12 -13 22 3 7 65 -57 36 -37 57 -61 48 -54 -27 20 -22 6 17 -44 104
-137 157 -353 121 -494 -37 -144 -145 -282 -300 -381 -47 -30 -85 -57 -85 -60
-1 -3 25 -16 56 -30 73 -31 199 -125 245 -181 109 -134 135 -314 79 -534 -96
-374 -475 -692 -879 -736 -159 -17 -1057 -6 -1147 14 -231 52 -422 179 -554
367 -29 41 -57 74 -62 73 -4 -2 -5 5 -2 14 4 9 2 14 -3 11 -5 -4 -10 4 -11 15
-1 12 -14 56 -30 97 l-28 75 -3 1163 -2 1162 240 0 240 0 2 -221z m473 201 c3
-5 1 -10 -4 -10 -6 0 -11 5 -11 10 0 6 2 10 4 10 3 0 8 -4 11 -10z m875 6 c0
-2 -7 -7 -16 -10 -8 -3 -12 -2 -9 4 6 10 25 14 25 6z m-1065 -36 c3 -6 0 -10
-7 -10 -7 0 -19 9 -26 21 -12 19 -11 19 7 10 11 -6 23 -16 26 -21z m1155 -33
c14 -16 21 -28 15 -27 -21 5 -29 -1 -15 -10 22 -14 5 -23 -19 -10 -22 11 -29
32 -10 28 6 -2 14 3 17 11 3 10 0 12 -11 8 -11 -4 -13 0 -10 14 3 11 6 18 7
17 0 -2 12 -16 26 -31z m129 -37 c11 0 21 -7 25 -15 3 -8 13 -15 23 -16 16 0
16 -1 -2 -8 -14 -6 -27 -1 -45 16 -25 23 -47 25 -42 4 3 -14 -15 -15 -23 -1
-3 6 -1 10 5 10 7 0 10 6 7 14 -8 19 16 27 26 10 4 -8 16 -14 26 -14z m141
-20 c0 -5 -2 -10 -4 -10 -3 0 -8 5 -11 10 -3 6 -1 10 4 10 6 0 11 -4 11 -10z
m-240 -14 c0 -3 -4 -8 -10 -11 -5 -3 -10 -1 -10 4 0 6 5 11 10 11 6 0 10 -2
10 -4z m88 -63 c-10 -2 -26 -2 -35 0 -10 3 -2 5 17 5 19 0 27 -2 18 -5z m97
-18 c54 -17 33 -18 -30 -1 -27 8 -41 14 -30 14 11 0 38 -5 60 -13z m105 -35
c8 -5 11 -10 5 -10 -5 0 -17 5 -25 10 -8 5 -10 10 -5 10 6 0 17 -5 25 -10z
m173 -99 c7 -8 -7 -2 -30 14 -24 15 -43 30 -43 32 0 7 61 -31 73 -46z m-2503
-161 c0 -5 -2 -10 -4 -10 -3 0 -8 5 -11 10 -3 6 -1 10 4 10 6 0 11 -4 11 -10z
m-73 -124 c-50 -77 -69 -87 -27 -16 33 56 51 79 62 80 4 0 -11 -29 -35 -64z
m-74 -116 c-3 -11 -9 -20 -15 -20 -5 0 -4 9 2 20 6 11 12 20 14 20 2 0 2 -9
-1 -20z m-13 -39 c0 -6 -4 -13 -10 -16 -5 -3 -10 1 -10 9 0 9 5 16 10 16 6 0
10 -4 10 -9z m175 -12 c-10 -15 -25 -10 -19 6 4 8 10 12 15 9 5 -3 7 -10 4
-15z m-19 -58 c-12 -12 -19 -12 -28 -3 -9 9 -7 13 5 18 9 3 14 11 10 18 -4 6
1 5 11 -3 15 -13 15 -16 2 -30z m24 -26 c0 -14 -4 -25 -10 -25 -5 0 -7 -7 -4
-15 4 -9 0 -15 -7 -15 -8 0 -3 -9 11 -20 14 -11 20 -20 13 -20 -6 0 -14 4 -18
10 -3 5 -11 7 -19 4 -7 -3 -13 2 -13 10 0 8 6 17 13 20 14 6 12 38 -3 43 -6 2
-19 -4 -28 -14 -17 -16 -17 -16 -10 7 10 33 10 33 34 20 19 -10 25 -7 22 13 0
4 4 7 9 7 6 0 10 -11 10 -25z m-215 5 c3 -5 1 -10 -4 -10 -6 0 -11 5 -11 10 0
6 2 10 4 10 3 0 8 -4 11 -10z m132 -92 c2 -16 0 -16 -13 -4 -17 18 -18 23 -1
23 7 0 14 -9 14 -19z m91 -49 c-3 -16 -1 -29 3 -29 5 0 4 -12 -1 -26 -6 -14
-10 -43 -10 -64 0 -21 -6 -45 -13 -52 -6 -7 -11 -28 -10 -45 1 -18 -3 -33 -9
-33 -5 0 -6 -9 -3 -20 5 -16 2 -20 -14 -20 -12 0 -21 -5 -21 -11 0 -5 4 -8 9
-4 5 3 8 -9 6 -27 -2 -18 -4 -41 -4 -50 -1 -10 -6 -18 -12 -18 -7 0 -9 10 -5
26 4 14 2 31 -3 38 -7 8 -7 24 -1 47 11 39 10 80 -2 73 -4 -3 -8 -16 -8 -30 0
-13 -4 -24 -10 -24 -5 0 -10 9 -10 21 0 11 -4 17 -10 14 -6 -4 -4 -18 6 -37 9
-16 11 -27 5 -24 -6 4 -11 2 -11 -3 0 -6 -5 -11 -11 -11 -6 0 -9 7 -6 15 4 8
2 17 -3 20 -5 3 -11 -9 -13 -27 -3 -29 -4 -28 -5 10 -1 26 2 42 10 42 6 0 8 3
5 7 -4 3 2 12 13 20 11 8 19 22 19 31 -1 15 -2 15 -6 0 -2 -10 -9 -18 -14 -18
-7 0 -8 26 -3 70 l7 71 -32 -6 c-36 -6 -37 -5 -12 23 18 21 38 31 27 13 -3 -4
4 -17 15 -27 21 -19 21 -19 18 2 -4 21 18 73 36 86 5 4 17 5 27 2 9 -2 19 0
22 5 13 21 38 -1 34 -30z m-97 -381 c-3 -21 -6 -26 -9 -15 -3 17 3 47 11 47 2
0 1 -15 -2 -32z m8 -71 c12 -34 6 -67 -10 -67 -17 0 -22 30 -8 47 8 9 9 14 3
10 -7 -4 -11 2 -11 18 0 35 13 31 26 -8z m-4 -107 c3 -5 1 -10 -4 -10 -6 0
-11 5 -11 10 0 6 2 10 4 10 3 0 8 -4 11 -10z m-8 -67 c-3 -10 -5 -2 -5 17 0
19 2 27 5 18 2 -10 2 -26 0 -35z m40 -155 c-3 -8 -6 -5 -6 6 -1 11 2 17 5 13
3 -3 4 -12 1 -19z m120 -500 c-3 -7 -5 -2 -5 12 0 14 2 19 5 13 2 -7 2 -19 0
-25z m53 -153 c0 -5 -5 -3 -10 5 -5 8 -10 20 -10 25 0 6 5 3 10 -5 5 -8 10
-19 10 -25z"/>
<path d="M2573 4175 c0 -8 4 -12 9 -9 5 3 6 10 3 15 -9 13 -12 11 -12 -6z"/>
<path d="M2610 4180 c-8 -5 -10 -10 -5 -10 6 0 17 5 25 10 8 5 11 10 5 10 -5
0 -17 -5 -25 -10z"/>
<path d="M3750 3718 c24 -27 45 -48 47 -48 8 0 0 9 -44 50 l-48 45 45 -47z"/>
<path d="M2053 3525 c-120 -33 -216 -106 -261 -197 -52 -106 -53 -133 -50
-768 l3 -585 31 -65 c57 -119 151 -201 277 -243 58 -19 91 -21 497 -25 272 -2
456 0 490 6 78 15 172 51 164 64 -4 7 -2 8 4 4 14 -8 75 22 67 33 -2 5 3 15
12 22 12 10 14 10 9 1 -15 -25 11 -11 47 26 34 35 49 61 28 48 -4 -3 6 21 23
54 17 32 32 57 34 55 2 -2 -8 -26 -22 -54 -15 -28 -24 -51 -21 -51 3 0 20 30
38 67 29 63 32 75 31 170 -1 89 -4 108 -28 157 -66 135 -216 226 -455 277 -83
18 -347 38 -498 39 l-53 0 0 -315 0 -315 -74 0 -75 0 -3 98 c-2 53 -2 319 0
590 l3 493 72 -3 72 -3 3 -197 2 -198 168 0 c252 0 448 41 592 123 72 41 160
129 191 192 21 44 24 64 24 160 0 132 -12 162 -95 246 -38 38 -74 63 -115 80
l-60 24 -510 2 c-417 2 -520 -1 -562 -12z m930 -389 c-4 -6 2 -4 12 4 14 11
19 12 22 3 3 -7 9 -13 14 -13 6 0 7 5 4 10 -7 12 8 14 19 3 4 -4 24 -8 44 -9
64 -2 73 -4 67 -14 -3 -6 1 -7 9 -4 9 3 13 11 9 18 -4 6 0 5 9 -2 11 -9 30
-11 52 -8 22 4 36 2 36 -5 0 -5 -4 -8 -9 -5 -5 3 -14 -1 -20 -8 -10 -12 -8
-13 9 -9 16 4 19 2 13 -12 -5 -15 -2 -17 18 -12 23 6 24 6 4 -10 -19 -15 -19
-15 8 -9 15 4 27 3 27 -2 0 -5 7 -9 15 -9 10 0 13 8 10 26 -5 22 -4 23 4 6
l10 -20 1 20 c1 11 4 15 6 8 9 -21 -47 -115 -97 -164 -63 -61 -133 -101 -244
-138 -95 -32 -255 -62 -315 -60 l-35 2 40 7 c22 4 32 8 23 9 -18 1 -36 69 -40
154 -1 26 -5 47 -9 47 -4 0 -5 10 -2 23 3 12 6 30 6 40 1 9 5 17 9 17 4 0 8 7
8 16 0 10 5 14 15 10 17 -6 37 31 27 48 -3 5 0 6 6 2 6 -4 23 1 37 10 14 9 32
14 40 10 9 -3 13 -2 10 3 -3 6 8 9 25 9 17 -1 36 4 42 10 14 14 69 13 61 -2z
m404 -28 c-3 -7 -5 -2 -5 12 0 14 2 19 5 13 2 -7 2 -19 0 -25z m-1130 -110
c-3 -8 -6 -5 -6 6 -1 11 2 17 5 13 3 -3 4 -12 1 -19z m0 -575 c-2 -27 -3 -5
-3 47 0 52 1 74 3 48 2 -27 2 -69 0 -95z m1103 -596 c0 -2 -12 -14 -27 -28
l-28 -24 24 28 c23 25 31 32 31 24z m-100 -82 c0 -2 -10 -9 -22 -15 -22 -11
-22 -10 -4 4 21 17 26 19 26 11z m-80 -45 c-8 -5 -19 -10 -25 -10 -5 0 -3 5 5
10 8 5 20 10 25 10 6 0 3 -5 -5 -10z m-113 -36 c-3 -3 -12 -4 -19 -1 -8 3 -5
6 6 6 11 1 17 -2 13 -5z m-184 -11 c-29 -2 -78 -2 -110 0 -32 2 -8 3 52 3 61
0 87 -1 58 -3z"/>
<path d="M3335 3019 c-4 -6 -5 -12 -2 -15 2 -3 7 2 10 11 7 17 1 20 -8 4z"/>
<path d="M3299 2995 c-1 -3 -2 -8 -3 -12 -1 -5 -7 -18 -14 -30 -17 -30 -11
-29 22 6 22 23 25 29 12 34 -9 4 -17 4 -17 2z"/>
<path d="M3389 1823 c-13 -16 -12 -17 4 -4 16 13 21 21 13 21 -2 0 -10 -8 -17
-17z"/>
<path d="M3876 1803 c-6 -14 -5 -15 5 -6 7 7 10 15 7 18 -3 3 -9 -2 -12 -12z"/>
<path d="M3349 1773 l-24 -28 28 24 c25 23 32 31 24 31 -2 0 -14 -12 -28 -27z"/>
<path d="M3299 1733 c-13 -16 -12 -17 4 -4 16 13 21 21 13 21 -2 0 -10 -8 -17
-17z"/>
<path d="M3210 1680 c-9 -6 -10 -10 -3 -10 6 0 15 5 18 10 8 12 4 12 -15 0z"/>
<path d="M3135 1650 c-13 -6 -15 -9 -5 -9 8 0 22 4 30 9 18 12 2 12 -25 0z"/>
<path d="M3769 1633 c-13 -16 -12 -17 4 -4 16 13 21 21 13 21 -2 0 -10 -8 -17
-17z"/>
<path d="M3048 1623 c6 -2 18 -2 25 0 6 3 1 5 -13 5 -14 0 -19 -2 -12 -5z"/>
<path d="M2213 1613 c9 -2 25 -2 35 0 9 3 1 5 -18 5 -19 0 -27 -2 -17 -5z"/>
<path d="M2618 1613 c12 -2 30 -2 40 0 9 3 -1 5 -23 4 -22 0 -30 -2 -17 -4z"/>
<path d="M2803 1613 c43 -2 110 -2 150 0 40 1 5 3 -78 3 -82 0 -115 -2 -72 -3z"/>
<path d="M3714 1568 l-29 -33 33 29 c30 28 37 36 29 36 -2 0 -16 -15 -33 -32z"/>
<path d="M3624 1478 l-19 -23 23 19 c21 18 27 26 19 26 -2 0 -12 -10 -23 -22z"/>
<path d="M2013 1223 c9 -2 25 -2 35 0 9 3 1 5 -18 5 -19 0 -27 -2 -17 -5z"/>
<path d="M3048 1223 c7 -3 16 -2 19 1 4 3 -2 6 -13 5 -11 0 -14 -3 -6 -6z"/>
<path d="M1084 3143 c3 -7 1 -15 -5 -18 -11 -7 -2 -25 12 -25 6 0 8 4 5 9 -3
5 6 17 21 26 25 17 26 17 20 -4 -3 -11 -1 -19 4 -15 5 3 9 13 9 23 0 13 -8 17
-35 17 -25 0 -34 -4 -31 -13z"/>
</g>
</svg>
